<?xml version="1.0" encoding="utf-8"?>
<!-- Generator: Adobe Illustrator 21.0.0, SVG Export Plug-In . SVG Version: 6.00 Build 0)  -->
<svg version="1.1" id="图层_1" xmlns="http://www.w3.org/2000/svg" xmlns:xlink="http://www.w3.org/1999/xlink" x="0px" y="0px"
	 viewBox="0 0 750 1068.7" style="enable-background:new 0 0 750 1068.7;" xml:space="preserve">
<style type="text/css">
	.st0{fill:#FFFFFF;stroke:#00ACCB;stroke-width:4;stroke-miterlimit:10;}
	.st1{fill:none;stroke:#00ACCB;stroke-width:4;stroke-miterlimit:10;}
	.st2{fill:#FFFFFF;stroke:#00ACCB;stroke-width:3;stroke-miterlimit:10;}
	.st3{fill:#FEDD5C;}
	.st4{fill:none;stroke:#00ACCB;stroke-width:3;stroke-miterlimit:10;}
	.st5{fill:#F9E073;stroke:#00ACCB;stroke-width:3;stroke-miterlimit:10;}
	.st6{fill:#FDA3B1;stroke:#15A2C8;stroke-width:4;stroke-miterlimit:10;}
	.st7{fill:#01AAC6;}
	.st8{fill:#00ABC8;}
	.st9{fill:#FDA3B1;stroke:#15A2C8;stroke-width:3;stroke-miterlimit:10;}
	.st10{fill:#FFFFFF;stroke:#00ACCB;stroke-width:2;stroke-miterlimit:10;}
	.st11{fill:#00ACCB;}
	.st12{fill:#00ABC8;stroke:#00ABC8;stroke-width:4;stroke-miterlimit:10;}
	.st13{fill:#FFFFFF;stroke:#00ABC8;stroke-width:3;stroke-miterlimit:10;}
	.st14{fill:#F4E21E;stroke:#00ACCB;stroke-width:3;stroke-miterlimit:10;}
	.st15{fill:#00ABC8;stroke:#00ABC8;stroke-width:2;stroke-miterlimit:10;}
	.st16{fill:#FFA2C1;stroke:#15A2C8;stroke-width:3;stroke-miterlimit:10;}
	.st17{fill:#FFFFFF;}
	.st18{clip-path:url(#SVGID_2_);}
	.st19{fill:#F9E073;stroke:#13A2BF;stroke-width:4;stroke-miterlimit:10;}
	.st20{fill:#FFA2C1;stroke:#15A2C8;stroke-width:4;stroke-miterlimit:10;}
	.st21{fill:#F9E073;}
</style>
<path class="st0" d="M200.6,1066.8H61.3c-11,0-20-9-20-20v-459c0-11,9-20,20-20h139c11,0,20,9,20,20v459.3
	C220.3,1058,211.5,1066.8,200.6,1066.8z"/>
<path class="st0" d="M684.7,827.8H553c-11,0-19.9-8.9-19.9-19.9V640.8c0-12.4,11.2-21.8,23.4-19.6L688.2,645
	c9.5,1.7,16.3,9.9,16.3,19.6v143.3C704.5,818.9,695.6,827.8,684.7,827.8z"/>
<path class="st1" d="M585.1,705.5c0,0,7.9,7.2,10.9,22.9"/>
<path class="st2" d="M575.4,687.3c0,0,1.1-10.2,9.1-10.2s3,10.2,3,10.2s10.6-3.8,11.7,0s-1.9,8.9-6.4,8.5c0,0,1.1,10.8-3,11.2
	c-4.2,0.4-5.7,1.5-10.2,0c0,0-4.9,8.7-12.7,5.1c0,0-2.5-3.4,0-5.1c2.5-1.7-7.4,1.9-8.5-3.6s7.4-6.4,10.2-5.9c0,0-9.1-0.9-4.7-9.8
	C568.2,678.8,576.6,683.9,575.4,687.3z"/>
<path class="st3" d="M575.3,703.7l-5.2-2.3c-0.7-0.3-1.1-1.2-0.7-1.9l0,0c0.3-0.7,1.2-1.1,1.9-0.7l5.2,2.3c0.7,0.3,1.1,1.2,0.7,1.9
	l0,0C576.9,703.7,576.1,704,575.3,703.7z"/>
<path class="st3" d="M578.3,700l-3.9-5.7c-0.4-0.7-0.3-1.6,0.4-2l0,0c0.7-0.4,1.6-0.3,2,0.4l3.9,5.7c0.4,0.7,0.3,1.6-0.4,2l0,0
	C579.6,700.8,578.7,700.6,578.3,700z"/>
<path class="st3" d="M582.5,697.4l-1.7-5c-0.3-0.8,0.1-1.6,0.9-1.8l0,0c0.8-0.3,1.6,0.1,1.8,0.9l1.7,5c0.3,0.8-0.1,1.6-0.9,1.8l0,0
	C583.6,698.6,582.7,698.1,582.5,697.4z"/>
<path class="st1" d="M612.6,705.1c0,0,5.4,9.2,3.7,25.1"/>
<path class="st2" d="M608.6,684.9c0,0,4.1-9.4,11.7-7.1c7.6,2.3-0.1,10.7-0.1,10.7s11.2-0.5,11.2,3.4s-4.4,7.9-8.7,6.2
	c0,0-2.1,10.6-6.2,9.8c-4.1-0.9-5.9-0.2-9.8-3c0,0-7.3,6.9-13.6,1.2c0,0-1.4-4,1.5-4.9s-7.6-0.4-7.1-5.9c0.5-5.6,8.9-4,11.5-2.6
	c0,0-8.4-3.6-1.6-10.8C604.3,674.6,610.7,682,608.6,684.9z"/>
<path class="st3" d="M603.8,700.5l-4.3-3.7c-0.6-0.5-0.7-1.5-0.1-2.1l0,0c0.5-0.6,1.5-0.7,2.1-0.1l4.3,3.7c0.6,0.5,0.7,1.5,0.1,2.1
	l0,0C605.3,700.9,604.4,701,603.8,700.5z"/>
<path class="st3" d="M607.7,697.8l-2-6.6c-0.2-0.8,0.2-1.6,1-1.8l0,0c0.8-0.2,1.6,0.2,1.8,1l2,6.6c0.2,0.8-0.2,1.6-1,1.8l0,0
	C608.7,699,607.9,698.6,607.7,697.8z"/>
<path class="st3" d="M612.4,696.6l-0.2-5.3c0-0.8,0.6-1.5,1.4-1.5l0,0c0.8,0,1.5,0.6,1.5,1.4l0.2,5.3c0,0.8-0.6,1.5-1.4,1.5l0,0
	C613.1,698,612.5,697.4,612.4,696.6z"/>
<path class="st4" d="M629.7,699.8c0,0-5.7,19.4-4,59.9"/>
<path class="st2" d="M630.3,679.9c0,0-4.1-9.4-11.7-7.1c-7.6,2.3,0.1,10.7,0.1,10.7s-11.2-0.5-11.2,3.4s4.4,7.9,8.7,6.2
	c0,0,2.1,10.6,6.2,9.8s5.9-0.2,9.8-3c0,0,7.3,6.9,13.6,1.2c0,0,1.4-4-1.5-4.9s7.6-0.4,7.1-5.9c-0.5-5.6-8.9-4-11.5-2.6
	c0,0,8.4-3.6,1.6-10.8C634.7,669.7,628.2,677,630.3,679.9z"/>
<path class="st3" d="M635.2,695.5l4.3-3.7c0.6-0.5,0.7-1.5,0.1-2.1l0,0c-0.5-0.6-1.5-0.7-2.1-0.1l-4.3,3.7c-0.6,0.5-0.7,1.5-0.1,2.1
	l0,0C633.7,696,634.6,696,635.2,695.5z"/>
<path class="st3" d="M631.3,692.9l2-6.6c0.2-0.8-0.2-1.6-1-1.8l0,0c-0.8-0.2-1.6,0.2-1.8,1l-2,6.6c-0.2,0.8,0.2,1.6,1,1.8l0,0
	C630.2,694.1,631.1,693.6,631.3,692.9z"/>
<path class="st3" d="M626.5,691.6l0.2-5.3c0-0.8-0.6-1.5-1.4-1.5l0,0c-0.8,0-1.5,0.6-1.5,1.4l-0.2,5.3c0,0.8,0.6,1.5,1.4,1.5l0,0
	C625.8,693,626.5,692.4,626.5,691.6z"/>
<path class="st1" d="M651.2,704.7c0,0-5.4,9.2-3.7,25.1"/>
<path class="st2" d="M655.1,684.5c0,0-4.1-9.4-11.7-7.1c-7.6,2.3,0.1,10.7,0.1,10.7s-11.2-0.5-11.2,3.4s4.4,7.9,8.7,6.2
	c0,0,2.1,10.6,6.2,9.8c4.1-0.9,5.9-0.2,9.8-3c0,0,7.3,6.9,13.6,1.2c0,0,1.4-4-1.5-4.9s7.6-0.4,7.1-5.9s-8.9-4-11.5-2.6
	c0,0,8.4-3.6,1.6-10.8C659.5,674.2,653,681.5,655.1,684.5z"/>
<path class="st3" d="M660,700l4.3-3.7c0.6-0.5,0.7-1.5,0.1-2.1l0,0c-0.5-0.6-1.5-0.7-2.1-0.1l-4.3,3.7c-0.6,0.5-0.7,1.5-0.1,2.1l0,0
	C658.5,700.5,659.4,700.6,660,700z"/>
<path class="st3" d="M656.1,697.4l2-6.6c0.2-0.8-0.2-1.6-1-1.8l0,0c-0.8-0.2-1.6,0.2-1.8,1l-2,6.6c-0.2,0.8,0.2,1.6,1,1.8l0,0
	C655.1,698.6,655.9,698.2,656.1,697.4z"/>
<path class="st3" d="M651.3,696.2l0.2-5.3c0-0.8-0.6-1.5-1.4-1.5l0,0c-0.8,0-1.5,0.6-1.5,1.4l-0.2,5.3c0,0.8,0.6,1.5,1.4,1.5l0,0
	C650.6,697.6,651.3,697,651.3,696.2z"/>
<path class="st4" d="M634,725.7c0,0-2.3,13.9,3.5,40.8"/>
<path class="st2" d="M637.1,709.7c0,0-3.2-7.5-9.3-5.6c-6,1.8,0.1,8.4,0.1,8.4s-8.9-0.4-8.9,2.7c0,3.1,3.5,6.3,6.9,4.9
	c0,0,1.6,8.4,4.9,7.7s4.7-0.2,7.7-2.4c0,0,5.8,5.4,10.8,0.9c0,0,1.1-3.2-1.2-3.9s6-0.3,5.6-4.7s-7.1-3.2-9.1-2.1
	c0,0,6.7-2.8,1.3-8.6C640.5,701.5,635.4,707.4,637.1,709.7z"/>
<path class="st3" d="M640.9,722l3.4-2.9c0.5-0.4,0.5-1.2,0.1-1.6l0,0c-0.4-0.5-1.2-0.5-1.6-0.1l-3.4,2.9c-0.5,0.4-0.5,1.2-0.1,1.6
	l0,0C639.7,722.4,640.5,722.4,640.9,722z"/>
<path class="st3" d="M637.8,719.9l1.6-5.2c0.2-0.6-0.2-1.3-0.8-1.4l0,0c-0.6-0.2-1.3,0.2-1.4,0.8l-1.6,5.2c-0.2,0.6,0.2,1.3,0.8,1.4
	l0,0C637,720.9,637.7,720.5,637.8,719.9z"/>
<path class="st3" d="M634.1,718.9l0.1-4.2c0-0.6-0.5-1.2-1.1-1.2l0,0c-0.6,0-1.2,0.5-1.2,1.1l-0.1,4.2c0,0.6,0.5,1.2,1.1,1.2l0,0
	C633.5,720.1,634,719.6,634.1,718.9z"/>
<path class="st0" d="M688.2,234.7l-132.7,28c-11.9,2.5-23-6.9-23-19.5V39.6c0-11,8.6-19.9,19.2-19.9h132.7
	c10.6,0,19.2,8.9,19.2,19.9v175.7C703.5,224.7,697.1,232.8,688.2,234.7z"/>
<rect x="546.6" y="19.7" class="st5" width="9.1" height="126.6"/>
<rect x="564.2" y="19.7" class="st5" width="9.1" height="126.6"/>
<rect x="579.9" y="19.7" class="st5" width="9.1" height="126.6"/>
<rect x="650.7" y="19.7" class="st5" width="9.1" height="126.6"/>
<rect x="681.2" y="19.7" class="st5" width="9.1" height="126.6"/>
<rect x="664.3" y="19.7" class="st5" width="9.1" height="126.6"/>
<path class="st0" d="M198.6,554.1H61.3c-11,0-20-9-20-20V349.9c0-11,9-20,20-20h137.3c11,0,20,9,20,20v184.2
	C218.6,545.2,209.7,554.1,198.6,554.1z"/>
<path class="st6" d="M498.4,827.8H254c-11,0-19.9-8.9-19.9-19.9V593.1c0-12.2,10.9-21.5,23-19.6l244.4,38.8
	c9.7,1.5,16.8,9.9,16.8,19.6v176C518.3,818.9,509.4,827.8,498.4,827.8z"/>
<path class="st0" d="M683.2,1062.9H254.7c-11,0-20-9-20-20V860.7c0-11,9-20,20-20h429.2c11,0,20,9,20,20v181.5
	C703.9,1053.6,694.6,1062.9,683.2,1062.9z"/>
<path class="st7" d="M283.9,1012.9c0,0-6.7-8.2-1.4-16.4c5.3-8.3,13.2-6.3,19.4-37.4c6.3-31.1,53.3-14.9,53.3-14.9l3,24.8
	L283.9,1012.9z"/>
<path class="st8" d="M282.4,1013c0,0,14.5-5,23.7-24.9c9.2-19.8,26-28.1,52-19.2c0,0,1.4,4.6,2.2,14.2c0.8,9.6-77.8,33.5-77.8,33.5
	v-3.6H282.4z"/>
<path class="st2" d="M308.7,997.4c0,0,11.8-23.5,34.2-19.9s22,5.6,4.9,21.5L308.7,997.4z"/>
<path class="st2" d="M308.7,997.4l-2-3c0,0-5.8,13.3-23.7,21.9c-0.2,0.1-0.1,0.3,0.1,0.3H341c0,0,3-4,0-9.6s1.3-8.2,1.3-8.2
	L308.7,997.4z"/>
<path class="st5" d="M303.4,963.9c9.8-3.4,34.8-11.3,48.9-6.5c2.8,0.9,5.6-1.1,5.4-3.7l-1.4-92.7H276l22.1,100.5
	C298.8,963.5,301.2,964.6,303.4,963.9z"/>
<path class="st7" d="M440.5,1012.9c0,0,6.7-8.2,1.4-16.4c-5.3-8.3-13.2-6.3-19.4-37.4c-6.3-31.1-53.3-14.9-53.3-14.9l-3,24.8
	L440.5,1012.9z"/>
<path class="st8" d="M441.9,1013c0,0-14.5-5-23.7-24.9c-9.2-19.8-26-28.1-52-19.2c0,0-1.4,4.6-2.2,14.2
	c-0.8,9.6,77.8,33.5,77.8,33.5v-3.6H441.9z"/>
<path class="st2" d="M415.6,997.4c0,0-11.8-23.5-34.2-19.9c-22.4,3.6-22,5.6-4.9,21.5L415.6,997.4z"/>
<path class="st2" d="M415.6,997.4l2-3c0,0,5.8,13.3,23.7,21.9c0.2,0.1,0.1,0.3-0.1,0.3h-57.9c0,0-3-4,0-9.6s-1.3-8.2-1.3-8.2
	L415.6,997.4z"/>
<path class="st5" d="M420.9,963.9c-9.8-3.4-34.8-11.3-48.9-6.5c-2.8,0.9-5.6-1.1-5.4-3.7L368,861h80.4l-22.1,100.5
	C425.5,963.5,423.1,964.6,420.9,963.9z"/>
<polygon class="st2" points="551,951.6 533,859.9 581.8,859.9 583.9,946.3 "/>
<path class="st9" d="M545.1,1015.6c0,0-8,5.5-5.2-16.4c0.1-0.6,0.4-1.1,1-1.2c1.1-0.3,3.6-4.5,7.3-29.5
	c5.3-35.7,38.5-10.4,38.5-10.4s-4.9,27.4-0.3,39c4.6,11.7,1,18.6,1,18.6L545.1,1015.6z"/>
<path class="st10" d="M554,979.5c0,0-5.4,32.9-8.9,36.1h36c0,0-19.3-11.2-3-36.1S554,979.5,554,979.5z"/>
<path class="st9" d="M564.8,933c-8.1,8.2-23.4,27.4-13.3,46.5c0,0,16.7-3.5,11.2,35.2c-0.2,1.1,0.7,2,1.7,2h3c1,0,1.8-0.9,1.7-1.9
	c-0.5-7.1-1-32.3,13-37.6c10.2-3.9,4.3-32.3-7.1-44.2C572.2,930.1,567.6,930.1,564.8,933z"/>
<polygon class="st2" points="630.5,951.6 648.6,859.9 599.7,859.9 597.7,946.3 "/>
<path class="st9" d="M636.5,1015.6c0,0,8,5.5,5.2-16.4c-0.1-0.6-0.4-1.1-1-1.2c-1.1-0.3-3.6-4.5-7.3-29.5
	c-5.3-35.7-38.5-10.4-38.5-10.4s4.9,27.4,0.3,39c-4.6,11.7-1,18.6-1,18.6L636.5,1015.6z"/>
<path class="st10" d="M627.6,979.5c0,0,5.4,32.9,8.9,36.1h-36c0,0,19.3-11.2,3-36.1S627.6,979.5,627.6,979.5z"/>
<path class="st9" d="M616.8,933c8.1,8.2,23.4,27.4,13.3,46.5c0,0-16.7-3.5-11.2,35.2c0.2,1.1-0.7,2-1.7,2h-3c-1,0-1.8-0.9-1.7-1.9
	c0.5-7.1,1-32.3-13-37.6c-10.2-3.9-4.3-32.3,7.1-44.2C609.3,930.1,613.9,930.1,616.8,933z"/>
<rect x="234.3" y="1015.6" class="st5" width="469.7" height="26.9"/>
<path class="st5" d="M704.1,867.6H234.5v-6.9c0-11,9-20,20-20h429.7c11,0,20,9,20,20v6.9H704.1z"/>
<path class="st6" d="M200.3,319.8h-139c-11,0-20-9-20-20V39.7c0-11,9-20,20-20h139c11,0,20,9,20,20v260.1
	C220.3,310.8,211.3,319.8,200.3,319.8z"/>
<path class="st5" d="M103.3,89.6l21.8,27.8c0,0,37.8-4.9,51.6-40.4l-21.8-27.8L103.3,89.6z"/>
<path class="st5" d="M116.7,53.8l-30,48.6c-0.2,0.3,0.1,0.6,0.4,0.5l54.1-17.7L167.1,40c0.1-0.3-0.1-0.5-0.4-0.5L116.7,53.8z"/>
<polygon class="st5" points="86.4,102.8 89.3,106.6 144.7,89.1 169.8,42.6 167.3,39.4 142,84.5 "/>
<path class="st4" d="M129.1,69.4c0,0-16.4-22.2,6.7-37.7s11-28.7,11-28.7"/>
<circle class="st11" cx="147" cy="4.6" r="3.7"/>
<path class="st2" d="M120.7,319.5v-23.4l0,0c0,0-5.7-3.8-6.7-9.6c-1-5.7,0-33.4,0-33.4l0,0c0,0,2.4-8.3,6.4-3.7
	c1.5,1.7,2.2,4,2.2,6.3v9.2v-21.8l0,0c0,0,3.8-7.6,8.1,0l0,0v21.8v-27c0-2.6,1.3-4.1,3.6-5.3c-0.2,0.1,1.4-1.7,3.8,0.4
	c1.4,1.2,2.1,1.9,2.1,3.7v28.1l1-19.9l0,0c0,0,5.3-7.6,8.2,0l0,0v32.5c0,0-1.8-0.8,4-9.9c5.7-9.1,12.7,2.5,1.7,16.5
	c-7.1,9.1-11,12-11,12l0,0v23.4l0,0L120.7,319.5L120.7,319.5z"/>
<path class="st12" d="M501.9,275.2L257.1,316c-12.1,2-23.1-7.3-23.1-19.6V39.6c0-11,8.9-19.9,19.9-19.9h244.8
	c11,0,19.9,8.9,19.9,19.9v216C518.5,265.3,511.5,273.6,501.9,275.2z"/>
<path class="st5" d="M376.2,113.1l-142.3,41.4v141.8c0,12.3,11,21.6,23.1,19.6l119.1-19.8v-183H376.2z"/>
<path id="XMLID_2_" class="st2" d="M376.2,113.1l142.3,24.8v117.6c0,9.7-7,18-16.6,19.6L376.2,296V113.1z"/>
<path class="st5" d="M491.5,133.2v143.7l10.4-1.7c9.6-1.6,16.6-9.9,16.6-19.6V137.9L491.5,133.2z"/>
<polygon class="st2" points="336.8,162.5 298.1,174.4 298.1,161.5 336.8,149.6 "/>
<polygon class="st2" points="282.3,177.7 243.6,189.6 243.6,176.7 282.3,164.8 "/>
<polygon class="st2" points="337.7,190.1 299.1,202 299.1,189.1 337.7,177.2 "/>
<polygon class="st2" points="283.2,205.3 244.6,217.2 244.6,204.3 283.2,192.4 "/>
<polygon class="st2" points="337.7,217.7 299.1,229.7 299.1,216.8 337.7,204.8 "/>
<polygon class="st2" points="283.2,232.9 244.6,244.9 244.6,232 283.2,220 "/>
<polygon class="st2" points="337.7,245.4 299.1,257.3 299.1,244.4 337.7,232.5 "/>
<polygon class="st2" points="283.2,260.6 244.6,272.5 244.6,259.6 283.2,247.7 "/>
<polygon class="st2" points="337.7,273 299.1,284.9 299.1,272 337.7,260.1 "/>
<polygon class="st2" points="283.2,288.2 244.6,300.1 244.6,287.2 283.2,275.3 "/>
<line class="st4" x1="376.4" y1="169.7" x2="491.5" y2="183.8"/>
<line class="st4" x1="377.3" y1="223.5" x2="492.4" y2="237.6"/>
<line class="st4" x1="376.4" y1="277.4" x2="449.4" y2="283.9"/>
<g>
	<polygon class="st13" points="483,573.5 494.6,597.3 432.3,722.4 418.2,710.2 384.9,717.2 319.5,753.8 405.2,650.1 	"/>
	<polygon class="st13" points="295.1,641.6 340.6,665.6 331,705.5 	"/>
	<path class="st13" d="M324.8,731.5l-90.6,19.7v60.1c0,7.1,7.9,11.4,13.9,7.6l163.8-104.7c1.3-0.8,0.5-2.8-1-2.5l-26,5.5l-65.4,36.6
		L324.8,731.5z"/>
	<path class="st13" d="M250.8,827.8h98c1,0,1.9-0.3,2.6-0.9l35.5-26.4c1.5-1.1,2.1-3,1.6-4.8l-4.8-16.3c-0.5-1.6,0-3.2,1.1-4.4
		l35.7-35.7c1-1,1.4-2.4,1.3-3.7l-2.6-18.6c-0.4-3.2-4.1-4.9-6.8-3.1l-164.2,105C244.1,821.5,245.9,827.8,250.8,827.8z"/>
	<path class="st13" d="M418.2,710.2l100,73.1v24.6c0,11-8.9,19.9-19.9,19.9h-94.9L383,776.9l39.1-39.1L418.2,710.2z"/>
	<polygon class="st13" points="381,804.9 389.4,798.7 403.5,827.8 395.9,827.8 	"/>
	<polygon class="st13" points="361.8,577.4 319.5,753.8 412.5,645.4 	"/>
	<path class="st13" d="M395.9,623.2c0,0,65.9-31,87.1-49.6l-70.6,71.8L395.9,623.2z"/>
	<path class="st13" d="M384,777.7l61.2,50.1h-43.6l-18.1-49.7C383.3,777.8,383.7,777.5,384,777.7z"/>
</g>
<path class="st9" d="M132,476.6H76.6V433H132c5.3,0,9.7,4.3,9.7,9.7V467C141.7,472.3,137.3,476.6,132,476.6z"/>
<rect x="65" y="405.5" class="st14" width="12.6" height="5"/>
<path class="st8" d="M80.6,489.3H62.9c-5.5,0-9.9-4.4-9.9-9.9v-59c0-5.5,4.4-9.9,9.9-9.9h17.7c5.5,0,9.9,4.4,9.9,9.9v59
	C90.5,484.8,86.1,489.3,80.6,489.3z"/>
<line class="st4" x1="98.8" y1="432.9" x2="98.8" y2="476.6"/>
<line class="st4" x1="117.4" y1="432.9" x2="117.4" y2="476.6"/>
<polygon class="st5" points="141.7,436.9 218.6,403.8 218.6,512.8 141.7,472.7 "/>
<path class="st15" d="M579.9,77.5h-10.2c-7.8,0-14.8,4.9-17.8,12.3L532.4,139v104c0,12.6,11.3,22.1,23.2,19.4l67-14.7v-73.3
	L579.9,77.5z"/>
<polygon class="st5" points="579.9,77.5 602,77.5 622.6,132.9 622.6,174.4 "/>
<path class="st9" d="M622.6,215v-40.6l-42.7-96.9h-13.8c-4.3,0-7.1,4.6-5.2,8.6L622.6,215z"/>
<path class="st15" d="M665.3,77.5h9.1c8.3,0,15.7,5.5,18.2,13.7l10.9,34.2v89.7c0,9.5-6.5,17.7-15.6,19.5l-65.4,13.1v-73.3
	L665.3,77.5z"/>
<polygon class="st5" points="665.3,77.5 643.2,77.5 622.6,132.9 622.6,174.4 "/>
<path class="st9" d="M622.6,215v-40.6l42.7-96.9h13.8c4.3,0,7.1,4.6,5.2,8.6L622.6,215z"/>
<polygon class="st2" points="602,77.5 601.3,49.5 643.2,49.5 643.2,77.5 622.6,132.9 "/>
<path class="st2" d="M576.6,19.7c0,0,3.6,43.5,45.9,43.7c39.7,0.2,42.8-43.7,42.8-43.7H576.6z"/>
<polygon class="st5" points="676.8,710.2 645.4,710.2 629.4,775.8 618.9,710.2 557.7,710.2 595.3,784.6 586.3,827.8 659,827.8 
	644.1,783.4 "/>
<path class="st16" d="M643.5,791.5h-46.6c-2.8,0-5-2.3-5-5v-0.4c0-2.8,2.3-5,5-5h46.6c2.8,0,5,2.3,5,5v0.4
	C648.5,789.2,646.2,791.5,643.5,791.5z"/>
<path class="st2" d="M534.4,776.7l57.1,0.6c0,0,10.8-22,20-15.6s3.1,15,0,16c-3.1,0.9,24.1-10.2,24,9.3s-19.2,24.7-44,16.5
	l-57.1-0.6"/>
<g>
	<path class="st8" d="M626.3,311.5c0.3-1.6-0.9-2.6-2.7-2.6c-1.6,0-2.8,0.7-3.8,2c-0.2,0.3-0.5,0.4-0.8,0.4l-4.5-0.7
		c-0.5-0.1-0.8-0.7-0.6-1.2c2.1-3.9,5.9-6.2,10.7-6.2c6.5,0,9,3.4,8.2,8c-1.1,6.5-6.5,8-10.4,10.4c-0.7,0.4-0.4,1.5,0.4,1.5h7.3
		c0.5,0,0.9,0.4,0.8,0.9l-0.7,4.1c-0.1,0.4-0.4,0.7-0.8,0.7h-18.5c-0.5,0-0.9-0.4-0.8-0.9l0.4-2.5c0-0.1,0.1-0.2,0.1-0.3
		C615.8,316.6,625.4,316.9,626.3,311.5z"/>
	<path class="st8" d="M648,303.2c4.8,0,9.7,3.5,8.1,13c-1.7,9.5-7.7,13-12.7,13s-9.8-3.4-8.1-13C637,306.7,643.2,303.2,648,303.2z
		 M644.4,323.5c2.5,0,4.4-2.8,5.2-7.3c0.8-4.4-0.1-7.3-2.6-7.3c-2.6,0-4.4,2.8-5.2,7.3C641,320.7,641.9,323.5,644.4,323.5z"/>
	<path class="st8" d="M673.6,311.5c0.3-1.6-0.9-2.6-2.7-2.6c-1.6,0-2.8,0.7-3.8,2c-0.2,0.3-0.5,0.4-0.8,0.4l-4.5-0.7
		c-0.5-0.1-0.8-0.7-0.6-1.2c2.1-3.9,5.9-6.2,10.7-6.2c6.5,0,9,3.4,8.2,8c-1.1,6.5-6.5,8-10.4,10.4c-0.7,0.4-0.4,1.5,0.4,1.5h7.3
		c0.5,0,0.9,0.4,0.8,0.9l-0.7,4.1c-0.1,0.4-0.4,0.7-0.8,0.7h-18.5c-0.5,0-0.9-0.4-0.8-0.9l0.4-2.5c0-0.1,0.1-0.2,0.1-0.3
		C663,316.6,672.6,316.9,673.6,311.5z"/>
	<path class="st8" d="M695.2,303.2c4.8,0,9.7,3.5,8.1,13c-1.7,9.5-7.7,13-12.7,13s-9.8-3.4-8.1-13
		C684.2,306.7,690.4,303.2,695.2,303.2z M691.6,323.5c2.5,0,4.4-2.8,5.2-7.3c0.8-4.4-0.1-7.3-2.6-7.3c-2.6,0-4.4,2.8-5.2,7.3
		S689.1,323.5,691.6,323.5z"/>
</g>
<g>
	<path class="st17" d="M625.3,309.5c0.3-1.6-0.9-2.6-2.7-2.6c-1.6,0-2.8,0.7-3.8,2c-0.2,0.3-0.5,0.4-0.8,0.4l-4.5-0.7
		c-0.5-0.1-0.8-0.7-0.6-1.2c2.1-3.9,5.9-6.2,10.7-6.2c6.5,0,9,3.4,8.2,8c-1.1,6.5-6.5,8-10.4,10.4c-0.7,0.4-0.4,1.5,0.4,1.5h7.3
		c0.5,0,0.9,0.4,0.8,0.9l-0.7,4.1c-0.1,0.4-0.4,0.7-0.8,0.7h-18.5c-0.5,0-0.9-0.4-0.8-0.9l0.4-2.5c0-0.1,0.1-0.2,0.1-0.3
		C614.7,314.6,624.3,314.9,625.3,309.5z"/>
	<path class="st17" d="M646.9,301.2c4.8,0,9.7,3.5,8.1,13c-1.7,9.5-7.7,13-12.7,13s-9.8-3.4-8.1-13S642.1,301.2,646.9,301.2z
		 M643.3,321.5c2.5,0,4.4-2.8,5.2-7.3s-0.1-7.3-2.6-7.3c-2.6,0-4.4,2.8-5.2,7.3S640.8,321.5,643.3,321.5z"/>
	<path class="st17" d="M672.5,309.5c0.3-1.6-0.9-2.6-2.7-2.6c-1.6,0-2.8,0.7-3.8,2c-0.2,0.3-0.5,0.4-0.8,0.4l-4.5-0.7
		c-0.5-0.1-0.8-0.7-0.6-1.2c2.1-3.9,5.9-6.2,10.7-6.2c6.5,0,9,3.4,8.2,8c-1.1,6.5-6.5,8-10.4,10.4c-0.7,0.4-0.4,1.5,0.4,1.5h7.3
		c0.5,0,0.9,0.4,0.8,0.9l-0.7,4.1c-0.1,0.4-0.4,0.7-0.8,0.7h-18.5c-0.5,0-0.9-0.4-0.8-0.9l0.4-2.5c0-0.1,0.1-0.2,0.1-0.3
		C662,314.6,671.6,314.9,672.5,309.5z"/>
	<path class="st17" d="M694.1,301.2c4.8,0,9.7,3.5,8.1,13c-1.7,9.5-7.7,13-12.7,13s-9.8-3.4-8.1-13
		C683.2,304.6,689.3,301.2,694.1,301.2z M690.6,321.5c2.5,0,4.4-2.8,5.2-7.3s-0.1-7.3-2.6-7.3c-2.6,0-4.4,2.8-5.2,7.3
		C687.1,318.7,688,321.5,690.6,321.5z"/>
</g>
<path class="st8" d="M605.7,317.7h-94.1c-1,0-1.8-0.8-1.8-1.8l0,0c0-1,0.8-1.8,1.8-1.8h94.1c1,0,1.8,0.8,1.8,1.8l0,0
	C607.4,316.9,606.6,317.7,605.7,317.7z"/>
<path class="st17" d="M603.9,315.7h-94.1c-1,0-1.8-0.8-1.8-1.8l0,0c0-1,0.8-1.8,1.8-1.8h94.1c1,0,1.8,0.8,1.8,1.8l0,0
	C605.6,314.9,604.8,315.7,603.9,315.7z"/>
<g>
	<g>
		<defs>
			<path id="SVGID_1_" d="M198.3,1066.9H63.6c-11,0-20-9-20-20v-459c0-11,9-20,20-20h134.3c11,0,20,9,20,20v459.3
				C217.9,1058.1,209.1,1066.9,198.3,1066.9z"/>
		</defs>
		<clipPath id="SVGID_2_">
			<use xlink:href="#SVGID_1_"  style="overflow:visible;"/>
		</clipPath>
		<g class="st18">
			<polyline class="st4" points="98.1,803.7 129.5,969.4 113.8,1064.7 			"/>
			<polyline class="st4" points="181.2,753.9 140.4,976.4 150.3,1059.3 			"/>
			<path class="st19" d="M104.8,727.7l27.7-5.3c9.1-1.7,16.1,7.9,11.9,16.4l-12.7,25.8c-1.7,3.3-1.6,7.3,0.2,10.6l13.5,25.4
				c4.4,8.3-2.4,18.2-11.5,16.7l-27.8-4.5c-3.6-0.6-7.3,0.7-9.8,3.4l-19.4,21c-6.3,6.9-17.6,3.3-19-6l-4.5-28.5
				c-0.6-3.7-2.9-6.9-6.2-8.5l-25.4-12.4c-8.3-4.1-8.5-16.2-0.3-20.5l25.1-13.2c3.3-1.7,5.5-5,6-8.7l3.6-28.7
				c1.2-9.4,12.3-13.3,18.9-6.6L95,724.6C97.6,727.2,101.3,728.4,104.8,727.7z"/>
			<ellipse class="st0" cx="188.8" cy="738.7" rx="50.1" ry="51.4"/>
			<polyline class="st4" points="132.7,752 133.5,978.4 128.8,1059.3 			"/>
			<ellipse class="st20" cx="128.8" cy="701.2" rx="50.1" ry="61.2"/>
			<path class="st0" d="M120.9,1065.1V999c0,0-12.2-10.1-8.7-22s17.4-11.9,24.4-5.4c0,0-4.6-7.1,0-10.1s18-0.6,12.8,36.9v66.7"/>
		</g>
	</g>
</g>
<g>
	<g>
		<path class="st8" d="M415.6,374c-1.4,1.7-2.8,3.4-4.2,5.2c10.7,11.5,26.6,20.9,47.7,28.3c-4.1,5.3-7.7,9.9-10.7,14
			c-5-2-9.8-4.2-14.3-6.6c0,2,0,4,0,6.1c-22.2,1-44.4,2.1-66.6,3.1c0-2,0-4,0-6c-4.5,2.8-9.4,5.7-14.6,8.5c-3.2-4-6.7-7.7-10.4-11.2
			c24.3-12,41.3-25.3,50.9-39C400.7,375.4,408.2,374.7,415.6,374z M357.2,479.7c0-15.6,0-31.2,0-46.8c29.1-1.1,58.1-2.1,87.2-3.2
			c0,17.2,0,34.5,0,51.7c-5.3-0.1-10.6-0.2-15.9-0.3c0-1.7,0-3.4,0-5c-18.4-0.3-36.9-0.5-55.3-0.8c0,1.6,0,3.2,0,4.7
			C367.9,479.9,362.5,479.8,357.2,479.7z M428.5,444.5c-18.4,0.4-36.9,0.8-55.3,1.1c0,5.4,0,10.8,0,16.2c18.4,0,36.9-0.1,55.3-0.1
			C428.5,456,428.5,450.3,428.5,444.5z M400.7,390.8c-5.5,6.3-12.7,12.8-21.8,19.3c14.3-0.9,28.5-1.8,42.8-2.7
			C413.9,402.5,407,397,400.7,390.8z"/>
		<path class="st8" d="M530.7,413.6c5.8,7.5,8.7,17.6,8.7,30c0,6.6-1.4,11.4-4.3,14.4c-3,3.1-8.1,4.7-15.4,4.7
			c-0.5-5.5-1.4-11-2.7-16.7c1.7,0.4,3.1,0.5,4.1,0.5c3.3-0.1,4.9-2.7,4.9-7.9c0-8.4-2.9-16.4-8.8-23.7c2.8-11.3,5.5-22,8-32.1
			c-2.9,0.2-5.8,0.5-8.7,0.7c0,33,0,65.9,0,98.9c-4.5-0.1-9-0.2-13.5-0.3c0-37,0-74,0-111c12.2-1.2,24.5-2.3,36.7-3.5
			c0,4.1,0,8.1,0,12.2C536.9,390.8,533.9,402.1,530.7,413.6z M603.2,447.4c4.2,1.6,8.4,3.1,12.5,4.5c-1,8.7-2,14.8-2.8,18.4
			c-2,8.7-6.8,13-14.4,12.8c-2,0-4.1-0.1-6.1-0.1c-9.3-0.2-13.9-5.7-13.9-16.5c0-9.7,0-19.3,0-29c-2.7,0.1-5.3,0.1-8,0.2
			c-1.1,15.7-5,27.1-11.8,34.2c-4.5,4.7-10.8,8.8-19,12.3c-3.4-5.3-6.6-9.9-9.8-13.7c8.4-3.8,14.5-7.6,18.3-11.5
			c4.3-4.5,7-11.4,8-20.8c-5.1,0.1-10.2,0.3-15.4,0.4c0-4.8,0-9.5,0-14.3c23.5-0.9,47-1.8,70.4-2.7c0,5.1,0,10.2,0,15.3
			c-6.1,0.2-12.3,0.3-18.4,0.5c0,8.1,0,16.2,0,24.2c0,3.8,1.1,5.7,3.3,5.7c0.8,0,1.6,0,2.5,0c1.8,0,2.9-1.4,3.4-4.3
			C602.3,460.8,602.7,455.7,603.2,447.4z M540.4,374.4c8.7-0.8,17.3-1.5,26-2.3c-0.9-3-1.8-6.4-2.8-10.3c5.4-1.3,10.9-2.7,16.3-4
			c1.2,4.2,2.2,8.5,3.2,12.9c9-0.8,18-1.6,27-2.4c0,8.3,0,16.6,0,24.9c-4.6,0.3-9.2,0.6-13.8,0.9c0-3.1,0-6.2,0-9.2
			c-14.1,1-28.1,2.1-42.2,3.1c0,3,0,5.9,0,8.9c-4.5,0.3-9.1,0.6-13.6,0.9C540.4,389.9,540.4,382.2,540.4,374.4z M546.1,400.4
			c19.4-1.2,38.8-2.4,58.2-3.6c0,4.9,0,9.8,0,14.7c-19.4,0.9-38.8,1.9-58.2,2.8C546.1,409.7,546.1,405.1,546.1,400.4z"/>
		<path class="st8" d="M332.1,490.7c-1.3,4.5-2.7,9-4,13.5c-3.2-0.2-6.4-0.3-9.6-0.5c2.3-4.4,4.5-8.8,6.8-13.2
			C327.5,490.5,329.8,490.6,332.1,490.7z M347,491.2c-1.4,4.6-2.8,9.2-4.2,13.7c-3.2-0.2-6.3-0.3-9.5-0.5c2.3-4.4,4.5-8.9,6.8-13.4
			C342.5,491,344.8,491.1,347,491.2z"/>
		<path class="st8" d="M353.7,509c21.9,1.2,43.7,2.4,65.6,3.7c0,2.9,0,5.8,0,8.7c-10.6-0.7-21.2-1.4-31.8-2.1
			c-3.4,4.1-8.7,9.5-16,15.9c9.6,0.8,18.8,1.3,27.7,1.6c-3.1-3.7-6.2-7.4-9.3-11c2.7-1.3,5.5-2.6,8.2-3.9c9,9.7,16,18.1,21,24.8
			c-3,1.5-6,3-9,4.4c-1-1.5-2.3-3.3-3.9-5.4c-26.8-1.7-42.3-2.4-46.2-1.9c-1.5-2.8-2.9-5.5-4.4-8.2c7.1-4.4,13.4-10.1,18.9-17.2
			c-7-0.5-14-0.9-21-1.4C353.7,514.4,353.7,511.7,353.7,509z M360,491.1c17.7,0.6,35.4,1.2,53,1.8c0,2.9,0,5.8,0,8.7
			c-17.7-0.8-35.4-1.5-53-2.3C360,496.5,360,493.8,360,491.1z"/>
		<path class="st8" d="M423.2,531.2c9.3,0.7,18.7,1.4,28,2.1c0-2.4,0-4.8,0-7.3c3.3,0.2,6.7,0.5,10,0.7c0,2.5,0,4.9,0,7.4
			c9.5,0.7,18.9,1.4,28.4,2.2c0,3,0,5.9,0,8.9c-9.5-0.8-18.9-1.6-28.4-2.4c0,4.4,0,8.8,0,13.2c-3.3-0.3-6.7-0.7-10-1
			c0-4.4,0-8.7,0-13.1c-9.3-0.8-18.7-1.6-28-2.4C423.2,536.7,423.2,533.9,423.2,531.2z M453.1,510.9c0.4,3.3,0.9,6.4,1.5,9.3
			c-10.7,2.6-18.6,5-23.9,7.3c-1.5-2.4-3-4.9-4.4-7.3c1.6-1.4,2.4-3.3,2.4-5.7c0-8,0-16,0-24c3.1,0.1,6.3,0.2,9.4,0.3
			c0,2.5,0,5.1,0,7.6c5.3,0.2,10.6,0.4,15.9,0.6c0,2.8,0,5.5,0,8.3c-5.3-0.3-10.6-0.5-15.9-0.8c0,2.9,0,5.8,0,8.7
			C442.8,513.9,447.8,512.5,453.1,510.9z M488.4,500.8c-7.2,3.3-14.4,6.3-21.5,9c0,1.8,0,3.7,0,5.5c0,2.1,1.1,3.2,3.2,3.3
			c2.2,0.1,4.5,0.3,6.7,0.4c1.4,0.1,2.4-0.4,2.9-1.3c0.5-1,1.1-4.1,1.6-9.4c3.3,1.6,6.2,2.9,8.8,3.9c-0.9,5.9-1.7,9.7-2.4,11.2
			c-0.7,1.5-1.8,2.6-3.4,3.3c-1.6,0.7-3.6,0.9-6.1,0.8c-3.8-0.3-7.6-0.5-11.3-0.8c-6.3-0.4-9.4-3.8-9.4-10.1c0-8.5,0-17.1,0-25.6
			c3.1,0.1,6.3,0.2,9.4,0.3c0,3.3,0,6.5,0,9.8c5.3-2.5,10.5-5.1,15.6-8C484.5,495.7,486.5,498.3,488.4,500.8z"/>
		<path class="st8" d="M511.9,493.6c3.3,0.1,6.7,0.2,10,0.3c0,18.5,0,37,0,55.4c2.9,0.3,5.8,0.5,8.8,0.8c0-18.6,0-37.3,0-55.9
			c3.3,0.1,6.6,0.2,9.8,0.3c0,12.9,0,25.9,0,38.8c3.7-7.5,7.3-16.3,10.9-26.4c2.9,1.5,5.9,2.9,8.8,4.4c-3.5,9.1-7.6,18.9-12.4,29.2
			c-2.4-1.4-4.8-2.7-7.2-4.1c0,4.8,0,9.7,0,14.5c6.6,0.6,13.1,1.1,19.7,1.7c0,3.3,0,6.7,0,10c-22.5-2.2-45-4.4-67.5-6.5
			c0-3.1,0-6.3,0-9.4c6.4,0.6,12.9,1.1,19.3,1.7c0-4.6,0-9.2,0-13.8c-2.6,0.9-5.1,1.9-7.7,2.8c-3.7-11-7.5-21.1-11.2-30.2
			c2.7-1.1,5.5-2.3,8.2-3.4c3.9,9.1,7.5,18,10.7,26.6C511.9,518.1,511.9,505.9,511.9,493.6z"/>
		<path class="st8" d="M570.8,547.2c2.7,1.5,5.5,3.1,8.2,4.6c-2.3,5.1-5.2,10.5-8.5,16.1c-2.6-1.8-5.3-3.6-7.9-5.4
			C565.7,557.7,568.5,552.6,570.8,547.2z M565.9,497.5c8.2,0.3,16.4,0.5,24.6,0.8c0,16.4,0,32.9,0,49.3c-8.2-0.7-16.4-1.3-24.6-2
			C565.9,529.6,565.9,513.5,565.9,497.5z M582,506.5c-2.6-0.1-5.1-0.2-7.7-0.3c0,3.8,0,7.6,0,11.4c2.6,0.1,5.1,0.3,7.7,0.4
			C582,514.2,582,510.4,582,506.5z M582,538.4c0-3.9,0-7.9,0-11.8c-2.6-0.2-5.1-0.3-7.7-0.5c0,3.9,0,7.8,0,11.7
			C576.9,538.1,579.5,538.2,582,538.4z M590.3,550.2c1.9,5.3,3.7,10.6,5.3,15.8c-3.1,0.5-6.1,1-9.2,1.5c-1.7-6-3.3-11.2-4.8-15.6
			C584.5,551.3,587.4,550.8,590.3,550.2z M593.5,506.4c0-2.8,0-5.5,0-8.3c11.5,0.4,23.1,0.8,34.6,1.1c-0.1,4.9-0.3,9.8-0.4,14.7
			c0,3.4-0.7,5.9-2,7.5c-1.3,1.6-3,2.5-5,2.8c-2,0.3-5.7,0.1-11.1-0.4c-0.5-3.3-1.1-6.1-1.8-8.6c3.7,0.6,6.4,0.9,8.1,1
			c1.4,0.1,2.3-0.4,2.6-1.3c0.3-1,0.5-3.5,0.6-7.5c-3.5-0.1-7.1-0.3-10.6-0.4c-1,8.8-4.4,14.9-10,18.3c-1.7-2.4-3.8-5-6.2-7.8
			c4.4-1.8,7-5.4,7.9-10.9C598,506.6,595.8,506.5,593.5,506.4z M594.7,525.8c10.6,0.6,21.3,1.3,31.9,1.9c0,7.8,0,15.5,0,23.3
			c-10.6-0.9-21.3-1.7-31.9-2.6C594.7,540.9,594.7,533.4,594.7,525.8z M606.2,550.9c1.6,3.8,3.6,9,6,15.6c-3,0.7-5.9,1.4-8.9,2.1
			c-2.1-6.3-3.9-11.5-5.5-15.6C600.6,552.2,603.4,551.6,606.2,550.9z M618.4,535.3c-5.1-0.3-10.3-0.7-15.4-1c0,2.3,0,4.6,0,6.9
			c5.1,0.4,10.3,0.7,15.4,1.1C618.4,540,618.4,537.6,618.4,535.3z M621.8,551c2.7,5.5,5.3,11.5,7.9,18.2c-2.8,1-5.6,1.9-8.4,2.8
			c-2.8-7.1-5.4-13-7.6-17.9C616.4,553,619.1,552,621.8,551z"/>
		<path class="st8" d="M649.2,501.6c-2.3,6.3-4.6,12.5-6.9,18.7c-2.3-0.1-4.6-0.2-6.8-0.4c1.4-6.2,2.8-12.4,4.2-18.7
			C642.8,501.4,646,501.5,649.2,501.6z M664,502.1c-2.3,6.4-4.5,12.7-6.8,19c-2.3-0.1-4.6-0.2-6.9-0.4c1.4-6.3,2.8-12.6,4.1-18.9
			C657.6,501.9,660.8,502,664,502.1z"/>
	</g>
	<g>
		<g>
			<path class="st21" d="M409.6,368c-1.4,1.7-2.8,3.4-4.2,5.2c10.7,11.5,26.6,20.9,47.7,28.3c-4.1,5.3-7.7,9.9-10.7,14
				c-5-2-9.8-4.2-14.3-6.6c0,2,0,4,0,6.1c-22.2,1-44.4,2.1-66.6,3.1c0-2,0-4,0-6c-4.5,2.8-9.4,5.7-14.6,8.5
				c-3.2-4-6.7-7.7-10.4-11.2c24.3-12,41.3-25.3,50.9-39C394.7,369.4,402.2,368.7,409.6,368z M351.2,473.7c0-15.6,0-31.2,0-46.8
				c29.1-1.1,58.1-2.1,87.2-3.2c0,17.2,0,34.5,0,51.7c-5.3-0.1-10.6-0.2-15.9-0.3c0-1.7,0-3.4,0-5c-18.4-0.3-36.9-0.5-55.3-0.8
				c0,1.6,0,3.2,0,4.7C361.9,473.9,356.5,473.8,351.2,473.7z M422.5,438.5c-18.4,0.4-36.9,0.8-55.3,1.1c0,5.4,0,10.8,0,16.2
				c18.4,0,36.9-0.1,55.3-0.1C422.5,450,422.5,444.3,422.5,438.5z M394.7,384.8c-5.5,6.3-12.7,12.8-21.8,19.3
				c14.3-0.9,28.5-1.8,42.8-2.7C407.9,396.5,401,391,394.7,384.8z"/>
			<path class="st21" d="M524.7,407.6c5.8,7.5,8.7,17.6,8.7,30c0,6.6-1.4,11.4-4.3,14.4c-3,3.1-8.1,4.7-15.4,4.7
				c-0.5-5.5-1.4-11-2.7-16.7c1.7,0.4,3.1,0.5,4.1,0.5c3.3-0.1,4.9-2.7,4.9-7.9c0-8.4-2.9-16.4-8.8-23.7c2.8-11.3,5.5-22,8-32.1
				c-2.9,0.2-5.8,0.5-8.7,0.7c0,33,0,65.9,0,98.9c-4.5-0.1-9-0.2-13.5-0.3c0-37,0-74,0-111c12.2-1.2,24.5-2.3,36.7-3.5
				c0,4.1,0,8.1,0,12.2C530.9,384.8,527.9,396.1,524.7,407.6z M597.2,441.4c4.2,1.6,8.4,3.1,12.5,4.5c-1,8.7-2,14.8-2.8,18.4
				c-2,8.7-6.8,13-14.4,12.8c-2,0-4.1-0.1-6.1-0.1c-9.3-0.2-13.9-5.7-13.9-16.5c0-9.7,0-19.3,0-29c-2.7,0.1-5.3,0.1-8,0.2
				c-1.1,15.7-5,27.1-11.8,34.2c-4.5,4.7-10.8,8.8-19,12.3c-3.4-5.3-6.6-9.9-9.8-13.7c8.4-3.8,14.5-7.6,18.3-11.5
				c4.3-4.5,7-11.4,8-20.8c-5.1,0.1-10.2,0.3-15.4,0.4c0-4.8,0-9.5,0-14.3c23.5-0.9,47-1.8,70.4-2.7c0,5.1,0,10.2,0,15.3
				c-6.1,0.2-12.3,0.3-18.4,0.5c0,8.1,0,16.2,0,24.2c0,3.8,1.1,5.7,3.3,5.7c0.8,0,1.6,0,2.5,0c1.8,0,2.9-1.4,3.4-4.3
				C596.3,454.8,596.7,449.7,597.2,441.4z M534.4,368.4c8.7-0.8,17.3-1.5,26-2.3c-0.9-3-1.8-6.4-2.8-10.3c5.4-1.3,10.9-2.7,16.3-4
				c1.2,4.2,2.2,8.5,3.2,12.9c9-0.8,18-1.6,27-2.4c0,8.3,0,16.6,0,24.9c-4.6,0.3-9.2,0.6-13.8,0.9c0-3.1,0-6.2,0-9.2
				c-14.1,1-28.1,2.1-42.2,3.1c0,3,0,5.9,0,8.9c-4.5,0.3-9.1,0.6-13.6,0.9C534.4,383.9,534.4,376.2,534.4,368.4z M540.1,394.4
				c19.4-1.2,38.8-2.4,58.2-3.6c0,4.9,0,9.8,0,14.7c-19.4,0.9-38.8,1.9-58.2,2.8C540.1,403.7,540.1,399.1,540.1,394.4z"/>
			<path class="st21" d="M326.1,484.7c-1.3,4.5-2.7,9-4,13.5c-3.2-0.2-6.4-0.3-9.6-0.5c2.3-4.4,4.5-8.8,6.8-13.2
				C321.5,484.5,323.8,484.6,326.1,484.7z M341,485.2c-1.4,4.6-2.8,9.2-4.2,13.7c-3.2-0.2-6.3-0.3-9.5-0.5c2.3-4.4,4.5-8.9,6.8-13.4
				C336.5,485,338.8,485.1,341,485.2z"/>
			<path class="st21" d="M347.7,503c21.9,1.2,43.7,2.4,65.6,3.7c0,2.9,0,5.8,0,8.7c-10.6-0.7-21.2-1.4-31.8-2.1
				c-3.4,4.1-8.7,9.5-16,15.9c9.6,0.8,18.8,1.3,27.7,1.6c-3.1-3.7-6.2-7.4-9.3-11c2.7-1.3,5.5-2.6,8.2-3.9c9,9.7,16,18.1,21,24.8
				c-3,1.5-6,3-9,4.4c-1-1.5-2.3-3.3-3.9-5.4c-26.8-1.7-42.3-2.4-46.2-1.9c-1.5-2.8-2.9-5.5-4.4-8.2c7.1-4.4,13.4-10.1,18.9-17.2
				c-7-0.5-14-0.9-21-1.4C347.7,508.4,347.7,505.7,347.7,503z M354,485.1c17.7,0.6,35.4,1.2,53,1.8c0,2.9,0,5.8,0,8.7
				c-17.7-0.8-35.4-1.5-53-2.3C354,490.5,354,487.8,354,485.1z"/>
			<path class="st21" d="M417.2,525.2c9.3,0.7,18.7,1.4,28,2.1c0-2.4,0-4.8,0-7.3c3.3,0.2,6.7,0.5,10,0.7c0,2.5,0,4.9,0,7.4
				c9.5,0.7,18.9,1.4,28.4,2.2c0,3,0,5.9,0,8.9c-9.5-0.8-18.9-1.6-28.4-2.4c0,4.4,0,8.8,0,13.2c-3.3-0.3-6.7-0.7-10-1
				c0-4.4,0-8.7,0-13.1c-9.3-0.8-18.7-1.6-28-2.4C417.2,530.7,417.2,527.9,417.2,525.2z M447.1,504.9c0.4,3.3,0.9,6.4,1.5,9.3
				c-10.7,2.6-18.6,5-23.9,7.3c-1.5-2.4-3-4.9-4.4-7.3c1.6-1.4,2.4-3.3,2.4-5.7c0-8,0-16,0-24c3.1,0.1,6.3,0.2,9.4,0.3
				c0,2.5,0,5.1,0,7.6c5.3,0.2,10.6,0.4,15.9,0.6c0,2.8,0,5.5,0,8.3c-5.3-0.3-10.6-0.5-15.9-0.8c0,2.9,0,5.8,0,8.7
				C436.8,507.9,441.8,506.5,447.1,504.9z M482.4,494.8c-7.2,3.3-14.4,6.3-21.5,9c0,1.8,0,3.7,0,5.5c0,2.1,1.1,3.2,3.2,3.3
				c2.2,0.1,4.5,0.3,6.7,0.4c1.4,0.1,2.4-0.4,2.9-1.3c0.5-1,1.1-4.1,1.6-9.4c3.3,1.6,6.2,2.9,8.8,3.9c-0.9,5.9-1.7,9.7-2.4,11.2
				c-0.7,1.5-1.8,2.6-3.4,3.3c-1.6,0.7-3.6,0.9-6.1,0.8c-3.8-0.3-7.6-0.5-11.3-0.8c-6.3-0.4-9.4-3.8-9.4-10.1c0-8.5,0-17.1,0-25.6
				c3.1,0.1,6.3,0.2,9.4,0.3c0,3.3,0,6.5,0,9.8c5.3-2.5,10.5-5.1,15.6-8C478.5,489.7,480.5,492.3,482.4,494.8z"/>
			<path class="st21" d="M505.9,487.6c3.3,0.1,6.7,0.2,10,0.3c0,18.5,0,37,0,55.4c2.9,0.3,5.8,0.5,8.8,0.8c0-18.6,0-37.3,0-55.9
				c3.3,0.1,6.6,0.2,9.8,0.3c0,12.9,0,25.9,0,38.8c3.7-7.5,7.3-16.3,10.9-26.4c2.9,1.5,5.9,2.9,8.8,4.4c-3.5,9.1-7.6,18.9-12.4,29.2
				c-2.4-1.4-4.8-2.7-7.2-4.1c0,4.8,0,9.7,0,14.5c6.6,0.6,13.1,1.1,19.7,1.7c0,3.3,0,6.7,0,10c-22.5-2.2-45-4.4-67.5-6.5
				c0-3.1,0-6.3,0-9.4c6.4,0.6,12.9,1.1,19.3,1.7c0-4.6,0-9.2,0-13.8c-2.6,0.9-5.1,1.9-7.7,2.8c-3.7-11-7.5-21.1-11.2-30.2
				c2.7-1.1,5.5-2.3,8.2-3.4c3.9,9.1,7.5,18,10.7,26.6C505.9,512.1,505.9,499.9,505.9,487.6z"/>
			<path class="st21" d="M564.8,541.2c2.7,1.5,5.5,3.1,8.2,4.6c-2.3,5.1-5.2,10.5-8.5,16.1c-2.6-1.8-5.3-3.6-7.9-5.4
				C559.7,551.7,562.5,546.6,564.8,541.2z M559.9,491.5c8.2,0.3,16.4,0.5,24.6,0.8c0,16.4,0,32.9,0,49.3c-8.2-0.7-16.4-1.3-24.6-2
				C559.9,523.6,559.9,507.5,559.9,491.5z M576,500.5c-2.6-0.1-5.1-0.2-7.7-0.3c0,3.8,0,7.6,0,11.4c2.6,0.1,5.1,0.3,7.7,0.4
				C576,508.2,576,504.4,576,500.5z M576,532.4c0-3.9,0-7.9,0-11.8c-2.6-0.2-5.1-0.3-7.7-0.5c0,3.9,0,7.8,0,11.7
				C570.9,532.1,573.5,532.2,576,532.4z M584.3,544.2c1.9,5.3,3.7,10.6,5.3,15.8c-3.1,0.5-6.1,1-9.2,1.5c-1.7-6-3.3-11.2-4.8-15.6
				C578.5,545.3,581.4,544.8,584.3,544.2z M587.5,500.4c0-2.8,0-5.5,0-8.3c11.5,0.4,23.1,0.8,34.6,1.1c-0.1,4.9-0.3,9.8-0.4,14.7
				c0,3.4-0.7,5.9-2,7.5c-1.3,1.6-3,2.5-5,2.8c-2,0.3-5.7,0.1-11.1-0.4c-0.5-3.3-1.1-6.1-1.8-8.6c3.7,0.6,6.4,0.9,8.1,1
				c1.4,0.1,2.3-0.4,2.6-1.3c0.3-1,0.5-3.5,0.6-7.5c-3.5-0.1-7.1-0.3-10.6-0.4c-1,8.8-4.4,14.9-10,18.3c-1.7-2.4-3.8-5-6.2-7.8
				c4.4-1.8,7-5.4,7.9-10.9C592,500.6,589.8,500.5,587.5,500.4z M588.7,519.8c10.6,0.6,21.3,1.3,31.9,1.9c0,7.8,0,15.5,0,23.3
				c-10.6-0.9-21.3-1.7-31.9-2.6C588.7,534.9,588.7,527.4,588.7,519.8z M600.2,544.9c1.6,3.8,3.6,9,6,15.6c-3,0.7-5.9,1.4-8.9,2.1
				c-2.1-6.3-3.9-11.5-5.5-15.6C594.6,546.2,597.4,545.6,600.2,544.9z M612.4,529.3c-5.1-0.3-10.3-0.7-15.4-1c0,2.3,0,4.6,0,6.9
				c5.1,0.4,10.3,0.7,15.4,1.1C612.4,534,612.4,531.6,612.4,529.3z M615.8,545c2.7,5.5,5.3,11.5,7.9,18.2c-2.8,1-5.6,1.9-8.4,2.8
				c-2.8-7.1-5.4-13-7.6-17.9C610.4,547,613.1,546,615.8,545z"/>
			<path class="st21" d="M643.2,495.6c-2.3,6.3-4.6,12.5-6.9,18.7c-2.3-0.1-4.6-0.2-6.8-0.4c1.4-6.2,2.8-12.4,4.2-18.7
				C636.8,495.4,640,495.5,643.2,495.6z M658,496.1c-2.3,6.4-4.5,12.7-6.8,19c-2.3-0.1-4.6-0.2-6.9-0.4c1.4-6.3,2.8-12.6,4.1-18.9
				C651.6,495.9,654.8,496,658,496.1z"/>
		</g>
	</g>
</g>
</svg>
