<?xml version="1.0" encoding="utf-8"?>
<!-- Generator: Adobe Illustrator 21.0.0, SVG Export Plug-In . SVG Version: 6.00 Build 0)  -->
<svg version="1.1" id="图层_1" xmlns="http://www.w3.org/2000/svg" xmlns:xlink="http://www.w3.org/1999/xlink" x="0px" y="0px"
	 viewBox="0 0 340 101" style="enable-background:new 0 0 340 101;" xml:space="preserve">
<style type="text/css">
	.st0{fill:#F4E21E;stroke:#00ACCB;stroke-width:2;stroke-miterlimit:10;}
	.st1{fill:#FFFFFF;stroke:#00ACCB;stroke-width:3;stroke-miterlimit:10;}
	.st2{fill:none;}
</style>
<path class="st0" d="M317,100H28.9C16.8,100,7,90.2,7,78.1V33.9C7,21.8,16.8,12,28.9,12H317c12.1,0,21.9,9.8,21.9,21.9v44.2
	C338.8,90.2,329,100,317,100z"/>
<path class="st1" d="M312.3,89.6H24.2c-12.1,0-21.9-9.8-21.9-21.9V23.6c0-12.1,9.8-21.9,21.9-21.9h288.1c12.1,0,21.9,9.8,21.9,21.9
	v44.2C334.1,79.8,324.4,89.6,312.3,89.6z"/>
<rect x="70.2" y="28.6" class="st2" width="199.6" height="43.9"/>
<g>
	<path d="M98.8,35.6c0.3-0.1,0.5-0.2,0.6-0.2s0.4,0.1,0.7,0.3c0.3,0.1,0.5,0.2,0.7,0.2c0.3,0,0.6,0.1,0.8,0.2
		c0.2,0.1,0.4,0.4,0.6,0.8c0.2,0.4,0.3,0.7,0.1,0.9c-0.1,0.1-0.1,0.2-0.1,0.5c0,0.3,0,0.4-0.1,0.5s-0.3,0.1-0.6,0.1
		c-0.3,0-0.5,0-0.5-0.1c0,0-0.2-0.1-0.4-0.1s-0.3-0.1-0.5,0c-0.1,0-0.2,0-0.3,0c0,0-0.3,0-0.7,0s-0.7,0-0.7,0.1c0,0-0.2,0-0.3,0.1
		c-0.4,0.1-0.8,0.2-1.1,0.3c-0.2,0.1-0.4,0.1-0.5,0.1c-0.6,0-1.1,0.1-1.5,0.2c-0.3,0.1-0.5,0.1-0.6,0.1c-0.6,0-0.9,0.1-1.1,0.1
		c-0.1,0-0.2,0.1-0.3,0.1c-0.1,0-0.3,0-0.5,0.1c-0.2,0-0.4,0.1-0.5,0.1c-0.2,0-0.6,0.1-1.4,0.4l-0.6,0.2l0,1.2c0,0.8,0,1.3,0,1.3
		c0,0,0.2-0.1,0.5-0.3c0.7-0.5,1.4-0.9,2.2-1.1c0.2,0,0.6-0.1,1-0.2c0.4-0.1,0.8-0.2,1-0.2c0.6-0.1,1.2,0,1.8,0.3
		c0.3,0.1,0.6,0.3,0.9,0.6c0.3,0.3,0.6,0.6,0.7,0.8c0.2,0.4,0.4,1.1,0.5,2.1c0.1,0.5,0.1,1.1,0,1.8c0,0.9-0.1,1.5-0.2,2.1
		c0,0.1-0.1,0.1-0.1,0.1c-0.1,0-0.1,0-0.1,0.1c0,0,0,0.1-0.1,0.1c-0.1,0-0.2,0.2-0.3,0.5c0,0.1,0,0.2,0,0.3
		c-0.1,0.1-0.1,0.4-0.2,0.9c0,0.1,0,0.3-0.1,0.5c0,0,0,0,0,0.1s0,0.1,0,0.1c0,0,0,0.1-0.1,0.1C97.1,51.8,97,51.9,97,52
		c0,0.1-0.1,0.2-0.2,0.3c-0.1,0.1-0.2,0.3-0.3,0.5c-0.1,0.3-0.1,0.4-0.1,0.4s0.1,0.1,0,0.1c0,0-0.1,0-0.1,0c0,0-0.1,0-0.1,0
		c0,0-0.1,0-0.1,0.1s0,0.1,0.1,0.1c0.1,0,0.1,0,0.1,0.1c0,0-0.1,0-0.1,0c-0.1,0-0.1,0-0.1,0.1c0,0.1-0.1,0.2-0.2,0.3
		S95.8,54,95.8,54c0,0-0.1,0.1-0.2,0.2c-0.1,0.1-0.2,0.2-0.2,0.3c-0.2,0.1-0.3,0.3-0.5,0.5c-0.1,0.1-0.1,0.2-0.2,0.2s-0.1,0-0.1,0.1
		c0,0.1-0.1,0.2-0.2,0.3c-0.2,0.3-0.4,0.3-0.6,0.1c-0.1-0.1-0.2-0.1-0.3,0c0,0.1,0,0.1-0.1,0.1c-0.1,0-0.2,0.1-0.3,0
		c-0.1,0-0.2-0.1-0.2-0.2c0,0-0.1-0.1-0.2-0.1c-0.1,0-0.2,0-0.2,0c0,0-0.1,0-0.1-0.1s-0.2,0-0.3,0c-0.2,0-0.3,0-0.4-0.1
		c-0.2-0.1-0.4-0.1-0.4,0c0,0.1-0.2,0.1-0.4,0c-0.1,0-0.2,0-0.3,0c0,0-0.1,0.1-0.2,0.1c-0.1,0-0.1,0-0.1-0.1c0,0,0,0,0.1-0.1
		c0,0,0.1-0.1,0.1-0.1c0,0,0-0.1-0.1-0.1c-0.1,0-0.1,0-0.1,0.1c0,0-0.1,0-0.1,0s0-0.1,0-0.1s0.2-0.1,0.4-0.2
		c0.2-0.1,0.3-0.2,0.4-0.2c0,0,0.1-0.1,0.2-0.2s0.1-0.2,0-0.3c-0.1-0.1-0.2-0.1-0.4-0.1c-0.1,0-0.3,0-0.5,0.1s-0.3,0.3-0.3,0.5
		c-0.1,0.8-0.1,1.3,0,1.5c0.1,0.1,0.4,0.2,0.8,0.1c1.2-0.2,1.9-0.3,2.1-0.3c0.1,0,0.3,0.1,0.5,0.2c0.2,0.1,0.4,0.2,0.4,0.2
		c0.3,0,0.4,0.2,0.3,0.5c0,0.2,0,0.3,0,0.4s-0.1,0.2-0.3,0.5c-0.2,0.2-0.3,0.3-0.3,0.4s-0.1,0.1-0.2,0.1c-0.1,0.1-0.3,0.2-0.5,0.4
		c-0.2,0.2-0.3,0.3-0.4,0.3c-0.1,0-0.1,0-0.2,0.1c-0.1,0-0.2,0.1-0.4,0.1c-0.2,0-0.3,0-0.5,0.1s-0.4,0.1-0.7,0.1
		c-0.3,0-0.5,0.1-0.6,0.2c-0.1,0.1-0.2,0.2-0.2,0.4s0,0.3,0.1,0.3c0.1,0,0.4,0,0.8,0c0.5,0,1.1-0.1,1.9-0.1s1.1,0,1.1,0.1
		c0,0,0.2,0.1,0.4,0.1c0.3,0,0.5,0,0.6-0.1c0.1-0.1,0.5-0.1,1,0c0.5,0.1,0.9,0.2,1.1,0.3c0,0,0.2,0.1,0.5,0.1c0.3,0,0.5,0.1,0.6,0.1
		s0.1,0.1,0.2,0.1c0.1,0,0.1,0,0.2,0.1s0.2,0.1,0.3,0.1c0.2,0,0.4,0.1,0.5,0.2c0.2,0.1,0.2,0.2,0.3,0.3c0,0.1,0.1,0.2,0.2,0.2
		c0.1,0,0.2,0.1,0.2,0.2s0.1,0.2,0.1,0.2c-0.1,0.2-0.2,0.3,0,0.5c0.3,0.2,0.3,0.5,0.1,0.7c0,0,0,0.2,0,0.4c0,0.2,0,0.4-0.1,0.5
		c0,0.1-0.1,0.2-0.1,0.4s0,0.3-0.1,0.4c-0.1,0.1-0.1,0.1-0.1,0.2c0,0-0.1,0.1-0.2,0.3c-0.2,0.2-0.3,0.2-0.4,0.2
		c-0.2-0.1-0.7-0.1-1.3-0.1c-0.6,0-1,0.1-1.2,0.2c0,0-0.2,0.1-0.4,0c-0.5,0-0.8-0.1-0.9-0.2c-0.1-0.1-0.4-0.1-0.7,0
		c-0.2,0-0.3,0-0.5,0.1c-0.4,0-0.5,0.1-0.5,0.1s0,0.1-0.1,0c-0.1,0-0.2,0-0.3,0.1C92.7,66,92.6,66,92.4,66c-0.2,0-0.3,0-0.3,0
		s-0.1,0.1-0.2,0.1s-0.1,0-0.2,0.1c-0.1,0-0.2,0-0.4,0c-0.2,0-0.3,0-0.3,0c0,0-0.1,0-0.2,0l-0.1,0l0.2-0.1c0.1,0,0.2-0.1,0.2-0.1
		c0,0,0.1,0,0.2-0.1l0.1-0.1l0.1,0.1c0,0.1,0.1,0.1,0.1,0.1c0,0,0.1-0.1,0-0.1c0-0.1,0-0.1,0.1-0.1c0.1,0,0.2-0.1,0.2-0.2
		s0.1-0.2,0.1-0.2c-0.1,0-0.6,0.1-1.4,0.4c-0.4,0.1-0.6,0.2-0.7,0.2s-0.3,0-0.4,0c-0.1,0-0.3,0-0.4,0c-0.1,0-0.3,0-0.4,0l-0.1-0.1
		c0.1-0.1,0.3-0.1,0.5-0.2c0.3-0.1,0.7-0.2,1.3-0.5c0.4-0.2,0.5-0.3,0.6-0.4c0-0.1,0-0.2-0.1-0.2c-0.2-0.1-1.2,0-2.9,0.2
		c-1.2,0.1-1.8,0.2-2.1,0.2c-0.2,0-0.5,0-0.7,0.1c-0.2,0-0.6,0.1-1.2,0.2c-0.6,0.1-1,0.1-1.2,0.2c-0.4,0.2-0.8,0.2-1.3,0
		c-0.6-0.2-1.1-0.6-1.6-1c-0.5-0.5-0.9-1-1.2-1.5c0-0.1-0.1-0.3-0.1-0.5c0-0.3,0-0.4,0.1-0.5c0-0.1,0.2-0.2,0.4-0.4
		c0.2-0.2,0.4-0.2,0.5-0.3c0.2,0,0.3,0,0.3-0.1c0.1,0,0.1,0,0.1,0.1c0,0.1,0.1,0.1,0.1,0.1c0.1,0,0.1,0,0.1,0c0,0,0,0.1-0.1,0.2
		c-0.2,0.2-0.1,0.4,0.2,0.5c0.3,0.1,0.8,0.1,1.5,0.1c0.7,0,1.3-0.2,1.8-0.3c0.3-0.1,0.6-0.2,0.9-0.3c0.3-0.1,0.6-0.2,0.9-0.3
		c0.3-0.1,0.5-0.1,0.6-0.1c0.1,0,0.4-0.1,0.8-0.3c0.2-0.1,0.3-0.2,0.2-0.3c0,0-0.1,0-0.2,0s-0.3,0.1-0.7,0.1c-0.6,0-0.9,0.1-1,0.1
		c0,0-0.3,0-0.8,0.1c-0.5,0-0.8,0-0.8,0c-0.1,0-0.1-0.1-0.1-0.1c0,0,0.1,0,0.2,0c0.4,0,1-0.1,1.7-0.3s1.1-0.4,1.1-0.5
		c0-0.3-0.2-0.5-0.7-0.6c-0.2,0-0.3,0-0.3-0.1c0,0-0.1-0.1-0.3-0.2c-0.7-0.4-1.1-0.8-1.1-1.4c0-0.6,0.5-1,1.4-1.2
		c0.2,0,0.3,0,0.5-0.1c0.1,0,0.2,0,0.3,0c0.1,0,0.1,0,0.1,0.1c0,0-0.2,0.1-0.5,0.3s-0.5,0.3-0.5,0.4c0,0.1,0,0.2,0.1,0.2
		c0.1,0,0.3,0,0.6-0.1c1.1-0.2,1.6-0.4,1.7-0.6c0,0,0-0.3,0.1-0.8c0-0.4,0-0.7,0-0.8c0-0.1-0.2-0.1-0.4,0c-0.1,0-0.4,0.1-0.8,0.1
		c-0.4,0-0.7,0-0.8-0.1c-0.4-0.2-0.6-0.4-0.7-0.6c0-0.1-0.1-0.2-0.2-0.3c-0.1-0.1-0.1-0.3-0.1-0.4c0-0.1,0-0.2-0.1-0.3
		c-0.1-0.1-0.1-0.1-0.2-0.1c0,0-0.2-0.1-0.4-0.3c-0.2-0.2-0.4-0.3-0.4-0.4c0-0.1-0.1-0.2-0.3-0.4c-0.2-0.2-0.4-0.5-0.6-1
		c-0.6-1.1-0.8-2.6-0.8-4.5c0-1.7,0.4-2.9,1-3.6c0.1-0.2,0.2-0.3,0.3-0.3s0.2-0.2,0.4-0.4s0.4-0.3,0.4-0.3c0,0,0.1-0.1,0.3-0.2
		c0.4-0.3,0.9-0.6,1.5-0.8c0.2-0.1,0.4-0.1,0.5-0.2c0.1,0,0.3-0.1,0.6-0.2c0.4-0.1,0.6-0.2,0.7-0.2c0,0,0.1-0.2,0.1-0.5
		c0-0.5-0.2-0.8-0.3-0.8c0,0-0.1,0,0-0.1c0,0,0-0.1,0-0.1c0-0.1-0.1-0.1-0.2-0.1c-0.1,0-0.1,0-0.1,0.1c0,0.1-0.1,0.1-0.3,0.2
		c-0.2,0-0.3,0.1-0.4,0.1l-0.1,0c0-0.1,0-0.1,0-0.2c0,0-0.1-0.1-0.2,0c-0.1,0-0.2,0.1-0.3,0.1S86,39.6,86,39.7c0,0,0,0.1,0,0.1
		c0,0-0.1,0.1-0.2,0.1c-0.1,0-0.1,0,0-0.1c0.1-0.1,0.1-0.1,0-0.1c-0.1,0-0.2,0-0.3,0c-0.2,0.1-0.3,0.1-0.3,0.2c0,0.1,0,0.1-0.1,0.1
		c-0.1,0-0.2,0-0.2-0.1c0-0.1,0-0.1-0.1-0.1c-0.1,0-0.1,0.1-0.1,0.2c0,0.1,0,0.1,0,0.1c0,0-0.1,0-0.3,0.1c-0.2,0-0.3,0-0.3,0
		c0,0-0.1,0-0.2,0.1c-0.1,0.2-0.2,0.2-0.2,0c0-0.2-0.1-0.1-0.4,0.1c-0.1,0.1-0.3,0.2-0.6,0.2c-0.3,0.1-0.8,0.2-1.4,0.4
		c-0.6,0.2-1,0.3-1.1,0.4c-0.2,0.1-0.3,0.2-0.5,0.3c-0.2,0.2-0.5,0.3-0.8,0.3c-0.2,0-0.5-0.1-0.8-0.3c-0.4-0.2-0.7-0.5-1.1-0.7
		s-0.6-0.4-0.6-0.5c0,0,0-0.1-0.1-0.2c-0.1-0.1-0.2-0.3-0.2-0.4c0-0.1-0.1-0.2-0.1-0.2c0,0-0.1-0.1-0.1-0.3c0-0.2,0.1-0.5,0.4-0.9
		s0.6-0.6,0.8-0.6c0.1,0,0.2-0.1,0.3-0.2s0.2-0.1,0.2-0.1c0,0.1,0.4,0,1.3-0.2c0.6-0.2,0.9-0.2,1.1-0.1c0,0,0,0.1-0.1,0.1
		c-0.1,0-0.2,0.1-0.3,0.1c-0.7,0.2-1.2,0.5-1.5,0.8c-0.3,0.3-0.4,0.6-0.2,0.8c0.1,0.1,0.6,0.1,1.4,0c1.3-0.2,2-0.3,2-0.4
		c0,0,0.1,0,0.1,0c0,0,0.1,0,0.2,0c0.1,0,0.3-0.1,0.5-0.1c0.3,0,0.4,0,0.5-0.1c0.1-0.2,0.1-0.2,0.2-0.1c0,0.1,0.5,0.1,1.3-0.1
		c0.4-0.1,0.6-0.1,0.6-0.1c0.1,0,0.1,0,0.2-0.1c0-0.1,0.1-0.1,0.1,0c0,0.1,0.2,0.1,0.6,0c0.4-0.1,0.6-0.1,0.6-0.1
		c0,0,0.2-0.1,0.4-0.1c0.1,0,0.3,0,0.5-0.1s0.4-0.1,0.5-0.1c0.1,0,0.2,0,0.2-0.1l0.3,0c0.2,0,0.3-0.1,0.3-0.2
		c0.1-0.1,0.1-0.2,0.2-0.2c0.1,0,0.1-0.1,0.1-0.1c0-0.2,0.1-0.3,0.4-0.4c0.1,0,0.2,0,0.2,0c0,0,0.1,0.1,0.1,0.1s0.1,0,0.2,0.1
		c0,0,0.1,0.1,0.2,0.3l0.1,0.2l0.7-0.1c0.5-0.1,0.7-0.1,0.8-0.2c0.1-0.1,0.1-0.1,0.2,0c0.1,0.1,0.3,0.1,0.6,0c0.8-0.1,2.4-0.4,5-0.7
		C97.4,36.2,98.1,36,98.8,35.6z M81.4,39.4C81.4,39.4,81.3,39.3,81.4,39.4c-0.2-0.1-0.2-0.1-0.2,0c-0.1,0.1-0.1,0.1,0.1,0.1
		C81.3,39.5,81.4,39.5,81.4,39.4z M81.8,39.4c0-0.1-0.1-0.2-0.2-0.1c-0.1,0.1-0.1,0.1,0.1,0.1C81.8,39.4,81.8,39.4,81.8,39.4
		C81.8,39.4,81.8,39.4,81.8,39.4z M82.1,39.4C82.2,39.4,82.2,39.3,82.1,39.4c0.1-0.2,0.1-0.2,0-0.2S82,39.2,82.1,39.4
		C82,39.3,82,39.4,82.1,39.4z M82.8,39.2c0,0,0-0.1-0.1-0.1c0,0-0.1,0-0.1,0c0,0,0,0.1,0,0.1c0,0,0,0.1,0.1,0.1S82.8,39.2,82.8,39.2
		z M88.2,42.1c-0.1-0.8-0.1-1.2-0.2-1.2c-0.1,0-0.5,0.1-1.2,0.4c-0.9,0.5-1.6,0.9-2,1.4c-0.5,0.5-0.8,1-1,1.6
		c-0.1,0.5-0.2,1.3-0.2,2.4c0,0.8,0,1.3,0.1,1.5s0.1,0.4,0.1,0.6s0.1,0.4,0.1,0.4c0,0,0.1,0.2,0.2,0.5c0,0.2,0.2,0.4,0.4,0.8
		s0.4,0.6,0.5,0.8c0.1,0.1,0.2,0.2,0.4,0.1c0.2,0,0.3-0.1,0.3-0.3c0.1-0.2,0.2-0.5,0.2-1.1c0.1-0.6,0.1-0.9,0-0.9
		c0,0-0.1-0.1-0.1-0.2s0-0.2,0.1-0.2c0,0,0.1-0.2,0-0.5c0-0.3,0-0.4,0-0.4c0,0,0.1,0,0.1,0.1c0,0.1,0,0.2,0,0.4
		c0,0.1,0.1,0.2,0.1,0.3s0.1,0.1,0.3,0.2l0.3,0.1l0.5-0.3c0.4-0.2,0.6-0.3,0.7-0.4l0.2-0.1v-0.9c0-0.7-0.1-1.2-0.2-1.4
		c0,0-0.1-0.1-0.4-0.1c-0.2,0-0.4-0.1-0.7-0.2c-0.3-0.1-0.5-0.3-0.6-0.4c-0.3-0.3-0.4-0.6-0.4-0.7c0-0.1,0.1-0.2,0.1-0.3
		c0-0.1,0.1-0.1,0.1-0.1c0.1,0,0.1,0,0.2-0.1c0.1,0,0.2,0,0.3,0c0.4,0.1,0.8,0,1.2-0.2c0.2-0.1,0.3-0.3,0.4-0.4
		C88.3,43.3,88.3,42.8,88.2,42.1z M84.5,38.6c-0.1,0-0.2,0-0.3,0c0,0-0.1,0.1-0.2,0.1c-0.1,0-0.2,0.1-0.2,0.1c0,0.1,0.1,0.1,0.2,0.1
		c0.4,0,0.6,0,0.6-0.2C84.6,38.7,84.6,38.6,84.5,38.6z M90,30.5c0.1,0,0.3-0.1,0.5,0c0.2,0,0.4,0.1,0.5,0.1c0.3,0.2,0.5,0.6,0.6,1.4
		c0.1,0.4,0.2,0.8,0.4,1c0.2,0.3,0.3,0.5,0.3,0.6c0,0.1,0,0.3,0,0.5c0,0.3-0.1,0.5-0.2,0.7c-0.1,0.1-0.2,0.3-0.2,0.3
		c0,0.1-0.1,0.2-0.4,0.3c-0.2,0.1-0.4,0.2-0.4,0.2c0,0-0.1,0-0.3,0.1C90.5,36,90.3,36,90,36c-0.2,0-0.4-0.1-0.4-0.1s-0.2,0-0.4,0
		c-0.2,0-0.3,0.1-0.4,0.1s-0.2,0.1-0.2,0.1c-0.1,0-0.2,0-0.4,0.1c-0.2,0.1-0.4,0.1-0.4,0.1c0,0-0.1,0-0.2,0c-0.1,0-0.2,0-0.3,0
		s-0.1,0-0.1,0.1c-0.1,0.1-0.2,0.1-0.4,0c-0.1-0.1-0.2-0.1-0.3-0.1c-0.1,0-0.2,0-0.3-0.1s-0.1-0.3-0.1-0.5c0-0.1,0-0.2,0-0.3
		c0,0-0.1-0.1-0.3-0.2c-0.3-0.1-0.3-0.2-0.1-0.2c0,0,0.1,0,0.1,0c0.1,0,0.2,0,0.4-0.1c0.1,0,0.2-0.1,0.2-0.1c0-0.1,0.1-0.3,0.2-0.5
		s0.2-0.4,0.3-0.5c0.1-0.1,0.3-0.3,0.6-0.4c0.5-0.2,0.9-0.6,1.2-1.2c0-0.1,0-0.2-0.1-0.3c-0.1-0.2-0.1-0.3-0.1-0.3
		c0-0.1,0-0.2,0.1-0.3c0-0.2,0.3-0.4,0.6-0.6s0.6-0.3,0.8-0.2C89.8,30.6,89.9,30.6,90,30.5z M86.5,49.3c0-0.1-0.1-0.1-0.1-0.1
		s-0.1,0.2-0.1,0.6s0,0.6,0.1,0.7c0,0.1,0.1,0.2,0,0.4c0,0.2,0,0.4-0.1,0.6l0,0.4l0.3,0c0.2,0,0.3-0.1,0.5-0.1
		c0.5-0.4,0.8-0.6,0.8-0.7c0-0.1,0-0.2-0.1-0.3l-0.1-0.2l0.2,0.2c0.1,0.2,0.3,0.2,0.5,0c0.1-0.1,0.1-0.2,0.1-0.4
		c0-0.2,0-0.3-0.1-0.3c0,0-0.2,0-0.4,0.1c-0.2,0-0.4,0-0.6,0c-0.1,0-0.3-0.1-0.5-0.3C86.6,49.5,86.5,49.4,86.5,49.3z M86.6,37.6
		C86.6,37.5,86.6,37.5,86.6,37.6c0.1,0,0.1,0,0.1,0s0,0.1-0.1,0.1C86.5,37.7,86.5,37.7,86.6,37.6C86.5,37.6,86.5,37.6,86.6,37.6z
		 M88.4,51.8c0-0.1,0-0.3-0.1-0.4c-0.1-0.1-0.1-0.1-0.1-0.1c-0.2,0-0.3,0.1-0.4,0.2c0,0-0.1,0.1-0.3,0.2c-0.5,0.3-0.8,0.6-0.9,0.9
		c-0.1,0.2-0.1,0.3-0.1,0.3c0,0,0.1,0.1,0.2,0.1c0.1,0,0.2,0,0.3-0.1c0.1,0,0.2-0.1,0.4-0.2c0.2-0.1,0.4-0.2,0.6-0.4
		C88.2,52.1,88.4,51.9,88.4,51.8z M87.7,59.4c-0.1-0.1-0.1-0.1-0.2,0c0,0-0.1,0.1,0,0.1c0,0,0.1,0,0.1,0
		C87.7,59.4,87.8,59.4,87.7,59.4z M88.2,39.1c0-0.1-0.1-0.2-0.1-0.1c0,0,0,0.1,0,0.3c0,0.2,0.1,0.3,0.1,0.4c0,0.1,0.1,0.2,0.1,0.4
		c0.1,0.3,0.2,0.4,0.3,0.3c0.1,0,0.1-0.2,0.1-0.5c0-0.4-0.1-0.6-0.4-0.6C88.3,39.3,88.2,39.2,88.2,39.1z M88.9,66.2
		c0.1-0.1,0.2-0.1,0.3-0.1c0,0,0,0.1-0.1,0.1S89,66.2,88.9,66.2C88.9,66.3,88.9,66.3,88.9,66.2z M93.6,44.7
		c-0.4-0.2-1.1-0.2-2.1,0.2c-0.6,0.2-1,0.4-1.3,0.7c-0.1,0.1-0.2,0.1-0.3,0.2c-0.1,0-0.2,0.1-0.2,0.2s0,0.3-0.1,0.6
		c0,0.4,0,0.6,0,0.6c0,0,0.1,0,0.1-0.1c0.1,0,0.1-0.1,0.1-0.1c0,0,0-0.1,0.2-0.3c0.2-0.1,0.3-0.2,0.4-0.3c0.1,0,0.2,0,0.4,0.1
		c0.2,0.1,0.4,0.1,0.5,0.2c0.1,0.1,0.3,0.1,0.6,0.1c0.3,0,0.5,0.1,0.5,0.1c0.1,0.1,0.1,0.1,0.2,0.1c0,0,0.1,0,0.1,0.1
		c0.1,0.2,0.1,0.4,0,0.6s-0.3,0.4-0.5,0.5c-0.2,0-0.3,0.2-0.4,0.3c-0.1,0.2-0.3,0.3-0.5,0.4c-0.2,0.1-0.3,0.2-0.3,0.3
		s-0.1,0.1-0.2,0.2c-0.2,0.1-0.3,0.2-0.5,0.3c-0.2,0.1-0.3,0.2-0.3,0.3c0,0,0.1,0.1,0.2,0.2c0.1,0.1,0.2,0.1,0.2,0.3
		c0,0.1,0.1,0.2,0.3,0.3c0.2,0.1,0.5,0.1,1-0.1c0.2,0,0.4,0,0.6,0.1c0.2,0.1,0.4,0.1,0.5,0.1c0.3-0.1,0.5-0.4,0.8-0.9
		c0.3-0.7,0.5-1.8,0.5-3.3c0-0.8,0-1.3-0.1-1.5C93.9,44.9,93.8,44.7,93.6,44.7z M95.9,38.2c0-0.1-0.1-0.1-0.3,0c0,0-0.1,0.1-0.2,0
		c-0.1,0-0.2,0-0.2,0.1c0,0.1-0.1,0.1-0.2,0c-0.1-0.1-0.1-0.1-0.2,0c0,0-0.1,0.1-0.3,0.1c-0.1,0-0.2,0-0.2,0.1c0,0-0.1,0-0.2,0
		s-0.1,0-0.2-0.1c0,0-0.1-0.1-0.2-0.1c-0.1,0-0.1,0-0.1,0.1c0,0-0.1,0-0.2,0s-0.3,0-0.4,0c0,0-0.1,0-0.1,0s-0.1,0-0.2,0
		c-0.2,0-0.4,0-0.7,0.2c-0.1,0-0.1,0-0.1,0c0,0-0.1,0-0.3,0c-0.1,0-0.2,0-0.3,0c0,0-0.1,0.1-0.1,0.1c0,0.1-0.1,0.2-0.2,0.2
		c-0.1,0-0.2,0-0.2-0.1c0-0.1-0.1-0.1-0.2-0.1c-0.1,0-0.2,0-0.2,0.1c0,0,0,0.1-0.1,0.1c-0.1,0-0.1,0-0.2,0c0-0.1-0.1-0.1-0.2-0.1
		c-0.1,0-0.2,0-0.3,0.1c-0.1,0-0.1,0.3-0.1,0.7c0,0.4,0,0.6,0.1,0.6c0.2,0,1.2-0.3,3-0.7c0.6-0.1,1-0.2,1.1-0.3
		c0.2-0.1,0.3-0.1,0.3-0.1c0.3,0,0.9-0.2,1.5-0.5c0.4-0.2,0.5-0.3,0.1-0.3C95.9,38.3,95.9,38.2,95.9,38.2z M89.8,66.4
		C89.8,66.4,89.8,66.4,89.8,66.4c-0.1-0.1,0-0.1,0-0.1S89.9,66.4,89.8,66.4C89.9,66.5,89.9,66.5,89.8,66.4z M90.2,66.3
		c0.1-0.2,0.3-0.2,0.4-0.1c0,0,0,0-0.1,0.1c0,0-0.1,0-0.1,0.1c-0.1,0-0.1,0-0.2,0C90.1,66.4,90.1,66.4,90.2,66.3z M97.7,50.3
		c0-0.1,0.1-0.1,0.1-0.1c0.1,0,0.1,0.1-0.1,0.4c-0.1,0.2-0.2,0.3-0.1,0.4s0,0.1,0,0.2s-0.1,0.2-0.1,0.2c0,0,0,0.2-0.1,0.5
		c-0.1,0.3-0.2,0.5-0.2,0.5c0,0-0.1,0-0.1,0c0-0.1,0-0.1,0.1-0.1c0,0,0.1-0.1,0.1-0.2s0-0.2,0.1-0.4c0.1-0.1,0.1-0.3,0.1-0.4
		c0-0.2,0-0.3,0.1-0.3c0.2-0.3,0.2-0.4,0.1-0.5C97.6,50.4,97.6,50.4,97.7,50.3z M98.1,48.4c0-0.2,0-0.3-0.1-0.3c-0.1,0-0.1,0-0.1,0
		c0,0,0,0.1,0,0.3c0,0.2,0,0.3,0.1,0.3c0,0,0.1,0,0.1-0.1C98.1,48.6,98.1,48.5,98.1,48.4z M97.9,49.8C97.9,49.8,97.9,49.8,97.9,49.8
		c-0.1-0.1,0-0.1,0-0.1C97.9,49.7,98,49.7,97.9,49.8C98,49.8,97.9,49.8,97.9,49.8z"/>
	<path d="M134.2,31.1c0.2-0.1,0.3,0,0.5,0.1c0.2,0.2,0.6,0.3,1.2,0.3l0.4,0l0.9,0c1.4,0,2.4,0.2,2.9,0.6c0.2,0.1,0.3,0.3,0.4,0.5
		c0.1,0.2,0.1,0.4,0.1,0.8c0,0.7-0.2,1.3-0.6,1.7c-0.1,0.1-0.2,0.2-0.2,0.4c-0.1,0.2-0.1,0.3-0.1,0.3c0,0,0.1,0,0.3-0.1
		c0.2-0.1,0.3-0.1,0.4-0.2c0,0,0.2-0.1,0.5-0.2c0.3-0.1,0.4-0.1,0.5-0.1s0.2,0.1,0.5,0.1c0.5,0,0.8,0.1,0.8,0.3c0,0,0,0.1,0.1,0.1
		c0.1,0.1,0.1,0.2-0.1,0.4c-0.1,0.1-0.2,0.2-0.2,0.3s0,0.2-0.1,0.3c-0.1,0.1-0.2,0.2-0.2,0.2c-0.2,0-0.3,0-0.4,0.2
		c0,0.1-0.1,0.1-0.1,0.1s-0.1,0-0.1,0.1c0,0,0,0.1,0.1,0.1c0.1,0,0.1,0.1,0.1,0.3c0,0.1,0,0.3-0.1,0.3c0,0.1-0.2,0.1-0.4,0.1
		c-0.2,0-0.5,0-0.7,0.1c-1,0.4-1.7,0.7-1.9,0.8c-0.1,0-0.2,0.1-0.4,0.2c-0.6,0.3-1,0.6-1.3,1.1c-0.7,1-0.9,1.6-0.8,1.8
		c0,0,0.1,0,0.1,0c0.2-0.1,0.5-0.3,0.8-0.8c0.2-0.3,0.3-0.5,0.3-0.7s0-0.2,0.1-0.3c0,0,0.1-0.1,0.1-0.2c0-0.1,0.1-0.2,0.2-0.3
		c0.4-0.1,0.6-0.3,0.8-0.4c0.2-0.2,0.4-0.3,0.8-0.4c0.3-0.1,0.6-0.1,0.7-0.1c0.2,0.1,0.4,0.2,0.6,0.5c0.3,0.3,0.4,0.7,0.5,1.1
		c0,0.4,0,0.7,0,1.1c0,0.2,0,0.3,0.1,0.3c0.1,0,0.1,0,0.1-0.1c0,0,0.1,0,0.1,0c0.1,0,0.1,0,0.2,0c0-0.1,0.1-0.1,0.2,0
		c0.1,0.1,0.2,0.1,0.4,0.1c0.4-0.1,0.9-0.1,1.5,0c0.6,0.1,1.1,0.2,1.3,0.3c0.3,0.1,0.4,0.3,0.4,0.5c0,0.1,0,0.2,0.1,0.4
		c0.1,0.2,0,0.4-0.2,0.4c-0.1,0-0.2,0.1-0.2,0c-0.1,0-0.1,0-0.3,0c-0.1,0-0.2,0-0.2,0c-0.1-0.1-0.2,0-0.3,0.1
		c-0.1,0.2-0.2,0.3-0.3,0.3c-0.1,0-0.2,0-0.4,0.1c-0.2,0.1-0.3,0.1-0.3,0.2c0,0,0,0.1,0.1,0.1c0,0,0,0.2-0.1,0.4
		c0,0.2-0.1,0.3-0.1,0.3c0,0-0.3,0-0.6-0.1c-0.2,0-0.4,0-0.6,0.1c-0.2,0.1-0.3,0.1-0.3,0.2c0,0.1,0,0.1-0.1,0.1s-0.1,0-0.2,0
		c-0.1,0-0.1,0-0.1,0.1s0,0.1-0.1,0.1c-0.1,0-0.2,0-0.3,0.1c-0.1,0.1-0.2,0.1-0.2,0.2c0,0.1-0.1,0.1-0.4,0.2c-0.1,0-0.2,0.1-0.2,0.1
		c0,0,0,0.1,0,0.1c0,0,0,0-0.1,0c0,0-0.1,0-0.1,0c0,0-0.1,0-0.1,0.1c0,0-0.1,0.1-0.1,0.1c0,0,0,0.1-0.1,0.1c-0.1,0-0.1,0-0.2,0.1
		c0,0.1-0.1,0.1-0.1,0.1c0,0-0.4,0.2-0.9,0.5c-1,0.6-1.5,1-1.5,0.9c0,0,0-0.1,0.1-0.1c0.1-0.1,0.2-0.1,0.1-0.2c0,0-0.2,0.1-0.6,0.4
		s-0.6,0.4-0.7,0.4c-0.4,0.2-0.7,0.4-0.8,0.4c0,0-0.1,0.1-0.3,0.2c-0.1,0.1-0.2,0.2-0.3,0.2c0,0-0.2,0.1-0.4,0.2
		c-0.3,0.2-0.7,0.3-1.3,0.5c-0.6,0.2-1,0.2-1.4,0.3c-1.1,0.1-2,0-2.6-0.3c-0.3-0.1-0.6-0.4-0.9-0.8s-0.5-0.8-0.5-1.1
		c0-0.2,0-0.3-0.1-0.3c0,0,0-0.2,0.1-0.5c0.1-0.4,0.3-0.6,0.6-0.7c0.2,0,0.4-0.2,0.4-0.4c0-0.1,0.1-0.1,0.2-0.2c0.1,0,0.2-0.1,0.2,0
		c0,0,0,0.1,0,0.3c0,0.2,0,0.3,0.1,0.4c0.1,0.2,0.3,0.3,0.6,0.4c0.3,0.1,0.6,0.1,0.9,0c0.7-0.2,1.8-0.7,3.1-1.5
		c0.6-0.3,0.9-0.5,0.9-0.6c0.1-0.1,0.1-0.1,0-0.2c0-0.1-0.1-0.2-0.1-0.3c-0.1,0-0.1-0.1,0-0.2s0.1-0.2,0.1-0.4c0-0.2,0-0.4,0.1-0.5
		c0.1-0.1,0.2-0.3,0.3-0.5c0.1-0.5,0.3-1,0.6-1.5c0.1-0.3,0.2-0.4,0.2-0.5c0-0.1,0-0.1-0.1-0.2c-0.1-0.1-0.2-0.1-0.5,0
		c-0.4,0.1-0.7,0.1-1,0c-0.1,0-0.4-0.2-0.7-0.6c-0.3-0.3-0.6-0.6-0.7-0.6c-0.3-0.1-0.4-0.3-0.4-0.5c0,0,0.1-0.1,0.2-0.3
		c0.1-0.1,0.2-0.3,0.3-0.4s0.2-0.2,0.2-0.1c0,0,0.1,0.1,0.3,0.2c0.2,0.1,0.4,0.1,0.7,0.1c0.5,0,1-0.2,1.6-0.5
		c0.2-0.1,0.5-0.3,0.8-0.5c0.3-0.2,0.5-0.3,0.5-0.3c0,0-0.1,0-0.2,0.1c-0.2,0.1-0.3,0.1-0.3,0c0,0,0-0.1,0.1-0.1
		c0.2-0.1,0.2-0.2-0.1-0.2c0,0-0.1,0-0.1,0c-0.2,0-0.3,0-0.3-0.1c0-0.1-0.1-0.1-0.4-0.1c-0.5,0-1,0.3-1.8,0.8
		c-0.2,0.1-0.3,0.2-0.4,0.2c-0.1,0-0.1-0.1-0.1-0.1c0,0,0.1-0.1,0.1-0.1c0.1,0,0.3-0.2,0.6-0.4c0.5-0.4,0.7-0.8,0.9-1.4
		c0.1-0.3,0.1-0.5,0.1-0.6c0-0.2-0.1-0.3-0.1-0.4c0-0.1,0-0.2-0.1-0.3c-0.1-0.1-0.1-0.2-0.2-0.3c-0.1-0.1-0.2-0.2-0.3-0.4
		c-0.4-0.4-0.6-0.6-0.6-0.9c-0.1-0.3-0.1-0.6,0-0.8c0-0.1,0.2-0.3,0.3-0.5C134,31.2,134.1,31.1,134.2,31.1z M138.5,47.5
		C138.5,47.5,138.5,47.4,138.5,47.5C138.5,47.4,138.5,47.4,138.5,47.5c0.1,0,0.2,0,0.2,0s0.1,0,0.1,0.1c0,0.1,0,0.3,0.1,0.4
		c0.1,0.1,0.2,0.2,0.3,0.2s0.1,0,0.1,0.1s0,0.1,0.1,0.1c0,0,0,0,0,0.1c0,0-0.1,0.1-0.1,0.1s0,0.1-0.1,0.2c-0.1,0.1-0.1,0.1-0.2,0.1
		c0,0-0.1,0-0.2,0.1c-0.1,0.1-0.1,0.2-0.1,0.2c0,0.1,0,0.1-0.1,0.2c-0.1,0.1-0.1,0.1-0.2,0.1c-0.1,0-0.1,0-0.1,0.1
		c-0.1,0.1-0.2,0.5-0.2,1c0,0.1,0,0.3-0.1,0.5c0,0.2,0,0.4,0,0.4c0,0,0,0.1,0,0.1c0,0-0.1,0.1-0.1,0.4s0,0.5-0.1,0.8
		s-0.1,0.7-0.1,1.1c0,0.4,0,0.7,0,0.9c0,0.6-0.1,1.8-0.1,3.5c0,1.1-0.1,1.7-0.1,1.9c0,0.1-0.1,0.2-0.1,0.4c0,0.2,0,0.3-0.1,0.5
		s-0.1,0.3-0.1,0.4c0,0,0,0.1-0.1,0.1c-0.1,0-0.1,0.1-0.2,0.1c0,0-0.1-0.1-0.3-0.2c-0.1-0.1-0.2-0.2-0.2-0.3s0-0.2-0.1-0.3
		c-0.1-0.1-0.1-0.2-0.1-0.3c0-0.1-0.1-0.3-0.3-0.6c-0.2-0.3-0.3-0.6-0.4-0.6c0-0.1-0.2-0.4-0.6-1.1c-0.3-0.6-0.5-1.1-0.6-1.2
		c0-0.1-0.1-0.2-0.1-0.3c0,0-0.1,0-0.3,0.2s-0.2,0.2-0.2,0.3c0,0.1-0.2,0.3-0.6,0.6c-0.4,0.4-0.6,0.6-0.7,0.6
		c-0.1,0-0.3,0.2-0.4,0.4c0,0.1-0.1,0.2-0.3,0.3c-0.1,0.1-0.2,0.2-0.3,0.2c-0.2,0-0.3-0.3-0.5-0.9c0-0.2-0.1-0.3-0.2-0.4
		c-0.1-0.2-0.2-0.6-0.1-1.3c0-0.5,0.1-0.9,0.2-1.2c0.1-0.3,0.1-0.5,0.1-0.6c0.1-0.4,0.2-0.7,0.4-1s0.3-0.5,0.5-0.5
		c0.1,0,0.3-0.1,0.4,0c0.2,0,0.3,0.1,0.4,0.1c0.1,0.1,0.1,0.1,0.1,0.2c0,0,0,0.1,0.1,0.1c0.1,0,0.1,0.1,0.1,0.2s0,0.1,0.1,0.2
		c0.1,0.1,0.2,0.3,0.4,0.6c0.2,0.3,0.3,0.5,0.3,0.5s0.1,0.2,0.2,0.4c0.1,0.2,0.2,0.3,0.2,0.3s0.1-0.1,0.2-0.3
		c0.1-0.1,0.2-0.2,0.2-0.2c0,0.1,0,0.1-0.1,0.1c0,0-0.1,0.1-0.1,0.2s0,0.2,0,0.2c-0.1,0.1-0.1,0.5,0.3,1.1c0.2,0.4,0.3,0.6,0.3,0.7
		c0,0,0,0.1,0.1,0.1s0.1,0,0.1,0.1c0,0.1,0.2,0.3,0.4,0.5c0.2,0.2,0.3,0.4,0.4,0.4c0.1,0,0.1,0,0.1,0c0,0,0-0.1,0-0.1
		c0-0.1-0.1-0.1,0-0.1c0,0,0.1,0,0.2,0.1c0.2,0.1,0.3,0.2,0.4,0.1c0-0.1,0.1-2.2,0.1-6.3c0-1,0-1.6-0.1-1.7s-0.1-0.1-0.2-0.1
		c-0.1,0-0.4,0.1-0.8,0.4c-0.1,0.1-0.3,0.2-0.4,0.3c-0.2,0.1-0.5,0.3-0.9,0.6c-0.3,0.2-0.5,0.3-0.6,0.3c-0.3,0-0.5,0-0.7-0.1
		c-0.1-0.1-0.2-0.3-0.2-0.6c0-0.6,0.1-1,0.3-1.2c0.1-0.1,0.2-0.2,0.2-0.2c0,0,0.1,0,0.1-0.1c0-0.1,0.1-0.1,0.1,0c0,0,0,0.1,0,0.1
		c0,0.2,0.1,0.4,0.3,0.5c0.2,0,0.6,0,1.1-0.2c0.5-0.2,0.9-0.5,1.3-0.8c0.1-0.1,0.2-0.2,0.1-0.3c0-0.1,0-0.2,0.1-0.4
		c0.1-0.2,0.1-0.3,0.2-0.3c0,0,0.1-0.1,0.1-0.2c0.1-0.1,0.2-0.2,0.3-0.4s0.2-0.2,0.3-0.2c0.1,0,0.1,0,0.1,0c0,0,0,0.1,0.1,0.1
		c0.1,0,0.1,0,0.1-0.1c0,0,0-0.1,0.1-0.1s0.1-0.1,0.1-0.1c0,0,0-0.1,0.1-0.1C138.5,47.7,138.5,47.6,138.5,47.5z M132.9,54
		c-0.2-0.3-0.4-0.2-0.6,0.1c-0.2,0.3-0.3,0.9-0.4,1.6c0,0.3,0,0.5,0.1,0.8c0.1,0.3,0.1,0.5,0.2,0.5c0.1,0.2,0.4,0.3,0.7,0.4
		c0.2,0,0.3,0,0.5-0.2c0.5-0.5,0.7-0.8,0.7-0.9c0-0.1-0.2-0.5-0.5-1.2S133,54.1,132.9,54z M136.1,59.1
		C136.1,59.1,136.2,59,136.1,59.1c0.1-0.1,0-0.1,0-0.1C136.1,59,136.1,59,136.1,59.1C136.1,59,136.1,59.1,136.1,59.1z M138.1,41.1
		c0-0.1-0.1-0.1-0.2-0.1s-0.2,0.1-0.3,0.3c-0.1,0.2-0.1,0.3-0.1,0.4s-0.2,0.4-0.5,1c-0.3,0.6-0.4,0.9-0.4,0.9c0,0,0.2-0.1,0.4-0.3
		s0.4-0.4,0.5-0.5c0.3-0.4,0.5-0.8,0.5-1.2C138.1,41.4,138.1,41.2,138.1,41.1z M136.8,37c0.1,0,0.1,0,0.1-0.1c0,0,0-0.1,0-0.1
		c0,0-0.1,0-0.1,0C136.7,36.8,136.7,36.8,136.8,37C136.7,36.9,136.7,37,136.8,37z M138.7,46.4c0.1,0,0.2-0.1,0.3-0.2
		c0.2-0.1,0.2-0.2,0.2-0.3c0,0-0.2,0-0.3,0.1c-0.2,0.1-0.3,0.2-0.4,0.2c-0.1,0-0.1,0.1-0.1,0.1s-0.1,0.1-0.2,0.1
		c-0.2,0.1-0.4,0.2-0.7,0.4c-0.3,0.2-0.5,0.3-0.5,0.4c0,0.1-0.1,0.1-0.1,0.1c0,0-0.1,0-0.1,0c0,0-0.1,0.1,0,0.1c0,0,0.1,0,0.1,0
		c0.1,0,0.1,0,0.1-0.1c0,0,0-0.1,0.1-0.1c0.1,0,0.2,0,0.3,0.1s0.2,0.1,0.2,0c0,0,0.2-0.1,0.4-0.3c0.1-0.1,0.2-0.3,0.2-0.3
		c0-0.1,0-0.1,0.1-0.1c0,0,0.1,0,0.1,0.1c0,0,0,0.1,0.1,0.1s0.1,0,0.1-0.1s0-0.1,0.1-0.2S138.6,46.4,138.7,46.4z M143.2,45.2
		C143.2,45.1,143.3,45.1,143.2,45.2c0.1,0,0,0.2,0,0.5c0,0.3-0.1,0.5-0.1,0.7c0,0.2-0.1,0.5-0.1,1.1s-0.1,0.9-0.1,1
		c0,0.1,0,0.2-0.1,0.5c0,0.3-0.1,0.6-0.1,0.9c-0.1,0.6-0.2,1-0.2,1.3c0,0.4-0.1,1-0.3,1.8c0,0.2-0.1,0.6-0.1,1.1
		c0,0.5,0,0.8-0.1,0.9c-0.1,0.1-0.2,0.2-0.3,0.3c-0.1,0.1-0.2,0.1-0.3,0.1c-0.1,0-0.2,0-0.3-0.1s-0.3-0.2-0.3-0.2s0-0.1-0.1-0.1
		s-0.1-0.1-0.2-0.3c-0.1-0.2-0.1-0.4-0.1-0.5s0-0.3-0.1-0.4c-0.1-0.1-0.1-0.2-0.1-0.4c0-0.2,0-0.3,0.1-0.4c0.1-0.1,0.1-0.3,0-0.6
		c-0.1-0.3-0.2-0.5-0.4-0.6c-0.2-0.1-0.3-0.2-0.5-0.2s-0.3,0-0.3,0c0.1,0,0.3-0.1,0.6-0.1c0.3,0,0.6,0.1,0.8,0.2
		c0.2,0.1,0.4,0.2,0.4,0.1c0,0,0-0.1-0.1-0.2c-0.1-0.1-0.1-0.2-0.1-0.2c0,0,0.2,0.1,0.4,0.3c0.2,0.2,0.3,0.3,0.4,0.3
		c0-0.1,0.1-0.3,0.3-0.7c0.1-0.4,0.3-0.7,0.3-0.9c0-0.2,0.1-0.3,0.1-0.3s0.1-0.1,0.1-0.2c0-0.1,0-0.3,0.1-0.6
		c0.1-0.3,0.1-0.5,0.1-0.6c0-0.1,0-0.2,0.1-0.4s0.1-0.3,0.1-0.4c0-0.1,0-0.2,0.1-0.3c0.1-0.1,0.1-0.2,0.1-0.2c0,0,0.1-0.7,0.4-1.9
		C143.1,45.4,143.2,45.2,143.2,45.2z M143.3,45c0.1-0.1,0.1-0.1,0.1-0.1L143.3,45z M151.9,30.4c0-0.1,0.1-0.1,0.1,0
		c0.1,0.2,0.2,0.3,0.4,0.1c0.1-0.2,0.4-0.1,0.8,0.2c0.4,0.3,0.6,0.5,0.8,0.5c0.1,0,0.5,0.3,1,0.8c0.1,0.1,0.2,0.2,0.3,0.4
		c0.2,0.2,0.2,0.5,0.2,0.9c0,0.3-0.1,0.6-0.3,0.9c-0.1,0.2-0.2,0.3-0.3,0.4c0,0.1-0.1,0.1-0.1,0.2s-0.1,0.1-0.1,0.1
		c0,0-0.1,0.2-0.2,0.4c-0.1,0.2-0.3,0.4-0.4,0.5c-0.2,0.1-0.3,0.2-0.3,0.3s-0.1,0.1-0.2,0.3s-0.2,0.2-0.3,0.2s-0.1,0-0.1,0.1
		c0,0.1-0.1,0.1-0.2,0.2c-0.1,0-0.2,0.1-0.2,0.2c0,0.1-0.1,0.1-0.1,0.1s-0.1,0-0.2,0c-0.1,0-0.2,0-0.3,0.1c-0.1,0-0.2,0.1-0.3,0.2
		c0,0.1-0.1,0.2-0.1,0.2c0,0-0.1,0-0.1,0.1c0,0.1-0.1,0.1-0.2,0.1s-0.1,0-0.1,0.1c0,0-0.1,0.1-0.2,0.1c-0.2,0.1-0.3,0.2-0.3,0.4
		c0,0.1,0,0.1,0,0.2c0,0.1-0.1,0.1-0.1,0.1c-0.1,0-0.1,0-0.2,0.1c-0.1,0.1-0.1,0.3-0.1,0.5c0,0.2,0,0.3,0,0.3c0,0,0.1,0,0.2-0.1
		c0.1,0,0.1-0.1,0.1-0.2l0.1-0.1c0,0.1,0,0.1,0.1,0.1c0,0,0.1,0,0.2-0.1s0.3-0.2,0.5-0.3c0.2-0.1,0.3-0.2,0.3-0.3
		c0-0.1,0.1-0.2,0.2-0.3c0.1-0.1,0.2-0.2,0.3-0.3c0.1-0.1,0.2-0.2,0.3-0.3c0.2-0.1,0.5-0.1,0.8,0.1c0.2,0.1,0.4,0,0.5-0.1
		c0,0,0.1-0.1,0.3-0.1c0.2,0,0.3-0.1,0.3,0c0,0,0.1,0,0.3-0.1s0.2-0.1,0.3-0.1c0.1,0,0.2,0,0.2-0.1c0-0.1,0.4-0.1,1.1-0.1
		c0.7,0,1.1,0,1.1-0.1s0.1-0.1,0.2-0.1c0.1,0,0.1,0,0.1,0.1c0,0.1,0,0.2,0.1,0.3c0,0.1,0.1,0.2,0.1,0.3c0,0.1,0.1,0.1,0.1,0.1
		c0.1,0,0.1,0.1,0.1,0.1s0,0.1-0.1,0.1c-0.1,0-0.1,0.1-0.1,0.1c0,0.1,0.1,0.1,0.2,0.1c0.1,0,0.1,0.1,0,0.2c-0.1,0.1-0.1,0.2,0,0.3
		c0.1,0.1,0.1,0.2,0.2,0.2c0.1,0,0,0-0.1,0.1c-0.1,0-0.2,0.1-0.3,0.3s-0.1,0.2-0.2,0.2c-0.2,0.1-0.3,0.2-0.1,0.4
		c0.1,0.1,0.1,0.1,0,0.2c-0.1,0-0.1,0.1-0.1,0.2c0,0.1,0,0.2-0.1,0.2c0,0.1-0.1,0.1-0.1,0.2c0,0,0.1,0.1,0.1,0.1
		c0.2,0,0.2,0,0.1,0.1c0,0-0.1,0.1-0.2,0.1c-0.1,0-0.2,0.1-0.3,0.1c0,0,0,0.1,0.1,0.1c0,0,0.1,0.1,0.1,0.1s-0.1,0.1-0.3,0.1
		c-0.5,0.1-0.8,0.2-0.9,0.5c0,0.1,0,0.6,0,1.6c0.1,1,0.1,2.3,0.1,3.9c0,1.6-0.1,2.7-0.1,3.3c0,0.2,0,0.6-0.1,1.3
		c0,0.7,0,1.1-0.1,1.2c0,0.1,0,0.2,0,0.3c0,0,0,0-0.1,0c0,0-0.1,0-0.1-0.1c0,0,0-0.1-0.1-0.1c0,0-0.1,0-0.1,0c0,0,0,0.1,0,0.1
		c0,0,0,0.1,0,0.1c-0.1,0-0.1,0.1,0,0.1c0,0,0.1,0,0.2,0c0.1-0.1,0.2-0.1,0.2,0c0,0,0,0.1-0.1,0.1s-0.1,0.1-0.2,0.2
		c0,0.1,0,0.3,0,0.4c0,0.1,0,0.2,0,0.4c0,0.1,0,0.2,0,0.3c0,0.1,0.1,0.2,0,0.2c0,0.1-0.1,0.2-0.1,0.3s-0.1,0.2-0.2,0.3
		c-0.1,0-0.1,0.1-0.1,0.3c0,0.1,0,0.2,0.1,0.2c0,0,0,0,0.1,0c0,0-0.1,0.1-0.1,0c0,0,0,0-0.1,0c0,0,0,0,0,0.1c0,0,0,0.1,0,0.1
		s0,0.1,0,0.3s0,0.2,0.1,0.2s0.1,0,0.1,0.1c0,0.1-0.1,0.1-0.1,0.1c-0.1,0-0.2,0.2-0.3,0.7c0,0.2-0.1,0.3-0.1,0.3c0,0,0,0.1,0,0.3
		c0,0.2,0,0.3-0.1,0.4c0,0-0.1,0.1-0.2,0.1s-0.2,0-0.2-0.1c0-0.1,0-0.1-0.1,0c0,0,0,0.1,0,0.2s0.1,0.1,0.2,0.1c0.1,0,0.1,0,0.1,0.1
		c0,0.1,0,0.1,0,0.1c0,0,0,0-0.1,0c0,0,0,0-0.1,0s0,0,0-0.1c0-0.1,0-0.1-0.1-0.1c-0.1,0-0.2,0-0.2,0.1c0,0.1,0,0.1,0,0.3
		c0.1,0.3,0,0.5-0.1,0.6c0,0,0,0.1,0,0.2c0,0.1,0,0.1,0,0.2c-0.2,0.2-0.2,0.4-0.1,0.4c0,0,0,0.1,0,0.2s0,0.2-0.1,0.3
		c0,0,0,0.1,0,0.2c0,0.1,0,0.2-0.1,0.2c0,0.1-0.1,0.2,0,0.3c0,0.1,0.1,0.2,0.1,0.3c0.1,0.1,0.2,0.2,0.1,0.3c0,0-0.1,0.1-0.1,0.1
		c0,0.1,0,0.2-0.1,0.3c0,0.1-0.1,0.2-0.1,0.2c-0.1,0-0.1-0.1,0-0.4c0.1-0.3,0.1-0.5,0-0.5c0,0-0.1,0-0.1,0.1l0,0.1c0,0,0,0,0,0.1
		c0,0,0,0.1-0.1,0.1c0,0.1,0,0.1-0.1,0.2c-0.1,0.3-0.1,0.5-0.2,0.6c0,0.1,0,0.2-0.1,0.3c0,0-0.1,0.1-0.1,0.1s0,0.2-0.1,0.3
		c-0.1,0.1-0.1,0.2-0.1,0.4c0,0.1-0.1,0.2-0.2,0.3s-0.2,0.2-0.2,0.4c-0.1,0.4-0.3,0.7-0.4,0.7c-0.1,0-0.1,0.1-0.1,0.1
		c0,0,0,0.1-0.1,0.2c-0.1,0.1-0.2,0.1-0.2,0.2s-0.1,0.1-0.1,0.2c0,0.2,0,0.3-0.1,0.3c-0.1,0-0.1,0-0.2,0.1c0,0-0.1,0-0.1,0
		c0,0,0-0.1,0.1-0.1c0.1,0,0.1-0.1,0-0.2c0-0.1,0-0.1,0-0.2c0.2-0.1,0.2-0.2,0.1-0.3c-0.1,0-0.1-0.1,0-0.1c0,0,0.1-0.1,0.1-0.2
		c0-0.1,0.1-0.2,0.1-0.2c0,0,0-0.1,0.1-0.3c0-0.1,0.1-0.4,0.2-0.7c0.1-0.3,0.2-0.5,0.2-0.6c0.2-0.5,0.3-0.7,0.2-0.8
		c0-0.1-0.1-0.1,0-0.1s0.1-0.2,0.1-0.6c0.1-0.4,0.1-0.6,0.1-0.8s0.1-0.4,0.1-0.7c0-0.2,0-0.3,0-0.3c0,0,0-0.1-0.1-0.1
		c-0.1,0-0.2,0.1-0.2,0.2s-0.1,0.2-0.1,0.2s0,0.1-0.1,0.1s-0.1,0.2-0.1,0.4c0,0.2,0,0.4-0.1,0.4s0,0.2,0,0.3c0,0.1,0,0.2,0,0.3
		c0,0.1,0,0.1,0,0.1s0,0.1,0,0.2c-0.1,0.2-0.1,0.4-0.1,0.5c0,0.1,0,0.2-0.1,0.2c-0.1,0-0.1,0.1-0.1,0.3c0,0.1,0,0.3-0.1,0.3
		c-0.1,0.1-0.1,0.2-0.1,0.4c0,0.3-0.1,0.6-0.3,0.7c0,0,0,0-0.1,0c0,0,0,0,0-0.1c0-0.1,0-0.2,0.1-0.2s0.1-0.1,0-0.2
		c0-0.1,0-0.1,0-0.1c0,0,0.1-0.1,0.1-0.1c0-0.1,0-0.2,0.1-0.3c0.1-0.1,0.1-0.2,0-0.3c0,0,0-0.1,0-0.2c0-0.1,0-0.2-0.1-0.3
		c-0.1-0.1-0.1-0.3,0-0.5s0-0.3,0-0.4c0,0,0-0.1,0-0.1c0,0,0.1-0.2,0.1-0.4v-0.4l0.1,0c0.1,0,0.2,0,0.2-0.1c0-0.1-0.1-0.1-0.2-0.2
		c-0.1,0-0.2-0.1-0.2-0.1s0-0.3,0.1-0.7s0.1-0.7,0.1-0.8c0-0.1,0-0.3,0.1-0.8c0-0.5,0.1-0.7,0.1-0.8c0-0.1,0-0.3,0-0.6
		c0.1-0.8,0.1-2.2,0.1-4.3c0-1.2,0-2,0.1-2.6c0.1-1.9,0.1-3.6,0.1-5.1c0-1.1,0-1.7,0-2c0-0.2-0.1-0.4-0.3-0.4c-0.2,0-0.5,0.1-1,0.6
		c-0.5,0.4-1,0.7-1.5,1c-0.3,0.1-0.5,0.2-0.6,0.3c-0.1,0-0.2,0.1-0.3,0.1c-0.1,0-0.2,0.2-0.4,0.6c-0.2,0.4-0.3,0.6-0.4,0.7
		c-0.1,0.1-0.1,0.3-0.1,0.4c0,0.2,0,0.3-0.1,0.4c-0.1,0.1-0.1,0.1-0.1,0.2c0,0,0,0.1,0,0.1s0,0.1,0,0.1c0,0,0.1,0.1,0,0.3
		c0,0.1-0.1,0.2-0.1,0.2c-0.1,0-0.1,0.1-0.2,0.2s0,0.2,0,0.2c0.1,0,0,0.1-0.1,0.2c-0.1,0.1-0.2,0.2-0.3,0.4
		c-0.2,0.4-0.4,0.7-0.6,0.8c-0.1,0.1-0.2,0.2-0.3,0.3c-0.3,0.3-0.7,0.4-1.2,0.3c-0.3,0-0.4-0.1-0.5-0.2c-0.1-0.1-0.1-0.2-0.2-0.2
		c-0.1,0-0.1,0,0-0.1c0.1-0.1,0.1-0.2,0.1-0.3c0-0.1,0-0.2-0.1-0.3c-0.1,0-0.1-0.1-0.1-0.2c0-0.1,0-0.1-0.1-0.2
		c-0.1,0-0.2-0.1-0.4-0.3s-0.3-0.2-0.3-0.2s-0.1,0-0.2-0.1c-0.1-0.1-0.1-0.2-0.1-0.3l0-0.2l0.2,0.2c0.9,0.7,1.7,0.8,2.3,0.4
		c0.5-0.3,0.8-0.9,0.9-1.5c0-0.2,0.1-0.5,0.1-0.7c0.1-0.2,0.1-0.4,0.1-0.6c0-0.2,0.1-0.3,0.1-0.5l0.1-0.3l-0.4-0.4
		c-0.4-0.4-0.8-0.6-1.2-0.7l-0.4,0l-0.3,0.3c-0.2,0.2-0.4,0.6-0.6,1.1l-0.4,0.6c0,0,0-0.1,0.1-0.3c0-0.1,0.1-0.3,0.2-0.5
		c0.3-0.8,0.5-1.2,0.6-1.2c0,0,0.1-0.1,0.2-0.3c0.1-0.3,0.4-0.6,0.9-1c0.1-0.1,0.2-0.2,0.3-0.2c0,0,0.1-0.1,0.1-0.1
		c0,0,0.1,0,0.2-0.1c0.1-0.1,0.3-0.2,0.6-0.4l0.4-0.3v-0.4c0-0.7-0.1-1.3-0.2-1.9c0-0.1-0.1-0.4-0.1-0.7l-0.1-0.5l-0.3,0
		c-0.4-0.1-0.5-0.4-0.2-1.1c0.2-0.4,0.3-0.9,0.3-1.3c0-0.5,0.2-0.8,0.5-1.1c0.5-0.4,1-0.8,1.4-1.2c0.6-0.5,1.1-1,1.3-1.5
		c0.1-0.2,0.1-0.4,0.1-0.5c-0.1-0.1-0.2-0.1-0.3-0.1c-0.2,0-0.2,0-0.1-0.1c0,0,0.1,0,0.2-0.1c0.1-0.1,0.2-0.2,0.2-0.3
		c0-0.1,0-0.2,0.1-0.3c0.1-0.1,0.1-0.1,0.2-0.1c0,0,0.1,0,0.2-0.1c0.1-0.1,0.2-0.1,0.2-0.1s0.1,0,0.1-0.1c0-0.1,0.1-0.2,0.3-0.3
		S151.8,30.5,151.9,30.4z M143.8,48.2c0-0.1,0-0.1,0-0.1c0,0,0,0,0.1,0S143.8,48.2,143.8,48.2C143.8,48.3,143.8,48.3,143.8,48.2z
		 M143.8,47.8C143.9,47.7,143.9,47.7,143.8,47.8c0.1,0.1,0,0.1,0,0.1C143.8,47.9,143.8,47.8,143.8,47.8z M144,47.6
		C143.9,47.6,143.9,47.6,144,47.6c-0.1-0.1,0-0.1,0-0.1S144,47.5,144,47.6C144,47.6,144,47.6,144,47.6z M144,47.3
		C144,47.3,144,47.3,144,47.3C144,47.2,144,47.2,144,47.3C144.1,47.2,144.1,47.3,144,47.3C144.1,47.3,144.1,47.3,144,47.3z
		 M144.1,47.1C144.1,47.1,144,47.1,144.1,47.1c0-0.1,0-0.2,0-0.2C144.1,46.9,144.2,47,144.1,47.1C144.2,47.1,144.1,47.1,144.1,47.1z
		 M144.1,51.1C144.1,51.1,144.1,51.1,144.1,51.1C144.1,51,144.1,51,144.1,51.1C144.2,51,144.2,51.1,144.1,51.1
		C144.2,51.1,144.2,51.1,144.1,51.1z M151.9,67.9c0.1,0,0.1,0,0.1,0c0,0,0,0.1,0,0.1c0,0.1-0.1,0.1-0.1,0.2c0,0.1,0,0.1-0.1,0.2
		c-0.1,0-0.1,0.1-0.1,0.1c0,0,0,0.1-0.1,0.2c-0.1,0.1-0.1,0.2-0.2,0.2c-0.1,0.1-0.1,0.1-0.1,0.1c0,0,0-0.1,0-0.2
		c0-0.1,0.1-0.2,0.1-0.2c0,0,0.1-0.1,0.2-0.3c0.1-0.2,0.1-0.3,0.1-0.3C151.8,67.9,151.8,67.9,151.9,67.9z M151.8,66.8
		C151.8,66.8,151.8,66.8,151.8,66.8c0-0.2,0.1-0.2,0.1-0.2S151.9,66.7,151.8,66.8C151.8,66.8,151.8,66.8,151.8,66.8z M152,66.1
		c0-0.1,0.1-0.1,0.1,0c0,0,0,0.1-0.1,0.3c0,0.1-0.1,0.1-0.1,0.1C151.9,66.4,151.9,66.3,152,66.1z M152.9,66.2c0-0.1,0-0.1-0.1-0.1
		c0,0-0.1,0-0.1,0.1s0,0.1,0,0.2c0,0,0.1,0,0.1,0C152.9,66.4,152.9,66.3,152.9,66.2z M152.9,67.3C153,67.2,153,67.2,152.9,67.3
		c0.1,0.1,0,0.1,0,0.1C152.8,67.5,152.9,67.4,152.9,67.3z M154.3,64.1c0.1-0.2,0.1-0.2,0.2-0.1c0,0,0.1,0.1,0,0.1
		c0,0.1-0.1,0.1-0.1,0.1c0,0-0.1,0.1-0.1,0.2c0,0.1,0,0.2,0,0.2s0,0.1,0,0.1c-0.1,0-0.1,0-0.1,0.1s0,0.1-0.1,0.1
		c0,0-0.1,0.1-0.1,0.3c0,0.2,0,0.3-0.1,0.3c-0.1,0-0.1,0.1-0.1,0.2s0,0.2-0.1,0.3c-0.1,0.1-0.2,0.2-0.2,0.3c0,0.1-0.1,0.1-0.1,0.1
		s-0.1,0-0.1,0.1c0,0,0,0.2-0.1,0.3s-0.2,0.3-0.2,0.3c0,0,0,0,0,0c0,0,0.1-0.3,0.3-0.6c0.2-0.4,0.3-0.6,0.4-0.6c0,0,0.1-0.1,0-0.1
		c0,0,0-0.1,0.1-0.3C154,65,154.2,64.6,154.3,64.1z M155.1,60.8c0-0.1,0-0.1,0-0.2s0.1-0.1,0.1,0c0,0,0.1,0.1,0.1,0.1s0,0.1-0.1,0.3
		c0,0.2,0,0.3-0.1,0.4c0,0.1,0,0.2,0,0.2c0,0,0,0,0,0.1c0,0.1,0,0.1,0,0.2c0,0.1-0.1,0.1-0.1,0.2c-0.1,0.1-0.1,0.2-0.1,0.3
		c0,0.1,0,0.2-0.1,0.2c0,0,0-0.1-0.1-0.2c0-0.2,0-0.3,0-0.3c0,0,0-0.1,0-0.2c0-0.2,0.1-0.5,0.2-0.8
		C155.1,60.9,155.1,60.8,155.1,60.8z M155.7,59.3l0.1,0.1c0,0.1,0,0.2,0,0.2c0,0-0.1-0.1-0.1-0.1C155.6,59.4,155.6,59.4,155.7,59.3z
		 M155.9,58.2C155.9,58.3,155.9,58.2,155.9,58.2c-0.1-0.1,0-0.1,0-0.1S156,58.1,155.9,58.2C156,58.2,155.9,58.2,155.9,58.2z"/>
	<path d="M183.6,47.4c0,0,0.1,0,0.1,0.1c0,0,0,0,0,0.1c0.1,0.1,0.3,0.4,0.5,0.7c0.3,0.3,0.5,0.5,0.8,0.7c0.5,0.4,0.9,0.8,1.2,1.2
		c0.1,0.2,0.3,0.4,0.4,0.5c0.6,0.7,0.9,1.1,1,1.3c0.1,0.2,0.2,0.5,0.2,0.8c0,0.2-0.1,0.4-0.2,0.6c-0.1,0.1-0.2,0.2-0.4,0.3
		c-0.1,0.1-0.3,0-0.6-0.1s-0.5-0.2-0.6-0.2c-0.2,0-0.9,0.3-2.1,1c0,0-0.1,0-0.1,0.1c-0.6,0.3-0.9,0.5-1,0.6c-0.1,0.1-0.1,0.1,0,0.2
		c0.1,0,0.5,0.1,1,0.1c0,0,0.1,0,0.1,0c0.9,0,1.4,0,1.5,0.1c0.1,0.1,0.2,0.1,0.3,0.1s0.2,0,0.3,0.1c0.1,0.1,0.2,0.1,0.3,0.1
		s0.1,0,0.2,0.1s0.2,0.1,0.3,0.1c0.1,0,0.1,0,0.2,0c0,0,0.1,0.1,0.1,0.1c0.1,0,0.2,0,0.3,0.1c0.1,0.1,0.3,0.2,0.4,0.2
		c0.2,0,0.3,0.1,0.4,0.2c0.2,0.1,0.6,0.2,1.4,0.3c0.1,0,0.2,0.1,0.3,0.1c0.1,0,0.2,0.1,0.4,0.1c0.4,0,0.8,0.1,1.3,0.4
		c0.1,0,0.2,0.1,0.3,0.1c0.1,0,0.3,0.1,0.7,0.2c0.4,0.1,0.6,0.2,0.7,0.2s0.3,0.1,0.6,0.2c0.3,0.1,0.6,0.2,0.8,0.3
		c0.2,0,0.4,0.1,0.6,0.2c0.2,0.1,0.4,0.1,0.5,0.1c0.2,0,0.7,0,1.3,0c0.6,0,1,0,1.3-0.1c0.4-0.1,0.7-0.1,1.1-0.2
		c0.4,0,1.1-0.2,2.1-0.3c0.5-0.1,0.8-0.1,0.9-0.1c0.1,0,0.5-0.1,1.2-0.2c0.8-0.1,1.5-0.2,2.3-0.3c0.4,0,0.8-0.1,1.2-0.2
		c0.4-0.1,1.1-0.1,2-0.1c0.9,0,1.4,0,1.5,0s0.2,0,0.3,0c0.1,0.1,0.2,0.1,0.3,0c0,0,0.1-0.1,0.2,0c0.1,0,0.2,0,0.2,0s0.1,0,0.2,0
		c0.1,0.1,0.2,0.1,0.3,0c0.1,0,0.1,0,0.2,0c0.1,0.1,0.3,0.1,0.6,0.1c0.2,0,0.3,0.1,0.3,0.1c0,0,0.1,0.1,0.2,0.1c0.1,0,0.2,0,0.2-0.1
		c0,0,0.1,0,0.3,0.1s0.3,0.1,0.5,0.1c0.2,0,0.4,0,0.5,0.1c0.1,0.1,0.2,0.1,0.4,0.1c0.2,0,0.3,0,0.3,0.1s0,0.2-0.1,0.3
		c-0.1,0.1-0.1,0.1-0.1,0.2s0,0.1,0.1,0.1c0.1,0,0.1,0,0.1,0.1c0,0,0,0,0,0.1c0,0,0,0-0.1,0c0,0-0.1,0-0.1,0s-0.2,0-0.3,0
		c-0.3,0-0.5,0-0.5,0.1c0,0.1,0.1,0.1,0.2,0.2l0.2,0l-0.1,0.1c-0.1,0.1-0.2,0.1-0.5,0.1c-0.2,0-0.4,0-0.4,0.1c0,0,0,0,0,0.1
		c0,0,0.1,0,0.1,0c0.1,0,0.2,0,0.2,0c0,0,0.2,0,0.4,0.1c0.2,0,0.4,0,0.4,0.1c0,0,0,0.1-0.1,0.1c-0.1,0-0.2,0-0.4,0
		c-0.2,0-0.3,0-0.4,0c0,0-0.1,0.1-0.1,0.1s0,0.1,0.1,0.1c0.1,0,0.1,0.1,0.1,0.2c0,0.1,0,0.2,0.1,0.2s0.1,0,0.1-0.1s0,0,0,0
		c0,0,0,0.1,0.1,0.1c0,0.1,0,0.1,0,0.1c0,0,0,0.1-0.1,0.1c0,0-0.1,0-0.1,0.1c0,0-0.1,0.1-0.2,0.1c-0.1,0-0.1,0-0.1,0.1
		c0,0.1,0,0.1,0,0.2c0,0-0.1,0-0.1-0.1c0-0.1-0.1-0.1-0.3,0c-0.1,0.1-0.2,0.1-0.2,0.3c0,0.1-0.1,0.3-0.2,0.4
		c-0.1,0.1-0.2,0.2-0.3,0.2c-0.1,0-0.1-0.1-0.1-0.2c0-0.1,0-0.2-0.1-0.2c-0.1,0-0.1,0-0.2,0s-0.1,0.1-0.1,0.1c0,0-0.1,0.1-0.2,0.1
		c-0.1,0-0.3,0-0.5,0s-0.4,0-0.6-0.1c-0.3,0-0.5-0.1-0.7-0.1c-0.2,0-0.4,0-0.6-0.1c-0.3-0.1-0.8-0.1-1.7,0c-0.2,0-0.3,0-0.4,0
		c0,0-0.1,0-0.3,0c-0.4,0.1-0.6,0.2-0.8,0.1c-0.1,0-0.2,0-0.3,0c-0.3,0.1-0.5,0.2-0.6,0c0,0-0.2,0-0.3,0.1c-0.2,0.1-0.3,0.1-0.4,0.1
		c-0.1,0-0.2,0-0.4,0c-0.4,0.1-0.7,0.2-0.9,0.2c-0.1,0-0.3,0-0.4,0.1c-0.1,0-0.3,0.1-0.8,0.2c-0.4,0.1-0.7,0.1-0.8,0.1
		c0,0-0.1,0-0.1,0.1c0,0-0.2,0.1-0.5,0.1s-0.4,0-0.4,0.1s-0.1,0.1-0.4,0.1s-0.4,0.1-0.5,0.2c0,0.1-0.1,0.1-0.2,0.1
		c-0.1,0-0.1,0-0.1,0.1s0.1,0.1,0.3,0.1s0.3,0,0.3-0.1c0,0,0.1-0.1,0.4-0.1c0.3,0,0.4,0,0.5-0.1s0.2-0.1,0.5-0.1c0.1,0,0.1,0,0.2,0
		s0.1,0,0.2,0c0,0.1-0.1,0.2-0.3,0.3s-0.4,0.1-0.6,0.1c-0.1,0-0.2,0-0.3,0c-0.1,0.1-0.4,0.2-0.6,0.2c-0.3,0-0.4,0-0.5,0
		c0,0-0.1,0-0.2,0c-0.1,0-0.2,0.1-0.3,0.1c-0.1,0-0.3,0-0.4,0.1c-0.2,0.1-0.7,0.2-1.5,0.2c-0.8,0-1.4,0-1.9-0.1
		c-0.5-0.1-1.2-0.3-2.1-0.7c-0.5-0.2-0.8-0.4-0.9-0.4c0,0-0.1,0-0.2-0.1c0,0-0.2-0.1-0.5-0.3c-0.3-0.1-0.4-0.2-0.5-0.2
		c0,0-0.2-0.1-0.6-0.3s-0.6-0.3-0.8-0.4c-0.7-0.3-1.1-0.5-1.3-0.6c-0.1,0-0.1,0-0.2-0.1c-0.1,0-0.1-0.1-0.3-0.1
		c-0.1-0.1-0.2-0.1-0.2,0c0,0,0,0-0.1-0.1c-0.1-0.2-0.3-0.3-0.6-0.3c-0.1,0-0.2,0-0.2-0.1c0-0.1-0.1-0.1-0.2-0.1s-0.2,0-0.2-0.1
		s-0.1-0.1-0.1-0.1c0,0-0.1,0-0.2-0.1c-0.1,0-0.3-0.1-0.7-0.3c-0.4-0.1-0.6-0.2-0.6-0.2s-0.3-0.1-0.9-0.4c-0.6-0.3-1-0.4-1.3-0.5
		c-0.3-0.1-0.7-0.1-1.2-0.1c-0.5,0-0.8,0-0.9,0.1c-0.1,0-0.4,0-0.7-0.1c-0.3-0.1-0.6-0.1-0.7-0.2c-0.3-0.2-0.6-0.4-0.7-0.6
		c-0.1-0.1-0.2-0.3-0.2-0.5c0-0.2,0-0.3,0-0.4c0,0,0.1-0.1,0-0.2c0-0.1,0-0.2,0-0.2c0,0,0.1-0.1,0.1-0.2s0.1-0.2,0.2-0.3
		c0.2-0.2,0.7-0.4,1.4-0.5c0.4,0,0.7-0.1,0.9-0.1c0.2-0.1,0.6-0.3,1.2-0.6c0.3-0.2,0.5-0.3,0.5-0.3s0.1,0,0.1-0.1s0.1-0.1,0.2-0.2
		c0.4-0.2,0.7-0.5,1-0.8c0.3-0.3,0.4-0.5,0.4-0.7c0-0.1-0.1-0.3-0.3-0.6c-0.2-0.3-0.4-0.4-0.6-0.5c-0.3-0.2-0.4-0.5-0.4-1
		c0-0.3-0.1-0.6-0.1-0.8c-0.1-0.3-0.2-0.7-0.3-1.2C183.6,47.8,183.6,47.5,183.6,47.4z M184.3,42.2l0.2-0.2l0.3,0.1
		c0.4,0.2,0.6,0.4,0.8,0.6c0.1,0.2,0.2,0.4,0.1,0.7c-0.1,0.5-0.3,0.8-0.7,1.2l-0.3,0.3v-0.3c0-0.2,0-0.5-0.1-0.8s-0.1-0.5-0.1-0.7
		s0-0.3-0.1-0.4C184.1,42.5,184.1,42.4,184.3,42.2z M197.6,29.4c0-0.1,0-0.1,0-0.1c0,0,0.2,0.1,0.4,0.2c0.4,0.2,0.7,0.5,1,0.9
		c0.2,0.4,0.5,0.8,0.7,1.3l0.2,0.5v1.2c0,0.8-0.1,1.3-0.1,1.5c0,0.2-0.1,0.3,0,0.3c0,0,0.1,0,0.2,0c0.1,0,0.2,0,0.3,0.1
		c0.1,0.1,0.2,0.1,0.3,0.1c0.1,0,0.2,0.1,0.3,0.1c0,0,0.1,0.1,0.2,0.1c0.2,0.1,0.4,0.2,0.5,0.4s0.2,0.4,0.1,0.5c0,0.1,0,0.2,0,0.2
		c0,0-0.1,0-0.1,0c-0.2,0-0.3,0-0.5,0.1c-0.2,0.1-0.3,0.2-0.3,0.3c0,0,0,0.1,0.1,0.2c0.1,0.1,0.1,0.1,0,0.2
		c-0.1,0.1-0.1,0.2-0.1,0.2c0,0-0.1,0.1-0.2,0.1c-0.1,0-0.2,0.1-0.2,0.1s0,0.2-0.1,0.4c0,0.2-0.1,0.3-0.1,0.4c0,0.1,0,0.1,0.1,0.1
		c0.2,0,0.2,0.1,0,0.2c0,0-0.1,0-0.1,0c-0.2,0.1-0.3,0.1-0.3,0.1c-0.1,0-0.3,0.1-0.5,0.4c-0.2,0.3-0.4,0.5-0.4,0.6
		c-0.1,0.3-0.2,0.7-0.3,1.4c-0.1,0.6-0.2,1-0.2,1.2c0,0.1,0,0.2,0,0.2c0,0,0.1,0,0.2,0c0.1,0,0.2-0.1,0.4-0.2s0.3-0.2,0.5-0.2
		c0.2-0.1,0.3-0.1,0.5-0.3c0.3-0.2,0.6-0.3,0.9-0.1c0.4,0.2,0.7,0.3,0.8,0.2c0,0,0.2,0,0.5,0.1c0.3,0.1,0.4,0.1,0.4,0.2
		s0.1,0.1,0.2,0.1c0.1,0,0.2,0.1,0.2,0.1c0,0.2,0.1,0.4,0.2,0.5c0.2,0.2,0.2,0.4,0.1,0.6c-0.1,0.2-0.2,0.4-0.5,0.5
		c-0.3,0.1-0.5,0.2-0.5,0.2c0,0-0.1,0.1-0.1,0.2c0,0.1,0,0.2-0.1,0.3c-0.1,0.1-0.2,0.2-0.4,0.3c-0.1,0-0.2,0.1-0.3,0.2
		c-0.1,0.1-0.2,0.2-0.2,0.3s0,0.1,0,0.2c0,0,0.1,0.1,0.2,0.1c0.1,0,0.1,0.1-0.1,0.2c-0.1,0.1-0.2,0.1-0.4,0.1c-0.2,0-0.3,0-0.5,0.2
		c-0.2,0.1-0.3,0.3-0.4,0.4c-0.2,0.2-0.5,0.5-0.7,0.8c-0.2,0.3-0.3,0.5-0.3,0.5c0,0,0.1,0,0.1,0c0,0,0.1,0,0.2,0.1
		c0.1,0.1,0.2,0.1,0.3,0.1c0.1,0,0.2,0.1,0.4,0.2c0.1,0.1,0.2,0.2,0.3,0.3c0.1,0.1,0.1,0.2,0.1,0.4c0,0.2-0.1,0.8-0.3,1.5
		c-0.1,0.2-0.1,0.7-0.1,1.4c0,0.7,0,1.1,0.1,1.3c0.2,0.7,0.4,1.1,0.8,1.2c0.3,0.1,0.8,0.2,1.5,0.2c1,0,1.6,0,1.8-0.1
		c0.1,0,0.1-0.1,0.1-0.2c0-0.1-0.1-0.2-0.1-0.4s0-0.3-0.1-0.3c0,0-0.1,0-0.2-0.1c-0.1-0.1-0.1-0.1-0.1-0.1c0-0.1,0.2,0,0.3,0.1
		c0.1,0.1,0.3,0.2,0.5,0.4c0.4,0.3,0.6,0.3,0.6,0.3c0,0,0-0.1-0.1-0.2c-0.1-0.1-0.1-0.2-0.1-0.3c0-0.1,0-0.2-0.1-0.2
		c-0.1,0-0.2-0.1-0.2-0.3s-0.1-0.2-0.2-0.2s-0.1,0-0.1-0.1s-0.1-0.2-0.2-0.2c-0.1-0.1-0.2-0.1-0.1-0.1c0,0,0.1,0,0.2,0
		S204,53,204,53c0,0,0,0,0.1,0s0.1,0.1,0.3,0.2c0.1,0.1,0.2,0.2,0.3,0.2s0.1,0,0.1,0c0,0,0.2,0.1,0.5,0.3c0.2,0.1,0.3,0.1,0.5,0.2
		c0.2,0,0.3,0.1,0.4,0.1s0.1,0,0.1-0.1c0-0.1,0.2-0.1,0.4,0.1c0.1,0.1,0.3,0.2,0.4,0.1c0.1,0,0.2,0,0.3,0.1c0,0.1,0.1,0.1,0.2,0.2
		c0.1,0,0.2,0.1,0.2,0.1c0.1,0.1,0.1,0.1,0.2,0.1c0.2,0,0.4,0.2,0.5,0.3c0.1,0.1,0.2,0.3,0.1,0.5c0,0.2-0.2,0.2-0.3,0.3
		c-0.3,0-0.4,0.1-0.5,0.1s-0.2,0.1-0.3,0.3c-0.1,0.2-0.3,0.3-0.4,0.4c-0.4,0.1-0.9,0.2-1.3,0.3c-0.1,0-0.2,0-0.2,0.1
		c0,0-0.1,0-0.3,0c-0.1,0-0.2,0-0.2,0c0,0-0.4,0.1-1.1,0.2c-0.5,0.1-1.1,0.2-1.7,0.2c-0.7,0-1.2,0.1-1.4,0c-0.9-0.1-1.5-0.5-2-1.2
		c-0.1-0.2-0.3-0.5-0.4-0.6c-0.4-0.6-0.5-1.3-0.5-2.3c0-1.3,0.1-2,0.2-2.2c0,0,0-0.2,0.1-0.4c0-0.2,0-0.4,0.1-0.4
		c0-0.1,0.1-0.2,0.1-0.4c0-0.3-0.1-0.5-0.4-0.5c0,0-0.1,0.1-0.3,0.2c-0.1,0.1-0.2,0.2-0.2,0.3c0,0-0.1,0.1-0.3,0.3s-0.3,0.3-0.4,0.4
		c-0.1,0.1-0.1,0.2-0.2,0.2c-0.1,0-0.1,0.1-0.1,0.1c0,0,0,0.1-0.1,0.2s-0.2,0.2-0.3,0.2c-0.1,0-0.1,0.1-0.1,0.1
		c0,0.1-0.4,0.6-1.2,1.5c-0.3,0.4-0.6,0.7-0.9,1c-0.3,0.3-0.7,0.8-1.3,1.4c-0.1,0.1-0.2,0.2-0.3,0.4c-0.1,0.2-0.2,0.3-0.3,0.4
		c-0.1,0.1-0.1,0.1-0.1,0.2c0,0.1-0.1,0.1-0.3,0c0,0-0.1-0.1-0.1-0.1c-0.2-0.2-0.3-0.2-0.5,0c-0.1,0.1-0.2,0.2-0.4,0.2
		c-0.2,0-0.3,0-0.3-0.2c0-0.1-0.1-0.2-0.2-0.2c-0.2,0-0.2-0.2,0-0.6c0.1-0.3,0.2-0.5,0.2-0.5s0.1-0.1,0.2-0.3s0.2-0.2,0.2-0.3
		c0-0.1,0.1-0.1,0.2-0.2c0.1,0,0.2-0.1,0.3-0.2c0.1-0.1,0.1-0.2,0.1-0.2c0-0.2,0.1-0.4,0.4-0.5c0.2-0.1,0.4-0.3,0.7-0.5
		c0.3-0.3,0.6-0.5,0.9-0.9c0.3-0.3,0.6-0.6,0.8-1c0.3-0.4,0.5-0.6,0.6-0.7c0.1-0.1,0.2-0.2,0.3-0.4c0.1-0.2,0.3-0.4,0.5-0.7
		c0.2-0.3,0.3-0.5,0.3-0.6s-0.1-0.2-0.2-0.3c-0.1-0.1-0.2-0.1-0.2-0.1c-0.3,0-1,0.3-2.1,0.8c-0.4,0.2-0.9,0.4-1.5,0.4
		c-0.4,0.1-0.9-0.1-1.3-0.5c-0.2-0.2-0.4-0.3-0.5-0.5c-0.1-0.1-0.1-0.3-0.2-0.6c-0.1-0.3-0.1-0.5-0.1-0.8c0.1-0.4,0.2-0.6,0.4-0.7
		c0,0,0.1,0,0.1,0.1c0,0,0,0.1,0,0.1c0,0.2,0,0.3,0.1,0.4c0.1,0.1,0.1,0.1,0.2,0.1c0,0,0-0.1,0-0.1v-0.1c0,0,0.1,0.1,0.1,0.1
		c0.2,0.2,0.5,0.2,0.8,0.1c0.4-0.1,0.9-0.4,1.4-0.8c0.4-0.3,0.6-0.4,0.6-0.5c0-0.1-0.1-0.1-0.3-0.1c0,0,0,0-0.1,0c0,0,0.1-0.1,0.3,0
		c0.2,0,0.5-0.1,0.9-0.3s0.8-0.4,1-0.6c0.2-0.1,0.4-0.2,0.6-0.4c0.1-0.1,0.2-0.2,0.2-0.2c0,0,0.1-0.2,0.1-0.3c0.1-0.7,0.1-1.1,0-1.2
		c0,0-0.2,0-0.4,0.1s-0.4,0.1-0.5,0.1c-0.4,0-0.7-0.1-0.9-0.2c-0.1,0-0.2-0.1-0.3-0.2c-0.3-0.1-0.6-0.4-0.9-0.8
		c-0.6-0.8-1-1.8-1-2.9c0-0.9,0.2-1.8,0.7-2.7c0.5-1,0.9-1.3,1.2-1c0.1,0.1,0.2,0.2,0.3,0.2c0.3,0.1,0.5,0.4,0.8,0.9
		c0.1,0.2,0.1,0.3,0.1,0.4c0,0,0,0.2,0.1,0.5c0,0.5,0.2,0.8,0.5,0.8c0.4,0,0.7-0.1,0.9-0.4c0.2-0.3,0.3-0.8,0.4-1.7
		c0-0.2,0.1-0.5,0.1-0.8c0-0.3,0.1-0.8,0.1-1.2c0-0.5,0.1-0.8,0.1-1s0.1-0.4,0.1-0.5c0-0.1,0-0.3-0.1-0.6c-0.1-0.2-0.2-0.4-0.2-0.4
		c-0.3-0.2-0.4-0.4-0.4-0.7c0-0.1,0-0.2,0.1-0.3c0,0,0.1-0.1,0.2,0c0.1,0,0.1,0,0.2-0.1c0.1-0.1,0.1-0.2,0.1-0.3
		c0-0.2,0-0.2,0.1-0.1c0,0,0.1,0.1,0.1,0S197.6,29.4,197.6,29.4z M190.2,46.3C190.2,46.2,190.2,46.2,190.2,46.3c0.1,0.1,0,0.1,0,0.1
		C190.2,46.4,190.2,46.4,190.2,46.3z M202.9,62.5c0.1,0,0.1,0,0.2-0.1c0.1,0,0.2-0.1,0.3,0c0.1,0,0.2,0,0.3,0s0.1,0,0.1,0.1
		s-0.1,0.1-0.3,0.1c-0.4,0-0.6,0-0.6,0C202.8,62.5,202.9,62.5,202.9,62.5z M203.9,62.5c0,0,0-0.1,0.1-0.1l0.1,0.1
		C203.9,62.5,203.9,62.5,203.9,62.5z M204.7,62.3C204.7,62.3,204.6,62.3,204.7,62.3c-0.1-0.1,0-0.1,0-0.1S204.8,62.2,204.7,62.3
		C204.8,62.3,204.7,62.3,204.7,62.3z M210.2,57.3C210.3,57.3,210.3,57.3,210.2,57.3c0.1-0.1,0.1-0.1,0-0.2
		C210.1,57.2,210.1,57.2,210.2,57.3C210.1,57.3,210.1,57.3,210.2,57.3z M211.1,57.2c0-0.1-0.2-0.1-0.5-0.1c-0.2,0-0.3,0.1-0.3,0.1
		c0,0,0.1,0.1,0.2,0.1c0.1,0,0.2,0,0.3,0c0,0,0.1-0.1,0.2-0.1S211.1,57.3,211.1,57.2z M211.6,57.2c-0.1,0-0.2,0-0.2,0
		c-0.1,0-0.1,0-0.1,0c0,0-0.1,0.1,0,0.2s0.1,0.1,0.2,0.1c0.1,0,0.2,0,0.3,0c0.1,0,0.1-0.1,0.1-0.1C211.8,57.3,211.7,57.2,211.6,57.2
		z M212.5,57.2c0-0.1,0-0.1-0.1-0.1s-0.1,0-0.1,0.1c0,0.1-0.1,0.1-0.1,0.1c-0.1,0-0.1,0-0.2,0c0,0,0,0.1,0,0.1
		c0,0.1,0.1,0.1,0.2,0.1s0.1,0,0.1,0c0,0,0.2,0,0.5,0c0.3,0,0.5,0,0.6,0c0.1,0,0.2,0,0.2,0c0.1,0,0-0.1-0.1-0.1c0,0-0.1,0-0.1,0
		C212.8,57.3,212.5,57.2,212.5,57.2z M213,57.2c0,0-0.1-0.1-0.1-0.1c-0.1,0-0.1,0-0.1,0.1C212.8,57.2,212.9,57.3,213,57.2
		C212.9,57.3,213,57.2,213,57.2z M213.3,58.8c0,0,0-0.1-0.1-0.1c-0.1,0-0.1,0-0.2,0c0,0,0,0,0,0.1c0,0,0.1,0.1,0.2,0.1
		C213.2,58.9,213.3,58.8,213.3,58.8z M213.6,58.8C213.6,58.7,213.6,58.7,213.6,58.8c-0.1-0.1-0.1,0-0.1,0c0,0,0,0,0,0.1
		C213.5,58.9,213.5,58.9,213.6,58.8C213.6,58.9,213.6,58.8,213.6,58.8z M214.1,60.5c0,0-0.1-0.1-0.1-0.1c-0.1,0-0.1,0-0.2,0
		c0,0-0.1,0,0,0.1c0,0.1,0,0.1,0.1,0.2c0.1,0,0.1,0,0.2,0C214.1,60.7,214.1,60.6,214.1,60.5z M214.6,57.6c-0.5-0.1-0.8-0.1-0.8,0
		c0,0.1,0.2,0.1,0.6,0.2c0.3,0,0.4,0,0.4-0.1S214.7,57.7,214.6,57.6z M214.5,58.9C214.5,58.9,214.5,58.8,214.5,58.9
		c-0.1-0.1-0.2-0.1-0.2-0.1c0,0-0.1,0.1,0,0.1c0,0,0.1,0.1,0.1,0C214.5,59,214.5,59,214.5,58.9z"/>
	<path d="M241.2,36c0.1,0,0.2-0.1,0.4,0s0.3,0.1,0.4,0.1c0.3,0.2,0.4,0.8,0.3,1.8c0,0.3,0,0.5,0,0.5c0.1,0.1,0.4,0.1,0.9,0.2
		c0.5,0,0.8,0.1,0.9,0.3c0.1,0.1,0.2,0.2,0.4,0.3c0.1,0,0.1,0.1,0.1,0.1c0,0,0,0.1,0,0.1c0,0,0,0.1-0.1,0.1c-0.1,0-0.1,0-0.2,0.1
		c0,0.1-0.1,0.1-0.1,0.1c-0.1,0-0.1,0.1-0.1,0.3c0,0.2-0.1,0.3-0.2,0.3c-0.1,0-0.1,0-0.2,0.1c0,0.1-0.1,0.1,0,0.1c0,0,0,0.1-0.1,0.2
		c-0.1,0.1-0.1,0.1-0.1,0.2c0,0,0,0.1-0.1,0.1s-0.2,0.1-0.4,0.1c-0.2,0-0.4,0.3-0.7,0.9c-0.1,0.1-0.1,0.5-0.1,1.1c0,0.6,0,1,0,1.1
		c0,0.1,0.1,0,0.2-0.1c0.1-0.1,0.1-0.1,0.1-0.1c0,0.1,0,0.2,0,0.3c-0.1,0.3-0.2,0.7-0.3,1.2c-0.1,0.5-0.1,0.8,0,0.8c0,0,0,0.1,0,0.2
		c0,0.1,0,0.1,0,0.1c0,0,0.1,0.1,0.1,0.2c0,0.1,0,0.2-0.1,0.2c0,0,0,0.1,0,0.2c0,0.1,0.1,0.5,0,1.2c0,0.8,0,1.3,0,1.4
		c0,0,0,0.2,0,0.4c0,0.2,0,0.3,0,0.3c0,0,0,0.1,0,0.2s0,0.2,0,0.2c0,0,0,0.1,0,0.1c0,0.1-0.1,0.2-0.1,0.4c0,0.2,0,0.3-0.1,0.4
		c0,0-0.1,0.1-0.1,0.2c0,0.1,0,0.2,0.1,0.2c0,0,0,0.1,0,0.2c0,0.1-0.1,0.1,0,0.2c0,0,0,0.1,0,0.2s0,0.1,0,0.2c0.1,0,0.1,0.4,0.1,1
		s0,1,0,1.1c0,0.1,0,0.2,0,0.2s-0.1,0.1-0.2,0.2c-0.1,0.1-0.2,0.2-0.2,0.2c0,0-0.1,0-0.3,0.1c-0.1,0.1-0.2,0.2-0.3,0.2
		c-0.1,0-0.2,0.1-0.2,0.2c-0.1,0.1-0.2,0.1-0.3,0c-0.2-0.1-0.4-0.1-0.5,0c0,0-0.1,0-0.1,0c0-0.1-0.1-0.1-0.1-0.2s0-0.2-0.1-0.2
		c-0.1,0-0.1-0.1-0.1-0.1s0-0.1-0.1-0.2c-0.1-0.1-0.1-0.2-0.1-0.3c0-0.1-0.1-0.3-0.2-0.5c-0.1-0.2-0.2-0.3-0.3-0.4
		c-0.1-0.1-0.2-0.2-0.4-0.4c-0.4-0.4-0.8-0.6-1.1-0.6c-0.2,0-0.4-0.1-0.6-0.3c-0.2-0.2-0.4-0.3-0.5-0.3c-0.1,0-0.2-0.1-0.3-0.2
		c0-0.1-0.1-0.2-0.2-0.2c-0.2-0.1-0.3-0.4-0.3-0.7c0-0.2,0-0.3,0-0.3c0,0,0.2-0.1,0.4-0.2c0.3-0.1,0.5-0.3,0.8-0.6
		c0.3-0.3,0.9-0.8,1.7-1.7c0.9-0.9,1.3-1.3,1.3-1.4c0-0.1,0.1-0.5,0-1.3c0-0.6,0-1,0-1.1c0-0.1-0.1-0.2-0.2-0.2c0,0-0.2,0.1-0.4,0.3
		c-0.2,0.2-0.4,0.4-0.5,0.5c-0.1,0.1-0.4,0.3-0.6,0.4c-0.3,0.1-0.5,0.1-0.6,0.1c-0.1,0-0.1-0.1-0.2-0.1c-0.3,0-0.7-0.1-1.4-0.4
		c-0.4-0.2-0.9-0.4-1.3-0.5c-0.2,0-0.4-0.1-0.6-0.2c-0.3-0.1-0.6-0.3-0.6-0.6s-0.1-0.5,0.1-0.8c0.1-0.1,0.2-0.3,0.2-0.5
		c0-0.2,0.1-0.4,0.3-0.5c0.4-0.3,0.7-0.5,0.8-0.5c0.1,0,0.1,0,0.2,0.1c0,0.1,0,0.1,0,0.2c-0.1,0.1,0,0.2,0.2,0.3
		c0.1,0,0.3-0.1,0.5-0.2c0.3-0.1,0.5-0.3,0.8-0.5c0.5-0.4,1.1-0.8,1.8-1.2c0.3-0.2,0.5-0.3,0.6-0.4c0.1-0.1,0.2-0.1,0.3-0.2
		c0.1,0,0.3-0.2,0.6-0.4l0.5-0.4v-0.4c0.1-0.8,0-1.2-0.1-1.4c-0.1-0.1-0.1-0.3-0.1-0.6c0-0.2,0-0.4,0-0.4c0,0,0.1-0.1,0.1-0.1
		c0.1,0,0.2,0,0.4-0.1C241,36,241.2,36,241.2,36z M240.3,50.1c0-0.4,0-0.7,0-0.7c0,0-0.2,0.1-0.6,0.4s-0.6,0.5-0.7,0.7
		c-0.1,0.1-0.2,0.2-0.3,0.4c-0.3,0.3-0.4,0.7-0.4,1.2c0,0.2,0,0.4,0.1,0.6c0.3,0.5,0.6,0.7,1.1,0.6c0.2,0,0.5-0.2,0.6-0.5
		C240.2,52.6,240.2,51.7,240.3,50.1z M253,31.5c0.3-0.1,0.8-0.1,1.4-0.1c0.6,0.1,1.1,0.2,1.5,0.3c0.3,0.1,0.6,0.5,0.8,1.1l0.2,0.4
		l-0.1,0.6c0,0.4-0.1,0.7-0.2,0.9s-0.1,0.3-0.2,0.4c0,0.1-0.2,0.4-0.4,0.9c-0.3,0.6-0.4,0.9-0.4,0.9c0,0.1,0,0.1-0.1,0.1
		c0,0-0.1,0.1-0.1,0.1c0,0.2-0.1,0.4-0.4,0.8c-0.1,0.2,0,0.3,0.4,0.3c0.2,0,0.4,0,0.6,0c0.1,0,0.2,0,0.2,0s0,0.1,0.1,0.1
		s0.1,0,0.1-0.1c0-0.1,0.1-0.1,0.4-0.1c0.3,0,0.4,0,0.4,0c0,0,0.1,0.1,0.1,0.1c0.1,0,0.1,0,0.2-0.1c0,0,0.4-0.1,1,0
		c1.5,0,2.4,0.1,2.6,0.1c0.2,0,0.3,0.1,0.4,0s0.1,0,0.1,0c0,0,0.2,0.1,0.6,0.1c1.4,0.1,2.1,0.2,2.3,0.3c0.1,0,0.3,0,0.5,0l0.3-0.1
		l0.1,0.2c0.1,0.1,0.3,0.2,0.5,0.3c0.2,0.1,0.6,0.2,1,0.4c0.1,0.1,0.2,0.2,0.2,0.2s0.1,0.2,0.2,0.2c0.1,0.1,0.1,0.1,0.1,0.2
		c0,0.1,0,0.1,0,0.1c0.1,0.1,0,0.1-0.1,0.1c0,0-0.1,0-0.2,0c-0.2,0-0.3,0-0.4,0.1s-0.2,0.1-0.5,0.1c-0.6,0-1,0.1-1.4,0.3
		c0,0-0.2,0-0.3,0s-0.3,0-0.3,0c0,0-0.1,0-0.1,0c0,0-0.1,0-0.3,0.1c-0.2,0.1-0.3,0.1-0.5,0.1c-0.1,0-0.2,0-0.3,0.1
		c-0.1,0-0.1,0.1-0.2,0.1c0,0-0.1,0-0.1,0c-0.3,0.1-0.7,0.2-1.1,0.2c-0.1,0-0.2,0-0.3,0.1c0,0.1-0.1,0.1-0.1,0.1c0,0-0.2,0-0.4,0
		l-0.3,0.1l-0.1-0.1c-0.1-0.1-0.1-0.1-0.1-0.1c0,0,0.1-0.1,0.3-0.1c0.2,0,0.3,0,0.3,0c0.1,0.1,0.2,0.1,0.2,0c0,0,0.1-0.1,0.2-0.2
		c0.1-0.1,0.3-0.1,0.4-0.1c0.1,0,0.2,0,0.3-0.1c0.1,0,0.3-0.1,0.5-0.2c0.2-0.1,0.4-0.1,0.4-0.1c0.1,0,0.1,0,0.2-0.1
		c0.1,0,0.2-0.1,0.5-0.2c0.2-0.1,0.4-0.2,0.4-0.3c0-0.1,0.1-0.1,0-0.2c0-0.1-0.2-0.2-0.3-0.3c-0.2-0.1-0.3-0.2-0.4-0.2
		c-0.1,0-0.3-0.1-0.6-0.1c-0.6-0.1-1.4-0.2-2.6-0.3c-1.6-0.1-2.7-0.1-3.5,0c-0.3,0-0.5,0-0.6,0.1c-0.1,0-0.3,0-0.5,0.1
		c-0.2,0-0.5,0.1-0.7,0.1c-0.2,0-0.3,0.1-0.3,0.1c0,0.1,0.2,0.5,0.5,1.2c0.1,0.1,0.2,0.5,0.4,1.1c0,0.1,0.1,0.3,0.1,0.5
		c0.1,0.5,0.1,0.8,0.2,0.9c0,0,0.1,0,0.3,0c0.2,0,0.3-0.1,0.3,0c0,0,0.1,0,0.3-0.1c0.1-0.1,0.2-0.1,0.3-0.1c0.1,0,0.2,0,0.3,0.1
		c0.3,0.2,0.4,0.3,0.4,0.4c0,0.1-0.1,0.2-0.2,0.4c-0.1,0.2-0.2,0.3-0.3,0.3c0,0-0.2,0.1-0.5,0.4c-0.3,0.3-0.5,0.4-0.5,0.4
		c-0.1,0-0.2,0.1-0.2,0.2c0,0.1,0,0.4,0,0.8c0,0.9,0,1.3,0.1,1.4c0,0,0.2,0,0.4,0s0.4,0,0.5,0c0.1,0.1,0.3,0.1,0.4-0.1
		c0,0,0.1,0,0.2,0c0.1,0.1,0.1,0.1,0.2,0.1c0,0,0.1,0,0.1,0s0.1,0,0.2,0c0.1-0.1,0.3,0,0.5,0.1c0,0,0.1,0.1,0.2,0
		c0.1,0,0.1,0,0.1,0.1c0,0.1,0,0.1-0.1,0.1c0,0-0.1,0-0.1,0.1c0,0.1,0.1,0.1,0.2,0.2c0.1,0,0.3,0,0.3,0c0.1,0,0.1-0.1,0-0.1
		c0,0-0.1-0.1-0.1-0.1c0,0,0.1-0.1,0.1-0.1c0.1,0,0.2,0,0.2-0.1c0,0,0,0,0.1,0c0.1,0.2,0.3,0.2,0.4,0.2c0.1,0,0.1,0,0.1,0
		c0,0,0,0.1,0.1,0.1s0.1,0,0.2,0c0.1-0.1,0.1-0.1,0.1,0c0,0.1,0,0.1,0.1,0.1c0.1,0,0.2,0,0.2,0.1s0.1,0.1,0.2,0.1s0.1,0,0.1,0.1
		c0,0.1,0,0.1,0.1,0.2c0.1,0,0.1,0,0.1-0.1c0-0.1,0-0.1,0.1-0.1c0.1,0,0.1,0.1,0.2,0c0.1,0,0.2,0,0.4,0.2c0.2,0.2,0.3,0.3,0.3,0.3
		s0,0.1,0.1,0.1s0.1,0,0.1-0.1c0,0,0.1,0,0.2,0.1s0.1,0.1,0.2,0.1c0.1,0,0.1,0.2,0.1,0.6c0,0.2,0,0.3,0,0.3c0,0-0.1,0-0.1,0
		c-0.1,0-0.1,0-0.2,0.1c-0.1,0.1-0.2,0.2-0.4,0.2c-0.2,0.1-0.3,0.2-0.3,0.3c0,0,0.1,0.1,0,0.1c0,0.1-0.1,0.1-0.1,0.2
		c-0.1,0-0.1,0.1-0.2,0.1c-0.1,0-0.2,0.1-0.3,0.2c-0.1,0.2-0.3,0.3-0.6,0.3c-0.4,0-0.7-0.1-1-0.3c-0.1,0-0.4-0.1-1-0.3
		c-0.6-0.1-1-0.2-1.2-0.3c-0.4,0-0.7,0-1,0.2c-0.3,0.1-0.4,0.4-0.5,1c-0.1,1.1-0.2,1.7-0.3,1.8c0,0,0,0.1,0,0.2c0,0.1,0.1,0.3,0,0.5
		c0,0.3-0.1,0.4-0.1,0.4c-0.1,0.1-0.1,0.1,0,0.2c0,0,0,0,0,0.1c0,0,0,0.1,0,0.2c0,0.1,0,0.1-0.1,0.1c0,0.1,0,0.1,0,0.2
		c0,0.1,0.1,0.1,0,0.3c0,0.1,0,0.2-0.1,0.3c0,0.1,0,0.2-0.1,0.2c0,0,0,0.1,0,0.2c0,0.1,0,0.2,0.1,0.2c0,0,0,0.1,0,0.1
		s-0.1,0.1-0.1,0c0,0-0.1-0.1-0.1,0c-0.1,0-0.1,0.3-0.1,0.8c0,0.5,0,0.9,0,1.1s0,0.4,0,0.4c0.1,0.1,0.1,0.2,0,0.4c0,0,0,0.1,0,0.2
		c0,0.1,0,0.1,0,0.2c-0.1,0-0.1,0.1-0.1,0.3c0,0.1,0.1,0.2,0.1,0.2c0.1,0,0.1,0.1,0.1,0.2c0,0.1,0,0.2,0,0.2c0,0,0,0-0.1,0
		c0,0-0.1,0-0.1,0c0,0.1,0,0.2,0.1,0.2c0,0,0.1,0,0,0.1c0,0.1,0,0.1,0,0.2c0,0.1,0,0.1,0,0.2c0,0-0.1,0.1-0.1,0.1c0,0,0,0.1-0.1,0.2
		c-0.2,0.2-0.2,0.3-0.1,0.4c0,0,0,0.1,0,0.3c0,0.2-0.1,0.3-0.1,0.4s-0.1,0.2-0.1,0.4c0,0.2,0,0.4-0.1,0.5c0,0.1,0,0.2,0,0.2
		s0.1,0,0.1-0.1c0-0.1,0.1-0.2,0.1,0c0,0.1,0,0.2,0,0.3c-0.1,0.5-0.2,0.7-0.3,0.7c0,0-0.1,0-0.1,0.1c0,0.1,0,0.1,0,0.2
		c0.1,0.1,0.1,0.3-0.1,0.5c0,0.1-0.1,0.2-0.1,0.3c-0.1,0.1-0.1,0.2,0,0.3c0.1,0.1,0.1,0.1-0.1,0.1c0,0-0.1,0-0.2,0.1
		s-0.1,0.1-0.1,0.2c0,0,0,0.1-0.1,0.1c0,0,0,0-0.1,0.1c0,0.1,0,0.1,0,0.2c0,0,0,0.1-0.1,0.3s-0.1,0.3-0.1,0.3c0,0,0,0.1-0.1,0.1
		s-0.1,0.1-0.1,0.1s0,0.1-0.1,0.1s-0.1,0-0.1-0.1s0-0.1,0.1-0.1s0.1,0,0.1-0.1c0-0.1,0-0.2,0-0.3c-0.1-0.2-0.2-0.2-0.3,0
		c0,0.1,0,0.2-0.1,0.2c0,0-0.1,0-0.1,0.1c-0.1,0.2-0.2,0.2-0.4,0.1c-0.1-0.1-0.2-0.1-0.2-0.1c0,0,0,0.1,0.1,0.1c0.1,0,0.1,0.1,0,0.1
		c0,0-0.1,0.1-0.1,0.2c0,0.1,0,0.1,0,0.1l0-0.1c0-0.1,0-0.1,0-0.1s-0.1,0-0.1-0.1c0,0,0-0.1,0-0.2s0-0.2,0.1-0.2
		c0.1-0.2,0.1-0.3,0.1-0.3c0,0,0-0.1,0-0.1c0,0,0-0.1,0-0.3c0-0.2,0-0.3,0-0.3c0.1,0,0.1,0,0.1-0.1c0,0,0-0.1-0.1-0.1
		c-0.1-0.1-0.1-0.1,0-0.1c0.1,0,0.2-0.1,0.3-0.4c0-0.2,0.1-0.3,0.2-0.3c0.1,0,0.1-0.1,0.2-0.3c0-0.1,0-0.2-0.1-0.2
		c-0.1,0-0.1-0.1-0.1-0.3c0-0.2,0-0.3,0.1-0.3c0,0,0.1,0.1,0,0.2c0,0.1,0,0.2,0,0.2c0,0,0.1,0,0.1,0c0,0,0-0.2,0-0.4
		c0-0.2,0-0.3,0-0.5c0-0.1,0-0.2,0-0.3c0,0-0.1,0-0.1-0.1c0,0,0.1,0,0.1,0c0.1,0,0.1,0,0.1-0.1c0-0.1,0-0.1-0.1-0.1
		c-0.1,0-0.1-0.1-0.1-0.1c0-0.1,0-0.1,0.1-0.1c0,0,0.1,0,0.1,0c0,0,0.1-0.1,0.1-0.3c0-0.1,0-0.1-0.1-0.1c-0.1,0-0.1,0-0.1-0.1
		c0,0,0-0.1,0.1-0.1s0.1,0,0.1,0.1c0,0,0.1,0,0.1,0c0-0.1,0.1-0.1,0.2-0.1c0,0,0.1,0,0.1,0c0,0,0-0.1,0-0.1c0-0.1,0-0.1-0.1-0.2
		c0,0-0.2,0-0.3,0.1l-0.2,0v-0.3c0-0.2,0-0.3-0.1-0.4c-0.1-0.1-0.1-0.1-0.2-0.1c-0.1,0-0.1,0-0.1,0c0,0,0-0.1,0-0.1
		c0,0,0.1-0.1,0.1-0.1c0,0,0.1,0,0.1-0.1c0-0.1,0-0.1-0.1-0.1c0,0,0,0-0.1,0c0,0,0-0.1-0.1-0.2c0-0.2,0-0.3,0.1-0.3l0,0.1
		c0,0.1,0.1,0.1,0.1,0.1c0.1,0,0.1-0.1,0.1-0.2c0-0.2-0.1-0.3-0.2-0.3c0,0-0.1-0.3-0.1-0.8c0-0.7-0.1-1-0.1-1c0,0-0.1,0-0.1,0.1
		c0,0-0.1,0-0.1-0.1c0,0,0-0.1,0-0.2c0-0.2,0-0.3,0-0.3c0,0,0-0.1,0.1-0.1c0.1,0,0.1,0,0.1-0.1c0,0,0-0.1,0-0.2c0-0.2-0.1-0.2-0.2,0
		l0-0.5c0-0.4,0-0.6,0.1-0.6c0.1,0,0.1,0,0.1-0.2c0-0.3,0-0.5-0.1-0.5c0,0-0.1-0.1-0.1-0.2l0-0.1c0.1,0.1,0.1,0.1,0.2,0
		c0-0.1,0.1-0.2,0.1-0.3c0,0,0-0.1-0.1-0.1s-0.1,0-0.1,0.1h-0.1c0,0,0-0.2,0-0.6c0-0.8-0.1-1.3-0.2-1.4c-0.1-0.1-0.2-0.1-0.3-0.1
		c-0.2,0-0.6,0.2-1.2,0.6c-0.1,0.1-0.3,0.3-0.6,0.4c-0.2,0.1-0.5,0.3-0.8,0.6c-0.7,0.6-1.2,0.8-1.5,0.6c-0.1,0-0.2-0.1-0.3-0.1
		c-0.1,0-0.2,0-0.4-0.1c-0.1-0.1-0.4-0.1-0.7-0.1c-0.6-0.1-1.1-0.2-1.3-0.4c-0.3-0.2-0.4-0.4-0.5-0.6c0-0.1,0-0.3,0.2-0.5
		c0.1-0.2,0.2-0.3,0.2-0.3c0-0.1,0.1-0.2,0.3-0.3c0.2-0.1,0.3-0.2,0.4-0.2c0.1,0,0.2-0.1,0.2-0.2c0-0.1,0.1-0.2,0.1-0.3
		c0-0.1,0.1-0.2,0.1-0.3c0-0.1,0-0.2,0.1-0.3s0.1-0.1,0.2-0.1s0.1,0,0.1-0.1c0-0.1,0.1-0.1,0.1-0.1s0.1,0.1,0.1,0.2
		c0,0.1,0,0.2,0.1,0.3c0.1,0.1,0.2,0.2,0.4,0.1c0.3,0,0.9-0.4,1.6-1.1c0.2-0.1,0.3-0.2,0.3-0.2c0,0,0.1,0,0.1,0
		c0.4-0.3,1-0.7,1.8-1.1c0.5-0.3,0.8-0.4,0.9-0.5c0.1-0.1,0.2-0.1,0.3-0.2c0.2-0.1,0.3-0.4,0.4-0.9c0-0.3,0-0.5,0-0.5
		c-0.1,0-0.4,0.1-0.9,0.4c-0.1,0.1-0.2,0.2-0.3,0.1c0.1-0.1,0.1-0.1,0.2-0.2c0.1,0,0.1-0.1,0.2-0.1c0.3-0.2,0.5-0.4,0.6-0.5
		c0.1-0.1,0.1-0.5,0.1-1.1l-0.2,0.1c-0.4,0.1-0.7,0.1-0.9-0.1c-0.1-0.1-0.2-0.4-0.3-0.9c0-0.2-0.1-0.3-0.1-0.3
		c0-0.1-0.1-0.1-0.1-0.2s0.1,0,0.2,0c0.1,0,0.2,0,0.4-0.1c0.1-0.1,0.2-0.2,0.3-0.2s0.1,0,0.2-0.1s0.1-0.1,0.2,0s0.1,0.1,0.2,0.1
		c0.1,0,0.1,0,0.2,0c0,0,0-0.5,0-1.2c0-0.8,0-1.2-0.1-1.2c0,0-0.1,0-0.3,0.1c-0.1,0.1-0.2,0.2-0.3,0.2c0,0-0.1,0.1-0.3,0.1
		c-0.2,0.1-0.3,0.1-0.3,0.2c0,0.1,0,0.1-0.1,0.1c-0.1,0-0.1,0-0.1,0c0-0.1-0.1-0.1-0.1-0.1c0,0-0.1,0.1-0.1,0.1c0,0.1,0,0.1-0.1,0.1
		c0,0-0.1,0-0.1-0.1c0-0.1-0.1-0.1-0.1,0c-0.1,0.1-0.2,0.2,0,0.2c0,0,0.1,0,0.1,0.1s0,0.1,0.1,0.1s0.1,0,0.1,0.1
		c0,0.1,0,0.1-0.1,0.1c0,0-0.1,0-0.1,0.1c0,0.1-0.1,0.1-0.2,0.2c-0.1,0-0.2,0.1-0.2,0.1c0,0-0.1,0.1-0.2,0.2
		c-0.1,0.1-0.2,0.1-0.2,0.1s-0.1,0.2-0.3,0.3c-0.2,0.2-0.4,0.3-0.6,0.3c-0.5,0-0.9,0.1-1,0.3c-0.1,0.1-0.1,0.1-0.2,0.1
		c-0.1,0-0.1,0.1-0.2,0.2c-0.1,0.1-0.2,0.2-0.2,0.2s-0.1,0-0.3,0.1s-0.2,0.2-0.4,0.2c-0.1,0-0.2,0.1-0.2,0.1s-0.1,0.1-0.1,0.1
		s-0.1,0-0.3,0.1c-0.1,0.1-0.3,0.1-0.6,0.1c-0.5,0-0.8,0.1-0.9,0.3c0,0.1-0.2,0.1-0.3,0.1c-0.1,0-0.3-0.1-0.5-0.2
		c-0.2-0.1-0.3-0.2-0.3-0.3c0,0,0,0-0.1-0.1c0,0-0.1-0.1-0.2-0.3c-0.1-0.2-0.1-0.3-0.1-0.5c0.1-0.5,0.2-0.9,0.3-1.1
		c0.1-0.3,0.4-0.6,0.9-1.1c1-1,1.9-1.7,2.8-2c0.1-0.1,0.3-0.2,0.5-0.3c1-0.5,1.8-0.8,2.3-0.9c0.2-0.1,0.4-0.1,0.6-0.2
		c0.1-0.1,0.3-0.1,0.3-0.1c0.1,0,0.2-0.1,0.3-0.3c0.1-0.2,0.3-0.5,0.5-1.1c0.3-0.7,0.5-1.4,0.7-2c0.1-0.4,0-0.6-0.1-0.7
		c-0.2,0-0.3,0.1-0.5,0.5c-0.3,0.6-0.6,0.9-0.9,1c-0.1,0-0.2,0-0.4-0.1s-0.4-0.3-0.7-0.6c-0.4-0.4-0.6-0.5-0.6-0.5
		c-0.2,0-0.4-0.1-0.6-0.3c0-0.1-0.1-0.2-0.1-0.4c-0.1-0.3,0-0.6,0.2-0.8c0.2-0.2,0.5-0.4,0.8-0.5c0.4,0,0.8-0.3,1.2-0.8
		c0.2-0.2,0.6-0.5,1.1-0.8C252.3,31.7,252.7,31.6,253,31.5z M250.5,40.2c0-0.1-0.3,0-0.8,0.2c-0.7,0.3-1.1,0.5-1.2,0.5
		c0,0-0.1,0-0.2,0.1c-0.1,0-0.3,0.1-0.4,0.2c-0.2,0.1-0.3,0.2-0.4,0.2s-0.2,0.1-0.5,0.3c-0.3,0.2-0.4,0.3-0.5,0.3c0,0-0.1,0-0.1,0.1
		c-0.4,0.4-0.6,0.6-0.8,0.6c0,0-0.1,0.1-0.2,0.2c-0.1,0.1-0.1,0.2-0.1,0.2c0,0,0,0.1-0.1,0.2c-0.1,0.1-0.1,0.2-0.1,0.2
		s0.1,0.1,0,0.2s-0.1,0.2-0.1,0.4c0,0.2,0,0.3,0.1,0.5c0.1,0.1,0.2,0.2,0.3,0.3c0.1,0.1,0.2,0.1,0.3,0.2c0.1,0,0.1,0,0.2-0.1
		c0-0.1,0.1-0.1,0.2-0.1c0.1,0,0.1,0,0.1,0c0,0,0.1,0,0.1,0c0,0,0.1,0,0.1,0.1s0,0.1,0.1,0.1c0.1,0,0.1,0,0.2-0.1
		c0,0,0.1-0.1,0.1-0.1s0.1,0,0.2-0.1c0.1,0,0.1-0.1,0.2-0.1c0.1,0,0.1-0.1,0-0.1c0,0-0.1-0.1-0.2-0.1c-0.1,0-0.1,0-0.1-0.1
		c0,0,0-0.1,0-0.1c0,0,0.1,0,0.1,0c0.1,0,0.1,0,0.2,0c0.1,0,0.2,0.1,0.3,0c0.1,0,0.1-0.1,0.1-0.1c0,0,0,0,0.1,0c0,0,0.1,0,0.2-0.1
		s0.1-0.1,0.2-0.1s0.1,0,0.2-0.1s0.1-0.1,0.1-0.1c0,0,0.1-0.1,0.2-0.3c0.1-0.2,0.2-0.3,0.1-0.3c0,0-0.1,0-0.1,0
		c-0.1,0-0.2,0.1-0.2,0.1c0,0-0.1,0.1-0.1,0.1s-0.1,0-0.1-0.1c0-0.1,0-0.1,0.1-0.2c0.1,0,0.4-0.4,1-1.1c0.6-0.7,0.9-1.1,0.9-1.2
		c0-0.1,0.1-0.2,0.2-0.3C250.4,40.3,250.5,40.3,250.5,40.2z M246.6,44.6C246.6,44.6,246.5,44.6,246.6,44.6c0-0.1,0-0.1,0-0.1
		C246.7,44.5,246.7,44.5,246.6,44.6C246.7,44.6,246.7,44.6,246.6,44.6z M247.7,43.6c0.2-0.2,0.3-0.2,0.3-0.1
		c-0.1,0.2-0.2,0.4-0.2,0.4s-0.1,0-0.2,0.1c-0.1,0.1-0.2,0.1-0.2,0.1C247.3,44.1,247.4,43.9,247.7,43.6z M247.8,44.5
		c0,0,0-0.1,0-0.2c0-0.1-0.1-0.1-0.1-0.1s-0.1,0-0.1,0.1c0,0.1,0,0.1,0,0.2C247.7,44.5,247.8,44.5,247.8,44.5z M249.2,42.5
		c0-0.2,0-0.2-0.1,0c0,0,0,0-0.1,0.1c0,0.1-0.1,0.2-0.2,0.2c-0.1,0-0.1,0.1-0.2,0.1c0,0.1,0,0.1,0,0.1c0,0,0.1,0.1,0.1,0.1
		c0,0,0.1,0,0.1-0.1c0-0.1,0.1-0.2,0.2-0.3S249.2,42.6,249.2,42.5z M249.6,42.1c0-0.1-0.1-0.1-0.3,0c0,0-0.1,0.1-0.1,0.2
		c0,0.1,0,0.1,0.1,0.1c0,0,0.1,0,0.2-0.1C249.6,42.2,249.7,42.1,249.6,42.1z M250.5,41.1c0.1-0.1,0.2-0.2,0.3-0.3
		c0.1-0.1,0.1-0.2,0-0.3c-0.1-0.1-0.2-0.1-0.3,0c-0.1,0.1-0.1,0.2-0.1,0.2c0,0,0,0.1-0.1,0.1c-0.1,0-0.1,0.1-0.1,0.3
		c0,0.1,0,0.1-0.1,0.1s-0.1,0.1-0.3,0.2c-0.2,0.3-0.2,0.5-0.1,0.5c0.1,0,0.1,0,0.1-0.1c0-0.1,0-0.1,0.1-0.2c0.1,0,0.1-0.1,0.1-0.2
		c0-0.1,0-0.1,0.1-0.1c0,0,0.1,0,0.1-0.1C250.3,41.2,250.4,41.2,250.5,41.1z M250.8,42.7C250.8,42.6,250.8,42.6,250.8,42.7
		c-0.3-0.1-0.4,0-0.4,0.1c0,0,0,0.1-0.1,0.1c-0.1,0.1-0.1,0.2,0,0.2c0,0,0.1-0.1,0.3-0.2C250.7,42.8,250.8,42.7,250.8,42.7z
		 M251,40.2c-0.1-0.1-0.1-0.1-0.2,0c-0.1,0.1,0,0.2,0.1,0.2c0,0,0.1,0,0.1-0.1C251.1,40.3,251.1,40.2,251,40.2z M251.8,41.8
		c0-0.1,0-0.1-0.1-0.1c0,0-0.1,0-0.1,0c0,0-0.1,0.1-0.2,0.1c-0.1,0-0.1,0-0.1,0c0,0,0,0,0,0.1c0,0.1,0,0.1-0.1,0.2
		c-0.2,0.1-0.2,0.2,0,0.2c0.1,0,0.2-0.1,0.3-0.2C251.7,41.9,251.7,41.8,251.8,41.8z M251.4,42.7C251.3,42.7,251.3,42.6,251.4,42.7
		c0-0.1,0-0.1,0-0.1C251.5,42.5,251.5,42.6,251.4,42.7C251.5,42.6,251.4,42.7,251.4,42.7z M251.5,69.1c0.1-0.1,0.1-0.1,0.1,0
		c0,0,0,0.1-0.1,0.1c0,0.1-0.1,0.1-0.1,0.1C251.4,69.3,251.4,69.2,251.5,69.1z M252.1,68c0-0.1,0-0.1,0-0.1c0,0,0,0,0.1,0.1
		c0,0.1,0.1,0.2,0,0.2s-0.1,0.2-0.1,0.3c0,0.1,0,0.1-0.1,0.1c0,0,0,0-0.1,0c0,0-0.1,0-0.1,0.1c0,0-0.1,0.1-0.1,0.1
		c0,0,0-0.2,0.1-0.6c0-0.1,0.1-0.1,0.1-0.1S252.1,68.1,252.1,68z M252.4,41c0-0.1-0.1-0.1-0.2,0c0,0-0.1,0.1-0.2,0.1s-0.1,0-0.1,0.1
		c0,0.1,0,0.1,0,0.1c0,0-0.1,0.1-0.1,0.1s0,0.1,0.1,0.1c0.1,0,0.1,0,0.1-0.1s0-0.1,0.1-0.1s0.1-0.1,0.2-0.2S252.4,41.1,252.4,41z
		 M253,40.3c0-0.2-0.1-0.1-0.4,0.1c-0.1,0-0.1,0.1-0.2,0.2c-0.1,0.1-0.1,0.2-0.1,0.3c0.1,0,0.2,0,0.4-0.2c0.1-0.1,0.1-0.2,0.1-0.2
		C252.8,40.4,252.8,40.4,253,40.3C252.9,40.4,253,40.3,253,40.3z M253,68c0-0.2,0.1-0.3,0.3-0.2c0,0,0,0.2-0.2,0.4
		c-0.3,0.4-0.5,0.5-0.5,0.5c0,0,0-0.1,0.2-0.3C252.8,68.2,252.9,68.1,253,68z M252.7,67.9c0-0.1,0-0.1,0-0.1c0,0,0.1,0,0.1,0
		c0,0,0.1,0,0.1,0.1C252.9,67.8,252.8,67.8,252.7,67.9C252.7,67.9,252.7,67.9,252.7,67.9z M253,67.1c0-0.1,0-0.2-0.1-0.2
		s-0.1,0.1-0.1,0.2s0,0.2,0.1,0.2C252.9,67.4,253,67.3,253,67.1z M252.9,58.8c0,0-0.1,0-0.1-0.1c0-0.1,0-0.1,0.1-0.1s0.1,0,0.1,0.1
		C253,58.8,253,58.8,252.9,58.8z M252.9,59.4C252.9,59.3,252.9,59.3,252.9,59.4c0.1-0.1,0.1,0,0.1,0.1l-0.1,0
		C252.9,59.5,252.9,59.4,252.9,59.4z M252.9,59.8c0,0.1,0.1,0.3,0.1,0.3c0,0.2,0,0.3-0.1,0.3c0,0,0-0.1,0-0.3
		C252.9,59.9,252.9,59.8,252.9,59.8z M252.9,61c0,0-0.1-0.1-0.1-0.2c0-0.1,0-0.2,0.1-0.2s0.1,0.1,0.1,0.2C253,60.9,253,61,252.9,61z
		 M253.4,58.1c0.1-0.1,0.1-0.1,0.1-0.2c0-0.1-0.1-0.1-0.3-0.1s-0.2,0-0.2,0.1c0,0.1,0,0.1,0.1,0.1s0.1,0,0.2,0.1
		C253.3,58.1,253.3,58.1,253.4,58.1z M253.4,56.2c0-0.1,0-0.1-0.1-0.1c-0.1,0-0.1,0-0.1,0.1c0,0.1,0,0.2,0.1,0.1
		C253.4,56.3,253.4,56.3,253.4,56.2z M253.4,59.3c0-0.2,0-0.2-0.1-0.3c-0.1,0-0.1,0-0.1,0c0,0,0,0.1,0,0.2s0,0.1,0.1,0.2
		c0,0,0.1,0.1,0.1,0.2c0,0.1,0,0.1,0.1,0.2c0.1,0,0.2,0,0.2,0c0.1-0.1,0-0.2-0.1-0.2C253.4,59.5,253.4,59.5,253.4,59.3z M253.4,66.1
		c-0.1-0.1-0.1,0-0.2,0.1c0,0.1-0.1,0.2,0,0.2c0,0.1,0.1,0,0.2-0.1C253.4,66.3,253.4,66.2,253.4,66.1
		C253.5,66.2,253.5,66.1,253.4,66.1z M253.3,57.1c-0.1-0.1-0.1-0.1-0.1,0.1c0,0,0,0.1,0,0.1l0.1,0.3l0.1,0c0,0,0.1-0.1,0.2-0.1
		c0.1,0,0.1-0.1,0.1-0.2c0-0.1-0.1-0.2-0.1-0.1C253.4,57.2,253.4,57.2,253.3,57.1z M253.6,59.9c0,0-0.1,0-0.2,0c-0.1,0-0.1,0-0.1,0
		c0,0,0,0.1,0.1,0.1c0.1,0,0.1,0.1,0.2,0.1C253.6,60.1,253.6,60,253.6,59.9z M253.3,65.9C253.4,65.9,253.4,65.9,253.3,65.9
		c0.1-0.1,0-0.1,0-0.1S253.3,65.8,253.3,65.9C253.3,65.9,253.3,65.9,253.3,65.9z M253.7,58.5c0-0.1-0.1-0.1-0.2-0.1s-0.2,0-0.2,0.1
		c0,0,0,0.1,0,0.1c0,0,0,0.1,0.1,0.1c0.1,0,0.1,0,0.1,0.1c0,0.1,0.1,0.1,0.1,0.1c0,0,0-0.1,0-0.2C253.7,58.7,253.7,58.6,253.7,58.5z
		 M253.5,58.9C253.5,58.8,253.5,58.8,253.5,58.9c-0.1-0.1-0.1-0.1-0.1-0.1C253.3,58.9,253.3,58.9,253.5,58.9
		C253.5,58.9,253.5,58.9,253.5,58.9z M253.6,65.1C253.6,65.1,253.6,65.1,253.6,65.1c-0.1-0.1-0.1-0.1-0.1-0.1
		C253.4,65.1,253.4,65.2,253.6,65.1C253.6,65.2,253.6,65.2,253.6,65.1z M253.7,63.5c0-0.1-0.1-0.1-0.1-0.1c-0.1,0-0.1,0.1-0.1,0.2
		c0,0.1,0,0.2,0.1,0.2c0.1,0,0.1,0,0.2,0S253.7,63.6,253.7,63.5z M253.7,66.3c-0.1-0.1-0.2-0.1-0.2,0.1c0,0.1,0,0.2,0,0.2
		c0,0,0.1,0,0.2,0C253.8,66.6,253.9,66.5,253.7,66.3z M253.9,59.2C253.9,59.2,253.9,59.2,253.9,59.2c-0.1-0.1-0.1-0.1-0.2-0.1
		c-0.1,0-0.1,0-0.1,0.1c0,0.1,0,0.2,0,0.2c0,0,0.1,0,0.1,0C253.7,59.4,253.8,59.3,253.9,59.2C253.9,59.3,253.9,59.3,253.9,59.2z
		 M253.9,66.1c0-0.1,0-0.1-0.1,0c0,0-0.1,0.1,0,0.1c0,0,0.1,0,0.1,0C253.9,66.1,253.9,66.1,253.9,66.1z M254.1,62.8
		c-0.1-0.1-0.1-0.1-0.1-0.1c0,0,0,0.1,0,0.2c0,0.2,0.1,0.3,0.2,0.1C254.1,63,254.1,62.9,254.1,62.8z M254.1,56.4
		C254.2,56.4,254.2,56.4,254.1,56.4c0.1-0.1,0-0.2,0-0.2S254.1,56.3,254.1,56.4C254.1,56.4,254.1,56.4,254.1,56.4z M254.2,58.9
		c0-0.1,0-0.2-0.1-0.3c0,0,0,0,0,0.1c0,0,0,0,0,0.1c0,0.1,0,0.2,0.1,0.3C254.2,59.2,254.2,59.1,254.2,58.9L254.2,58.9z M254.3,65.3
		c0-0.1,0-0.1-0.1,0c-0.1,0.1-0.1,0.1,0.1,0.1C254.3,65.4,254.3,65.3,254.3,65.3z M254.5,63.2c0-0.1,0-0.2-0.1-0.2
		c0,0-0.1,0-0.1,0.1c0,0.1,0,0.1-0.1,0.2c-0.1,0.1-0.1,0.2,0,0.2c0,0,0.1,0,0.1-0.1C254.5,63.4,254.5,63.3,254.5,63.2z M254.4,63.9
		c0-0.1,0-0.1-0.1-0.1s-0.1,0-0.1,0c0,0,0,0.1,0,0.2c0,0.1,0.1,0.1,0.1,0.1C254.4,64,254.4,64,254.4,63.9z M254.4,64.9
		C254.4,64.8,254.4,64.8,254.4,64.9c-0.2-0.1-0.2,0-0.1,0C254.3,64.9,254.3,64.9,254.4,64.9z M254.6,62.7c0,0,0-0.2,0-0.4
		c0-0.2,0-0.3-0.1-0.3c0,0-0.1,0-0.2,0.1c-0.1,0.1-0.1,0.2-0.1,0.3c0,0.1,0,0.2,0,0.2c0,0,0,0.1,0,0.2c0,0.1,0.1,0.1,0.1,0.1
		s0.1,0,0.1-0.1C254.6,62.8,254.6,62.8,254.6,62.7z M254.7,60.2c0-0.2,0-0.3-0.1-0.4s-0.1-0.1-0.1-0.1s-0.1,0.1-0.1,0.4
		c0,0.3,0.1,0.4,0.1,0.4S254.7,60.4,254.7,60.2z M254.6,61.6c0,0,0-0.1,0-0.1c0-0.1-0.1-0.1-0.1-0.1s-0.1,0-0.1,0.1
		c0,0.1,0,0.1,0,0.1C254.5,61.6,254.6,61.6,254.6,61.6z M254.7,61.1c0,0,0-0.1,0-0.1c0,0-0.1,0-0.1,0c0,0-0.1,0.1-0.1,0.1
		C254.5,61.2,254.5,61.2,254.7,61.1C254.7,61.2,254.7,61.1,254.7,61.1z M254.8,58.9c0-0.2-0.1-0.2-0.2-0.1c0,0-0.1,0.1-0.1,0.2
		c0,0.1,0.1,0.2,0.1,0.2c0.1,0,0.1,0.1,0.1,0C254.8,59.1,254.8,59,254.8,58.9z M255,63.3C255,63.3,255,63.3,255,63.3
		c-0.1-0.1,0-0.1,0-0.1S255.1,63.2,255,63.3C255.1,63.3,255.1,63.3,255,63.3z M255.5,56.5C255.5,56.5,255.5,56.5,255.5,56.5
		c-0.1-0.1-0.1,0-0.1,0c0,0,0,0,0,0.1C255.4,56.6,255.4,56.6,255.5,56.5C255.5,56.6,255.5,56.6,255.5,56.5z M255.5,58.2
		c0-0.1,0-0.1,0.1-0.1s0.1,0,0.1,0.1c0,0.1,0,0.1,0,0.1L255.5,58.2z M257.7,47.4c0-0.1-0.1-0.1-0.2,0c0,0,0,0.1,0.1,0.1
		c0,0,0.1,0,0.1,0C257.8,47.5,257.8,47.5,257.7,47.4z M257.9,42.1c0.1-0.1,0.1-0.1,0.1,0c0,0.1,0,0.1-0.1,0.1
		C257.9,42.2,257.8,42.2,257.9,42.1C257.8,42.2,257.8,42.2,257.9,42.1z M259,47.4C259,47.4,259,47.4,259,47.4c-0.1-0.1,0-0.1,0-0.1
		S259.1,47.3,259,47.4C259.1,47.4,259.1,47.4,259,47.4z M259.6,47.6C259.6,47.5,259.5,47.5,259.6,47.6c-0.2-0.1-0.2,0-0.2,0
		C259.4,47.7,259.5,47.7,259.6,47.6z M259.7,41.5c0,0,0.1,0,0.1,0c0,0,0.1,0,0.1,0.1s0,0.1-0.1,0.1S259.8,41.6,259.7,41.5
		C259.7,41.6,259.7,41.6,259.7,41.5z M261,41.3c0,0-0.1-0.1-0.1-0.1c-0.1,0-0.1,0-0.1,0.1c0,0.1,0.1,0.1,0.2,0.1
		C261,41.4,261,41.4,261,41.3z M262,41.2C262,41.2,262.1,41.2,262,41.2c0.1-0.2,0.1-0.2,0-0.2C261.9,41,261.9,41.1,262,41.2
		C261.9,41.2,261.9,41.2,262,41.2z"/>
</g>
</svg>
