<?xml version="1.0" encoding="utf-8"?>
<!-- Generator: Adobe Illustrator 21.0.0, SVG Export Plug-In . SVG Version: 6.00 Build 0)  -->
<svg version="1.1" id="图层_1" xmlns="http://www.w3.org/2000/svg" xmlns:xlink="http://www.w3.org/1999/xlink" x="0px" y="0px"
	 viewBox="0 0 340 101" style="enable-background:new 0 0 340 101;" xml:space="preserve">
<style type="text/css">
	.st0{fill:#F4E21E;stroke:#00ACCB;stroke-width:2;stroke-miterlimit:10;}
	.st1{fill:#FFFFFF;stroke:#00ACCB;stroke-width:3;stroke-miterlimit:10;}
	.st2{fill:none;}
</style>
<path class="st0" d="M317,100H28.9C16.8,100,7,90.2,7,78.1V33.9C7,21.8,16.8,12,28.9,12H317c12.1,0,21.9,9.8,21.9,21.9v44.2
	C338.8,90.2,329,100,317,100z"/>
<path class="st1" d="M312.3,89.6H24.2c-12.1,0-21.9-9.8-21.9-21.9V23.6c0-12.1,9.8-21.9,21.9-21.9h288.1c12.1,0,21.9,9.8,21.9,21.9
	v44.2C334.1,79.8,324.4,89.6,312.3,89.6z"/>
<rect x="70.2" y="28.6" class="st2" width="199.6" height="43.9"/>
<g>
	<path d="M98.8,35.6c0.3-0.1,0.5-0.2,0.6-0.2s0.4,0.1,0.7,0.3c0.3,0.1,0.5,0.2,0.7,0.2c0.3,0,0.6,0.1,0.8,0.2
		c0.2,0.1,0.4,0.4,0.6,0.8c0.2,0.4,0.3,0.7,0.1,0.9c-0.1,0.1-0.1,0.2-0.1,0.5c0,0.3,0,0.4-0.1,0.5s-0.3,0.1-0.6,0.1
		c-0.3,0-0.5,0-0.5-0.1c0,0-0.2-0.1-0.4-0.1s-0.3-0.1-0.5,0c-0.1,0-0.2,0-0.3,0c0,0-0.3,0-0.7,0s-0.7,0-0.7,0.1c0,0-0.2,0-0.3,0.1
		c-0.4,0.1-0.8,0.2-1.1,0.3c-0.2,0.1-0.4,0.1-0.5,0.1c-0.6,0-1.1,0.1-1.5,0.2c-0.3,0.1-0.5,0.1-0.6,0.1c-0.6,0-0.9,0.1-1.1,0.1
		c-0.1,0-0.2,0.1-0.3,0.1c-0.1,0-0.3,0-0.5,0.1c-0.2,0-0.4,0.1-0.5,0.1c-0.2,0-0.6,0.1-1.4,0.4l-0.6,0.2l0,1.2c0,0.8,0,1.3,0,1.3
		c0,0,0.2-0.1,0.5-0.3c0.7-0.5,1.4-0.9,2.2-1.1c0.2,0,0.6-0.1,1-0.2c0.4-0.1,0.8-0.2,1-0.2c0.6-0.1,1.2,0,1.8,0.3
		c0.3,0.1,0.6,0.3,0.9,0.6c0.3,0.3,0.6,0.6,0.7,0.8c0.2,0.4,0.4,1.1,0.5,2.1c0.1,0.5,0.1,1.1,0,1.8c0,0.9-0.1,1.5-0.2,2.1
		c0,0.1-0.1,0.1-0.1,0.1c-0.1,0-0.1,0-0.1,0.1c0,0,0,0.1-0.1,0.1c-0.1,0-0.2,0.2-0.3,0.5c0,0.1,0,0.2,0,0.3
		c-0.1,0.1-0.1,0.4-0.2,0.9c0,0.1,0,0.3-0.1,0.5c0,0,0,0,0,0.1s0,0.1,0,0.1c0,0,0,0.1-0.1,0.1C97.1,51.8,97,51.9,97,52
		c0,0.1-0.1,0.2-0.2,0.3c-0.1,0.1-0.2,0.3-0.3,0.5c-0.1,0.3-0.1,0.4-0.1,0.4s0.1,0.1,0,0.1c0,0-0.1,0-0.1,0c0,0-0.1,0-0.1,0
		c0,0-0.1,0-0.1,0.1s0,0.1,0.1,0.1c0.1,0,0.1,0,0.1,0.1c0,0-0.1,0-0.1,0c-0.1,0-0.1,0-0.1,0.1c0,0.1-0.1,0.2-0.2,0.3
		S95.8,54,95.8,54c0,0-0.1,0.1-0.2,0.2c-0.1,0.1-0.2,0.2-0.2,0.3c-0.2,0.1-0.3,0.3-0.5,0.5c-0.1,0.1-0.1,0.2-0.2,0.2s-0.1,0-0.1,0.1
		c0,0.1-0.1,0.2-0.2,0.3c-0.2,0.3-0.4,0.3-0.6,0.1c-0.1-0.1-0.2-0.1-0.3,0c0,0.1,0,0.1-0.1,0.1c-0.1,0-0.2,0.1-0.3,0
		c-0.1,0-0.2-0.1-0.2-0.2c0,0-0.1-0.1-0.2-0.1c-0.1,0-0.2,0-0.2,0c0,0-0.1,0-0.1-0.1s-0.2,0-0.3,0c-0.2,0-0.3,0-0.4-0.1
		c-0.2-0.1-0.4-0.1-0.4,0c0,0.1-0.2,0.1-0.4,0c-0.1,0-0.2,0-0.3,0c0,0-0.1,0.1-0.2,0.1c-0.1,0-0.1,0-0.1-0.1c0,0,0,0,0.1-0.1
		c0,0,0.1-0.1,0.1-0.1c0,0,0-0.1-0.1-0.1c-0.1,0-0.1,0-0.1,0.1c0,0-0.1,0-0.1,0s0-0.1,0-0.1s0.2-0.1,0.4-0.2
		c0.2-0.1,0.3-0.2,0.4-0.2c0,0,0.1-0.1,0.2-0.2s0.1-0.2,0-0.3c-0.1-0.1-0.2-0.1-0.4-0.1c-0.1,0-0.3,0-0.5,0.1s-0.3,0.3-0.3,0.5
		c-0.1,0.8-0.1,1.3,0,1.5c0.1,0.1,0.4,0.2,0.8,0.1c1.2-0.2,1.9-0.3,2.1-0.3c0.1,0,0.3,0.1,0.5,0.2c0.2,0.1,0.4,0.2,0.4,0.2
		c0.3,0,0.4,0.2,0.3,0.5c0,0.2,0,0.3,0,0.4s-0.1,0.2-0.3,0.5c-0.2,0.2-0.3,0.3-0.3,0.4s-0.1,0.1-0.2,0.1c-0.1,0.1-0.3,0.2-0.5,0.4
		c-0.2,0.2-0.3,0.3-0.4,0.3c-0.1,0-0.1,0-0.2,0.1c-0.1,0-0.2,0.1-0.4,0.1c-0.2,0-0.3,0-0.5,0.1s-0.4,0.1-0.7,0.1
		c-0.3,0-0.5,0.1-0.6,0.2c-0.1,0.1-0.2,0.2-0.2,0.4s0,0.3,0.1,0.3c0.1,0,0.4,0,0.8,0c0.5,0,1.1-0.1,1.9-0.1s1.1,0,1.1,0.1
		c0,0,0.2,0.1,0.4,0.1c0.3,0,0.5,0,0.6-0.1c0.1-0.1,0.5-0.1,1,0c0.5,0.1,0.9,0.2,1.1,0.3c0,0,0.2,0.1,0.5,0.1c0.3,0,0.5,0.1,0.6,0.1
		s0.1,0.1,0.2,0.1c0.1,0,0.1,0,0.2,0.1s0.2,0.1,0.3,0.1c0.2,0,0.4,0.1,0.5,0.2c0.2,0.1,0.2,0.2,0.3,0.3c0,0.1,0.1,0.2,0.2,0.2
		c0.1,0,0.2,0.1,0.2,0.2s0.1,0.2,0.1,0.2c-0.1,0.2-0.2,0.3,0,0.5c0.3,0.2,0.3,0.5,0.1,0.7c0,0,0,0.2,0,0.4c0,0.2,0,0.4-0.1,0.5
		c0,0.1-0.1,0.2-0.1,0.4s0,0.3-0.1,0.4c-0.1,0.1-0.1,0.1-0.1,0.2c0,0-0.1,0.1-0.2,0.3c-0.2,0.2-0.3,0.2-0.4,0.2
		c-0.2-0.1-0.7-0.1-1.3-0.1c-0.6,0-1,0.1-1.2,0.2c0,0-0.2,0.1-0.4,0c-0.5,0-0.8-0.1-0.9-0.2c-0.1-0.1-0.4-0.1-0.7,0
		c-0.2,0-0.3,0-0.5,0.1c-0.4,0-0.5,0.1-0.5,0.1s0,0.1-0.1,0c-0.1,0-0.2,0-0.3,0.1C92.7,66,92.6,66,92.4,66c-0.2,0-0.3,0-0.3,0
		s-0.1,0.1-0.2,0.1s-0.1,0-0.2,0.1c-0.1,0-0.2,0-0.4,0c-0.2,0-0.3,0-0.3,0c0,0-0.1,0-0.2,0l-0.1,0l0.2-0.1c0.1,0,0.2-0.1,0.2-0.1
		c0,0,0.1,0,0.2-0.1l0.1-0.1l0.1,0.1c0,0.1,0.1,0.1,0.1,0.1c0,0,0.1-0.1,0-0.1c0-0.1,0-0.1,0.1-0.1c0.1,0,0.2-0.1,0.2-0.2
		s0.1-0.2,0.1-0.2c-0.1,0-0.6,0.1-1.4,0.4c-0.4,0.1-0.6,0.2-0.7,0.2s-0.3,0-0.4,0c-0.1,0-0.3,0-0.4,0c-0.1,0-0.3,0-0.4,0l-0.1-0.1
		c0.1-0.1,0.3-0.1,0.5-0.2c0.3-0.1,0.7-0.2,1.3-0.5c0.4-0.2,0.5-0.3,0.6-0.4c0-0.1,0-0.2-0.1-0.2c-0.2-0.1-1.2,0-2.9,0.2
		c-1.2,0.1-1.8,0.2-2.1,0.2c-0.2,0-0.5,0-0.7,0.1c-0.2,0-0.6,0.1-1.2,0.2c-0.6,0.1-1,0.1-1.2,0.2c-0.4,0.2-0.8,0.2-1.3,0
		c-0.6-0.2-1.1-0.6-1.6-1c-0.5-0.5-0.9-1-1.2-1.5c0-0.1-0.1-0.3-0.1-0.5c0-0.3,0-0.4,0.1-0.5c0-0.1,0.2-0.2,0.4-0.4
		c0.2-0.2,0.4-0.2,0.5-0.3c0.2,0,0.3,0,0.3-0.1c0.1,0,0.1,0,0.1,0.1c0,0.1,0.1,0.1,0.1,0.1c0.1,0,0.1,0,0.1,0c0,0,0,0.1-0.1,0.2
		c-0.2,0.2-0.1,0.4,0.2,0.5c0.3,0.1,0.8,0.1,1.5,0.1c0.7,0,1.3-0.2,1.8-0.3c0.3-0.1,0.6-0.2,0.9-0.3c0.3-0.1,0.6-0.2,0.9-0.3
		c0.3-0.1,0.5-0.1,0.6-0.1c0.1,0,0.4-0.1,0.8-0.3c0.2-0.1,0.3-0.2,0.2-0.3c0,0-0.1,0-0.2,0s-0.3,0.1-0.7,0.1c-0.6,0-0.9,0.1-1,0.1
		c0,0-0.3,0-0.8,0.1c-0.5,0-0.8,0-0.8,0c-0.1,0-0.1-0.1-0.1-0.1c0,0,0.1,0,0.2,0c0.4,0,1-0.1,1.7-0.3s1.1-0.4,1.1-0.5
		c0-0.3-0.2-0.5-0.7-0.6c-0.2,0-0.3,0-0.3-0.1c0,0-0.1-0.1-0.3-0.2c-0.7-0.4-1.1-0.8-1.1-1.4c0-0.6,0.5-1,1.4-1.2
		c0.2,0,0.3,0,0.5-0.1c0.1,0,0.2,0,0.3,0c0.1,0,0.1,0,0.1,0.1c0,0-0.2,0.1-0.5,0.3s-0.5,0.3-0.5,0.4c0,0.1,0,0.2,0.1,0.2
		c0.1,0,0.3,0,0.6-0.1c1.1-0.2,1.6-0.4,1.7-0.6c0,0,0-0.3,0.1-0.8c0-0.4,0-0.7,0-0.8c0-0.1-0.2-0.1-0.4,0c-0.1,0-0.4,0.1-0.8,0.1
		c-0.4,0-0.7,0-0.8-0.1c-0.4-0.2-0.6-0.4-0.7-0.6c0-0.1-0.1-0.2-0.2-0.3c-0.1-0.1-0.1-0.3-0.1-0.4c0-0.1,0-0.2-0.1-0.3
		c-0.1-0.1-0.1-0.1-0.2-0.1c0,0-0.2-0.1-0.4-0.3c-0.2-0.2-0.4-0.3-0.4-0.4c0-0.1-0.1-0.2-0.3-0.4c-0.2-0.2-0.4-0.5-0.6-1
		c-0.6-1.1-0.8-2.6-0.8-4.5c0-1.7,0.4-2.9,1-3.6c0.1-0.2,0.2-0.3,0.3-0.3s0.2-0.2,0.4-0.4s0.4-0.3,0.4-0.3c0,0,0.1-0.1,0.3-0.2
		c0.4-0.3,0.9-0.6,1.5-0.8c0.2-0.1,0.4-0.1,0.5-0.2c0.1,0,0.3-0.1,0.6-0.2c0.4-0.1,0.6-0.2,0.7-0.2c0,0,0.1-0.2,0.1-0.5
		c0-0.5-0.2-0.8-0.3-0.8c0,0-0.1,0,0-0.1c0,0,0-0.1,0-0.1c0-0.1-0.1-0.1-0.2-0.1c-0.1,0-0.1,0-0.1,0.1c0,0.1-0.1,0.1-0.3,0.2
		c-0.2,0-0.3,0.1-0.4,0.1l-0.1,0c0-0.1,0-0.1,0-0.2c0,0-0.1-0.1-0.2,0c-0.1,0-0.2,0.1-0.3,0.1S86,39.6,86,39.7c0,0,0,0.1,0,0.1
		c0,0-0.1,0.1-0.2,0.1c-0.1,0-0.1,0,0-0.1c0.1-0.1,0.1-0.1,0-0.1c-0.1,0-0.2,0-0.3,0c-0.2,0.1-0.3,0.1-0.3,0.2c0,0.1,0,0.1-0.1,0.1
		c-0.1,0-0.2,0-0.2-0.1c0-0.1,0-0.1-0.1-0.1c-0.1,0-0.1,0.1-0.1,0.2c0,0.1,0,0.1,0,0.1c0,0-0.1,0-0.3,0.1c-0.2,0-0.3,0-0.3,0
		c0,0-0.1,0-0.2,0.1c-0.1,0.2-0.2,0.2-0.2,0c0-0.2-0.1-0.1-0.4,0.1c-0.1,0.1-0.3,0.2-0.6,0.2c-0.3,0.1-0.8,0.2-1.4,0.4
		c-0.6,0.2-1,0.3-1.1,0.4c-0.2,0.1-0.3,0.2-0.5,0.3c-0.2,0.2-0.5,0.3-0.8,0.3c-0.2,0-0.5-0.1-0.8-0.3c-0.4-0.2-0.7-0.5-1.1-0.7
		s-0.6-0.4-0.6-0.5c0,0,0-0.1-0.1-0.2c-0.1-0.1-0.2-0.3-0.2-0.4c0-0.1-0.1-0.2-0.1-0.2c0,0-0.1-0.1-0.1-0.3c0-0.2,0.1-0.5,0.4-0.9
		s0.6-0.6,0.8-0.6c0.1,0,0.2-0.1,0.3-0.2s0.2-0.1,0.2-0.1c0,0.1,0.4,0,1.3-0.2c0.6-0.2,0.9-0.2,1.1-0.1c0,0,0,0.1-0.1,0.1
		c-0.1,0-0.2,0.1-0.3,0.1c-0.7,0.2-1.2,0.5-1.5,0.8c-0.3,0.3-0.4,0.6-0.2,0.8c0.1,0.1,0.6,0.1,1.4,0c1.3-0.2,2-0.3,2-0.4
		c0,0,0.1,0,0.1,0c0,0,0.1,0,0.2,0c0.1,0,0.3-0.1,0.5-0.1c0.3,0,0.4,0,0.5-0.1c0.1-0.2,0.1-0.2,0.2-0.1c0,0.1,0.5,0.1,1.3-0.1
		c0.4-0.1,0.6-0.1,0.6-0.1c0.1,0,0.1,0,0.2-0.1c0-0.1,0.1-0.1,0.1,0c0,0.1,0.2,0.1,0.6,0c0.4-0.1,0.6-0.1,0.6-0.1
		c0,0,0.2-0.1,0.4-0.1c0.1,0,0.3,0,0.5-0.1s0.4-0.1,0.5-0.1c0.1,0,0.2,0,0.2-0.1l0.3,0c0.2,0,0.3-0.1,0.3-0.2
		c0.1-0.1,0.1-0.2,0.2-0.2c0.1,0,0.1-0.1,0.1-0.1c0-0.2,0.1-0.3,0.4-0.4c0.1,0,0.2,0,0.2,0c0,0,0.1,0.1,0.1,0.1s0.1,0,0.2,0.1
		c0,0,0.1,0.1,0.2,0.3l0.1,0.2l0.7-0.1c0.5-0.1,0.7-0.1,0.8-0.2c0.1-0.1,0.1-0.1,0.2,0c0.1,0.1,0.3,0.1,0.6,0c0.8-0.1,2.4-0.4,5-0.7
		C97.4,36.2,98.1,36,98.8,35.6z M81.4,39.4C81.4,39.4,81.3,39.3,81.4,39.4c-0.2-0.1-0.2-0.1-0.2,0c-0.1,0.1-0.1,0.1,0.1,0.1
		C81.3,39.5,81.4,39.5,81.4,39.4z M81.8,39.4c0-0.1-0.1-0.2-0.2-0.1c-0.1,0.1-0.1,0.1,0.1,0.1C81.8,39.4,81.8,39.4,81.8,39.4
		C81.8,39.4,81.8,39.4,81.8,39.4z M82.1,39.4C82.2,39.4,82.2,39.3,82.1,39.4c0.1-0.2,0.1-0.2,0-0.2S82,39.2,82.1,39.4
		C82,39.3,82,39.4,82.1,39.4z M82.8,39.2c0,0,0-0.1-0.1-0.1c0,0-0.1,0-0.1,0c0,0,0,0.1,0,0.1c0,0,0,0.1,0.1,0.1S82.8,39.2,82.8,39.2
		z M88.2,42.1c-0.1-0.8-0.1-1.2-0.2-1.2c-0.1,0-0.5,0.1-1.2,0.4c-0.9,0.5-1.6,0.9-2,1.4c-0.5,0.5-0.8,1-1,1.6
		c-0.1,0.5-0.2,1.3-0.2,2.4c0,0.8,0,1.3,0.1,1.5s0.1,0.4,0.1,0.6s0.1,0.4,0.1,0.4c0,0,0.1,0.2,0.2,0.5c0,0.2,0.2,0.4,0.4,0.8
		s0.4,0.6,0.5,0.8c0.1,0.1,0.2,0.2,0.4,0.1c0.2,0,0.3-0.1,0.3-0.3c0.1-0.2,0.2-0.5,0.2-1.1c0.1-0.6,0.1-0.9,0-0.9
		c0,0-0.1-0.1-0.1-0.2s0-0.2,0.1-0.2c0,0,0.1-0.2,0-0.5c0-0.3,0-0.4,0-0.4c0,0,0.1,0,0.1,0.1c0,0.1,0,0.2,0,0.4
		c0,0.1,0.1,0.2,0.1,0.3s0.1,0.1,0.3,0.2l0.3,0.1l0.5-0.3c0.4-0.2,0.6-0.3,0.7-0.4l0.2-0.1v-0.9c0-0.7-0.1-1.2-0.2-1.4
		c0,0-0.1-0.1-0.4-0.1c-0.2,0-0.4-0.1-0.7-0.2c-0.3-0.1-0.5-0.3-0.6-0.4c-0.3-0.3-0.4-0.6-0.4-0.7c0-0.1,0.1-0.2,0.1-0.3
		c0-0.1,0.1-0.1,0.1-0.1c0.1,0,0.1,0,0.2-0.1c0.1,0,0.2,0,0.3,0c0.4,0.1,0.8,0,1.2-0.2c0.2-0.1,0.3-0.3,0.4-0.4
		C88.3,43.3,88.3,42.8,88.2,42.1z M84.5,38.6c-0.1,0-0.2,0-0.3,0c0,0-0.1,0.1-0.2,0.1c-0.1,0-0.2,0.1-0.2,0.1c0,0.1,0.1,0.1,0.2,0.1
		c0.4,0,0.6,0,0.6-0.2C84.6,38.7,84.6,38.6,84.5,38.6z M90,30.5c0.1,0,0.3-0.1,0.5,0c0.2,0,0.4,0.1,0.5,0.1c0.3,0.2,0.5,0.6,0.6,1.4
		c0.1,0.4,0.2,0.8,0.4,1c0.2,0.3,0.3,0.5,0.3,0.6c0,0.1,0,0.3,0,0.5c0,0.3-0.1,0.5-0.2,0.7c-0.1,0.1-0.2,0.3-0.2,0.3
		c0,0.1-0.1,0.2-0.4,0.3c-0.2,0.1-0.4,0.2-0.4,0.2c0,0-0.1,0-0.3,0.1C90.5,36,90.3,36,90,36c-0.2,0-0.4-0.1-0.4-0.1s-0.2,0-0.4,0
		c-0.2,0-0.3,0.1-0.4,0.1s-0.2,0.1-0.2,0.1c-0.1,0-0.2,0-0.4,0.1c-0.2,0.1-0.4,0.1-0.4,0.1c0,0-0.1,0-0.2,0c-0.1,0-0.2,0-0.3,0
		s-0.1,0-0.1,0.1c-0.1,0.1-0.2,0.1-0.4,0c-0.1-0.1-0.2-0.1-0.3-0.1c-0.1,0-0.2,0-0.3-0.1s-0.1-0.3-0.1-0.5c0-0.1,0-0.2,0-0.3
		c0,0-0.1-0.1-0.3-0.2c-0.3-0.1-0.3-0.2-0.1-0.2c0,0,0.1,0,0.1,0c0.1,0,0.2,0,0.4-0.1c0.1,0,0.2-0.1,0.2-0.1c0-0.1,0.1-0.3,0.2-0.5
		s0.2-0.4,0.3-0.5c0.1-0.1,0.3-0.3,0.6-0.4c0.5-0.2,0.9-0.6,1.2-1.2c0-0.1,0-0.2-0.1-0.3c-0.1-0.2-0.1-0.3-0.1-0.3
		c0-0.1,0-0.2,0.1-0.3c0-0.2,0.3-0.4,0.6-0.6s0.6-0.3,0.8-0.2C89.8,30.6,89.9,30.6,90,30.5z M86.5,49.3c0-0.1-0.1-0.1-0.1-0.1
		s-0.1,0.2-0.1,0.6s0,0.6,0.1,0.7c0,0.1,0.1,0.2,0,0.4c0,0.2,0,0.4-0.1,0.6l0,0.4l0.3,0c0.2,0,0.3-0.1,0.5-0.1
		c0.5-0.4,0.8-0.6,0.8-0.7c0-0.1,0-0.2-0.1-0.3l-0.1-0.2l0.2,0.2c0.1,0.2,0.3,0.2,0.5,0c0.1-0.1,0.1-0.2,0.1-0.4
		c0-0.2,0-0.3-0.1-0.3c0,0-0.2,0-0.4,0.1c-0.2,0-0.4,0-0.6,0c-0.1,0-0.3-0.1-0.5-0.3C86.6,49.5,86.5,49.4,86.5,49.3z M86.6,37.6
		C86.6,37.5,86.6,37.5,86.6,37.6c0.1,0,0.1,0,0.1,0s0,0.1-0.1,0.1C86.5,37.7,86.5,37.7,86.6,37.6C86.5,37.6,86.5,37.6,86.6,37.6z
		 M88.4,51.8c0-0.1,0-0.3-0.1-0.4c-0.1-0.1-0.1-0.1-0.1-0.1c-0.2,0-0.3,0.1-0.4,0.2c0,0-0.1,0.1-0.3,0.2c-0.5,0.3-0.8,0.6-0.9,0.9
		c-0.1,0.2-0.1,0.3-0.1,0.3c0,0,0.1,0.1,0.2,0.1c0.1,0,0.2,0,0.3-0.1c0.1,0,0.2-0.1,0.4-0.2c0.2-0.1,0.4-0.2,0.6-0.4
		C88.2,52.1,88.4,51.9,88.4,51.8z M87.7,59.4c-0.1-0.1-0.1-0.1-0.2,0c0,0-0.1,0.1,0,0.1c0,0,0.1,0,0.1,0
		C87.7,59.4,87.8,59.4,87.7,59.4z M88.2,39.1c0-0.1-0.1-0.2-0.1-0.1c0,0,0,0.1,0,0.3c0,0.2,0.1,0.3,0.1,0.4c0,0.1,0.1,0.2,0.1,0.4
		c0.1,0.3,0.2,0.4,0.3,0.3c0.1,0,0.1-0.2,0.1-0.5c0-0.4-0.1-0.6-0.4-0.6C88.3,39.3,88.2,39.2,88.2,39.1z M88.9,66.2
		c0.1-0.1,0.2-0.1,0.3-0.1c0,0,0,0.1-0.1,0.1S89,66.2,88.9,66.2C88.9,66.3,88.9,66.3,88.9,66.2z M93.6,44.7
		c-0.4-0.2-1.1-0.2-2.1,0.2c-0.6,0.2-1,0.4-1.3,0.7c-0.1,0.1-0.2,0.1-0.3,0.2c-0.1,0-0.2,0.1-0.2,0.2s0,0.3-0.1,0.6
		c0,0.4,0,0.6,0,0.6c0,0,0.1,0,0.1-0.1c0.1,0,0.1-0.1,0.1-0.1c0,0,0-0.1,0.2-0.3c0.2-0.1,0.3-0.2,0.4-0.3c0.1,0,0.2,0,0.4,0.1
		c0.2,0.1,0.4,0.1,0.5,0.2c0.1,0.1,0.3,0.1,0.6,0.1c0.3,0,0.5,0.1,0.5,0.1c0.1,0.1,0.1,0.1,0.2,0.1c0,0,0.1,0,0.1,0.1
		c0.1,0.2,0.1,0.4,0,0.6s-0.3,0.4-0.5,0.5c-0.2,0-0.3,0.2-0.4,0.3c-0.1,0.2-0.3,0.3-0.5,0.4c-0.2,0.1-0.3,0.2-0.3,0.3
		s-0.1,0.1-0.2,0.2c-0.2,0.1-0.3,0.2-0.5,0.3c-0.2,0.1-0.3,0.2-0.3,0.3c0,0,0.1,0.1,0.2,0.2c0.1,0.1,0.2,0.1,0.2,0.3
		c0,0.1,0.1,0.2,0.3,0.3c0.2,0.1,0.5,0.1,1-0.1c0.2,0,0.4,0,0.6,0.1c0.2,0.1,0.4,0.1,0.5,0.1c0.3-0.1,0.5-0.4,0.8-0.9
		c0.3-0.7,0.5-1.8,0.5-3.3c0-0.8,0-1.3-0.1-1.5C93.9,44.9,93.8,44.7,93.6,44.7z M95.9,38.2c0-0.1-0.1-0.1-0.3,0c0,0-0.1,0.1-0.2,0
		c-0.1,0-0.2,0-0.2,0.1c0,0.1-0.1,0.1-0.2,0c-0.1-0.1-0.1-0.1-0.2,0c0,0-0.1,0.1-0.3,0.1c-0.1,0-0.2,0-0.2,0.1c0,0-0.1,0-0.2,0
		s-0.1,0-0.2-0.1c0,0-0.1-0.1-0.2-0.1c-0.1,0-0.1,0-0.1,0.1c0,0-0.1,0-0.2,0s-0.3,0-0.4,0c0,0-0.1,0-0.1,0s-0.1,0-0.2,0
		c-0.2,0-0.4,0-0.7,0.2c-0.1,0-0.1,0-0.1,0c0,0-0.1,0-0.3,0c-0.1,0-0.2,0-0.3,0c0,0-0.1,0.1-0.1,0.1c0,0.1-0.1,0.2-0.2,0.2
		c-0.1,0-0.2,0-0.2-0.1c0-0.1-0.1-0.1-0.2-0.1c-0.1,0-0.2,0-0.2,0.1c0,0,0,0.1-0.1,0.1c-0.1,0-0.1,0-0.2,0c0-0.1-0.1-0.1-0.2-0.1
		c-0.1,0-0.2,0-0.3,0.1c-0.1,0-0.1,0.3-0.1,0.7c0,0.4,0,0.6,0.1,0.6c0.2,0,1.2-0.3,3-0.7c0.6-0.1,1-0.2,1.1-0.3
		c0.2-0.1,0.3-0.1,0.3-0.1c0.3,0,0.9-0.2,1.5-0.5c0.4-0.2,0.5-0.3,0.1-0.3C95.9,38.3,95.9,38.2,95.9,38.2z M89.8,66.4
		C89.8,66.4,89.8,66.4,89.8,66.4c-0.1-0.1,0-0.1,0-0.1S89.9,66.4,89.8,66.4C89.9,66.5,89.9,66.5,89.8,66.4z M90.2,66.3
		c0.1-0.2,0.3-0.2,0.4-0.1c0,0,0,0-0.1,0.1c0,0-0.1,0-0.1,0.1c-0.1,0-0.1,0-0.2,0C90.1,66.4,90.1,66.4,90.2,66.3z M97.7,50.3
		c0-0.1,0.1-0.1,0.1-0.1c0.1,0,0.1,0.1-0.1,0.4c-0.1,0.2-0.2,0.3-0.1,0.4s0,0.1,0,0.2s-0.1,0.2-0.1,0.2c0,0,0,0.2-0.1,0.5
		c-0.1,0.3-0.2,0.5-0.2,0.5c0,0-0.1,0-0.1,0c0-0.1,0-0.1,0.1-0.1c0,0,0.1-0.1,0.1-0.2s0-0.2,0.1-0.4c0.1-0.1,0.1-0.3,0.1-0.4
		c0-0.2,0-0.3,0.1-0.3c0.2-0.3,0.2-0.4,0.1-0.5C97.6,50.4,97.6,50.4,97.7,50.3z M98.1,48.4c0-0.2,0-0.3-0.1-0.3c-0.1,0-0.1,0-0.1,0
		c0,0,0,0.1,0,0.3c0,0.2,0,0.3,0.1,0.3c0,0,0.1,0,0.1-0.1C98.1,48.6,98.1,48.5,98.1,48.4z M97.9,49.8C97.9,49.8,97.9,49.8,97.9,49.8
		c-0.1-0.1,0-0.1,0-0.1C97.9,49.7,98,49.7,97.9,49.8C98,49.8,97.9,49.8,97.9,49.8z"/>
	<path d="M134.2,31.1c0.2-0.1,0.3,0,0.5,0.1c0.2,0.2,0.6,0.3,1.2,0.3l0.4,0l0.9,0c1.4,0,2.4,0.2,2.9,0.6c0.2,0.1,0.3,0.3,0.4,0.5
		c0.1,0.2,0.1,0.4,0.1,0.8c0,0.7-0.2,1.3-0.6,1.7c-0.1,0.1-0.2,0.2-0.2,0.4c-0.1,0.2-0.1,0.3-0.1,0.3c0,0,0.1,0,0.3-0.1
		c0.2-0.1,0.3-0.1,0.4-0.2c0,0,0.2-0.1,0.5-0.2c0.3-0.1,0.4-0.1,0.5-0.1s0.2,0.1,0.5,0.1c0.5,0,0.8,0.1,0.8,0.3c0,0,0,0.1,0.1,0.1
		c0.1,0.1,0.1,0.2-0.1,0.4c-0.1,0.1-0.2,0.2-0.2,0.3s0,0.2-0.1,0.3c-0.1,0.1-0.2,0.2-0.2,0.2c-0.2,0-0.3,0-0.4,0.2
		c0,0.1-0.1,0.1-0.1,0.1s-0.1,0-0.1,0.1c0,0,0,0.1,0.1,0.1c0.1,0,0.1,0.1,0.1,0.3c0,0.1,0,0.3-0.1,0.3c0,0.1-0.2,0.1-0.4,0.1
		c-0.2,0-0.5,0-0.7,0.1c-1,0.4-1.7,0.7-1.9,0.8c-0.1,0-0.2,0.1-0.4,0.2c-0.6,0.3-1,0.6-1.3,1.1c-0.7,1-0.9,1.6-0.8,1.8
		c0,0,0.1,0,0.1,0c0.2-0.1,0.5-0.3,0.8-0.8c0.2-0.3,0.3-0.5,0.3-0.7s0-0.2,0.1-0.3c0,0,0.1-0.1,0.1-0.2c0-0.1,0.1-0.2,0.2-0.3
		c0.4-0.1,0.6-0.3,0.8-0.4c0.2-0.2,0.4-0.3,0.8-0.4c0.3-0.1,0.6-0.1,0.7-0.1c0.2,0.1,0.4,0.2,0.6,0.5c0.3,0.3,0.4,0.7,0.5,1.1
		c0,0.4,0,0.7,0,1.1c0,0.2,0,0.3,0.1,0.3c0.1,0,0.1,0,0.1-0.1c0,0,0.1,0,0.1,0c0.1,0,0.1,0,0.2,0c0-0.1,0.1-0.1,0.2,0
		c0.1,0.1,0.2,0.1,0.4,0.1c0.4-0.1,0.9-0.1,1.5,0c0.6,0.1,1.1,0.2,1.3,0.3c0.3,0.1,0.4,0.3,0.4,0.5c0,0.1,0,0.2,0.1,0.4
		c0.1,0.2,0,0.4-0.2,0.4c-0.1,0-0.2,0.1-0.2,0c-0.1,0-0.1,0-0.3,0c-0.1,0-0.2,0-0.2,0c-0.1-0.1-0.2,0-0.3,0.1
		c-0.1,0.2-0.2,0.3-0.3,0.3c-0.1,0-0.2,0-0.4,0.1c-0.2,0.1-0.3,0.1-0.3,0.2c0,0,0,0.1,0.1,0.1c0,0,0,0.2-0.1,0.4
		c0,0.2-0.1,0.3-0.1,0.3c0,0-0.3,0-0.6-0.1c-0.2,0-0.4,0-0.6,0.1c-0.2,0.1-0.3,0.1-0.3,0.2c0,0.1,0,0.1-0.1,0.1s-0.1,0-0.2,0
		c-0.1,0-0.1,0-0.1,0.1s0,0.1-0.1,0.1c-0.1,0-0.2,0-0.3,0.1c-0.1,0.1-0.2,0.1-0.2,0.2c0,0.1-0.1,0.1-0.4,0.2c-0.1,0-0.2,0.1-0.2,0.1
		c0,0,0,0.1,0,0.1c0,0,0,0-0.1,0c0,0-0.1,0-0.1,0c0,0-0.1,0-0.1,0.1c0,0-0.1,0.1-0.1,0.1c0,0,0,0.1-0.1,0.1c-0.1,0-0.1,0-0.2,0.1
		c0,0.1-0.1,0.1-0.1,0.1c0,0-0.4,0.2-0.9,0.5c-1,0.6-1.5,1-1.5,0.9c0,0,0-0.1,0.1-0.1c0.1-0.1,0.2-0.1,0.1-0.2c0,0-0.2,0.1-0.6,0.4
		s-0.6,0.4-0.7,0.4c-0.4,0.2-0.7,0.4-0.8,0.4c0,0-0.1,0.1-0.3,0.2c-0.1,0.1-0.2,0.2-0.3,0.2c0,0-0.2,0.1-0.4,0.2
		c-0.3,0.2-0.7,0.3-1.3,0.5c-0.6,0.2-1,0.2-1.4,0.3c-1.1,0.1-2,0-2.6-0.3c-0.3-0.1-0.6-0.4-0.9-0.8s-0.5-0.8-0.5-1.1
		c0-0.2,0-0.3-0.1-0.3c0,0,0-0.2,0.1-0.5c0.1-0.4,0.3-0.6,0.6-0.7c0.2,0,0.4-0.2,0.4-0.4c0-0.1,0.1-0.1,0.2-0.2c0.1,0,0.2-0.1,0.2,0
		c0,0,0,0.1,0,0.3c0,0.2,0,0.3,0.1,0.4c0.1,0.2,0.3,0.3,0.6,0.4c0.3,0.1,0.6,0.1,0.9,0c0.7-0.2,1.8-0.7,3.1-1.5
		c0.6-0.3,0.9-0.5,0.9-0.6c0.1-0.1,0.1-0.1,0-0.2c0-0.1-0.1-0.2-0.1-0.3c-0.1,0-0.1-0.1,0-0.2s0.1-0.2,0.1-0.4c0-0.2,0-0.4,0.1-0.5
		c0.1-0.1,0.2-0.3,0.3-0.5c0.1-0.5,0.3-1,0.6-1.5c0.1-0.3,0.2-0.4,0.2-0.5c0-0.1,0-0.1-0.1-0.2c-0.1-0.1-0.2-0.1-0.5,0
		c-0.4,0.1-0.7,0.1-1,0c-0.1,0-0.4-0.2-0.7-0.6c-0.3-0.3-0.6-0.6-0.7-0.6c-0.3-0.1-0.4-0.3-0.4-0.5c0,0,0.1-0.1,0.2-0.3
		c0.1-0.1,0.2-0.3,0.3-0.4s0.2-0.2,0.2-0.1c0,0,0.1,0.1,0.3,0.2c0.2,0.1,0.4,0.1,0.7,0.1c0.5,0,1-0.2,1.6-0.5
		c0.2-0.1,0.5-0.3,0.8-0.5c0.3-0.2,0.5-0.3,0.5-0.3c0,0-0.1,0-0.2,0.1c-0.2,0.1-0.3,0.1-0.3,0c0,0,0-0.1,0.1-0.1
		c0.2-0.1,0.2-0.2-0.1-0.2c0,0-0.1,0-0.1,0c-0.2,0-0.3,0-0.3-0.1c0-0.1-0.1-0.1-0.4-0.1c-0.5,0-1,0.3-1.8,0.8
		c-0.2,0.1-0.3,0.2-0.4,0.2c-0.1,0-0.1-0.1-0.1-0.1c0,0,0.1-0.1,0.1-0.1c0.1,0,0.3-0.2,0.6-0.4c0.5-0.4,0.7-0.8,0.9-1.4
		c0.1-0.3,0.1-0.5,0.1-0.6c0-0.2-0.1-0.3-0.1-0.4c0-0.1,0-0.2-0.1-0.3c-0.1-0.1-0.1-0.2-0.2-0.3c-0.1-0.1-0.2-0.2-0.3-0.4
		c-0.4-0.4-0.6-0.6-0.6-0.9c-0.1-0.3-0.1-0.6,0-0.8c0-0.1,0.2-0.3,0.3-0.5C134,31.2,134.1,31.1,134.2,31.1z M138.5,47.5
		C138.5,47.5,138.5,47.4,138.5,47.5C138.5,47.4,138.5,47.4,138.5,47.5c0.1,0,0.2,0,0.2,0s0.1,0,0.1,0.1c0,0.1,0,0.3,0.1,0.4
		c0.1,0.1,0.2,0.2,0.3,0.2s0.1,0,0.1,0.1s0,0.1,0.1,0.1c0,0,0,0,0,0.1c0,0-0.1,0.1-0.1,0.1s0,0.1-0.1,0.2c-0.1,0.1-0.1,0.1-0.2,0.1
		c0,0-0.1,0-0.2,0.1c-0.1,0.1-0.1,0.2-0.1,0.2c0,0.1,0,0.1-0.1,0.2c-0.1,0.1-0.1,0.1-0.2,0.1c-0.1,0-0.1,0-0.1,0.1
		c-0.1,0.1-0.2,0.5-0.2,1c0,0.1,0,0.3-0.1,0.5c0,0.2,0,0.4,0,0.4c0,0,0,0.1,0,0.1c0,0-0.1,0.1-0.1,0.4s0,0.5-0.1,0.8
		s-0.1,0.7-0.1,1.1c0,0.4,0,0.7,0,0.9c0,0.6-0.1,1.8-0.1,3.5c0,1.1-0.1,1.7-0.1,1.9c0,0.1-0.1,0.2-0.1,0.4c0,0.2,0,0.3-0.1,0.5
		s-0.1,0.3-0.1,0.4c0,0,0,0.1-0.1,0.1c-0.1,0-0.1,0.1-0.2,0.1c0,0-0.1-0.1-0.3-0.2c-0.1-0.1-0.2-0.2-0.2-0.3s0-0.2-0.1-0.3
		c-0.1-0.1-0.1-0.2-0.1-0.3c0-0.1-0.1-0.3-0.3-0.6c-0.2-0.3-0.3-0.6-0.4-0.6c0-0.1-0.2-0.4-0.6-1.1c-0.3-0.6-0.5-1.1-0.6-1.2
		c0-0.1-0.1-0.2-0.1-0.3c0,0-0.1,0-0.3,0.2s-0.2,0.2-0.2,0.3c0,0.1-0.2,0.3-0.6,0.6c-0.4,0.4-0.6,0.6-0.7,0.6
		c-0.1,0-0.3,0.2-0.4,0.4c0,0.1-0.1,0.2-0.3,0.3c-0.1,0.1-0.2,0.2-0.3,0.2c-0.2,0-0.3-0.3-0.5-0.9c0-0.2-0.1-0.3-0.2-0.4
		c-0.1-0.2-0.2-0.6-0.1-1.3c0-0.5,0.1-0.9,0.2-1.2c0.1-0.3,0.1-0.5,0.1-0.6c0.1-0.4,0.2-0.7,0.4-1s0.3-0.5,0.5-0.5
		c0.1,0,0.3-0.1,0.4,0c0.2,0,0.3,0.1,0.4,0.1c0.1,0.1,0.1,0.1,0.1,0.2c0,0,0,0.1,0.1,0.1c0.1,0,0.1,0.1,0.1,0.2s0,0.1,0.1,0.2
		c0.1,0.1,0.2,0.3,0.4,0.6c0.2,0.3,0.3,0.5,0.3,0.5s0.1,0.2,0.2,0.4c0.1,0.2,0.2,0.3,0.2,0.3s0.1-0.1,0.2-0.3
		c0.1-0.1,0.2-0.2,0.2-0.2c0,0.1,0,0.1-0.1,0.1c0,0-0.1,0.1-0.1,0.2s0,0.2,0,0.2c-0.1,0.1-0.1,0.5,0.3,1.1c0.2,0.4,0.3,0.6,0.3,0.7
		c0,0,0,0.1,0.1,0.1s0.1,0,0.1,0.1c0,0.1,0.2,0.3,0.4,0.5c0.2,0.2,0.3,0.4,0.4,0.4c0.1,0,0.1,0,0.1,0c0,0,0-0.1,0-0.1
		c0-0.1-0.1-0.1,0-0.1c0,0,0.1,0,0.2,0.1c0.2,0.1,0.3,0.2,0.4,0.1c0-0.1,0.1-2.2,0.1-6.3c0-1,0-1.6-0.1-1.7s-0.1-0.1-0.2-0.1
		c-0.1,0-0.4,0.1-0.8,0.4c-0.1,0.1-0.3,0.2-0.4,0.3c-0.2,0.1-0.5,0.3-0.9,0.6c-0.3,0.2-0.5,0.3-0.6,0.3c-0.3,0-0.5,0-0.7-0.1
		c-0.1-0.1-0.2-0.3-0.2-0.6c0-0.6,0.1-1,0.3-1.2c0.1-0.1,0.2-0.2,0.2-0.2c0,0,0.1,0,0.1-0.1c0-0.1,0.1-0.1,0.1,0c0,0,0,0.1,0,0.1
		c0,0.2,0.1,0.4,0.3,0.5c0.2,0,0.6,0,1.1-0.2c0.5-0.2,0.9-0.5,1.3-0.8c0.1-0.1,0.2-0.2,0.1-0.3c0-0.1,0-0.2,0.1-0.4
		c0.1-0.2,0.1-0.3,0.2-0.3c0,0,0.1-0.1,0.1-0.2c0.1-0.1,0.2-0.2,0.3-0.4s0.2-0.2,0.3-0.2c0.1,0,0.1,0,0.1,0c0,0,0,0.1,0.1,0.1
		c0.1,0,0.1,0,0.1-0.1c0,0,0-0.1,0.1-0.1s0.1-0.1,0.1-0.1c0,0,0-0.1,0.1-0.1C138.5,47.7,138.5,47.6,138.5,47.5z M132.9,54
		c-0.2-0.3-0.4-0.2-0.6,0.1c-0.2,0.3-0.3,0.9-0.4,1.6c0,0.3,0,0.5,0.1,0.8c0.1,0.3,0.1,0.5,0.2,0.5c0.1,0.2,0.4,0.3,0.7,0.4
		c0.2,0,0.3,0,0.5-0.2c0.5-0.5,0.7-0.8,0.7-0.9c0-0.1-0.2-0.5-0.5-1.2S133,54.1,132.9,54z M136.1,59.1
		C136.1,59.1,136.2,59,136.1,59.1c0.1-0.1,0-0.1,0-0.1C136.1,59,136.1,59,136.1,59.1C136.1,59,136.1,59.1,136.1,59.1z M138.1,41.1
		c0-0.1-0.1-0.1-0.2-0.1s-0.2,0.1-0.3,0.3c-0.1,0.2-0.1,0.3-0.1,0.4s-0.2,0.4-0.5,1c-0.3,0.6-0.4,0.9-0.4,0.9c0,0,0.2-0.1,0.4-0.3
		s0.4-0.4,0.5-0.5c0.3-0.4,0.5-0.8,0.5-1.2C138.1,41.4,138.1,41.2,138.1,41.1z M136.8,37c0.1,0,0.1,0,0.1-0.1c0,0,0-0.1,0-0.1
		c0,0-0.1,0-0.1,0C136.7,36.8,136.7,36.8,136.8,37C136.7,36.9,136.7,37,136.8,37z M138.7,46.4c0.1,0,0.2-0.1,0.3-0.2
		c0.2-0.1,0.2-0.2,0.2-0.3c0,0-0.2,0-0.3,0.1c-0.2,0.1-0.3,0.2-0.4,0.2c-0.1,0-0.1,0.1-0.1,0.1s-0.1,0.1-0.2,0.1
		c-0.2,0.1-0.4,0.2-0.7,0.4c-0.3,0.2-0.5,0.3-0.5,0.4c0,0.1-0.1,0.1-0.1,0.1c0,0-0.1,0-0.1,0c0,0-0.1,0.1,0,0.1c0,0,0.1,0,0.1,0
		c0.1,0,0.1,0,0.1-0.1c0,0,0-0.1,0.1-0.1c0.1,0,0.2,0,0.3,0.1s0.2,0.1,0.2,0c0,0,0.2-0.1,0.4-0.3c0.1-0.1,0.2-0.3,0.2-0.3
		c0-0.1,0-0.1,0.1-0.1c0,0,0.1,0,0.1,0.1c0,0,0,0.1,0.1,0.1s0.1,0,0.1-0.1s0-0.1,0.1-0.2S138.6,46.4,138.7,46.4z M143.2,45.2
		C143.2,45.1,143.3,45.1,143.2,45.2c0.1,0,0,0.2,0,0.5c0,0.3-0.1,0.5-0.1,0.7c0,0.2-0.1,0.5-0.1,1.1s-0.1,0.9-0.1,1
		c0,0.1,0,0.2-0.1,0.5c0,0.3-0.1,0.6-0.1,0.9c-0.1,0.6-0.2,1-0.2,1.3c0,0.4-0.1,1-0.3,1.8c0,0.2-0.1,0.6-0.1,1.1
		c0,0.5,0,0.8-0.1,0.9c-0.1,0.1-0.2,0.2-0.3,0.3c-0.1,0.1-0.2,0.1-0.3,0.1c-0.1,0-0.2,0-0.3-0.1s-0.3-0.2-0.3-0.2s0-0.1-0.1-0.1
		s-0.1-0.1-0.2-0.3c-0.1-0.2-0.1-0.4-0.1-0.5s0-0.3-0.1-0.4c-0.1-0.1-0.1-0.2-0.1-0.4c0-0.2,0-0.3,0.1-0.4c0.1-0.1,0.1-0.3,0-0.6
		c-0.1-0.3-0.2-0.5-0.4-0.6c-0.2-0.1-0.3-0.2-0.5-0.2s-0.3,0-0.3,0c0.1,0,0.3-0.1,0.6-0.1c0.3,0,0.6,0.1,0.8,0.2
		c0.2,0.1,0.4,0.2,0.4,0.1c0,0,0-0.1-0.1-0.2c-0.1-0.1-0.1-0.2-0.1-0.2c0,0,0.2,0.1,0.4,0.3c0.2,0.2,0.3,0.3,0.4,0.3
		c0-0.1,0.1-0.3,0.3-0.7c0.1-0.4,0.3-0.7,0.3-0.9c0-0.2,0.1-0.3,0.1-0.3s0.1-0.1,0.1-0.2c0-0.1,0-0.3,0.1-0.6
		c0.1-0.3,0.1-0.5,0.1-0.6c0-0.1,0-0.2,0.1-0.4s0.1-0.3,0.1-0.4c0-0.1,0-0.2,0.1-0.3c0.1-0.1,0.1-0.2,0.1-0.2c0,0,0.1-0.7,0.4-1.9
		C143.1,45.4,143.2,45.2,143.2,45.2z M143.3,45c0.1-0.1,0.1-0.1,0.1-0.1L143.3,45z M151.9,30.4c0-0.1,0.1-0.1,0.1,0
		c0.1,0.2,0.2,0.3,0.4,0.1c0.1-0.2,0.4-0.1,0.8,0.2c0.4,0.3,0.6,0.5,0.8,0.5c0.1,0,0.5,0.3,1,0.8c0.1,0.1,0.2,0.2,0.3,0.4
		c0.2,0.2,0.2,0.5,0.2,0.9c0,0.3-0.1,0.6-0.3,0.9c-0.1,0.2-0.2,0.3-0.3,0.4c0,0.1-0.1,0.1-0.1,0.2s-0.1,0.1-0.1,0.1
		c0,0-0.1,0.2-0.2,0.4c-0.1,0.2-0.3,0.4-0.4,0.5c-0.2,0.1-0.3,0.2-0.3,0.3s-0.1,0.1-0.2,0.3s-0.2,0.2-0.3,0.2s-0.1,0-0.1,0.1
		c0,0.1-0.1,0.1-0.2,0.2c-0.1,0-0.2,0.1-0.2,0.2c0,0.1-0.1,0.1-0.1,0.1s-0.1,0-0.2,0c-0.1,0-0.2,0-0.3,0.1c-0.1,0-0.2,0.1-0.3,0.2
		c0,0.1-0.1,0.2-0.1,0.2c0,0-0.1,0-0.1,0.1c0,0.1-0.1,0.1-0.2,0.1s-0.1,0-0.1,0.1c0,0-0.1,0.1-0.2,0.1c-0.2,0.1-0.3,0.2-0.3,0.4
		c0,0.1,0,0.1,0,0.2c0,0.1-0.1,0.1-0.1,0.1c-0.1,0-0.1,0-0.2,0.1c-0.1,0.1-0.1,0.3-0.1,0.5c0,0.2,0,0.3,0,0.3c0,0,0.1,0,0.2-0.1
		c0.1,0,0.1-0.1,0.1-0.2l0.1-0.1c0,0.1,0,0.1,0.1,0.1c0,0,0.1,0,0.2-0.1s0.3-0.2,0.5-0.3c0.2-0.1,0.3-0.2,0.3-0.3
		c0-0.1,0.1-0.2,0.2-0.3c0.1-0.1,0.2-0.2,0.3-0.3c0.1-0.1,0.2-0.2,0.3-0.3c0.2-0.1,0.5-0.1,0.8,0.1c0.2,0.1,0.4,0,0.5-0.1
		c0,0,0.1-0.1,0.3-0.1c0.2,0,0.3-0.1,0.3,0c0,0,0.1,0,0.3-0.1s0.2-0.1,0.3-0.1c0.1,0,0.2,0,0.2-0.1c0-0.1,0.4-0.1,1.1-0.1
		c0.7,0,1.1,0,1.1-0.1s0.1-0.1,0.2-0.1c0.1,0,0.1,0,0.1,0.1c0,0.1,0,0.2,0.1,0.3c0,0.1,0.1,0.2,0.1,0.3c0,0.1,0.1,0.1,0.1,0.1
		c0.1,0,0.1,0.1,0.1,0.1s0,0.1-0.1,0.1c-0.1,0-0.1,0.1-0.1,0.1c0,0.1,0.1,0.1,0.2,0.1c0.1,0,0.1,0.1,0,0.2c-0.1,0.1-0.1,0.2,0,0.3
		c0.1,0.1,0.1,0.2,0.2,0.2c0.1,0,0,0-0.1,0.1c-0.1,0-0.2,0.1-0.3,0.3s-0.1,0.2-0.2,0.2c-0.2,0.1-0.3,0.2-0.1,0.4
		c0.1,0.1,0.1,0.1,0,0.2c-0.1,0-0.1,0.1-0.1,0.2c0,0.1,0,0.2-0.1,0.2c0,0.1-0.1,0.1-0.1,0.2c0,0,0.1,0.1,0.1,0.1
		c0.2,0,0.2,0,0.1,0.1c0,0-0.1,0.1-0.2,0.1c-0.1,0-0.2,0.1-0.3,0.1c0,0,0,0.1,0.1,0.1c0,0,0.1,0.1,0.1,0.1s-0.1,0.1-0.3,0.1
		c-0.5,0.1-0.8,0.2-0.9,0.5c0,0.1,0,0.6,0,1.6c0.1,1,0.1,2.3,0.1,3.9c0,1.6-0.1,2.7-0.1,3.3c0,0.2,0,0.6-0.1,1.3
		c0,0.7,0,1.1-0.1,1.2c0,0.1,0,0.2,0,0.3c0,0,0,0-0.1,0c0,0-0.1,0-0.1-0.1c0,0,0-0.1-0.1-0.1c0,0-0.1,0-0.1,0c0,0,0,0.1,0,0.1
		c0,0,0,0.1,0,0.1c-0.1,0-0.1,0.1,0,0.1c0,0,0.1,0,0.2,0c0.1-0.1,0.2-0.1,0.2,0c0,0,0,0.1-0.1,0.1s-0.1,0.1-0.2,0.2
		c0,0.1,0,0.3,0,0.4c0,0.1,0,0.2,0,0.4c0,0.1,0,0.2,0,0.3c0,0.1,0.1,0.2,0,0.2c0,0.1-0.1,0.2-0.1,0.3s-0.1,0.2-0.2,0.3
		c-0.1,0-0.1,0.1-0.1,0.3c0,0.1,0,0.2,0.1,0.2c0,0,0,0,0.1,0c0,0-0.1,0.1-0.1,0c0,0,0,0-0.1,0c0,0,0,0,0,0.1c0,0,0,0.1,0,0.1
		s0,0.1,0,0.3s0,0.2,0.1,0.2s0.1,0,0.1,0.1c0,0.1-0.1,0.1-0.1,0.1c-0.1,0-0.2,0.2-0.3,0.7c0,0.2-0.1,0.3-0.1,0.3c0,0,0,0.1,0,0.3
		c0,0.2,0,0.3-0.1,0.4c0,0-0.1,0.1-0.2,0.1s-0.2,0-0.2-0.1c0-0.1,0-0.1-0.1,0c0,0,0,0.1,0,0.2s0.1,0.1,0.2,0.1c0.1,0,0.1,0,0.1,0.1
		c0,0.1,0,0.1,0,0.1c0,0,0,0-0.1,0c0,0,0,0-0.1,0s0,0,0-0.1c0-0.1,0-0.1-0.1-0.1c-0.1,0-0.2,0-0.2,0.1c0,0.1,0,0.1,0,0.3
		c0.1,0.3,0,0.5-0.1,0.6c0,0,0,0.1,0,0.2c0,0.1,0,0.1,0,0.2c-0.2,0.2-0.2,0.4-0.1,0.4c0,0,0,0.1,0,0.2s0,0.2-0.1,0.3
		c0,0,0,0.1,0,0.2c0,0.1,0,0.2-0.1,0.2c0,0.1-0.1,0.2,0,0.3c0,0.1,0.1,0.2,0.1,0.3c0.1,0.1,0.2,0.2,0.1,0.3c0,0-0.1,0.1-0.1,0.1
		c0,0.1,0,0.2-0.1,0.3c0,0.1-0.1,0.2-0.1,0.2c-0.1,0-0.1-0.1,0-0.4c0.1-0.3,0.1-0.5,0-0.5c0,0-0.1,0-0.1,0.1l0,0.1c0,0,0,0,0,0.1
		c0,0,0,0.1-0.1,0.1c0,0.1,0,0.1-0.1,0.2c-0.1,0.3-0.1,0.5-0.2,0.6c0,0.1,0,0.2-0.1,0.3c0,0-0.1,0.1-0.1,0.1s0,0.2-0.1,0.3
		c-0.1,0.1-0.1,0.2-0.1,0.4c0,0.1-0.1,0.2-0.2,0.3s-0.2,0.2-0.2,0.4c-0.1,0.4-0.3,0.7-0.4,0.7c-0.1,0-0.1,0.1-0.1,0.1
		c0,0,0,0.1-0.1,0.2c-0.1,0.1-0.2,0.1-0.2,0.2s-0.1,0.1-0.1,0.2c0,0.2,0,0.3-0.1,0.3c-0.1,0-0.1,0-0.2,0.1c0,0-0.1,0-0.1,0
		c0,0,0-0.1,0.1-0.1c0.1,0,0.1-0.1,0-0.2c0-0.1,0-0.1,0-0.2c0.2-0.1,0.2-0.2,0.1-0.3c-0.1,0-0.1-0.1,0-0.1c0,0,0.1-0.1,0.1-0.2
		c0-0.1,0.1-0.2,0.1-0.2c0,0,0-0.1,0.1-0.3c0-0.1,0.1-0.4,0.2-0.7c0.1-0.3,0.2-0.5,0.2-0.6c0.2-0.5,0.3-0.7,0.2-0.8
		c0-0.1-0.1-0.1,0-0.1s0.1-0.2,0.1-0.6c0.1-0.4,0.1-0.6,0.1-0.8s0.1-0.4,0.1-0.7c0-0.2,0-0.3,0-0.3c0,0,0-0.1-0.1-0.1
		c-0.1,0-0.2,0.1-0.2,0.2s-0.1,0.2-0.1,0.2s0,0.1-0.1,0.1s-0.1,0.2-0.1,0.4c0,0.2,0,0.4-0.1,0.4s0,0.2,0,0.3c0,0.1,0,0.2,0,0.3
		c0,0.1,0,0.1,0,0.1s0,0.1,0,0.2c-0.1,0.2-0.1,0.4-0.1,0.5c0,0.1,0,0.2-0.1,0.2c-0.1,0-0.1,0.1-0.1,0.3c0,0.1,0,0.3-0.1,0.3
		c-0.1,0.1-0.1,0.2-0.1,0.4c0,0.3-0.1,0.6-0.3,0.7c0,0,0,0-0.1,0c0,0,0,0,0-0.1c0-0.1,0-0.2,0.1-0.2s0.1-0.1,0-0.2
		c0-0.1,0-0.1,0-0.1c0,0,0.1-0.1,0.1-0.1c0-0.1,0-0.2,0.1-0.3c0.1-0.1,0.1-0.2,0-0.3c0,0,0-0.1,0-0.2c0-0.1,0-0.2-0.1-0.3
		c-0.1-0.1-0.1-0.3,0-0.5s0-0.3,0-0.4c0,0,0-0.1,0-0.1c0,0,0.1-0.2,0.1-0.4v-0.4l0.1,0c0.1,0,0.2,0,0.2-0.1c0-0.1-0.1-0.1-0.2-0.2
		c-0.1,0-0.2-0.1-0.2-0.1s0-0.3,0.1-0.7s0.1-0.7,0.1-0.8c0-0.1,0-0.3,0.1-0.8c0-0.5,0.1-0.7,0.1-0.8c0-0.1,0-0.3,0-0.6
		c0.1-0.8,0.1-2.2,0.1-4.3c0-1.2,0-2,0.1-2.6c0.1-1.9,0.1-3.6,0.1-5.1c0-1.1,0-1.7,0-2c0-0.2-0.1-0.4-0.3-0.4c-0.2,0-0.5,0.1-1,0.6
		c-0.5,0.4-1,0.7-1.5,1c-0.3,0.1-0.5,0.2-0.6,0.3c-0.1,0-0.2,0.1-0.3,0.1c-0.1,0-0.2,0.2-0.4,0.6c-0.2,0.4-0.3,0.6-0.4,0.7
		c-0.1,0.1-0.1,0.3-0.1,0.4c0,0.2,0,0.3-0.1,0.4c-0.1,0.1-0.1,0.1-0.1,0.2c0,0,0,0.1,0,0.1s0,0.1,0,0.1c0,0,0.1,0.1,0,0.3
		c0,0.1-0.1,0.2-0.1,0.2c-0.1,0-0.1,0.1-0.2,0.2s0,0.2,0,0.2c0.1,0,0,0.1-0.1,0.2c-0.1,0.1-0.2,0.2-0.3,0.4
		c-0.2,0.4-0.4,0.7-0.6,0.8c-0.1,0.1-0.2,0.2-0.3,0.3c-0.3,0.3-0.7,0.4-1.2,0.3c-0.3,0-0.4-0.1-0.5-0.2c-0.1-0.1-0.1-0.2-0.2-0.2
		c-0.1,0-0.1,0,0-0.1c0.1-0.1,0.1-0.2,0.1-0.3c0-0.1,0-0.2-0.1-0.3c-0.1,0-0.1-0.1-0.1-0.2c0-0.1,0-0.1-0.1-0.2
		c-0.1,0-0.2-0.1-0.4-0.3s-0.3-0.2-0.3-0.2s-0.1,0-0.2-0.1c-0.1-0.1-0.1-0.2-0.1-0.3l0-0.2l0.2,0.2c0.9,0.7,1.7,0.8,2.3,0.4
		c0.5-0.3,0.8-0.9,0.9-1.5c0-0.2,0.1-0.5,0.1-0.7c0.1-0.2,0.1-0.4,0.1-0.6c0-0.2,0.1-0.3,0.1-0.5l0.1-0.3l-0.4-0.4
		c-0.4-0.4-0.8-0.6-1.2-0.7l-0.4,0l-0.3,0.3c-0.2,0.2-0.4,0.6-0.6,1.1l-0.4,0.6c0,0,0-0.1,0.1-0.3c0-0.1,0.1-0.3,0.2-0.5
		c0.3-0.8,0.5-1.2,0.6-1.2c0,0,0.1-0.1,0.2-0.3c0.1-0.3,0.4-0.6,0.9-1c0.1-0.1,0.2-0.2,0.3-0.2c0,0,0.1-0.1,0.1-0.1
		c0,0,0.1,0,0.2-0.1c0.1-0.1,0.3-0.2,0.6-0.4l0.4-0.3v-0.4c0-0.7-0.1-1.3-0.2-1.9c0-0.1-0.1-0.4-0.1-0.7l-0.1-0.5l-0.3,0
		c-0.4-0.1-0.5-0.4-0.2-1.1c0.2-0.4,0.3-0.9,0.3-1.3c0-0.5,0.2-0.8,0.5-1.1c0.5-0.4,1-0.8,1.4-1.2c0.6-0.5,1.1-1,1.3-1.5
		c0.1-0.2,0.1-0.4,0.1-0.5c-0.1-0.1-0.2-0.1-0.3-0.1c-0.2,0-0.2,0-0.1-0.1c0,0,0.1,0,0.2-0.1c0.1-0.1,0.2-0.2,0.2-0.3
		c0-0.1,0-0.2,0.1-0.3c0.1-0.1,0.1-0.1,0.2-0.1c0,0,0.1,0,0.2-0.1c0.1-0.1,0.2-0.1,0.2-0.1s0.1,0,0.1-0.1c0-0.1,0.1-0.2,0.3-0.3
		S151.8,30.5,151.9,30.4z M143.8,48.2c0-0.1,0-0.1,0-0.1c0,0,0,0,0.1,0S143.8,48.2,143.8,48.2C143.8,48.3,143.8,48.3,143.8,48.2z
		 M143.8,47.8C143.9,47.7,143.9,47.7,143.8,47.8c0.1,0.1,0,0.1,0,0.1C143.8,47.9,143.8,47.8,143.8,47.8z M144,47.6
		C143.9,47.6,143.9,47.6,144,47.6c-0.1-0.1,0-0.1,0-0.1S144,47.5,144,47.6C144,47.6,144,47.6,144,47.6z M144,47.3
		C144,47.3,144,47.3,144,47.3C144,47.2,144,47.2,144,47.3C144.1,47.2,144.1,47.3,144,47.3C144.1,47.3,144.1,47.3,144,47.3z
		 M144.1,47.1C144.1,47.1,144,47.1,144.1,47.1c0-0.1,0-0.2,0-0.2C144.1,46.9,144.2,47,144.1,47.1C144.2,47.1,144.1,47.1,144.1,47.1z
		 M144.1,51.1C144.1,51.1,144.1,51.1,144.1,51.1C144.1,51,144.1,51,144.1,51.1C144.2,51,144.2,51.1,144.1,51.1
		C144.2,51.1,144.2,51.1,144.1,51.1z M151.9,67.9c0.1,0,0.1,0,0.1,0c0,0,0,0.1,0,0.1c0,0.1-0.1,0.1-0.1,0.2c0,0.1,0,0.1-0.1,0.2
		c-0.1,0-0.1,0.1-0.1,0.1c0,0,0,0.1-0.1,0.2c-0.1,0.1-0.1,0.2-0.2,0.2c-0.1,0.1-0.1,0.1-0.1,0.1c0,0,0-0.1,0-0.2
		c0-0.1,0.1-0.2,0.1-0.2c0,0,0.1-0.1,0.2-0.3c0.1-0.2,0.1-0.3,0.1-0.3C151.8,67.9,151.8,67.9,151.9,67.9z M151.8,66.8
		C151.8,66.8,151.8,66.8,151.8,66.8c0-0.2,0.1-0.2,0.1-0.2S151.9,66.7,151.8,66.8C151.8,66.8,151.8,66.8,151.8,66.8z M152,66.1
		c0-0.1,0.1-0.1,0.1,0c0,0,0,0.1-0.1,0.3c0,0.1-0.1,0.1-0.1,0.1C151.9,66.4,151.9,66.3,152,66.1z M152.9,66.2c0-0.1,0-0.1-0.1-0.1
		c0,0-0.1,0-0.1,0.1s0,0.1,0,0.2c0,0,0.1,0,0.1,0C152.9,66.4,152.9,66.3,152.9,66.2z M152.9,67.3C153,67.2,153,67.2,152.9,67.3
		c0.1,0.1,0,0.1,0,0.1C152.8,67.5,152.9,67.4,152.9,67.3z M154.3,64.1c0.1-0.2,0.1-0.2,0.2-0.1c0,0,0.1,0.1,0,0.1
		c0,0.1-0.1,0.1-0.1,0.1c0,0-0.1,0.1-0.1,0.2c0,0.1,0,0.2,0,0.2s0,0.1,0,0.1c-0.1,0-0.1,0-0.1,0.1s0,0.1-0.1,0.1
		c0,0-0.1,0.1-0.1,0.3c0,0.2,0,0.3-0.1,0.3c-0.1,0-0.1,0.1-0.1,0.2s0,0.2-0.1,0.3c-0.1,0.1-0.2,0.2-0.2,0.3c0,0.1-0.1,0.1-0.1,0.1
		s-0.1,0-0.1,0.1c0,0,0,0.2-0.1,0.3s-0.2,0.3-0.2,0.3c0,0,0,0,0,0c0,0,0.1-0.3,0.3-0.6c0.2-0.4,0.3-0.6,0.4-0.6c0,0,0.1-0.1,0-0.1
		c0,0,0-0.1,0.1-0.3C154,65,154.2,64.6,154.3,64.1z M155.1,60.8c0-0.1,0-0.1,0-0.2s0.1-0.1,0.1,0c0,0,0.1,0.1,0.1,0.1s0,0.1-0.1,0.3
		c0,0.2,0,0.3-0.1,0.4c0,0.1,0,0.2,0,0.2c0,0,0,0,0,0.1c0,0.1,0,0.1,0,0.2c0,0.1-0.1,0.1-0.1,0.2c-0.1,0.1-0.1,0.2-0.1,0.3
		c0,0.1,0,0.2-0.1,0.2c0,0,0-0.1-0.1-0.2c0-0.2,0-0.3,0-0.3c0,0,0-0.1,0-0.2c0-0.2,0.1-0.5,0.2-0.8
		C155.1,60.9,155.1,60.8,155.1,60.8z M155.7,59.3l0.1,0.1c0,0.1,0,0.2,0,0.2c0,0-0.1-0.1-0.1-0.1C155.6,59.4,155.6,59.4,155.7,59.3z
		 M155.9,58.2C155.9,58.3,155.9,58.2,155.9,58.2c-0.1-0.1,0-0.1,0-0.1S156,58.1,155.9,58.2C156,58.2,155.9,58.2,155.9,58.2z"/>
	<path d="M203.6,51c0,0,0.3,0,1,0c0.9,0,1.5,0.1,1.7,0.2c0.1,0,0.3,0.1,0.5,0.1c0.1,0,0.2,0,0.2,0.1c0,0.1,0.1,0.1,0.4,0.1
		c0.2,0,0.4,0.1,0.5,0.1c0.4,0.3,0.8,0.4,1.2,0.4c0.3,0,0.5,0.1,0.7,0.4c0.2,0.2,0.3,0.3,0.3,0.3s0.1,0.1,0.2,0.2s0.2,0.2,0.2,0.2
		c0,0,0.1,0,0.1,0.1c0,0.1,0.1,0.1,0.3,0.2s0.3,0.1,0.3,0.2c0.1,0.1,0.1,0.1,0.1,0.1c0,0,0.2,0.1,0.5,0.3c0.3,0.2,0.5,0.4,0.7,0.6
		c0.2,0.2,0.4,0.4,0.4,0.5c0.1,0.2,0.1,0.3,0.2,0.3c0,0,0.1,0.1,0.1,0.3c0,0.2,0,0.3-0.1,0.4c-0.1,0.2-0.3,0.2-0.5,0
		c-0.2-0.2-0.4-0.2-0.6,0c0,0-0.1,0.1-0.2,0.1c-0.1,0-0.2,0.1-0.5,0.2s-0.4,0.3-0.4,0.5c0,0.1-0.1,0.3-0.2,0.4
		c-0.1,0.1-0.2,0.2-0.2,0.3c0,0-0.1,0.2-0.4,0.5l-0.4,0.4l0.1,0.3c0.1,0.4,0,0.6-0.3,0.6c-0.1,0-0.2,0-0.3,0
		c-0.1-0.1-0.2-0.2-0.5-0.3c-0.2-0.1-0.4-0.2-0.5-0.2c-0.1,0-0.2,0-0.3-0.1c-0.1-0.1-0.2-0.1-0.3-0.1c-0.1,0-0.1,0-0.2-0.1
		c-0.1-0.1-0.2-0.1-0.4-0.1c-0.2,0-0.3-0.1-0.5-0.2s-0.2-0.1-0.2-0.1c0,0,0,0-0.1,0c0,0,0,0-0.1-0.1c0-0.1-0.1-0.1-0.2-0.1
		c-0.1,0-0.2,0-0.3,0.1c-0.1,0.1-0.2,0.1-0.4,0.1c-0.1,0-0.2,0-0.2,0c0,0,0,0,0,0.1c0,0.1,0,0.1-0.1,0.1s-0.2,0-0.3,0
		c-0.1,0-0.1,0-0.1,0c0,0,0,0,0.1-0.1c0.1-0.1,0.2-0.1,0.2-0.1c0,0,0.1,0,0.1-0.1c0.1-0.1,0.1-0.2-0.2-0.2c-0.1,0-0.3,0-0.5,0
		c-0.5,0.1-0.7,0.1-0.8,0.1c-0.1,0-0.2,0-0.4,0.1c-0.2,0-0.3,0-0.6,0.1c-0.3,0.1-0.8,0.1-1.3,0.2c-0.3,0-0.4,0-0.5,0.1
		c-0.1,0-0.2,0-0.4,0c-0.2,0-0.3,0-0.4,0c0,0-0.2,0.1-0.3,0.1c-0.4,0-0.9,0.1-1.4,0.2c-0.2,0-0.3,0-0.3,0c0,0,0,0,0.1-0.1
		c0.1,0,0.2,0,0.3,0c0.1,0,0.2,0,0.2-0.1c0,0,0.1-0.1,0.2,0c0.1,0,0.2,0,0.3,0c0.2-0.1,0.6-0.2,1.1-0.2c0.1,0,0.3-0.1,0.4-0.1
		s0.2-0.1,0.3,0c0.1,0,0.1,0,0.2,0c0.1,0,0.2-0.1,0.4-0.1c0.2,0,0.4-0.1,0.7-0.1c0.5-0.1,0.7-0.2,0.6-0.3c0,0-0.2-0.1-0.4-0.1
		c-0.2,0-0.4,0-0.4,0.1c-0.1,0-0.2,0.1-0.6,0.1c-0.3,0-0.5,0-0.6,0.1s-0.3,0.1-0.4,0.1c-0.2,0-0.3,0-0.4,0.1c-0.1,0-0.3,0.1-0.6,0.1
		c-0.7,0.1-1.2,0.2-1.5,0.3c-0.1,0-0.4,0.1-0.9,0.2c-0.1,0-0.2,0-0.2,0c0,0-0.1,0-0.1,0s-0.1,0-0.1,0c0,0-0.1,0-0.2,0
		c-0.1,0.1-0.2,0.1-0.3,0.1c-0.1,0-0.1,0-0.1,0.1s0,0.1-0.1,0c-0.1-0.1-0.2-0.1-0.4-0.1c-0.2,0-0.3,0-0.3,0c0.1-0.1,0.7-0.3,1.7-0.5
		c0.6-0.1,0.8-0.3,0.8-0.4c0,0,0,0-0.1-0.1c-0.1,0-0.1,0-0.2,0c-0.1,0-0.2,0-0.3,0.1c-0.3,0.1-0.5,0.1-0.5,0c0,0,0.1-0.1,0.2-0.1
		c0.1,0,0.3-0.1,0.3-0.1c0.1,0,0.2-0.1,0.2-0.1c0.1,0,0.2-0.1,0.4-0.2c0.2-0.1,0.3-0.2,0.3-0.2c0-0.1-0.4-0.1-1,0
		c-0.2,0-0.4,0-0.5,0.1c-1.1,0.1-2,0.2-2.5,0.3c-0.5,0.1-0.9,0.2-1.3,0.2c-0.7,0.1-1,0.1-1.1,0.2c0,0-0.1,0-0.4,0s-0.4,0-0.4,0.1
		c-0.1,0.1-0.6,0.2-1.3,0.2c-0.4,0-0.7,0-0.8,0.1c-0.2,0.1-0.5,0.1-0.8,0.1c-0.3,0-0.5,0-0.7,0.1c-0.3,0.2-0.6,0.2-0.7,0.2
		c-0.1,0-0.1,0-0.1-0.1s0.1-0.1,0.2-0.1c0.2,0,0.3-0.1,0.3-0.2c-0.3,0-0.5,0-0.7,0c-0.2,0-0.2,0-0.3,0c0,0-0.1,0-0.2-0.1
		c-0.1-0.1-0.5-0.2-0.9-0.2c-0.2,0-0.3-0.1-0.4-0.1s-0.3-0.1-0.6-0.2c-1-0.2-1.6-0.4-1.9-0.6c0,0-0.2-0.1-0.3-0.1
		c-0.2,0-0.3-0.1-0.5-0.2c-0.1-0.1-0.3-0.2-0.5-0.2c-0.2-0.1-0.3-0.3-0.4-0.6c-0.1-0.3-0.2-0.6-0.1-0.8c0.1-0.2,0.1-0.4,0.1-0.7
		c0-0.2,0-0.3,0-0.4s0.1-0.1,0.2-0.1c0.1,0,0.2,0.1,0.3,0.2c0.1,0.1,0.2,0.1,0.3,0.1c0.1-0.1,0.1-0.1,0.3-0.1c0.1,0,0.2-0.1,0.2-0.1
		c0-0.1,0-0.2,0.1-0.3s0.1-0.2,0-0.3c0-0.1,0-0.2,0-0.2c0,0,0.1-0.1,0.2-0.1c0.1,0,0.1,0.1,0.1,0.1c0,0.1,0,0.1,0,0.1
		c0,0,0.1,0,0.2-0.1c0.1-0.1,0.2-0.1,0.3-0.1s0.2,0.1,0.3,0.1c0,0.1,0.1,0.1,0.2,0c0.1,0,0.3-0.1,0.5-0.1s0.5,0,0.7-0.1
		c0.1,0,0.1,0,0.2-0.1c0.1,0,0.1,0,0.2-0.1c0,0-0.1,0.1-0.3,0.3c-0.4,0.2-0.6,0.5-0.6,0.7c0,0.1,0.1,0.2,0.2,0.2s0.4,0.1,0.9,0.1
		c0.5,0,0.8-0.1,0.9-0.1c0.2-0.1,0.3-0.1,0.3-0.1c0.1,0,0.1,0,0.2,0c0.1,0,0.2-0.1,0.4-0.1c0.6-0.1,1-0.3,1.2-0.3
		c0.4-0.1,0.7-0.2,0.9-0.2c0.2,0,0.3-0.1,0.4-0.1c0,0,0.1-0.1,0.2-0.1c0.1,0,0.1,0,0.1-0.1c0-0.1,0.3-0.2,0.9-0.3
		c0.4-0.1,0.6-0.2,0.8-0.2c0.1,0,0.3-0.1,0.5-0.1c0.2,0,0.4-0.1,0.7-0.1c0.3,0,0.5-0.1,0.6-0.1c0.2,0,0.4-0.1,0.7-0.1
		c0.3-0.1,0.5-0.1,0.6-0.1c1.2-0.2,1.9-0.3,2-0.3c0.1,0,0.3-0.1,0.5-0.1c0.2,0,0.7-0.1,1.4-0.2c0.4,0,0.7-0.1,0.8-0.1
		c0.1,0,0.3,0,0.7-0.1c0.4,0,0.6,0,0.7-0.1c0.4-0.2,1-0.3,1.8-0.3C202.9,51.1,203.5,51.1,203.6,51z M184.7,53c0,0,0.1,0,0.1,0l0,0
		C184.7,53,184.7,53.1,184.7,53L184.7,53z M195.7,35.3c0.1-0.1,0.2-0.2,0.4-0.2c0.1,0,0.3,0.2,0.6,0.5c0.4,0.4,0.6,0.5,0.6,0.5
		s0.1,0.1,0.1,0.2c0.1,0.1,0.2,0.3,0.3,0.5c0.2,0.2,0.3,0.4,0.5,0.8c0.2,0.3,0.3,0.6,0.5,0.7c0.3,0.5,0.4,0.9,0.2,1.3
		c0,0.1-0.1,0.5-0.1,1.2c0,0.6,0,1.1,0,1.3c0,0.2,0.1,0.4,0.2,0.5c0.1,0.1,0.3,0.1,0.5,0.1c1.3,0,2,0,2.3,0c0.1,0,0.3,0,0.5,0
		c0.2,0,0.4,0.1,0.4,0.1s0.2,0.1,0.4,0.1c0.2,0,0.6,0.2,1.2,0.4c0.1,0,0.2,0.1,0.4,0.1c0.3,0.1,0.5,0.3,0.6,0.5
		c0.1,0.1,0.1,0.4,0,0.7c0,0.3-0.1,0.5,0,0.6c0.1,0.2,0,0.4-0.1,0.7c-0.2,0.3-0.4,0.5-0.7,0.6c-0.2,0.1-0.4,0.1-0.5,0.1
		s-0.3,0-0.4,0.1c-0.1,0.1-0.3,0.1-0.6,0.1c-0.3,0-0.6,0.1-0.9,0.4c-0.1,0.1-0.3,0.1-0.4,0.1c-0.1,0-0.2,0-0.4,0
		c-0.5,0.2-0.8,0.3-0.8,0.3c-0.1,0-0.2,0-0.4,0.1c-0.2,0.1-0.4,0.2-0.6,0.3c-0.3,0.1-0.5,0.3-0.6,0.6c0,0.1,0,0.2,0.1,0.2
		c0.1,0,0.1,0.1-0.1,0.3c-0.1,0.2-0.2,0.3-0.1,0.3l-0.2,0.1c-0.2,0.1-0.3,0.2-0.3,0.3c0,0.1,0,0.2,0,0.3c0,0.1,0,0.2-0.1,0.3
		c-0.1,0.1-0.2,0.2-0.3,0.1c-0.1,0-0.3-0.1-0.4-0.1c-0.1-0.1-0.2-0.1-0.3-0.2c-0.1,0-0.2-0.1-0.2-0.1S197,50,196.9,50
		c-0.1,0-0.2,0-0.2-0.1s-0.2-0.1-0.3-0.1s-0.3,0-0.4,0.1c-0.1,0-0.3,0.1-0.6,0.1c-0.6,0-1,0.1-1.1,0.1c0,0-0.1,0-0.3,0l-0.2,0
		L194,50c0.2-0.1,0.3-0.1,0.3-0.1c0.1,0.1,0.2,0,0.5-0.3c0.2-0.2,0.3-0.3,0.4-0.3c0.1,0,0.1-0.1,0.2-0.2c0.1-0.2,0-0.4-0.2-0.6
		c-0.1-0.1-0.2-0.2-0.2-0.2s0-0.1-0.1-0.2s-0.2-0.2-0.3-0.5c-0.1-0.2-0.2-0.4-0.3-0.5c-0.1-0.1-0.1-0.2-0.1-0.2c0,0,0-0.1,0-0.1
		s-0.1-0.1-0.1-0.3c0-0.1-0.1-0.5-0.2-0.9c-0.1-0.5-0.2-0.9-0.2-1.3c0-0.4-0.1-0.7-0.1-0.9c0-0.2-0.1-0.4,0-0.8c0-0.4,0-0.8,0.1-1.3
		c0-0.5,0.1-0.8,0.1-1.1c0-0.3,0.1-0.6,0.1-0.8c0-0.3,0.1-0.5,0.1-0.6c0-0.1,0.1-0.2,0.1-0.3s0-0.2,0.1-0.3s0.1-0.3,0.1-0.6
		s0.1-0.5,0.2-0.6c0.1-0.2,0.1-0.3,0.1-0.3s0.1-0.1,0.2-0.3c0.1-0.1,0.2-0.3,0.2-0.3c0-0.1,0.1-0.2,0.3-0.3c0.1-0.1,0.3-0.2,0.3-0.2
		C195.5,35.5,195.6,35.4,195.7,35.3z M194.2,58.7c0.1,0,0.2,0,0.2,0s0.1,0,0.1,0c0,0-0.1,0.1-0.3,0.1c-0.2,0.1-0.4,0.1-0.4,0.1
		l0.1-0.1C194.1,58.7,194.2,58.7,194.2,58.7z M194.9,58.7C194.8,58.7,194.8,58.7,194.9,58.7c-0.1-0.1-0.1-0.1,0-0.1
		C195,58.6,195,58.6,194.9,58.7C195,58.7,195,58.7,194.9,58.7z M197.5,58.8c0,0,0.1,0,0.1,0c0,0,0.1,0,0.1,0.1
		C197.7,58.8,197.6,58.9,197.5,58.8l-0.1,0.1C197.4,58.8,197.5,58.8,197.5,58.8z M198,58.8C198,58.8,197.9,58.8,198,58.8
		c0-0.1,0-0.1,0-0.1C198,58.7,198,58.7,198,58.8C198,58.8,198,58.8,198,58.8z M205.7,58.7C205.7,58.7,205.7,58.7,205.7,58.7
		c0-0.1,0-0.1,0-0.1C205.7,58.6,205.7,58.7,205.7,58.7C205.7,58.7,205.7,58.7,205.7,58.7z"/>
	<path d="M244.8,34.7c0.2,0,0.4,0.1,0.6,0.3l0.3,0.1c0,0,0,0,0,0c0,0,0.1,0.1,0.3,0.1c0-0.1,0.2-0.1,0.6-0.1v0c0,0,0,0,0,0
		c0.2,0,0.3,0.1,0.3,0.1l0.1,0c0.6,0.2,0.9,0.4,0.9,0.6c0.1,0.2,0.2,0.4,0.2,0.7l0,0c0,0,0.1,0,0.1,0.1l0,0.1l0.1,0.1c0,0,0,0,0,0
		c0,0.1,0.1,0.4,0.4,0.8c0.2,0.3,0.4,0.5,0.4,0.5l-0.1,0.1c0,0.1,0.1,0.4,0.3,0.7c0,0.1,0,0.2,0,0.3v0l0,0.2l0,0.1
		c0,0.2-0.1,0.3-0.4,0.4c0,0-0.1,0.1-0.4,0.3c0,0.4-0.1,0.6-0.1,0.6l0,0.1c-0.1,0.4-0.3,0.5-0.6,0.5c0,0-0.1,0-0.2,0l0,0
		c0,0-0.1,0-0.1,0c-0.6,0.1-0.9,0.2-0.9,0.3c-0.2,0-0.3,0.1-0.3,0.1l-0.2,0h-0.1c0,0-0.1,0-0.1,0c-0.1,0-0.3,0-0.5-0.1
		c-0.4,0.2-0.6,0.3-0.6,0.4c-0.1,0-0.3,0.1-0.3,0.3c-0.3,0.3-0.7,0.6-1,1c-0.1,0-0.3,0.2-0.6,0.5c-0.1,0.1-0.3,0.4-0.5,0.8
		c-0.3,0.4-0.6,0.9-0.8,1.4c0,0-0.1,0-0.1,0.1l0,0c-0.2,0.4-0.3,0.6-0.3,0.6l0,0.1l-0.1,0.8c0,0,0,0.1,0,0.1h0l0,0.1
		c0,0,0,0.1-0.1,0.1l0,0.1c0,0.2,0,0.3-0.1,0.5c0,0,0,0.1,0,0.1l0,0.1c0,0,0,0.1,0,0.1h0l0.1,0.2c0,0,0,0,0,0l0,0.2v0c0,0,0,0,0,0
		c0,0.1,0.1,0.1,0.1,0.2v0l0,0.1c0.1,0.1,0.4,1,0.9,2.4c0,0.3,0,0.5,0.1,0.6v0.5l0,0.2l-0.1,0l0,0.1v0.2l0,0.3h0l-0.1,0
		c0,0.1,0.1,0.1,0.2,0.2l0,0.1v0.3c0,0,0,0.1,0,0.1c0,0.1,0,0.1-0.1,0.1l0,0.1v0.3c0,0,0,0,0,0l0,0.1l0,0.2l0,0.1c0,0.1,0,0.2,0,0.3
		l0,0.3c0,0,0,0,0,0c0,0,0,0,0,0c0,0-0.1,0-0.1,0c0,0.2,0,0.3,0,0.3l0,0.1l0,0.1c0,0.1-0.1,0.1-0.1,0.2v0.1l0,0.1l-0.1,0.1l0,0.2
		c0,0.2,0,0.4-0.1,0.5c0,0.1,0,0.2,0.1,0.3c0,0.1,0,0.1-0.1,0.1v0.1c0.1,0.1,0.1,0.2,0.1,0.2c0,0-0.1,0-0.1,0.1c0,0,0,0.1,0,0.1h0
		c0,0,0.2-0.3,0.4-0.9c0-0.1,0.1-0.2,0.3-0.4c-0.1,0-0.1-0.1-0.1-0.1c0.1-0.2,0.1-0.3,0.2-0.3l0-0.1v0c0,0,0-0.1,0.1-0.1
		c0,0,0-0.1,0-0.1c0.2-0.5,0.4-1,0.6-1.6h0.1v0c0,0-0.1,0-0.1,0c0.1-0.2,0.2-0.6,0.3-1.3l0.1,0l-0.1,0.4c0,0,0,0,0,0
		c0,0-0.1,0.1-0.1,0.2h0.1c0,0,0,0.2-0.1,0.3l0,0.1c0,0,0,0.1-0.1,0.2l0,0.1c0,0,0,0.1,0,0.1c0,0,0,0,0,0l0,0.2v0.3
		c-0.1,0.1-0.1,0.2-0.1,0.2c0,0,0,0,0,0c0,0-0.1,0-0.1,0.1c0,0,0.1,0,0.1,0l-0.2,0.3l0,0.1v0c-0.1,0.4-0.2,0.6-0.3,0.8
		c-0.1,0.5-0.2,0.9-0.3,1.2l0,0.1l-0.1,0l0,0.1l-0.2,0.6c0,0,0,0,0,0c0,0.1-0.1,0.1-0.1,0.1h0v0.2c0,0,0,0,0,0l0,0.1
		c0,0.1,0,0.1-0.1,0.1l0,0.1c-0.1,0.2-0.2,0.5-0.3,0.7l0,0.1c-0.1,0.5-0.2,0.8-0.3,0.9l0,0.1l0,0.1c0,0.1,0.1,0.3,0.1,0.3l0,0
		c-0.1,0-0.2-0.1-0.3-0.2c0,0.2-0.1,0.3-0.2,0.3l0,0.1c0,0.1,0,0.2-0.1,0.2l0,0.1c-0.1,0.2-0.2,0.4-0.3,0.4l0,0.1v0c0,0,0,0,0,0
		c0,0,0,0,0,0c0,0.4-0.2,0.8-0.5,1.2h0c0,0-0.2-0.1-0.4-0.3c-0.4-0.5-0.6-0.8-0.6-0.9c0-0.1,0-0.2-0.1-0.3c0,0,0,0,0,0
		c0-0.2-0.1-0.4-0.2-0.6l0-0.1c-0.1-0.2-0.2-0.4-0.2-0.5l0.1,0l0,0c0.1-0.2,0.2-0.3,0.2-0.4v-0.1c0,0,0-0.1,0-0.1c0,0,0-0.2,0.1-0.5
		l0,0c0,0,0-0.1,0-0.1l0-0.1c0,0,0,0,0,0l0-0.2V60c0,0,0,0,0,0h0l0-0.4c0-0.1,0-0.1,0-0.1l0-0.1V59c0,0,0,0,0,0c0,0,0,0,0,0l0-0.4
		v-0.1c0,0,0,0,0,0l0,0c0,0,0,0,0,0c0,0,0,0,0,0c0-0.3,0-0.4,0.1-0.4l0,0v-0.1c0,0,0,0,0,0c0,0,0,0,0,0c0-0.2,0-0.4,0.1-0.4
		c-0.1,0-0.1-0.1-0.1-0.1v-0.1l0.1,0h0c0-0.1,0-0.2,0.1-0.2c0,0,0,0,0,0c0-0.4,0.1-0.8,0.1-1l0-0.1v-0.1c0,0,0,0,0,0c0,0,0,0,0,0
		l0-0.4v-0.1h0c0,0,0,0,0,0c0-0.2,0.1-0.3,0.1-0.4c0,0,0,0,0,0c0-0.2,0-0.3,0.1-0.3c0,0,0,0,0,0c0-0.5,0.1-0.8,0.1-1l0-0.1l0-0.1
		c0-0.4-0.1-0.7-0.2-1h0c0-0.1,0-0.2-0.1-0.5v0h0c0.1,0.1,0.3,0.5,0.5,1h0v-0.1l0-0.2h0c0-0.1-0.1-0.4-0.4-1v-0.2h0.1
		c0,0.1,0.1,0.2,0.2,0.4h0.1l0-0.2c0.2,0.3,0.3,0.5,0.3,0.6c0,0,0.1,0,0.1,0c0,0,0.1,0,0.1,0v-0.1l0-0.1h0l0-0.1v-0.1h0
		c0,0,0.1,0,0.1,0.1h0c0.1,0.1,0.1,0.3,0.2,0.6v0l0,0.1h0.1c0,0,0,0,0-0.1c0,0,0-0.1,0-0.1c-0.1-0.7-0.3-1.3-0.4-1.6c0,0,0,0,0,0
		c0.1,0,0.4,0.5,0.6,1.4v0.2c0,0,0,0,0,0l0,0.1v0c0,0,0,0,0,0l0,0.2c0,0.1,0,0.1,0,0.1c0.1,0.4,0.1,0.7,0.1,0.7c0,0,0.1,0,0.1-0.1
		v-1.2l-0.1-0.4c0,0,0,0,0,0c0,0-0.1,0-0.1-0.1l0-0.1c-0.1-0.6-0.2-1.2-0.4-1.8c0-0.1,0-0.3-0.1-0.8c0,0,0,0,0,0l-0.1-0.8
		c0,0,0-0.1,0-0.1c0,0,0-0.1,0-0.1c0,0,0-0.1,0-0.3l0-0.1c0,0,0-0.1,0-0.1h0l0,0v-0.1c0,0,0,0,0,0l0-0.1v-0.1l0-0.1l-0.1,0h0
		c0,0.1-0.1,0.1-0.2,0.1c-0.1,0-0.2,0.2-0.2,0.4c0,0-0.1,0-0.1,0.1v0c0.1,0,0.1,0,0.1,0.1c0,0,0,0.1,0,0.1l0,0.1
		c0,0.1,0,0.2-0.1,0.2c-0.1,0-0.2-0.1-0.4-0.3l-0.1,0.3c0,0.1,0.1,0.4,0.1,1h-0.1l-0.1-0.3l-0.1,0.1c0,0,0.1,0.3,0.1,0.6l-0.1,0
		c-0.1-0.2-0.2-0.4-0.3-0.6c0,0,0-0.1,0-0.1c-0.1,0-0.2-0.2-0.3-0.6l-0.1,0.1c0,0,0,0.3,0.1,0.7h0l0.1,0.5c0,0,0,0.1,0,0.1
		c0,0.1,0.1,0.2,0.2,0.2l0,0.2v0l0.1,0.2l-0.1,0c-0.1-0.1-0.2-0.4-0.3-0.9c-0.1,0-0.2-0.2-0.3-0.4c-0.1,0.1-0.2,0.1-0.3,0.2
		c0,0,0,0,0,0l0,0h0c-0.2,0-0.5-0.7-0.7-2.1c0-0.2,0-0.4-0.1-0.6c0,0,0,0,0,0l0-0.3v-0.6c0,0,0,0,0,0h0c0-0.5,0.2-1.5,0.6-2.9
		c0.7-1.8,1.5-3.1,2.4-4.1c0.6-0.6,1.1-1,1.5-1.2c0.1-0.1,0.6-0.5,1.4-1.1c0.1-0.1,0.3-0.3,0.4-0.5v0c0-0.1,0-0.1,0-0.1
		c0-0.1,0-0.2,0-0.4h0l-0.1-0.1c0,0,0.1-0.2,0.3-0.5C244.4,34.7,244.5,34.7,244.8,34.7z M238.7,49.7L238.7,49.7c0.1,0,0.1,0,0.1,0.1
		v0.1h0C238.7,49.8,238.7,49.8,238.7,49.7L238.7,49.7z M238.8,49.9L238.8,49.9l0.1,0.1C238.8,50,238.8,50,238.8,49.9L238.8,49.9z
		 M239.7,50.8L239.7,50.8l0,0.1h0C239.7,50.9,239.7,50.9,239.7,50.8L239.7,50.8z M240.1,48.3c0,0,0,0.2,0.1,0.4l-0.1,0l0-0.2
		c0,0,0,0,0,0C240.1,48.4,240.1,48.4,240.1,48.3L240.1,48.3z M240.1,48.8L240.1,48.8c0.1,0,0.1,0,0.1,0.1l-0.1,0h0V48.8z
		 M240.5,50.2L240.5,50.2L240.5,50.2c0.1,0.1,0,0.1,0,0.1V50.2z M254.8,30.7c0.6,0.2,1,0.4,1.4,0.7c0,0,0.1,0,0.1,0l0-0.1
		c0.2,0,0.4,0.2,0.6,0.4c0,0,0.3,0.1,0.7,0.4c0,0.1,0.1,0.2,0.3,0.3c0.2,0.2,0.3,0.4,0.3,0.6v0.3c-0.1,0.1-0.1,0.3-0.2,0.5l-0.5,0.7
		c0,0,0,0,0,0c-0.1,0.4-0.2,0.8-0.2,1.2v0c0,0,0,0.1,0,0.1l0,0.1c0,0.2,0,0.3-0.1,0.3l0,0.1v0.1c0,0,0,0.1-0.1,0.1
		c0,0.4,0.1,0.6,0.2,0.6h0.3l0.1,0c0.1,0,0.4,0.1,0.8,0.3l0.2,0h0.3c0,0,0,0,0,0c0,0,0,0,0,0l0.5,0.1l0.1,0c0.2,0,0.5,0.2,0.8,0.4
		c0.2,0.3,0.3,0.5,0.3,0.6h0c0,0.1,0.1,0.2,0.1,0.3c-0.1,0.3-0.2,0.4-0.3,0.4l0,0.1c-0.1,0.2-0.3,0.3-0.6,0.4h0v0
		c0,0-0.1,0.1-0.2,0.1c0,0-0.2,0.2-0.5,0.4c-0.1,0.4-0.3,0.6-0.6,0.8c-0.1,0.1-0.3,0.2-0.4,0.3c0,0,0,0.1-0.1,0.1v0
		c0.4,0.5,0.9,1.1,1.5,1.8c0.1,0,0.1,0,0.1,0.1c0.1,0,0.3,0.1,0.4,0.3c0,0,0.2,0.1,0.4,0.3c0.1,0,0.1,0.1,0.2,0.1l0.1,0h0
		c0,0.1,0.1,0.2,0.2,0.3V44h0c0,0,0.1,0,0.1,0.1h0.1c0,0,0.1,0,0.1,0c0,0,0-0.1,0-0.1c0.1,0,0.2,0,0.2,0c0.2,0.1,0.4,0.1,0.4,0.2
		h0.1h0c0.2,0,0.5,0.2,0.8,0.5l0.1,0l0.1,0.1h0c0,0,0.2,0.1,0.7,0.2v0.1c0,0,0,0.1,0,0.1c0.1-0.1,0.1-0.1,0.2-0.1
		c0.2,0.1,0.3,0.3,0.3,0.5c0.1,0,0.2,0.1,0.2,0.3c-0.1,0.3-0.2,0.4-0.3,0.4c0,0-0.1,0-0.1-0.1c-0.3,0.1-0.4,0.1-0.4,0.2v0
		c0,0,0,0.1,0,0.1h0l0.1-0.1c0,0,0,0,0,0l0,0.1v0.1l0.1,0.2c0,0.1-0.1,0.1-0.1,0.1c-0.1,0-0.1-0.1-0.1-0.1l-0.1,0l-0.2,0
		c-0.1,0-0.2,0-0.3,0v0c0,0-0.1,0-0.1,0l0.1,0.2c-0.2,0-0.3,0.1-0.3,0.3l0.3,0.2c0,0,0,0,0,0c0,0,0,0-0.1,0l-0.1,0h-0.1l-0.1,0
		c-0.1,0-0.3,0.1-0.6,0.2c0,0-0.1,0-0.1,0l0,0.1c0.1,0,0.2,0.1,0.2,0.2c0,0.1-0.1,0.1-0.1,0.1l-0.2,0c-0.3,0-0.5,0.1-0.5,0.3l-0.1,0
		c0,0-0.1-0.1-0.2-0.2c0,0,0,0,0,0l-0.2,0H261v0c0.1,0,0.1,0,0.1,0.1v0.1H261c0-0.1-0.1-0.1-0.2-0.1c-0.1,0-0.2,0.1-0.3,0.1l0-0.1
		c0,0,0,0,0,0c0,0-0.1,0-0.1,0c-0.1,0-0.2,0.1-0.3,0.1H260c-0.1,0-0.1,0-0.2-0.1c0,0,0,0.1-0.1,0.1h0c0,0,0,0,0,0
		c-0.1,0-0.2,0.1-0.2,0.1c-0.1-0.1-0.2-0.1-0.2-0.1c0,0-0.1,0-0.1,0c-0.1,0-0.5,0-1,0v0l-0.5,0.1v0l-0.1,0h-0.1c0,0,0,0,0,0
		c-0.4,0.1-0.7,0.3-0.9,0.5c-0.2,0.4-0.4,0.9-0.5,1.5l-0.1,0.1h0c0,0,0,0.1-0.1,0.3l0.1,0.3c0.1,0,0.3,0,0.5-0.1v0l0.3-0.1
		c0,0,0.1,0,0.1,0c0-0.1,0.3-0.2,1-0.4c0,0,0,0,0,0c0,0,0-0.1,0.1-0.1l0.1,0l0.2-0.1c0,0,0.1,0,0.1,0c0,0,0,0,0.1,0h0.3l0.1,0l0-0.1
		h0c0,0,0.1,0,0.1,0.1h0c0-0.1,0.1-0.2,0.2-0.2h0v0.1c0.1-0.1,0.2-0.2,0.2-0.2l0.7,0.1c0.1,0,0.2-0.1,0.3-0.1v0l0.1,0
		c0.1,0,0.4,0.1,0.9,0.2c0.1,0.1,0.2,0.2,0.4,0.3l0.1,0h0c0.1,0.1,0.1,0.1,0.1,0.1l0.1,0c0.4,0.2,0.5,0.4,0.5,0.6
		c0.1,0.1,0.2,0.4,0.3,0.8c0,0,0,0.2-0.1,0.4c0,0,0.1,0,0.1,0v0l-0.3,0.9l-0.1,0.1c0,0,0,0,0,0.1c-0.1,0.2-0.1,0.3-0.1,0.3h0
		c0,0,0,0,0.1,0l0,0.1l-0.1,0.1l0,0.1c0,0,0,0,0,0l0,0c-0.1,0.1-0.2,0.2-0.2,0.4v0.1h0.2v0l-0.3,0.4c-0.1,0-0.2,0-0.2,0.1v0
		c-0.2,0-0.3,0.1-0.3,0.1v0c0.1,0,0.1,0,0.1,0c-0.1,0.1-0.1,0.2-0.1,0.3h0l-0.1,0v0c0,0,0,0,0,0.1c-0.1,0-0.2,0.1-0.3,0.4
		c-0.2,0.1-0.3,0.2-0.3,0.2l0,0.1c-0.2,0.2-0.3,0.3-0.4,0.3c0,0.3-0.6,0.9-1.6,1.8v0.1c0,0.1,0.3,0.2,0.9,0.4l1.1,0.6
		c0.3,0.2,0.8,0.6,1.5,1.3c0.2,0.2,0.4,0.4,0.4,0.6c0,0,0,0.2,0,0.5c0,0,0,0.1,0,0.1h0c0.1,0.2,0.2,0.3,0.2,0.4l-0.1,0c0,0,0,0,0,0
		c-0.1,0-0.2,0.1-0.2,0.2h0l-0.1-0.1h-0.2c-0.1,0.1-0.2,0.1-0.2,0.1c0.1,0.5,0.2,0.9,0.3,1.1l-0.2,0.1h-0.2h-0.1
		c-0.2,0.2-0.4,0.4-0.4,0.6c-0.2-0.1-0.3-0.1-0.4-0.2c-0.4,0-0.6,0.2-0.7,0.7h0l0,0l0,0.1c0.2,0.2,0.3,0.3,0.3,0.4h0c0,0,0,0,0,0
		l0,0.2h0c-0.3-0.3-0.5-0.5-0.6-0.5v0c0,0,0,0,0,0c-0.1,0-0.4,0-0.8-0.1l-0.1,0c-0.1,0-0.1-0.1-0.2-0.1c-0.3,0.2-0.5,0.3-0.5,0.4
		l-0.1,0.3l-0.1,0c-0.1,0-0.2,0-0.3,0c-0.1,0-0.2-0.1-0.2-0.2c-0.3-0.2-0.6-0.3-0.9-0.4c-0.1-0.1-0.3-0.2-0.7-0.4
		c0-0.2-0.2-0.3-0.7-0.4v0c0,0,0-0.1,0-0.1c-0.1,0-0.2-0.1-0.4-0.1l0,0h-0.3c-0.1,0-0.2,0-0.2,0.1l-0.2,0h-0.2c0,0-0.1,0-0.1,0
		l-0.1,0c-0.1,0-0.1,0.1-0.1,0.1l-0.2,0c-0.1,0-0.1,0.1-0.1,0.1h0l-0.1,0c0,0-0.1,0.1-0.4,0.1h-0.1c0,0,0,0,0,0
		c-0.2,0.1-0.4,0.2-0.6,0.2l-0.1,0l-0.3,0.1l-0.1-0.1h-0.1c0,0,0,0.1-0.1,0.1l-0.2,0v-0.1h0.1l0-0.1l-0.2,0.1l-0.2,0v-0.1
		c0.4,0,0.6-0.1,0.6-0.2l0-0.1v-0.1c0,0,0-0.1,0.1-0.1l0.1,0.1h0.1v0l-0.1-0.1h0.1l0.2,0.1c0.1,0,0.1-0.1,0.2-0.4c0,0,0,0,0,0v0
		c-0.4,0-0.6-0.1-0.6-0.1l-0.2,0h-0.2v-0.1h0.1c0,0,0.1,0,0.1,0c0.4,0,0.6-0.1,0.7-0.1l0,0c0.4-0.1,0.6-0.1,0.6-0.1v0
		c0.6-0.1,0.9-0.3,0.9-0.4c0-0.1,0.1-0.1,0.1-0.1c-0.2-0.4-0.5-0.7-0.8-0.9c-0.3-0.3-0.6-0.6-0.9-0.8c-0.7-0.7-1.3-1.3-1.9-1.7
		c-0.3-0.3-0.4-0.6-0.4-1v-0.1c0,0,0,0,0,0h0c0-0.3,0.1-0.5,0.3-0.6c0-0.1-0.1-0.1-0.1-0.2c0,0,0,0,0,0c0,0,0,0,0,0l0.7-0.4
		c0,0,0.1-0.1,0.3-0.3c0.1,0,0.2,0,0.2,0.1c0.1,0,0.2-0.1,0.4-0.3c0.2,0.1,0.3,0.2,0.5,0.2c0.3,0.3,0.8,0.6,1.6,0.9l0.1,0l1.3,0.4
		l0.1,0c0.5,0.1,0.7,0.1,0.8,0.1l0.1,0h0.2c0.1,0,0.1,0,0.1,0c0.6,0,1.1-0.1,1.6-0.4c0.3-0.3,0.7-0.9,1.3-1.8
		c0.2-0.4,0.4-0.9,0.7-1.5l0-0.1c0-0.1,0.1-0.1,0.1-0.2l0-0.1c0-0.2,0.1-0.3,0.1-0.3l0-0.1v-0.3c0,0,0,0,0,0
		c-0.1-0.6-0.3-0.9-0.5-1.1v0c-0.1-0.1-0.2-0.1-0.2-0.2h0c0,0.1,0,0.1-0.1,0.1h-0.1c0,0-0.1,0-0.1-0.1c0,0,0-0.1,0-0.1l-0.1,0h-0.1
		l-0.2,0c0,0-0.1,0-0.1,0c0,0,0,0.1-0.1,0.1c-0.1,0-0.1-0.1-0.2-0.1c-0.2,0.1-0.4,0.1-0.5,0.1c0,0,0,0-0.1,0c0,0-0.1,0.1-0.4,0.1
		c0,0,0,0,0,0c-0.1,0-0.3,0.1-0.5,0.2c-0.1,0-0.3,0.1-0.4,0.2h0l-0.1,0c-0.1,0.1-0.3,0.3-0.6,0.4c0,0.1,0,0.1-0.1,0.1l-0.1-0.1h0
		c0,0.2-0.1,0.3-0.3,0.3v0c0,0,0,0,0,0l-0.6,0.6c0,0-0.1,0.2-0.1,0.6l-0.1,0v0c-0.5,0.1-0.8,0.3-0.9,0.5c-0.1,0-0.2,0.1-0.3,0.3
		c-0.2,0.1-0.4,0.2-0.4,0.3l0,0.1l-0.1,0.1l0,0.2l-0.3,0.3l0,0v0h-0.1c-0.1,0-0.3-0.1-0.8-0.3c-0.2-0.1-0.3-0.2-0.3-0.3l0,0
		l-0.1-0.5h0c0-0.3-0.1-0.4-0.3-0.4v-0.1c0.1,0,0.1-0.1,0.2-0.3c-0.1-0.2-0.2-0.4-0.3-0.8c0.1-0.2,0.2-0.4,0.2-0.5l0-0.1
		c0,0,0-0.1,0-0.1l0-0.1l0.2-0.5l0-0.1c0.2-0.2,0.3-0.5,0.4-0.9h0l0-0.1c0,0,0-0.1,0.1-0.1l0-0.1v0c0,0,0-0.1,0.1-0.1c0,0,0,0,0,0
		c0-0.3,0.1-0.4,0.1-0.4c0,0,0,0,0,0c0-0.2,0.1-0.4,0.1-0.6l-0.1-0.1h-0.1c-0.2,0-0.4,0.1-0.8,0.3v0c-0.3,0.2-0.6,0.3-0.9,0.4
		c-0.7,0.4-1.1,0.8-1.3,1c-0.2,0.3-0.5,0.5-0.7,0.5h0v0c-0.1,0-0.2,0.1-0.2,0.1c0,0,0,0,0,0c-0.2,0-0.4,0.1-0.5,0.1l-0.3-0.1l-0.2,0
		c-0.6-0.2-1-0.3-1-0.3h-0.4c-0.6-0.3-1.1-0.6-1.4-1.2c-0.1-0.3-0.1-0.5-0.1-0.6c0-0.3,0.1-0.6,0.4-1.2l-0.1-0.2c0,0,0-0.1,0-0.1
		c0,0-0.1,0-0.1-0.1s0.2-0.1,0.5-0.1c0.1-0.1,0.3-0.2,0.5-0.3c0.1-0.2,0.3-0.3,0.4-0.3c0,0,0,0,0.1,0.1h0c0-0.1,0.1-0.2,0.4-0.4
		c0,0,0-0.1,0-0.1h0.1l0.1,0.1h0l0.1,0c0,0,0.1,0.1,0.2,0.1c0,0,0.2-0.1,0.5-0.2l0,0.1v0c0,0-0.2,0.1-0.4,0.4
		c-0.2,0.1-0.3,0.3-0.3,0.5c0.2,0,0.4-0.1,0.7-0.2v0l0.8-0.2h0c0,0,0.3-0.1,0.8-0.3c1.5-0.6,2.5-1,3-1.2c0.5-0.2,0.8-0.3,0.9-0.3
		c0-0.2,0.1-0.6,0.2-0.9v-0.6c0,0,0,0,0,0l0,0v-0.1l0-0.1c0,0-0.1,0-0.1,0l0.1-0.1c0-0.1-0.1-0.2-0.2-0.3v0h0l-0.7,0.4
		c-0.1,0-0.1,0.1-0.1,0.1v0l0,0.1c-0.1,0-0.4,0.1-0.8,0.4c-0.4,0.3-0.7,0.4-0.8,0.4c-0.1,0.1-0.3,0.2-0.6,0.4
		c-0.4,0.4-0.8,0.5-1,0.5c0,0,0,0-0.1,0h0c0,0,0,0,0.1,0c-0.3,0.2-0.4,0.3-0.5,0.3l-0.1,0c0,0-0.1,0-0.1,0v0c0.1,0,0.1,0,0.1,0.1
		c-0.2,0-0.3,0.1-0.5,0.3h-0.1l0-0.1h-0.1l-0.1,0.1H248v0c0.2-0.2,0.4-0.3,0.6-0.3c0.1-0.2,0.2-0.3,0.2-0.3l0.1,0
		c0.3-0.2,0.5-0.4,0.5-0.5c0.1,0,0.3-0.1,0.6-0.4c0.4-0.2,1.1-0.8,2.2-1.7c0.1-0.1,0.3-0.3,0.5-0.5c0-0.3-0.2-0.5-0.4-0.5l-1-0.2
		c-0.1-0.1-0.3-0.4-0.6-0.8c0,0-0.3-0.3-0.7-1c-0.2-0.1-0.4-0.3-0.4-0.7c0-0.9,0.1-1.4,0.4-1.4c0.1-0.2,0.4-0.3,0.7-0.3
		c0.1,0,0.4,0.2,0.9,0.5c0.2,0,0.3,0,0.3,0.1l0.1,0c0,0,0,0,0,0c0.8-0.1,1.3-0.2,1.7-0.5c0.4-0.2,0.7-0.5,0.8-0.7l0.1-0.4
		c0,0,0,0,0,0c0-0.2,0-0.3,0.1-0.3l0-0.1v-0.1c0,0,0,0,0,0c0,0,0,0,0,0c0-0.3,0-0.4,0.1-0.4l0-0.1v-0.2l0-0.2c0,0,0-0.1,0-0.1h0
		l0-0.1c0,0,0-0.1,0-0.2c0,0,0-0.1,0-0.1h0l0-0.1v-0.3c0,0,0,0,0,0l0-0.1c0,0,0,0,0-0.1c0,0,0,0,0,0l0-0.2v-0.4v0v0v-0.2v-0.3
		c0-0.1,0-0.1,0-0.1l0.1-0.8c-0.3-0.5-0.6-0.8-0.7-0.9c-0.1-0.2-0.1-0.3-0.1-0.3c0.1-0.3,0.1-0.5,0.2-0.5l0.1,0v0
		c0.1,0,0.2,0.1,0.3,0.2h0c0,0,0.1,0,0.1-0.1l-0.1-0.2c0,0,0-0.1,0.1-0.3v0h0c0,0,0,0.1-0.1,0.1l0,0.1c0,0,0,0.1-0.1,0.1
		c-0.2,0-0.3-0.1-0.3-0.1c0,0,0,0,0,0c0,0,0,0-0.1-0.1C253.9,31,254.2,30.8,254.8,30.7z M247.4,47.3c0,0,0.1,0,0.1,0v0
		c0,0-0.1,0-0.1,0C247.3,47.4,247.3,47.4,247.4,47.3L247.4,47.3z M247.9,47C247.9,47.1,248,47.1,247.9,47c0,0.1-0.1,0.2-0.3,0.3
		l0-0.1l0.1-0.1l0.1,0.1C247.9,47.1,247.9,47,247.9,47z M248.3,47.1L248.3,47.1c0,0.1-0.1,0.1-0.2,0.2l-0.1,0v0.1h-0.1v-0.1
		C247.9,47.2,248,47.2,248.3,47.1z M248.3,46.9L248.3,46.9C248.3,46.9,248.3,46.9,248.3,46.9C248.3,46.8,248.3,46.8,248.3,46.9z
		 M250.7,50.6L250.7,50.6c0,0,0,0.1-0.1,0.1L250.7,50.6C250.7,50.6,250.7,50.6,250.7,50.6z M251.8,64.3L251.8,64.3l0,0.1h0
		C251.8,64.4,251.8,64.3,251.8,64.3L251.8,64.3z M253.5,44.1L253.5,44.1c0,0.1,0,0.1-0.1,0.1L253.5,44.1
		C253.5,44.1,253.5,44.1,253.5,44.1z M254.5,31.4c0,0,0,0.1,0,0.1h0.1C254.6,31.4,254.6,31.4,254.5,31.4L254.5,31.4z M254.9,64
		L254.9,64L254.9,64l-0.1,0.1c0,0,0.1,0,0.1,0c0.1,0,0.2-0.1,0.2-0.1v0L254.9,64z M257.2,42.6c0,0-0.1,0.3-0.2,0.8c0,0,0,0.1,0,0.1
		s0,0.2-0.1,0.3l0.1,0.1c0,0.2-0.1,0.3-0.1,0.3l0,0.1c0,0.1-0.1,0.2-0.1,0.2l0,0.1c0,0.1-0.1,0.2-0.1,0.3c0,0.1,0.1,0.1,0.1,0.1
		l0,0.2c0,0,0,0,0,0c0.8-0.2,1.3-0.3,1.3-0.4c0-0.1,0.1-0.2,0.1-0.3C257.8,43.6,257.5,42.9,257.2,42.6z M257.3,41.9L257.3,41.9
		c0,0.3,0,0.5,0.2,0.7c0.2,0.3,0.3,0.5,0.4,0.5C257.6,42.4,257.4,42.1,257.3,41.9z M257.8,41.6L257.8,41.6l0,0.1c0,0,0,0,0,0l0,0.1
		l0,0.1h0.1c0.4,0.6,0.6,0.9,0.8,1.1v-0.1c-0.4-0.7-0.7-1.1-0.9-1.3L257.8,41.6z M258.6,51.8L258.6,51.8c-0.4,0-0.7,0.1-0.9,0.1v0
		h0.1c0,0,0.1,0,0.1,0v0c0.1,0,0.2-0.1,0.3-0.1v0c0,0,0.2,0,0.5-0.1v0l0.2,0c0,0,0.1,0,0.1,0h0c0,0,0.2,0,0.5,0.1c0,0,0.1,0,0.1,0
		c0.1,0,0.2,0,0.3,0c0-0.1-0.1-0.1-0.4-0.1l-0.1,0c-0.2,0-0.4,0-0.4-0.1C258.8,51.7,258.7,51.7,258.6,51.8z M257.9,43.2L257.9,43.2
		c0,0.1,0,0.1,0,0.1h0L257.9,43.2L257.9,43.2z M258.1,41.3c0,0.1,0.1,0.4,0.4,0.8c0,0,0,0,0,0l0.4,0.3h0c0,0.2,0.1,0.3,0.3,0.4
		c0,0.1,0.1,0.1,0.2,0.2c0,0,0,0.1,0.1,0.1v0.1v0c0.2,0,0.4,0.1,0.4,0.2h0.1c0,0,0.1,0,0.1,0c0,0.1,0.1,0.1,0.2,0.1
		c0,0-0.2-0.2-0.5-0.6c-0.6-0.7-1-1.2-1.2-1.3c-0.2-0.3-0.3-0.5-0.3-0.5C258.1,41.3,258.1,41.3,258.1,41.3z M258.7,43L258.7,43
		l0.1,0V43L258.7,43C258.7,43,258.7,43,258.7,43z M261.3,48.1L261.3,48.1c0.2,0.1,0.2,0.1,0.3,0.1v0.1h0
		C261.3,48.3,261.2,48.2,261.3,48.1C261.2,48.1,261.2,48.1,261.3,48.1z M262.6,54.2L262.6,54.2c0,0,0,0.1,0,0.1h-0.1v0
		C262.6,54.2,262.6,54.2,262.6,54.2z M263.5,47.4L263.5,47.4l0,0.1h0C263.5,47.5,263.5,47.5,263.5,47.4L263.5,47.4z"/>
</g>
</svg>
