<?xml version="1.0" encoding="utf-8"?>
<!-- Generator: Adobe Illustrator 21.0.0, SVG Export Plug-In . SVG Version: 6.00 Build 0)  -->
<svg version="1.1" id="图层_1" xmlns="http://www.w3.org/2000/svg" xmlns:xlink="http://www.w3.org/1999/xlink" x="0px" y="0px"
	 viewBox="0 0 340 101" style="enable-background:new 0 0 340 101;" xml:space="preserve">
<style type="text/css">
	.st0{fill:#F4E21E;stroke:#00ACCB;stroke-width:2;stroke-miterlimit:10;}
	.st1{fill:#FFFFFF;stroke:#00ACCB;stroke-width:3;stroke-miterlimit:10;}
	.st2{fill:none;}
</style>
<path class="st0" d="M317,100H28.9C16.8,100,7,90.2,7,78.1V33.9C7,21.8,16.8,12,28.9,12H317c12.1,0,21.9,9.8,21.9,21.9v44.2
	C338.8,90.2,329,100,317,100z"/>
<path class="st1" d="M312.3,89.6H24.2c-12.1,0-21.9-9.8-21.9-21.9V23.6c0-12.1,9.8-21.9,21.9-21.9h288.1c12.1,0,21.9,9.8,21.9,21.9
	v44.2C334.1,79.8,324.4,89.6,312.3,89.6z"/>
<rect x="70.2" y="28.6" class="st2" width="199.6" height="43.9"/>
<g>
	<path d="M95.6,51c0,0,0.3,0,1,0c0.9,0,1.5,0.1,1.7,0.2c0.1,0,0.3,0.1,0.5,0.1c0.1,0,0.2,0,0.2,0.1c0,0.1,0.1,0.1,0.4,0.1
		c0.2,0,0.4,0.1,0.5,0.1c0.4,0.3,0.8,0.4,1.2,0.4c0.3,0,0.5,0.1,0.7,0.4c0.2,0.2,0.3,0.3,0.3,0.3c0,0,0.1,0.1,0.2,0.2
		s0.2,0.2,0.2,0.2s0.1,0,0.1,0.1c0,0.1,0.1,0.1,0.3,0.2s0.3,0.1,0.3,0.2c0.1,0.1,0.1,0.1,0.1,0.1c0,0,0.2,0.1,0.5,0.3
		c0.3,0.2,0.5,0.4,0.7,0.6c0.2,0.2,0.4,0.4,0.5,0.5c0.1,0.2,0.1,0.3,0.2,0.3c0,0,0.1,0.1,0.1,0.3c0,0.2,0,0.3-0.1,0.4
		c-0.1,0.2-0.3,0.2-0.5,0c-0.2-0.2-0.4-0.2-0.6,0c0,0-0.1,0.1-0.2,0.1c-0.1,0-0.2,0.1-0.5,0.2s-0.4,0.3-0.4,0.5
		c0,0.1-0.1,0.3-0.2,0.4c-0.1,0.1-0.2,0.2-0.2,0.3c0,0-0.1,0.2-0.4,0.5l-0.4,0.4l0.1,0.3c0.1,0.4,0,0.6-0.3,0.6c-0.1,0-0.2,0-0.3,0
		c-0.1-0.1-0.2-0.2-0.5-0.3c-0.2-0.1-0.4-0.2-0.5-0.2s-0.2,0-0.3-0.1c-0.1-0.1-0.2-0.1-0.3-0.1s-0.2,0-0.2-0.1s-0.2-0.1-0.4-0.1
		s-0.3-0.1-0.5-0.2c-0.1-0.1-0.2-0.1-0.2-0.1c0,0,0,0-0.1,0c0,0,0,0-0.1-0.1c0-0.1-0.1-0.1-0.2-0.1c-0.1,0-0.2,0-0.3,0.1
		c-0.1,0.1-0.2,0.1-0.4,0.1c-0.1,0-0.2,0-0.2,0c0,0,0,0,0,0.1c0,0.1,0,0.1-0.1,0.1s-0.2,0-0.3,0s-0.1,0-0.1,0c0,0,0,0,0.1-0.1
		c0.1-0.1,0.2-0.1,0.2-0.1s0.1,0,0.1-0.1c0.1-0.1,0.1-0.2-0.2-0.2c-0.1,0-0.3,0-0.5,0C96,58,95.8,58,95.7,58c-0.1,0-0.2,0-0.4,0.1
		c-0.2,0-0.3,0-0.6,0.1c-0.3,0.1-0.8,0.1-1.3,0.2c-0.3,0-0.4,0-0.5,0.1c-0.1,0-0.2,0-0.4,0c-0.2,0-0.3,0-0.4,0c0,0-0.2,0.1-0.3,0.1
		c-0.4,0-0.9,0.1-1.4,0.2c-0.2,0-0.3,0-0.3,0c0,0,0,0,0.1-0.1c0.1,0,0.2,0,0.3,0c0.1,0,0.2,0,0.2-0.1c0,0,0.1-0.1,0.2,0
		c0.1,0,0.2,0,0.3,0c0.2-0.1,0.6-0.2,1.1-0.2c0.1,0,0.3-0.1,0.4-0.1s0.2-0.1,0.3,0c0.1,0,0.1,0,0.2,0c0.1,0,0.2-0.1,0.4-0.1
		c0.2,0,0.4-0.1,0.7-0.1c0.5-0.1,0.7-0.2,0.6-0.3c0,0-0.2-0.1-0.4-0.1s-0.4,0-0.4,0.1s-0.2,0.1-0.6,0.1c-0.3,0-0.5,0-0.6,0.1
		c-0.1,0-0.3,0.1-0.4,0.1c-0.2,0-0.3,0-0.4,0.1s-0.3,0.1-0.6,0.1c-0.7,0.1-1.2,0.2-1.5,0.3c-0.1,0-0.4,0.1-0.9,0.2
		c-0.1,0-0.2,0-0.2,0c0,0-0.1,0-0.1,0c0,0-0.1,0-0.1,0c0,0-0.1,0-0.2,0c-0.1,0.1-0.2,0.1-0.3,0.1c-0.1,0-0.1,0-0.1,0.1s0,0.1-0.1,0
		c-0.1-0.1-0.2-0.1-0.4-0.1c-0.2,0-0.3,0-0.3,0c0.1-0.1,0.7-0.3,1.7-0.5c0.6-0.1,0.8-0.3,0.8-0.4c0,0,0,0-0.1-0.1
		c-0.1,0-0.1,0-0.2,0c-0.1,0-0.2,0-0.3,0.1c-0.3,0.1-0.5,0.1-0.5,0c0,0,0.1-0.1,0.2-0.1c0.1,0,0.3-0.1,0.3-0.1
		c0.1,0,0.2-0.1,0.2-0.1c0.1,0,0.2-0.1,0.4-0.2c0.2-0.1,0.3-0.2,0.3-0.2c0-0.1-0.4-0.1-1,0c-0.2,0-0.4,0-0.5,0.1
		c-1.1,0.1-2,0.2-2.5,0.3c-0.5,0.1-0.9,0.2-1.3,0.2c-0.7,0.1-1,0.1-1.1,0.2c0,0-0.1,0-0.4,0s-0.4,0-0.4,0.1
		c-0.1,0.1-0.6,0.2-1.3,0.2c-0.4,0-0.7,0-0.8,0.1c-0.2,0.1-0.5,0.1-0.8,0.1c-0.3,0-0.5,0-0.7,0.1c-0.3,0.2-0.6,0.2-0.7,0.2
		c-0.1,0-0.1,0-0.1-0.1s0.1-0.1,0.2-0.1c0.2,0,0.3-0.1,0.3-0.2c-0.3,0-0.5,0-0.7,0s-0.2,0-0.3,0c0,0-0.1,0-0.2-0.1
		C77.8,58.1,77.5,58,77,58c-0.2,0-0.3-0.1-0.4-0.1s-0.3-0.1-0.6-0.2c-1-0.2-1.6-0.4-1.9-0.6c0,0-0.2-0.1-0.3-0.1
		c-0.2,0-0.3-0.1-0.5-0.2c-0.1-0.1-0.3-0.2-0.4-0.2c-0.2-0.1-0.3-0.3-0.4-0.6c-0.1-0.3-0.2-0.6-0.1-0.8c0.1-0.2,0.1-0.4,0.1-0.7
		c0-0.2,0-0.3,0-0.4c0,0,0.1-0.1,0.2-0.1c0.1,0,0.2,0.1,0.3,0.2c0.1,0.1,0.2,0.1,0.3,0.1c0.1-0.1,0.1-0.1,0.3-0.1
		c0.1,0,0.2-0.1,0.2-0.1c0-0.1,0-0.2,0.1-0.3c0-0.1,0.1-0.2,0-0.3c0-0.1,0-0.2,0-0.2c0,0,0.1-0.1,0.2-0.1c0.1,0,0.1,0.1,0.1,0.1
		c0,0.1,0,0.1,0,0.1c0,0,0.1,0,0.2-0.1c0.1-0.1,0.2-0.1,0.3-0.1s0.2,0.1,0.3,0.1c0,0.1,0.1,0.1,0.2,0s0.3-0.1,0.5-0.1s0.5,0,0.7-0.1
		c0.1,0,0.1,0,0.2-0.1c0.1,0,0.1,0,0.2-0.1c0,0-0.1,0.1-0.3,0.3c-0.4,0.2-0.6,0.5-0.6,0.7c0,0.1,0.1,0.2,0.2,0.2s0.4,0.1,0.9,0.1
		c0.5,0,0.8-0.1,0.9-0.1c0.2-0.1,0.3-0.1,0.3-0.1c0.1,0,0.1,0,0.2,0s0.2-0.1,0.4-0.1c0.6-0.1,1-0.3,1.2-0.3c0.4-0.1,0.7-0.2,0.9-0.2
		c0.2,0,0.3-0.1,0.4-0.1c0,0,0.1-0.1,0.2-0.1c0.1,0,0.1,0,0.1-0.1c0-0.1,0.3-0.2,0.9-0.3c0.4-0.1,0.6-0.2,0.8-0.2
		c0.1,0,0.3-0.1,0.5-0.1c0.2,0,0.4-0.1,0.7-0.1c0.3,0,0.5-0.1,0.6-0.1c0.2,0,0.4-0.1,0.7-0.1c0.3-0.1,0.5-0.1,0.6-0.1
		c1.2-0.2,1.9-0.3,2-0.3c0.1,0,0.3-0.1,0.5-0.1c0.2,0,0.7-0.1,1.4-0.2c0.4,0,0.7-0.1,0.8-0.1c0.1,0,0.3,0,0.7-0.1
		c0.4,0,0.6,0,0.7-0.1c0.4-0.2,1-0.3,1.8-0.3C94.9,51.1,95.5,51.1,95.6,51z M76.7,53c0,0,0.1,0,0.1,0l0,0C76.7,53,76.7,53.1,76.7,53
		L76.7,53z M87.7,35.3c0.1-0.1,0.2-0.2,0.4-0.2s0.3,0.2,0.6,0.5c0.4,0.4,0.6,0.5,0.6,0.5s0.1,0.1,0.1,0.2s0.2,0.3,0.3,0.5
		c0.2,0.2,0.3,0.4,0.5,0.8c0.2,0.3,0.3,0.6,0.5,0.7c0.3,0.5,0.4,0.9,0.2,1.3c0,0.1-0.1,0.5-0.1,1.2c0,0.6,0,1.1,0,1.3
		c0,0.2,0.1,0.4,0.2,0.5s0.3,0.1,0.5,0.1c1.3,0,2,0,2.3,0c0.1,0,0.3,0,0.5,0c0.2,0,0.4,0.1,0.4,0.1S95,43,95.2,43
		c0.2,0,0.6,0.2,1.2,0.4c0.1,0,0.2,0.1,0.4,0.1c0.3,0.1,0.5,0.3,0.6,0.5c0.1,0.1,0.1,0.4,0,0.7c0,0.3-0.1,0.5,0,0.6
		c0.1,0.2,0,0.4-0.1,0.7c-0.2,0.3-0.4,0.5-0.7,0.6c-0.2,0.1-0.4,0.1-0.5,0.1c-0.1,0-0.3,0-0.4,0.1c-0.1,0.1-0.3,0.1-0.6,0.1
		c-0.3,0-0.6,0.1-0.9,0.4c-0.1,0.1-0.3,0.1-0.4,0.1c-0.1,0-0.2,0-0.4,0c-0.5,0.2-0.8,0.3-0.8,0.3s-0.2,0-0.4,0.1
		c-0.2,0.1-0.4,0.2-0.6,0.3c-0.3,0.1-0.5,0.3-0.6,0.6c0,0.1,0,0.2,0.1,0.2s0.1,0.1-0.1,0.3c-0.1,0.2-0.2,0.3-0.1,0.3l-0.2,0.1
		c-0.2,0.1-0.3,0.2-0.3,0.3c0,0.1,0,0.2,0,0.3c0,0.1,0,0.2-0.1,0.3c-0.1,0.1-0.2,0.2-0.3,0.1c-0.1,0-0.3-0.1-0.4-0.1
		c-0.1-0.1-0.2-0.1-0.3-0.2c-0.1,0-0.2-0.1-0.2-0.1c0,0-0.1-0.1-0.1-0.1c-0.1,0-0.2,0-0.2-0.1s-0.2-0.1-0.3-0.1
		c-0.2,0-0.3,0-0.4,0.1c-0.1,0-0.3,0.1-0.6,0.1c-0.6,0-1,0.1-1.1,0.1c0,0-0.1,0-0.3,0l-0.2,0L86,50c0.2-0.1,0.3-0.1,0.3-0.1
		c0.1,0.1,0.2,0,0.5-0.3c0.2-0.2,0.3-0.3,0.4-0.3c0.1,0,0.1-0.1,0.2-0.2c0.1-0.2,0-0.4-0.2-0.6C87,48.4,87,48.4,87,48.3
		s0-0.1-0.1-0.2s-0.2-0.2-0.3-0.5c-0.1-0.2-0.2-0.4-0.3-0.5c-0.1-0.1-0.1-0.2-0.1-0.2c0,0,0-0.1,0-0.1s-0.1-0.1-0.1-0.3
		c0-0.1-0.1-0.5-0.2-0.9s-0.2-0.9-0.2-1.3c0-0.4-0.1-0.7-0.1-0.9c0-0.2-0.1-0.4,0-0.8c0-0.4,0-0.8,0.1-1.3c0-0.5,0.1-0.8,0.1-1.1
		c0-0.3,0.1-0.6,0.1-0.8c0-0.3,0.1-0.5,0.1-0.6c0-0.1,0.1-0.2,0.1-0.3s0-0.2,0.1-0.3c0-0.1,0.1-0.3,0.1-0.6c0.1-0.3,0.1-0.5,0.2-0.6
		c0.1-0.2,0.1-0.3,0.1-0.3s0.1-0.1,0.2-0.3c0.1-0.1,0.2-0.3,0.2-0.3c0-0.1,0.1-0.2,0.3-0.3c0.1-0.1,0.3-0.2,0.3-0.2
		C87.5,35.5,87.6,35.4,87.7,35.3z M86.2,58.7c0.1,0,0.1,0,0.2,0c0.1,0,0.1,0,0.1,0c0,0-0.1,0.1-0.3,0.1c-0.2,0.1-0.4,0.1-0.4,0.1
		l0.1-0.1C86.1,58.7,86.2,58.7,86.2,58.7z M86.9,58.7C86.8,58.7,86.8,58.7,86.9,58.7c-0.1-0.1-0.1-0.1,0-0.1S87,58.6,86.9,58.7
		C87,58.7,87,58.7,86.9,58.7z M89.5,58.8c0,0,0.1,0,0.1,0c0,0,0.1,0,0.1,0.1C89.7,58.8,89.6,58.9,89.5,58.8l-0.1,0.1
		C89.4,58.8,89.5,58.8,89.5,58.8z M90,58.8C90,58.8,89.9,58.8,90,58.8c0-0.1,0-0.1,0-0.1S90,58.7,90,58.8C90,58.8,90,58.8,90,58.8z
		 M97.7,58.7C97.7,58.7,97.7,58.7,97.7,58.7c0-0.1,0-0.1,0-0.1S97.7,58.7,97.7,58.7C97.7,58.7,97.7,58.7,97.7,58.7z"/>
	<path d="M136.8,34.7c0.2,0,0.4,0.1,0.6,0.3l0.3,0.1c0,0,0,0,0,0c0,0,0.1,0.1,0.3,0.1c0-0.1,0.2-0.1,0.6-0.1v0c0,0,0,0,0,0
		c0.2,0,0.3,0.1,0.3,0.1l0.1,0c0.6,0.2,0.9,0.4,0.9,0.6c0.1,0.2,0.2,0.4,0.2,0.7l0,0c0,0,0.1,0,0.1,0.1l0,0.1l0.1,0.1c0,0,0,0,0,0
		c0,0.1,0.1,0.4,0.4,0.8c0.2,0.3,0.4,0.5,0.4,0.5l-0.1,0.1c0,0.1,0.1,0.4,0.3,0.7c0,0.1,0,0.2,0,0.3v0l0,0.2l0,0.1
		c0,0.2-0.1,0.3-0.4,0.4c0,0-0.1,0.1-0.4,0.3c0,0.4-0.1,0.6-0.1,0.6l0,0.1c-0.1,0.4-0.3,0.5-0.6,0.5c0,0-0.1,0-0.2,0l0,0
		c0,0-0.1,0-0.1,0c-0.6,0.1-0.9,0.2-0.9,0.3c-0.2,0-0.3,0.1-0.3,0.1l-0.2,0h-0.1c0,0-0.1,0-0.1,0c-0.1,0-0.3,0-0.5-0.1
		c-0.4,0.2-0.6,0.3-0.6,0.4c-0.1,0-0.3,0.1-0.3,0.3c-0.3,0.3-0.7,0.6-1,1c-0.1,0-0.3,0.2-0.6,0.5c-0.1,0.1-0.3,0.4-0.5,0.8
		c-0.3,0.4-0.6,0.9-0.8,1.4c0,0-0.1,0-0.1,0.1l0,0c-0.2,0.4-0.3,0.6-0.3,0.6l0,0.1l-0.1,0.8c0,0,0,0.1,0,0.1h0l0,0.1
		c0,0,0,0.1-0.1,0.1l0,0.1c0,0.2,0,0.3-0.1,0.5c0,0,0,0.1,0,0.1l0,0.1c0,0,0,0.1,0,0.1h0l0.1,0.2c0,0,0,0,0,0l0,0.2v0c0,0,0,0,0,0
		c0,0.1,0.1,0.1,0.1,0.2v0l0,0.1c0.1,0.1,0.4,1,0.9,2.4c0,0.3,0,0.5,0.1,0.6v0.5l0,0.2l-0.1,0l0,0.1v0.2l0,0.3h0l-0.1,0
		c0,0.1,0.1,0.1,0.2,0.2l0,0.1v0.3c0,0,0,0.1,0,0.1c0,0.1,0,0.1-0.1,0.1l0,0.1v0.3c0,0,0,0,0,0l0,0.1l0,0.2l0,0.1c0,0.1,0,0.2,0,0.3
		l0,0.3c0,0,0,0,0,0c0,0,0,0,0,0c0,0-0.1,0-0.1,0c0,0.2,0,0.3,0,0.3l0,0.1l0,0.1c0,0.1-0.1,0.1-0.1,0.2v0.1l0,0.1l-0.1,0.1l0,0.2
		c0,0.2,0,0.4-0.1,0.5c0,0.1,0,0.2,0.1,0.3c0,0.1,0,0.1-0.1,0.1v0.1c0.1,0.1,0.1,0.2,0.1,0.2c0,0-0.1,0-0.1,0.1c0,0,0,0.1,0,0.1h0
		c0,0,0.2-0.3,0.4-0.9c0-0.1,0.1-0.2,0.3-0.4c-0.1,0-0.1-0.1-0.1-0.1c0.1-0.2,0.1-0.3,0.2-0.3l0-0.1v0c0,0,0-0.1,0.1-0.1
		c0,0,0-0.1,0-0.1c0.2-0.5,0.4-1,0.6-1.6h0.1v0c0,0-0.1,0-0.1,0c0.1-0.2,0.2-0.6,0.3-1.3l0.1,0l-0.1,0.4c0,0,0,0,0,0
		c0,0-0.1,0.1-0.1,0.2h0.1c0,0,0,0.2-0.1,0.3l0,0.1c0,0,0,0.1-0.1,0.2l0,0.1c0,0,0,0.1,0,0.1c0,0,0,0,0,0l0,0.2v0.3
		c-0.1,0.1-0.1,0.2-0.1,0.2c0,0,0,0,0,0c0,0-0.1,0-0.1,0.1c0,0,0.1,0,0.1,0l-0.2,0.3l0,0.1v0c-0.1,0.4-0.2,0.6-0.3,0.8
		c-0.1,0.5-0.2,0.9-0.3,1.2l0,0.1l-0.1,0l0,0.1l-0.2,0.6c0,0,0,0,0,0c0,0.1-0.1,0.1-0.1,0.1h0v0.2c0,0,0,0,0,0l0,0.1
		c0,0.1,0,0.1-0.1,0.1l0,0.1c-0.1,0.2-0.2,0.5-0.3,0.7l0,0.1c-0.1,0.5-0.2,0.8-0.3,0.9l0,0.1l0,0.1c0,0.1,0.1,0.3,0.1,0.3l0,0
		c-0.1,0-0.2-0.1-0.3-0.2c0,0.2-0.1,0.3-0.2,0.3l0,0.1c0,0.1,0,0.2-0.1,0.2l0,0.1c-0.1,0.2-0.2,0.4-0.3,0.4l0,0.1v0c0,0,0,0,0,0
		c0,0,0,0,0,0c0,0.4-0.2,0.8-0.5,1.2h0c0,0-0.2-0.1-0.4-0.3c-0.4-0.5-0.6-0.8-0.6-0.9c0-0.1,0-0.2-0.1-0.3c0,0,0,0,0,0
		c0-0.2-0.1-0.4-0.2-0.6l0-0.1c-0.1-0.2-0.2-0.4-0.2-0.5l0.1,0l0,0c0.1-0.2,0.2-0.3,0.2-0.4v-0.1c0,0,0-0.1,0-0.1c0,0,0-0.2,0.1-0.5
		l0,0c0,0,0-0.1,0-0.1l0-0.1c0,0,0,0,0,0l0-0.2V60c0,0,0,0,0,0h0l0-0.4c0-0.1,0-0.1,0-0.1l0-0.1V59c0,0,0,0,0,0c0,0,0,0,0,0l0-0.4
		v-0.1c0,0,0,0,0,0l0,0c0,0,0,0,0,0c0,0,0,0,0,0c0-0.3,0-0.4,0.1-0.4l0,0v-0.1c0,0,0,0,0,0c0,0,0,0,0,0c0-0.2,0-0.4,0.1-0.4
		c-0.1,0-0.1-0.1-0.1-0.1v-0.1l0.1,0h0c0-0.1,0-0.2,0.1-0.2c0,0,0,0,0,0c0-0.4,0.1-0.8,0.1-1l0-0.1v-0.1c0,0,0,0,0,0c0,0,0,0,0,0
		l0-0.4v-0.1h0c0,0,0,0,0,0c0-0.2,0.1-0.3,0.1-0.4c0,0,0,0,0,0c0-0.2,0-0.3,0.1-0.3c0,0,0,0,0,0c0-0.5,0.1-0.8,0.1-1l0-0.1l0-0.1
		c0-0.4-0.1-0.7-0.2-1h0c0-0.1,0-0.2-0.1-0.5v0h0c0.1,0.1,0.3,0.5,0.5,1h0v-0.1l0-0.2h0c0-0.1-0.1-0.4-0.4-1v-0.2h0.1
		c0,0.1,0.1,0.2,0.2,0.4h0.1l0-0.2c0.2,0.3,0.3,0.5,0.3,0.6c0,0,0.1,0,0.1,0c0,0,0.1,0,0.1,0v-0.1l0-0.1h0l0-0.1v-0.1h0
		c0,0,0.1,0,0.1,0.1h0c0.1,0.1,0.1,0.3,0.2,0.6v0l0,0.1h0.1c0,0,0,0,0-0.1c0,0,0-0.1,0-0.1c-0.1-0.7-0.3-1.3-0.4-1.6c0,0,0,0,0,0
		c0.1,0,0.4,0.5,0.6,1.4v0.2c0,0,0,0,0,0l0,0.1v0c0,0,0,0,0,0l0,0.2c0,0.1,0,0.1,0,0.1c0.1,0.4,0.1,0.7,0.1,0.7c0,0,0.1,0,0.1-0.1
		v-1.2l-0.1-0.4c0,0,0,0,0,0c0,0-0.1,0-0.1-0.1l0-0.1c-0.1-0.6-0.2-1.2-0.4-1.8c0-0.1,0-0.3-0.1-0.8c0,0,0,0,0,0l-0.1-0.8
		c0,0,0-0.1,0-0.1c0,0,0-0.1,0-0.1c0,0,0-0.1,0-0.3l0-0.1c0,0,0-0.1,0-0.1h0l0,0v-0.1c0,0,0,0,0,0l0-0.1v-0.1l0-0.1l-0.1,0h0
		c0,0.1-0.1,0.1-0.2,0.1c-0.1,0-0.2,0.2-0.2,0.4c0,0-0.1,0-0.1,0.1v0c0.1,0,0.1,0,0.1,0.1c0,0,0,0.1,0,0.1l0,0.1
		c0,0.1,0,0.2-0.1,0.2c-0.1,0-0.2-0.1-0.4-0.3l-0.1,0.3c0,0.1,0.1,0.4,0.1,1h-0.1l-0.1-0.3l-0.1,0.1c0,0,0.1,0.3,0.1,0.6l-0.1,0
		c-0.1-0.2-0.2-0.4-0.3-0.6c0,0,0-0.1,0-0.1c-0.1,0-0.2-0.2-0.3-0.6l-0.1,0.1c0,0,0,0.3,0.1,0.7h0l0.1,0.5c0,0,0,0.1,0,0.1
		c0,0.1,0.1,0.2,0.2,0.2l0,0.2v0l0.1,0.2l-0.1,0c-0.1-0.1-0.2-0.4-0.3-0.9c-0.1,0-0.2-0.2-0.3-0.4c-0.1,0.1-0.2,0.1-0.3,0.2
		c0,0,0,0,0,0l0,0h0c-0.2,0-0.5-0.7-0.7-2.1c0-0.2,0-0.4-0.1-0.6c0,0,0,0,0,0l0-0.3v-0.6c0,0,0,0,0,0h0c0-0.5,0.2-1.5,0.6-2.9
		c0.7-1.8,1.5-3.1,2.4-4.1c0.6-0.6,1.1-1,1.5-1.2c0.1-0.1,0.6-0.5,1.4-1.1c0.1-0.1,0.3-0.3,0.4-0.5v0c0-0.1,0-0.1,0-0.1
		c0-0.1,0-0.2,0-0.4h0l-0.1-0.1c0,0,0.1-0.2,0.3-0.5C136.4,34.7,136.5,34.7,136.8,34.7z M130.7,49.7L130.7,49.7c0.1,0,0.1,0,0.1,0.1
		v0.1h0C130.7,49.8,130.7,49.8,130.7,49.7L130.7,49.7z M130.8,49.9L130.8,49.9l0.1,0.1C130.8,50,130.8,50,130.8,49.9L130.8,49.9z
		 M131.7,50.8L131.7,50.8l0,0.1h0C131.7,50.9,131.7,50.9,131.7,50.8L131.7,50.8z M132.1,48.3c0,0,0,0.2,0.1,0.4l-0.1,0l0-0.2
		c0,0,0,0,0,0C132.1,48.4,132.1,48.4,132.1,48.3L132.1,48.3z M132.1,48.8L132.1,48.8c0.1,0,0.1,0,0.1,0.1l-0.1,0h0V48.8z
		 M132.5,50.2L132.5,50.2L132.5,50.2c0.1,0.1,0,0.1,0,0.1V50.2z M146.8,30.7c0.6,0.2,1,0.4,1.4,0.7c0,0,0.1,0,0.1,0l0-0.1
		c0.2,0,0.4,0.2,0.6,0.4c0,0,0.3,0.1,0.7,0.4c0,0.1,0.1,0.2,0.3,0.3c0.2,0.2,0.3,0.4,0.3,0.6v0.3c-0.1,0.1-0.1,0.3-0.2,0.5l-0.5,0.7
		c0,0,0,0,0,0c-0.1,0.4-0.2,0.8-0.2,1.2v0c0,0,0,0.1,0,0.1l0,0.1c0,0.2,0,0.3-0.1,0.3l0,0.1v0.1c0,0,0,0.1-0.1,0.1
		c0,0.4,0.1,0.6,0.2,0.6h0.3l0.1,0c0.1,0,0.4,0.1,0.8,0.3l0.2,0h0.3c0,0,0,0,0,0c0,0,0,0,0,0l0.5,0.1l0.1,0c0.2,0,0.5,0.2,0.8,0.4
		c0.2,0.3,0.3,0.5,0.3,0.6h0c0,0.1,0.1,0.2,0.1,0.3c-0.1,0.3-0.2,0.4-0.3,0.4l0,0.1c-0.1,0.2-0.3,0.3-0.6,0.4h0v0
		c0,0-0.1,0.1-0.2,0.1c0,0-0.2,0.2-0.5,0.4c-0.1,0.4-0.3,0.6-0.6,0.8c-0.1,0.1-0.3,0.2-0.4,0.3c0,0,0,0.1-0.1,0.1v0
		c0.4,0.5,0.9,1.1,1.5,1.8c0.1,0,0.1,0,0.1,0.1c0.1,0,0.3,0.1,0.4,0.3c0,0,0.2,0.1,0.4,0.3c0.1,0,0.1,0.1,0.2,0.1l0.1,0h0
		c0,0.1,0.1,0.2,0.2,0.3V44h0c0,0,0.1,0,0.1,0.1h0.1c0,0,0.1,0,0.1,0c0,0,0-0.1,0-0.1c0.1,0,0.2,0,0.2,0c0.2,0.1,0.4,0.1,0.4,0.2
		h0.1h0c0.2,0,0.5,0.2,0.8,0.5l0.1,0l0.1,0.1h0c0,0,0.2,0.1,0.7,0.2v0.1c0,0,0,0.1,0,0.1c0.1-0.1,0.1-0.1,0.2-0.1
		c0.2,0.1,0.3,0.3,0.3,0.5c0.1,0,0.2,0.1,0.2,0.3c-0.1,0.3-0.2,0.4-0.3,0.4c0,0-0.1,0-0.1-0.1c-0.3,0.1-0.4,0.1-0.4,0.2v0
		c0,0,0,0.1,0,0.1h0l0.1-0.1c0,0,0,0,0,0l0,0.1v0.1l0.1,0.2c0,0.1-0.1,0.1-0.1,0.1c-0.1,0-0.1-0.1-0.1-0.1l-0.1,0l-0.2,0
		c-0.1,0-0.2,0-0.3,0v0c0,0-0.1,0-0.1,0l0.1,0.2c-0.2,0-0.3,0.1-0.3,0.3l0.3,0.2c0,0,0,0,0,0c0,0,0,0-0.1,0l-0.1,0h-0.1l-0.1,0
		c-0.1,0-0.3,0.1-0.6,0.2c0,0-0.1,0-0.1,0l0,0.1c0.1,0,0.2,0.1,0.2,0.2c0,0.1-0.1,0.1-0.1,0.1l-0.2,0c-0.3,0-0.5,0.1-0.5,0.3l-0.1,0
		c0,0-0.1-0.1-0.2-0.2c0,0,0,0,0,0l-0.2,0H153v0c0.1,0,0.1,0,0.1,0.1v0.1H153c0-0.1-0.1-0.1-0.2-0.1c-0.1,0-0.2,0.1-0.3,0.1l0-0.1
		c0,0,0,0,0,0c0,0-0.1,0-0.1,0c-0.1,0-0.2,0.1-0.3,0.1H152c-0.1,0-0.1,0-0.2-0.1c0,0,0,0.1-0.1,0.1h0c0,0,0,0,0,0
		c-0.1,0-0.2,0.1-0.2,0.1c-0.1-0.1-0.2-0.1-0.2-0.1c0,0-0.1,0-0.1,0c-0.1,0-0.5,0-1,0v0l-0.5,0.1v0l-0.1,0h-0.1c0,0,0,0,0,0
		c-0.4,0.1-0.7,0.3-0.9,0.5c-0.2,0.4-0.4,0.9-0.5,1.5l-0.1,0.1h0c0,0,0,0.1-0.1,0.3l0.1,0.3c0.1,0,0.3,0,0.5-0.1v0l0.3-0.1
		c0,0,0.1,0,0.1,0c0-0.1,0.3-0.2,1-0.4c0,0,0,0,0,0c0,0,0-0.1,0.1-0.1l0.1,0l0.2-0.1c0,0,0.1,0,0.1,0c0,0,0,0,0.1,0h0.3l0.1,0l0-0.1
		h0c0,0,0.1,0,0.1,0.1h0c0-0.1,0.1-0.2,0.2-0.2h0v0.1c0.1-0.1,0.2-0.2,0.2-0.2l0.7,0.1c0.1,0,0.2-0.1,0.3-0.1v0l0.1,0
		c0.1,0,0.4,0.1,0.9,0.2c0.1,0.1,0.2,0.2,0.4,0.3l0.1,0h0c0.1,0.1,0.1,0.1,0.1,0.1l0.1,0c0.4,0.2,0.5,0.4,0.5,0.6
		c0.1,0.1,0.2,0.4,0.3,0.8c0,0,0,0.2-0.1,0.4c0,0,0.1,0,0.1,0v0l-0.3,0.9l-0.1,0.1c0,0,0,0,0,0.1c-0.1,0.2-0.1,0.3-0.1,0.3h0
		c0,0,0,0,0.1,0l0,0.1l-0.1,0.1l0,0.1c0,0,0,0,0,0l0,0c-0.1,0.1-0.2,0.2-0.2,0.4v0.1h0.2v0l-0.3,0.4c-0.1,0-0.2,0-0.2,0.1v0
		c-0.2,0-0.3,0.1-0.3,0.1v0c0.1,0,0.1,0,0.1,0c-0.1,0.1-0.1,0.2-0.1,0.3h0l-0.1,0v0c0,0,0,0,0,0.1c-0.1,0-0.2,0.1-0.3,0.4
		c-0.2,0.1-0.3,0.2-0.3,0.2l0,0.1c-0.2,0.2-0.3,0.3-0.4,0.3c0,0.3-0.6,0.9-1.6,1.8v0.1c0,0.1,0.3,0.2,0.9,0.4l1.1,0.6
		c0.3,0.2,0.8,0.6,1.5,1.3c0.2,0.2,0.4,0.4,0.4,0.6c0,0,0,0.2,0,0.5c0,0,0,0.1,0,0.1h0c0.1,0.2,0.2,0.3,0.2,0.4l-0.1,0c0,0,0,0,0,0
		c-0.1,0-0.2,0.1-0.2,0.2h0l-0.1-0.1h-0.2c-0.1,0.1-0.2,0.1-0.2,0.1c0.1,0.5,0.2,0.9,0.3,1.1l-0.2,0.1h-0.2h-0.1
		c-0.2,0.2-0.4,0.4-0.4,0.6c-0.2-0.1-0.3-0.1-0.4-0.2c-0.4,0-0.6,0.2-0.7,0.7h0l0,0l0,0.1c0.2,0.2,0.3,0.3,0.3,0.4h0c0,0,0,0,0,0
		l0,0.2h0c-0.3-0.3-0.5-0.5-0.6-0.5v0c0,0,0,0,0,0c-0.1,0-0.4,0-0.8-0.1l-0.1,0c-0.1,0-0.1-0.1-0.2-0.1c-0.3,0.2-0.5,0.3-0.5,0.4
		l-0.1,0.3l-0.1,0c-0.1,0-0.2,0-0.3,0c-0.1,0-0.2-0.1-0.2-0.2c-0.3-0.2-0.6-0.3-0.9-0.4c-0.1-0.1-0.3-0.2-0.7-0.4
		c0-0.2-0.2-0.3-0.7-0.4v0c0,0,0-0.1,0-0.1c-0.1,0-0.2-0.1-0.4-0.1l0,0h-0.3c-0.1,0-0.2,0-0.2,0.1l-0.2,0h-0.2c0,0-0.1,0-0.1,0
		l-0.1,0c-0.1,0-0.1,0.1-0.1,0.1l-0.2,0c-0.1,0-0.1,0.1-0.1,0.1h0l-0.1,0c0,0-0.1,0.1-0.4,0.1h-0.1c0,0,0,0,0,0
		c-0.2,0.1-0.4,0.2-0.6,0.2l-0.1,0l-0.3,0.1l-0.1-0.1h-0.1c0,0,0,0.1-0.1,0.1l-0.2,0v-0.1h0.1l0-0.1l-0.2,0.1l-0.2,0v-0.1
		c0.4,0,0.6-0.1,0.6-0.2l0-0.1v-0.1c0,0,0-0.1,0.1-0.1l0.1,0.1h0.1v0l-0.1-0.1h0.1l0.2,0.1c0.1,0,0.1-0.1,0.2-0.4c0,0,0,0,0,0v0
		c-0.4,0-0.6-0.1-0.6-0.1l-0.2,0h-0.2v-0.1h0.1c0,0,0.1,0,0.1,0c0.4,0,0.6-0.1,0.7-0.1l0,0c0.4-0.1,0.6-0.1,0.6-0.1v0
		c0.6-0.1,0.9-0.3,0.9-0.4c0-0.1,0.1-0.1,0.1-0.1c-0.2-0.4-0.5-0.7-0.8-0.9c-0.3-0.3-0.6-0.6-0.9-0.8c-0.7-0.7-1.3-1.3-1.9-1.7
		c-0.3-0.3-0.4-0.6-0.4-1v-0.1c0,0,0,0,0,0h0c0-0.3,0.1-0.5,0.3-0.6c0-0.1-0.1-0.1-0.1-0.2c0,0,0,0,0,0c0,0,0,0,0,0l0.7-0.4
		c0,0,0.1-0.1,0.3-0.3c0.1,0,0.2,0,0.2,0.1c0.1,0,0.2-0.1,0.4-0.3c0.2,0.1,0.3,0.2,0.5,0.2c0.3,0.3,0.8,0.6,1.6,0.9l0.1,0l1.3,0.4
		l0.1,0c0.5,0.1,0.7,0.1,0.8,0.1l0.1,0h0.2c0.1,0,0.1,0,0.1,0c0.6,0,1.1-0.1,1.6-0.4c0.3-0.3,0.7-0.9,1.3-1.8
		c0.2-0.4,0.4-0.9,0.7-1.5l0-0.1c0-0.1,0.1-0.1,0.1-0.2l0-0.1c0-0.2,0.1-0.3,0.1-0.3l0-0.1v-0.3c0,0,0,0,0,0
		c-0.1-0.6-0.3-0.9-0.5-1.1v0c-0.1-0.1-0.2-0.1-0.2-0.2h0c0,0.1,0,0.1-0.1,0.1h-0.1c0,0-0.1,0-0.1-0.1c0,0,0-0.1,0-0.1l-0.1,0h-0.1
		l-0.2,0c0,0-0.1,0-0.1,0c0,0,0,0.1-0.1,0.1c-0.1,0-0.1-0.1-0.2-0.1c-0.2,0.1-0.4,0.1-0.5,0.1c0,0,0,0-0.1,0c0,0-0.1,0.1-0.4,0.1
		c0,0,0,0,0,0c-0.1,0-0.3,0.1-0.5,0.2c-0.1,0-0.3,0.1-0.4,0.2h0l-0.1,0c-0.1,0.1-0.3,0.3-0.6,0.4c0,0.1,0,0.1-0.1,0.1l-0.1-0.1h0
		c0,0.2-0.1,0.3-0.3,0.3v0c0,0,0,0,0,0l-0.6,0.6c0,0-0.1,0.2-0.1,0.6l-0.1,0v0c-0.5,0.1-0.8,0.3-0.9,0.5c-0.1,0-0.2,0.1-0.3,0.3
		c-0.2,0.1-0.4,0.2-0.4,0.3l0,0.1l-0.1,0.1l0,0.2l-0.3,0.3l0,0v0h-0.1c-0.1,0-0.3-0.1-0.8-0.3c-0.2-0.1-0.3-0.2-0.3-0.3l0,0
		l-0.1-0.5h0c0-0.3-0.1-0.4-0.3-0.4v-0.1c0.1,0,0.1-0.1,0.2-0.3c-0.1-0.2-0.2-0.4-0.3-0.8c0.1-0.2,0.2-0.4,0.2-0.5l0-0.1
		c0,0,0-0.1,0-0.1l0-0.1l0.2-0.5l0-0.1c0.2-0.2,0.3-0.5,0.4-0.9h0l0-0.1c0,0,0-0.1,0.1-0.1l0-0.1v0c0,0,0-0.1,0.1-0.1c0,0,0,0,0,0
		c0-0.3,0.1-0.4,0.1-0.4c0,0,0,0,0,0c0-0.2,0.1-0.4,0.1-0.6l-0.1-0.1h-0.1c-0.2,0-0.4,0.1-0.8,0.3v0c-0.3,0.2-0.6,0.3-0.9,0.4
		c-0.7,0.4-1.1,0.8-1.3,1c-0.2,0.3-0.5,0.5-0.7,0.5h0v0c-0.1,0-0.2,0.1-0.2,0.1c0,0,0,0,0,0c-0.2,0-0.4,0.1-0.5,0.1l-0.3-0.1l-0.2,0
		c-0.6-0.2-1-0.3-1-0.3h-0.4c-0.6-0.3-1.1-0.6-1.4-1.2c-0.1-0.3-0.1-0.5-0.1-0.6c0-0.3,0.1-0.6,0.4-1.2l-0.1-0.2c0,0,0-0.1,0-0.1
		c0,0-0.1,0-0.1-0.1s0.2-0.1,0.5-0.1c0.1-0.1,0.3-0.2,0.5-0.3c0.1-0.2,0.3-0.3,0.4-0.3c0,0,0,0,0.1,0.1h0c0-0.1,0.1-0.2,0.4-0.4
		c0,0,0-0.1,0-0.1h0.1l0.1,0.1h0l0.1,0c0,0,0.1,0.1,0.2,0.1c0,0,0.2-0.1,0.5-0.2l0,0.1v0c0,0-0.2,0.1-0.4,0.4
		c-0.2,0.1-0.3,0.3-0.3,0.5c0.2,0,0.4-0.1,0.7-0.2v0l0.8-0.2h0c0,0,0.3-0.1,0.8-0.3c1.5-0.6,2.5-1,3-1.2c0.5-0.2,0.8-0.3,0.9-0.3
		c0-0.2,0.1-0.6,0.2-0.9v-0.6c0,0,0,0,0,0l0,0v-0.1l0-0.1c0,0-0.1,0-0.1,0l0.1-0.1c0-0.1-0.1-0.2-0.2-0.3v0h0l-0.7,0.4
		c-0.1,0-0.1,0.1-0.1,0.1v0l0,0.1c-0.1,0-0.4,0.1-0.8,0.4c-0.4,0.3-0.7,0.4-0.8,0.4c-0.1,0.1-0.3,0.2-0.6,0.4
		c-0.4,0.4-0.8,0.5-1,0.5c0,0,0,0-0.1,0h0c0,0,0,0,0.1,0c-0.3,0.2-0.4,0.3-0.5,0.3l-0.1,0c0,0-0.1,0-0.1,0v0c0.1,0,0.1,0,0.1,0.1
		c-0.2,0-0.3,0.1-0.5,0.3h-0.1l0-0.1h-0.1l-0.1,0.1H140v0c0.2-0.2,0.4-0.3,0.6-0.3c0.1-0.2,0.2-0.3,0.2-0.3l0.1,0
		c0.3-0.2,0.5-0.4,0.5-0.5c0.1,0,0.3-0.1,0.6-0.4c0.4-0.2,1.1-0.8,2.2-1.7c0.1-0.1,0.3-0.3,0.5-0.5c0-0.3-0.2-0.5-0.4-0.5l-1-0.2
		c-0.1-0.1-0.3-0.4-0.6-0.8c0,0-0.3-0.3-0.7-1c-0.2-0.1-0.4-0.3-0.4-0.7c0-0.9,0.1-1.4,0.4-1.4c0.1-0.2,0.4-0.3,0.7-0.3
		c0.1,0,0.4,0.2,0.9,0.5c0.2,0,0.3,0,0.3,0.1l0.1,0c0,0,0,0,0,0c0.8-0.1,1.3-0.2,1.7-0.5c0.4-0.2,0.7-0.5,0.8-0.7l0.1-0.4
		c0,0,0,0,0,0c0-0.2,0-0.3,0.1-0.3l0-0.1v-0.1c0,0,0,0,0,0c0,0,0,0,0,0c0-0.3,0-0.4,0.1-0.4l0-0.1v-0.2l0-0.2c0,0,0-0.1,0-0.1h0
		l0-0.1c0,0,0-0.1,0-0.2c0,0,0-0.1,0-0.1h0l0-0.1v-0.3c0,0,0,0,0,0l0-0.1c0,0,0,0,0-0.1c0,0,0,0,0,0l0-0.2v-0.4v0v0v-0.2v-0.3
		c0-0.1,0-0.1,0-0.1l0.1-0.8c-0.3-0.5-0.6-0.8-0.7-0.9c-0.1-0.2-0.1-0.3-0.1-0.3c0.1-0.3,0.1-0.5,0.2-0.5l0.1,0v0
		c0.1,0,0.2,0.1,0.3,0.2h0c0,0,0.1,0,0.1-0.1l-0.1-0.2c0,0,0-0.1,0.1-0.3v0h0c0,0,0,0.1-0.1,0.1l0,0.1c0,0,0,0.1-0.1,0.1
		c-0.2,0-0.3-0.1-0.3-0.1c0,0,0,0,0,0c0,0,0,0-0.1-0.1C145.9,31,146.2,30.8,146.8,30.7z M139.4,47.3c0,0,0.1,0,0.1,0v0
		c0,0-0.1,0-0.1,0C139.3,47.4,139.3,47.4,139.4,47.3L139.4,47.3z M139.9,47C139.9,47.1,140,47.1,139.9,47c0,0.1-0.1,0.2-0.3,0.3
		l0-0.1l0.1-0.1l0.1,0.1C139.9,47.1,139.9,47,139.9,47z M140.3,47.1L140.3,47.1c0,0.1-0.1,0.1-0.2,0.2l-0.1,0v0.1h-0.1v-0.1
		C139.9,47.2,140,47.2,140.3,47.1z M140.3,46.9L140.3,46.9C140.3,46.9,140.3,46.9,140.3,46.9C140.3,46.8,140.3,46.8,140.3,46.9z
		 M142.7,50.6L142.7,50.6c0,0,0,0.1-0.1,0.1L142.7,50.6C142.7,50.6,142.7,50.6,142.7,50.6z M143.8,64.3L143.8,64.3l0,0.1h0
		C143.8,64.4,143.8,64.3,143.8,64.3L143.8,64.3z M145.5,44.1L145.5,44.1c0,0.1,0,0.1-0.1,0.1L145.5,44.1
		C145.5,44.1,145.5,44.1,145.5,44.1z M146.5,31.4c0,0,0,0.1,0,0.1h0.1C146.6,31.4,146.6,31.4,146.5,31.4L146.5,31.4z M146.9,64
		L146.9,64L146.9,64l-0.1,0.1c0,0,0.1,0,0.1,0c0.1,0,0.2-0.1,0.2-0.1v0L146.9,64z M149.2,42.6c0,0-0.1,0.3-0.2,0.8c0,0,0,0.1,0,0.1
		s0,0.2-0.1,0.3l0.1,0.1c0,0.2-0.1,0.3-0.1,0.3l0,0.1c0,0.1-0.1,0.2-0.1,0.2l0,0.1c0,0.1-0.1,0.2-0.1,0.3c0,0.1,0.1,0.1,0.1,0.1
		l0,0.2c0,0,0,0,0,0c0.8-0.2,1.3-0.3,1.3-0.4c0-0.1,0.1-0.2,0.1-0.3C149.8,43.6,149.5,42.9,149.2,42.6z M149.3,41.9L149.3,41.9
		c0,0.3,0,0.5,0.2,0.7c0.2,0.3,0.3,0.5,0.4,0.5C149.6,42.4,149.4,42.1,149.3,41.9z M149.8,41.6L149.8,41.6l0,0.1c0,0,0,0,0,0l0,0.1
		l0,0.1h0.1c0.4,0.6,0.6,0.9,0.8,1.1v-0.1c-0.4-0.7-0.7-1.1-0.9-1.3L149.8,41.6z M150.6,51.8L150.6,51.8c-0.4,0-0.7,0.1-0.9,0.1v0
		h0.1c0,0,0.1,0,0.1,0v0c0.1,0,0.2-0.1,0.3-0.1v0c0,0,0.2,0,0.5-0.1v0l0.2,0c0,0,0.1,0,0.1,0h0c0,0,0.2,0,0.5,0.1c0,0,0.1,0,0.1,0
		c0.1,0,0.2,0,0.3,0c0-0.1-0.1-0.1-0.4-0.1l-0.1,0c-0.2,0-0.4,0-0.4-0.1C150.8,51.7,150.7,51.7,150.6,51.8z M149.9,43.2L149.9,43.2
		c0,0.1,0,0.1,0,0.1h0L149.9,43.2L149.9,43.2z M150.1,41.3c0,0.1,0.1,0.4,0.4,0.8c0,0,0,0,0,0l0.4,0.3h0c0,0.2,0.1,0.3,0.3,0.4
		c0,0.1,0.1,0.1,0.2,0.2c0,0,0,0.1,0.1,0.1v0.1v0c0.2,0,0.4,0.1,0.4,0.2h0.1c0,0,0.1,0,0.1,0c0,0.1,0.1,0.1,0.2,0.1
		c0,0-0.2-0.2-0.5-0.6c-0.6-0.7-1-1.2-1.2-1.3c-0.2-0.3-0.3-0.5-0.3-0.5C150.1,41.3,150.1,41.3,150.1,41.3z M150.7,43L150.7,43
		l0.1,0V43L150.7,43C150.7,43,150.7,43,150.7,43z M153.3,48.1L153.3,48.1c0.2,0.1,0.2,0.1,0.3,0.1v0.1h0
		C153.3,48.3,153.2,48.2,153.3,48.1C153.2,48.1,153.2,48.1,153.3,48.1z M154.6,54.2L154.6,54.2c0,0,0,0.1,0,0.1h-0.1v0
		C154.6,54.2,154.6,54.2,154.6,54.2z M155.5,47.4L155.5,47.4l0,0.1h0C155.5,47.5,155.5,47.5,155.5,47.4L155.5,47.4z"/>
	<path d="M181.3,56.4c0.1-0.1,0.2,0,0.4,0.1c0.4,0.3,0.6,0.5,0.6,0.6c0,0.1,0.1,0.1,0.2,0.2c0.1,0.1,0.3,0.1,0.4,0.3
		c0.2,0.1,0.3,0.2,0.3,0.2s0.1,0,0.2,0.1c0.1,0.1,0.2,0.1,0.4,0.2s0.3,0.1,0.4,0.2c0.5,0.2,0.9,0.3,1.1,0.3c0,0,0.1,0,0.2,0.1
		c0.4,0.2,0.8,0.3,1.4,0.4c0.5,0,1,0.1,1.5,0c0.5,0,0.9-0.1,1.2-0.2c0.4-0.1,0.6-0.2,0.6-0.2l0,0.1c0,0,0,0-0.1,0.1
		c-0.2,0.2-0.7,0.4-1.5,0.8c-0.1,0.1-0.4,0.2-0.7,0.3c-0.3,0.1-0.5,0.2-0.6,0.3c-0.1,0.1-0.1,0.2-0.1,0.3c0.1,0.1,0.1,0.3,0,0.4
		c-0.1,0.1-0.2,0.2-0.2,0.3c0,0.1-0.1,0.2-0.3,0.3c-0.1,0.1-0.3,0.2-0.3,0.3s-0.1,0.2-0.1,0.3c0,0.1,0.1,0.2,0.2,0.3
		c0.1,0.1,0.1,0.2,0.1,0.3c0,0.1,0,0.1-0.1,0.1c0,0-0.2-0.1-0.5-0.2c-0.3-0.1-0.4-0.2-0.5-0.2s-0.2,0-0.2,0.1
		c-0.1,0.1-0.3,0.1-0.5,0c-0.2-0.1-0.3-0.1-0.4-0.1c-0.5-0.1-0.8-0.2-1-0.3c-0.1-0.1-0.2-0.1-0.2-0.1c-0.1,0-0.5-0.3-1.1-0.8
		s-0.9-0.9-1-1.1c0-0.1-0.2-0.3-0.4-0.7c-0.4-0.7-0.5-1.2-0.3-1.4c0,0,0.1-0.1,0.1-0.2c0-0.1,0.1-0.2,0.2-0.2
		c0.1-0.1,0.2-0.2,0.2-0.2s0.1-0.1,0.2-0.3c0.1-0.1,0.2-0.2,0.2-0.3S181.2,56.5,181.3,56.4z M190.2,35.7c0.6,0,1,0,1.2,0
		c0.3,0.1,0.5,0.1,0.8,0.1c0.1,0,0.1,0.1,0.2,0.1c0.1,0.1,0.1,0.1,0.2,0.1s0.2,0.1,0.4,0.2c0.2,0.1,0.3,0.2,0.3,0.2
		c0.1,0,0.3,0.1,0.5,0.2c0.3,0.1,0.4,0.2,0.4,0.3c0.1,0.1,0.2,0.2,0.3,0.3c0.4,0.3,0.6,0.8,0.6,1.7c0,0.3,0,0.5-0.1,0.7
		c-0.1,0.1-0.1,0.3-0.1,0.6c0,0.2,0,0.6-0.1,1.1c0,0.5,0,0.7,0,0.8c0,0,0,0.2,0,0.6c-0.1,1-0.2,2.6-0.1,4.8c0,0.9,0,1.7-0.1,2.4
		c-0.1,0.7-0.2,1.3-0.3,1.7c-0.1,0.5-0.2,0.8-0.4,1c-0.2,0.2-0.4,0.4-0.7,0.5c-0.3,0.1-0.5,0.2-0.6,0.1c-0.1,0-0.2-0.2-0.4-0.5
		c-0.2-0.3-0.3-0.5-0.5-0.6s-0.5-0.2-0.8-0.3s-0.9-0.1-1.6-0.1c-0.5,0-0.9,0-1,0c-0.1,0-0.4-0.1-0.6-0.3c-0.1-0.1-0.2-0.1-0.3,0
		c0,0.1-0.1,0.1-0.1,0.1s-0.1,0-0.1,0.1c0,0.1-0.1,0.1-0.2,0.1c-0.1,0-0.2,0-0.2,0.1s-0.1,0.1-0.2,0.1c-0.1,0-0.1-0.1-0.1-0.1
		c0-0.1-0.1-0.1-0.2-0.1c-0.1,0-0.2,0-0.3-0.1l-0.3-0.1l-0.1,0.1c-0.1,0.2-0.3,0.1-0.4-0.1c-0.1-0.2-0.2-0.3-0.3-0.4
		c-0.1-0.1-0.2-0.3-0.3-0.6c-0.1-0.3-0.2-0.5-0.3-0.7c-0.1-0.2-0.1-0.4-0.1-0.5c0-0.2,0.1-1,0.1-2.4c0-1.4,0-2.2,0.1-2.4
		c0-0.2,0.1-0.5,0.1-1.1c0-0.6,0-0.9,0.1-1c0-0.1,0-0.3-0.1-0.5s-0.2-0.3-0.4-0.4c-0.1-0.1-0.3-0.3-0.5-0.8
		c-0.2-0.4-0.3-0.6-0.3-0.7s0.1-0.2,0.3-0.3c0.2,0,0.3-0.1,0.4-0.2c0.1-0.1,0.3-0.1,0.5,0c0.2,0.1,0.3,0.1,0.4,0.1
		c0.1,0,0.5-0.4,1.2-1.1c1.3-1.3,2.1-2,2.4-2.2C188.7,36,189.3,35.8,190.2,35.7z M190.5,45.5c0-0.1,0-0.1-0.1-0.2
		c-0.1-0.1-0.2-0.1-0.2-0.1c-0.2,0-0.5,0.1-0.8,0.4c-0.2,0.1-0.3,0.2-0.3,0.2c0,0-0.3,0.2-0.8,0.6c-0.2,0.1-0.3,0.3-0.3,0.4
		c0,0.1,0,0.4,0,0.8c0,0.2,0.1,0.3,0.1,0.3s0.2-0.1,0.4-0.3s0.3-0.3,0.3-0.3s0-0.1,0.1-0.1c0.1,0,0.3-0.2,0.6-0.6
		c0.3-0.4,0.6-0.6,0.7-0.8C190.4,45.7,190.5,45.6,190.5,45.5z M190.8,40.3c-0.3-0.1-0.6-0.1-0.8,0c-0.4,0.1-0.7,0.3-0.9,0.5
		c-0.1,0.1-0.2,0.2-0.3,0.2c-0.1,0-0.1,0.1-0.1,0.1c0,0.1-0.1,0.2-0.2,0.3c-0.3,0.3-0.4,0.8-0.4,1.4c0,0.3,0,0.4,0,0.5
		c0,0.1,0,0.1,0.1,0.1c0.1,0,0.2,0,0.3-0.1c0.2,0,0.4-0.1,0.6-0.2s0.4-0.1,0.5-0.2c0.2-0.2,0.5-0.3,0.8-0.2c0.1,0,0.3,0.1,0.5,0
		c0.2,0,0.3-0.1,0.3-0.1s0-0.4,0.1-1c0-0.5,0-0.8,0-0.9c0-0.1-0.1-0.2-0.2-0.3C191.1,40.4,191,40.4,190.8,40.3z M191.2,47.6
		c-0.1-0.1-0.2-0.1-0.3,0c-0.1,0-0.5,0.2-1,0.6c-0.5,0.3-0.8,0.6-0.8,0.7c0,0,0.2,0.3,0.6,0.7c0.2,0.1,0.4,0.2,0.6,0.2
		c0.3,0,0.5-0.1,0.6-0.1l0.2-0.1l0-0.4c0-0.2,0-0.5-0.1-0.8s0-0.5,0-0.5C191.3,47.7,191.3,47.6,191.2,47.6z M191.7,58.3
		c0.3-0.1,0.5-0.1,0.6,0c0.2,0.1,0.4,0.2,0.7,0.3c0.1,0,0.1,0,0.2,0c0,0,0.1,0,0.2,0.1c0.1,0,0.3,0.2,0.4,0.4
		c0.2,0.2,0.3,0.4,0.3,0.4c0,0.2,0.1,0.3,0.2,0.3l0.1,0c0,0-0.1,0.1-0.1,0.3c-0.1,0.2-0.2,0.2-0.3,0.3c-0.1,0-0.2,0.1-0.2,0.1
		c0,0-0.1,0-0.1,0c0,0-0.1,0-0.3,0.1c-0.2,0-0.3,0.1-0.4,0s-0.2-0.2-0.4-0.3c-0.4-0.3-0.6-0.7-0.6-1c0-0.1-0.2-0.3-0.3-0.5
		c-0.2-0.2-0.2-0.4,0-0.4C191.4,58.5,191.5,58.4,191.7,58.3z M202.4,33.8c0.9-0.1,1.8-0.1,2.7,0.1c0.7,0.1,1.1,0.2,1.2,0.3
		c0.1,0,0.1,0,0.2,0c0.1,0,0.3,0.1,0.7,0.3c0.3,0.1,0.5,0.3,0.8,0.5c0.3,0.2,0.4,0.4,0.4,0.5c0,0,0,0.1,0.1,0.1s0.2,0.1,0.3,0.3
		c0.1,0.2,0.3,0.4,0.4,0.6c0.2,0.6,0.2,1.1,0,1.5c-0.1,0.2-0.2,0.4-0.2,0.4c0,0.1,0,0.1-0.1,0.2c-0.1,0-0.2,0.2-0.3,0.6
		s-0.3,0.5-0.3,0.5c0,0-0.1,0.1-0.1,0.2c0,0.1-0.1,0.3-0.2,0.5s-0.1,0.3-0.1,0.3c0,0,0,0.1-0.1,0.2c-0.1,0.1-0.1,0.3-0.2,0.5
		c-0.1,0.2-0.2,0.4-0.2,0.4c0,0-0.2,0.3-0.4,0.7c-0.2,0.4-0.3,0.7-0.3,0.7c0,0,0,0.1-0.1,0.1s-0.2,0.1-0.2,0.3s-0.1,0.2-0.1,0.3
		s-0.2,0.3-0.5,0.8c-0.2,0.2-0.1,0.4,0.2,0.6c0.5,0.3,0.8,0.6,0.9,0.8c0.1,0.1,0.2,0.3,0.3,0.4c0.1,0.1,0.1,0.3,0.2,0.5
		c0,0.2,0,0.3-0.1,0.3c-0.2,0.1-0.3,0.2-0.3,0.4c0,0.1,0,0.2,0,0.2c0,0-0.1,0.2-0.3,0.5c-0.2,0.3-0.2,0.5-0.3,0.5
		c0,0-0.1,0.1-0.1,0.2c0,0.1-0.1,0.1-0.2,0.1c-0.1,0-0.1,0-0.1,0.1c0,0.1,0,0.1,0,0.2c0,0,0,0,0,0c0,0,0,0-0.1,0
		c-0.1,0-0.1,0-0.2,0.1c0,0.1-0.1,0.2-0.2,0.3c-0.1,0.2-0.2,0.3-0.2,0.3c0,0-0.1,0.1-0.2,0.2c-0.1,0.1-0.2,0.2-0.3,0.3
		c-0.1,0.1-0.1,0.1-0.1,0.1c0,0,0,0.1-0.1,0.1c-0.1,0.1-0.1,0.2,0.1,0.4c0.1,0.1,0.1,0.2,0.1,0.3c0,0.1-0.1,0.2-0.2,0.3
		s-0.2,0.2-0.3,0.2c-0.1,0-0.2,0-0.2,0.1c-0.1,0.1-0.1,0.1-0.1,0.1c0,0-0.1,0-0.3,0c-0.2,0-0.3,0.1-0.4,0.1c-0.4,0.1-0.7,0.2-1,0.5
		c-0.1,0.1-0.2,0.1-0.3,0.1s-0.1,0-0.2,0.1c-0.5,0.2-1.1,0.5-1.9,0.8c-0.4,0.1-0.7,0.2-1.1,0.3c-0.4,0.1-0.6,0.2-0.7,0.2
		c-0.1,0-0.4,0.1-0.9,0.3c-0.5,0.2-0.8,0.3-0.9,0.3c-0.1,0-0.2,0-0.3,0.1c-0.1,0.1-0.3,0.1-0.6,0.1h-0.3l0.4-0.1
		c0.3-0.1,0.6-0.2,0.9-0.3c0.3-0.1,0.7-0.3,1.1-0.5c0.4-0.2,0.6-0.3,0.6-0.3c0.1,0,0.4-0.1,1-0.4c0.1,0,0.1-0.1,0.1-0.2
		s0-0.1-0.1-0.2s-0.2-0.1-0.3-0.3c-0.1-0.1-0.2-0.3-0.2-0.4c0-0.2,0-0.3,0-0.3c0,0-0.2,0-0.3,0.1s-0.2,0.1-0.3,0.2
		c-0.1,0.3-0.2,0.3-0.4-0.2c0-0.1-0.1-0.1-0.1-0.2c-0.2-0.6-0.3-0.9-0.4-1c-0.1-0.1-0.1-0.5-0.1-1.2c0-0.7,0-1.2,0.1-1.5
		c0.1-0.2,0.2-0.6,0.5-1c0.3-0.5,0.5-0.8,0.6-1c0.1-0.1,0.2-0.3,0.3-0.6c0.1-0.3,0.2-0.5,0.3-0.6s0.1-0.2,0.1-0.3l0.1-0.1
		c0,0,0.1,0.1,0.1,0.3c0,0.1,0,0.3,0,0.6c0,0.3,0,0.5,0,0.7c0,0.1,0,0.2,0,0.3c0,0,0.1,0.1,0.1,0.1c0.2,0,0.7-0.3,1.5-0.8
		c0.7-0.4,1.2-0.7,1.7-0.8c0.1,0,0.2-0.1,0.2-0.1s0-0.2-0.2-0.5c-0.1-0.2-0.1-0.3-0.1-0.4c0-0.1-0.1-0.3-0.2-0.6
		c-0.2-0.3-0.2-0.5-0.2-0.6c0-0.1,0-0.1-0.1-0.2c0,0-0.1-0.2-0.1-0.4s0-0.4-0.1-0.6c-0.2-0.8-0.4-1.2-0.5-1.2c0,0-0.1,0-0.1,0.1
		c-0.3,0.5-0.5,0.9-0.6,1.1c0,0.1-0.3,0.4-0.6,0.8c-0.4,0.4-0.6,0.7-0.6,0.9c-0.1,0.3-0.2,0.4-0.3,0.4c-0.1-0.1-0.2-0.3-0.1-0.7
		c0-0.2,0.1-0.3,0.1-0.3c0-0.1,0.1-0.4,0.3-0.8c0.2-0.5,0.4-0.9,0.6-1.3c0.1-0.2,0.2-0.3,0.2-0.4c0,0,0.1-0.1,0.2-0.3
		c0.4-0.6,0.5-1,0.2-1.4c-0.1-0.1-0.4-0.1-0.9,0c-0.6,0.1-1,0.1-1.4,0c-0.2-0.1-0.3-0.2-0.5-0.4c-0.2-0.2-0.3-0.3-0.3-0.4
		c0-0.1-0.1-0.1-0.2-0.2c-0.1,0-0.3-0.1-0.4-0.3s-0.3-0.3-0.3-0.5c-0.1-0.3,0-0.5,0.3-0.6c0.1,0,0.2-0.1,0.2-0.1
		c0-0.1,0.3-0.2,0.8-0.3c0.3,0,0.6-0.1,0.9-0.3c0.3-0.1,0.5-0.2,0.5-0.2s0.1-0.1,0.3-0.2c0.5-0.3,1-0.6,1.5-0.9
		C201.1,34.1,201.7,33.9,202.4,33.8z M202,56.4c0.2,0,0.9,0,2,0c0.6,0,1.6,0,3.1,0.1c1.5,0,2.3,0,2.5,0.1c0.2,0,0.3,0.1,0.4,0.1
		c0.5,0.1,0.9,0.3,1.3,0.8c0.4,0.4,0.6,0.7,0.6,0.9c0,0.1,0.2,0.3,0.7,0.7c0.5,0.3,0.7,0.8,0.7,1.4c0,0.3,0,0.5,0.1,0.6
		c0,0.3,0,0.5-0.3,0.8c-0.1,0.1-0.2,0.3-0.3,0.5s-0.2,0.4-0.1,0.5c0.1,0.2,0.1,0.4,0,0.6c-0.1,0.2-0.1,0.4-0.2,0.4
		c-0.1,0-0.2-0.1-0.3-0.2c-0.1-0.2-0.2-0.3-0.3-0.3c-0.1,0-0.2,0-0.3,0.1c-0.1,0.1-0.2,0.1-0.2,0.2c0,0,0,0.1-0.1,0.1
		c0,0-0.1,0,0-0.1c0,0,0-0.1-0.1-0.1c-0.1,0-0.2,0-0.3,0c-0.1,0-0.2,0-0.4,0.1c-0.4,0.1-0.6,0-0.6-0.1c0,0,0-0.2-0.1-0.3
		c-0.1-0.3-0.4-0.4-0.8-0.3c-0.2,0.1-0.5,0.1-0.8,0c-0.3-0.1-0.6-0.2-0.9,0c-0.1,0.1-0.8,0.1-1.8,0.2c-1.1,0-1.7,0-1.8,0
		c-0.1,0-0.2,0-0.2,0c0,0-0.1,0-0.2,0c-0.1,0-0.1-0.1-0.1-0.1s0.1-0.1,0.3-0.1c0,0,0.1,0,0.1,0c0,0,0,0,0-0.1c0-0.1-0.1-0.1-0.3-0.1
		c-0.2,0-0.3,0-0.4,0c-0.1,0-0.2,0-0.3,0c-0.1,0-0.2,0-0.4,0c-0.1,0-0.2,0-0.3,0c0,0-0.1,0-0.2,0c-0.1,0-0.1,0-0.1,0c0,0,0,0,0-0.1
		c0,0,0,0,0.1-0.1c0.1,0,0.1-0.1,0-0.1c-0.1-0.1-0.1-0.1-0.1-0.2c0-0.1-0.1-0.1-0.2-0.1c-0.1,0-0.1,0.1-0.2,0.2
		c0,0.1-0.1,0.2-0.2,0.2c0,0,0-0.1-0.1-0.1c-0.1,0-0.1,0-0.2,0c0,0-0.1,0-0.3,0c-0.1,0-0.1-0.1-0.1-0.1s0.1-0.1,0.1-0.1
		c0-0.1-0.1-0.1-0.3-0.1c-0.2,0-0.3,0-0.3-0.1l0-0.1c0.1,0,0.4,0,0.9-0.1c0.5-0.1,0.8-0.1,0.8-0.2c0.1,0,0.2-0.1,0.3-0.1
		c0.1,0,0.1-0.1,0.1-0.1c0,0,0-0.1,0-0.3s0-0.2-0.1-0.3c-0.1,0-0.1,0-0.2,0c-0.1,0.1-0.2,0.1-0.3,0.1c-0.2,0-0.3,0-0.3-0.1
		c0,0-0.1-0.1-0.1-0.1c0,0-0.1,0.1-0.1,0.1c0,0,0,0.1,0,0.1c0,0-0.1,0-0.1,0c0,0-0.1-0.1-0.3-0.1c-0.2,0-0.3,0-0.3,0.1
		c0,0.1-0.1,0.1-0.1,0c0-0.1,0-0.1-0.1-0.1c-0.1,0-0.1,0-0.1,0.1c0,0,0,0.1-0.1,0.1c0,0-0.1,0-0.1,0c-0.1-0.1,0-0.2,0.1-0.2
		c0.1,0,0.3-0.1,0.5-0.2c0.3-0.1,0.7-0.2,1.2-0.3c1.2-0.3,1.8-0.6,2-0.9c0.1-0.2,0.1-0.4,0-0.6c-0.1-0.2-0.3-0.4-0.6-0.4
		c-0.6-0.2-1.3-0.2-2,0c-0.5,0.1-0.8,0.2-1,0.3c-0.2,0.1-0.5,0.4-0.9,0.8c-0.5,0.5-0.9,0.8-1,0.8c-0.2,0-0.4,0-0.6-0.1
		c-0.2-0.1-0.4-0.1-0.4-0.1c0,0-0.2,0-0.3-0.1c-0.2-0.1-0.5-0.4-0.9-1c-0.1-0.1-0.2-0.2-0.3-0.2s-0.1-0.1-0.1-0.1s0-0.1,0.1-0.1
		c0.1,0,0.2,0,0.4,0c0.2,0,0.5,0,0.9,0.1c0.4,0,0.8,0,1.1-0.1c0.6-0.2,1-0.4,1.4-0.8c0.6-0.7,1.2-1.1,1.8-1.3c0.2,0,0.3-0.1,0.4-0.2
		C201.6,56.5,201.8,56.4,202,56.4z M203.2,47.9c-0.1-0.1-0.2-0.2-0.3-0.2c-0.1,0-0.3-0.1-0.5-0.1s-0.4,0.1-0.6,0.2
		c-0.1,0.1-0.3,0.3-0.6,0.5c-0.4,0.4-0.7,0.5-0.9,0.5c-0.2,0-0.5-0.1-0.9-0.4c-0.1-0.1-0.3-0.1-0.4-0.1s-0.2,0-0.3,0.1
		c-0.1,0.1-0.2,0.1-0.2,0.2s0,0.3,0,0.7c0,0.4-0.1,0.8-0.2,1.1c-0.1,0.3-0.2,0.5-0.2,0.8c0,0.3,0,0.4-0.1,0.5c0,0.2,0,0.3,0.1,0.3
		c0,0,0.1-0.1,0.3-0.3c0.1-0.2,0.2-0.4,0.2-0.5c0-0.1,0-0.2,0-0.3s0.1-0.2,0.2-0.2c0.1,0,0.2,0,0.4-0.2c0.3-0.2,0.4-0.3,0.4-0.1
		c0,0,0.1,0.1,0.2,0.1c0.1,0,0.2,0,0.2,0c0,0,0.1,0,0.2,0c0.1,0,0.2,0.1,0.2,0.1c0,0,0.1,0.1,0.2,0.2c0.3,0.2,0.6,0.1,1-0.2
		c0.1-0.1,0.2-0.1,0.4-0.1c0.2,0,0.4-0.3,0.6-0.9c0.1-0.3,0.2-0.4,0.2-0.5c0,0,0-0.1,0-0.1c0-0.1,0-0.3,0.1-0.6
		C203.3,48.2,203.3,48,203.2,47.9z M204.5,36.3c-0.5-0.1-0.8-0.2-1.1-0.1s-0.6,0.4-1.1,0.8c-0.3,0.3-0.4,0.5-0.4,0.6
		c0,0.1-0.1,0.4-0.3,0.9c-0.3,0.6-0.4,1-0.4,1.1c0,0.1,0,0.4,0.1,0.7c0.3,1.1,0.7,1.9,1.2,2.3c0.3,0.3,0.6,0.4,0.6,0.2
		c0-0.1,0.1-0.1,0.2-0.2c0.1-0.1,0.3-0.3,0.5-0.8c0.3-0.7,0.6-1.8,0.8-3.1c0.1-0.4,0.1-0.7,0.2-0.9c0-0.2,0.1-0.5,0.1-0.8
		c0-0.3,0-0.5-0.1-0.6C204.7,36.4,204.6,36.4,204.5,36.3z M201.8,62.7c0.1,0,0.2,0,0.2,0s0.1,0,0.1,0.1c0,0,0,0.1,0,0.1
		s-0.1,0-0.2,0C201.9,62.8,201.8,62.7,201.8,62.7z M202.3,62c0,0-0.1-0.1-0.1-0.1c0,0,0,0-0.1,0.1c0,0,0,0.1,0,0.1
		c0,0,0.1,0.1,0.1,0C202.3,62.1,202.4,62,202.3,62z M202.7,62c0,0,0-0.1-0.1-0.1c0,0-0.1,0-0.1,0c0,0,0,0.1,0,0.1
		c0,0.1,0.1,0.1,0.1,0.1S202.7,62.1,202.7,62z M202.5,62.7c0,0,0.1-0.1,0.3-0.1s0.3,0,0.3,0.1c0,0,0,0.1-0.1,0.1c0,0-0.1,0-0.2,0
		C202.6,62.8,202.4,62.8,202.5,62.7z"/>
	<path d="M256.9,28.4h0.2l0.1,0.1h0.2l0.1-0.1h0.1c0.6,0.4,1,0.7,1.2,0.9c0,0.5,0,0.8,0,1.1v0.3c0,0.1,0,0.3,0,0.4l0,0.1
		c0,1.1-0.1,2.2-0.3,3.4c-0.1,0.4-0.1,0.6-0.2,0.6l0,0.3l0,0.3l0.1,0c0.2,0,0.3-0.1,0.4-0.2l0.2,0c0,0,0-0.1,0.1-0.1
		c0.1,0.1,0.5,0.2,1.1,0.3h0.1l0.1-0.1c0.5,0,0.7,0.1,0.7,0.2V36c-0.1,0.2-0.3,0.3-0.5,0.3c0,0.1-0.1,0.2-0.1,0.3l0.2,0.3l-0.1,0.2
		v0l0.3,0.4v0.1c-0.1,0.1-0.1,0.2-0.1,0.4c-0.2,0.1-0.3,0.2-0.3,0.2c0,0,0.1,0.1,0.4,0.1l0.1,0.1l-0.1,0.1c-0.2,0-0.3,0-0.4,0
		l-0.3,0.1l-0.2,0.3V39c0,0,0.1,0.1,0.2,0.2l-0.1,0h-0.1l-0.1-0.1h0c0,0-0.1,0-0.1,0.1v0.1l0,0.1l-0.1,0c0,0-0.1-0.1-0.3-0.3h-0.1
		c0,0-0.1,0-0.1,0.1l-0.3,0h-0.1c-0.1,0-0.2,0.1-0.3,0.3c-0.1,0-0.2,0.2-0.4,0.5c-1,0.6-1.7,1-1.9,1.4c0,0-0.1-0.1-0.2-0.2
		c-0.1,0-0.5,0.2-1,0.5c-0.3,0.1-0.6,0.2-0.8,0.2h-0.1c-0.5,0-1-0.3-1.5-0.8c-0.2,0-0.6-0.3-1.1-0.8c0,0-0.1,0-0.4,0
		c-0.4,0.5-0.8,1-1,1.7h-0.1v0c0-0.1,0.2-0.5,0.7-1.3c0.1-0.2,0.1-0.4,0.1-0.5l0-0.2c0-0.1,0.1-0.2,0.1-0.3c-0.1,0-0.1-0.1-0.2-0.1
		c-0.6,0.7-1.1,1.4-1.4,2c0,0-0.1,0-0.1,0.1c0,0,0,0,0,0c-0.1,0-0.2,0.3-0.4,0.8l-0.3,0.5c0,0,0,0.1-0.1,0.1l0,0.1
		c-0.1,0.1-0.3,0.5-0.5,1.1c-0.1,0-0.2,0.3-0.3,0.8c-0.4,1-0.8,2-1.2,3.1l0.1,0h0l0.1-0.1c0,0.2,0.1,0.4,0.2,0.4h0.1
		c0.2-0.2,0.4-0.4,0.4-0.7c0.1-0.2,0.2-0.5,0.3-0.8c0,0,0.1-0.1,0.1-0.4c0,0,0.1,0,0.1-0.1c0,0,0,0,0,0c0,0,0.3-0.5,0.6-1.5l0.2-0.3
		l0-0.2c0.1,0,0.2-0.3,0.4-0.8l0.1,0l0,0.1v0c-0.2,0.3-0.6,1.2-1.2,2.9c-0.1,0-0.2,0.3-0.3,0.8c0,0-0.1,0.1-0.1,0.4h0l0,0.1
		c0,0.1-0.1,0.3-0.2,0.5v0.1c0,0,0,0.1,0.1,0.1c0.1,0,0.4-0.1,1-0.3c0.5-0.2,1.1-0.6,1.8-1.3l1.5-1.5c1-1,1.6-1.5,1.9-1.5
		c0,0,0.2-0.2,0.6-0.4l0.1,0c0.2,0,0.4-0.1,0.5-0.3c0.7-0.2,1.1-0.4,1.2-0.4h0.1l0.1,0.1h0.1l0.1-0.1l0.1,0c0,0,0.1,0,0.1,0
		c0,0,0,0.1,0.1,0.1h0.1l0.1-0.1h0c0.9,0.4,1.5,0.8,1.7,1.1c0.2,0.2,0.6,0.6,1,1.3c0.2,0.2,0.5,0.4,1,0.5l0.1,0.1v0.1l0,0.4
		c0.2,0.1,0.4,0.6,0.4,1.5c0,0.3-0.1,0.6-0.1,0.9l0.1,0l0,0.4l0,0.2c-0.1,0.5-0.2,0.7-0.2,0.7l0,0.3V50c0,0.1-0.1,0.3-0.2,0.4v0.1
		l0,0.1l-0.1,0c0,0-0.1,0-0.1,0l-0.1,0.3v0c0,0,0.1,0.2,0.2,0.3c0.1,0,0.1,0,0.1,0.1v0.4l-0.4,0.4l0.1,0.1l-0.1,0l0,0.1c0,0,0,0,0,0
		l0,0.1v0c0,0,0,0,0,0c0,0.1,0.1,0.2,0.2,0.3v0.4c-0.1,0.1-0.1,0.1-0.1,0.2l-0.2,0.2l0,0.2l-0.1,0.1v0c0,0,0,0.1,0.1,0.1h0l0.1-0.1
		h0.1c0,0,0.1,0,0.1,0.1v0.1l-0.1,0.2c0,0,0.1,0,0.1,0.1v0l-0.1,0.1v0.1c0,0,0,0.1,0.1,0.1l0,0.2v0.3c-0.1,0.1-0.2,0.2-0.2,0.3
		c0,0,0.1,0,0.1,0.1v0l-0.1,0.1l-0.3,1.2v0c0,0.2,0,0.4,0,0.4c0,0,0,0.1,0,0.2h-0.1c0,0.1,0,0.3-0.1,0.4v0.1
		c-0.1,0.7-0.1,1.2-0.1,1.4l0,0.1c0,0-0.1,0-0.1,0.1v0l0.1,0.1c-0.1,0.4-0.3,0.6-0.4,0.6v0.3c0,0,0,0.1,0.1,0.1
		c0,0.1-0.1,0.3-0.3,0.5c0,0,0,0.2-0.1,0.4l0.2,0.1v0c0,0-0.1,0.2-0.1,0.4l-0.1,0.1c0,0.1,0,0.2,0,0.3c0,0,0,0.1,0,0.1
		c0,0,0.1,0,0.1,0.1c0,0.1-0.1,0.2-0.2,0.3v0l0.2,0.1v0.2c-0.2,0.1-0.3,0.2-0.3,0.3v0.1c0,0.1,0.1,0.2,0.2,0.4
		c0,0.1-0.1,0.2-0.2,0.5c0,0-0.1,0-0.1,0.1v0.1l0.1,0.1c-0.2,0.1-0.3,0.2-0.3,0.2c0,0.2-0.1,0.3-0.2,0.4c0,0,0,0.1,0,0.1
		c0.3,0.1,0.4,0.2,0.4,0.2c0,0.1-0.1,0.1-0.4,0.1c0,0.2,0.1,0.3,0.4,0.3v0l0,0.2h0.1l0.1-0.1h0.1v0l-0.2,0.1v0c0,0,0,0.1,0,0.1
		c0,0-0.1,0.1-0.1,0.3c-0.1,0-0.1,0-0.2,0.1c-0.1-0.2-0.2-0.3-0.3-0.3h0c-0.1,0.2-0.2,0.3-0.2,0.4h0l-0.1-0.1c0-0.1,0.1-0.1,0.1-0.1
		c-0.1-0.3-0.1-0.5-0.2-0.5c0,0-0.1,0-0.1,0.1c0,0,0,0.1,0,0.1l-0.1,0l-0.2,0l0,0.1v0c0,0,0,0.1,0.1,0.1h0.1c0,0,0,0.1,0.1,0.1
		c0,0,0,0.1-0.1,0.1h-0.1c0-0.1,0-0.1-0.1-0.1h-0.1l-0.1,0.2h-0.1l0-0.3l-0.1,0h-0.1v0.2l-0.1,0.1l0,0.1c0,0,0,0.1,0,0.1
		c0,0,0.1,0,0.1,0.1v0l-0.1,0.1l-0.2,0c-0.3,0-0.4,0.1-0.4,0.4c0,0.1,0,0.2,0,0.3c0,0-0.1,0.2-0.2,0.5c0,0,0,0.1,0,0.1
		c0,0.5-0.1,0.7-0.3,0.7h0c0,0-0.1-0.2-0.1-0.5l0-0.1c-0.1-0.4-0.1-0.7-0.1-0.8l0-0.2v0c-0.1-0.3-0.1-0.5-0.1-0.7l0.1-0.2
		c0,0,0-0.1-0.1-0.1c0,0-0.2,0-0.3,0.1V68l0.1,0.1v0.1l-0.1,0.1l0.1,0.1v0c0,0,0,0.1-0.1,0.1l-0.1-0.1h0c0,0-0.1,0-0.1,0.1v0.1
		l0.1,0.1v0c0,0-0.1,0.2-0.1,0.4c-0.1,0-0.1,0-0.2,0.1c0,0-0.1-0.1-0.1-0.2l0-0.2c0-0.1-0.1-0.1-0.1-0.2c0,0,0.1,0,0.1-0.1v0
		c-0.1,0-0.1-0.3-0.2-0.9c0,0,0-0.1,0-0.1c-0.1-0.1-0.2-0.2-0.2-0.4l0-0.2c0,0-0.1,0-0.1-0.1v0h0.1c0,0.1,0.1,0.1,0.1,0.1h0.1
		c0.3-0.2,0.5-0.4,0.5-0.4v0c0-0.1,0-0.2,0-0.2l0-0.2c0,0-0.1,0-0.1-0.1c0.1-0.1,0.1-0.2,0.1-0.5v-0.2l-0.1-0.1
		c0.1-0.1,0.1-0.2,0.1-0.4c0,0,0-0.1,0-0.1c0,0,0.1,0,0.1-0.1v0c0-0.1,0-0.2-0.1-0.3h-0.1c0,0-0.1,0-0.1,0.1c0,0,0,0.1,0,0.1h0
		l-0.2-0.1l0-0.1v-0.1c-0.1,0-0.1,0-0.1-0.1v0L255,64v0l-0.1-0.1c0-0.1,0.1-0.2,0.2-0.4v0l0-0.1c0.1,0,0.2-0.2,0.2-0.5
		c0.1-0.1,0.2-0.1,0.3-0.2c0-0.1,0-0.2,0.1-0.3v-0.3c0,0,0-0.1-0.1-0.1c0-0.1,0-0.2,0.1-0.3v-0.1l-0.1-0.1c0,0,0-0.1,0.1-0.1h0.2
		v-0.1c0,0-0.1-0.1-0.2-0.2l0.1-0.2v0l-0.1-0.1v0c0.1-0.1,0.2-0.3,0.2-0.6h0c-0.1,0-0.2,0.1-0.2,0.2c0,0-0.1,0-0.1-0.1v0
		c0.2-0.1,0.3-0.3,0.3-0.4v-0.2l-0.1-0.1v-0.1c0,0,0-0.1,0.1-0.1c0-0.1-0.1-0.2-0.2-0.2l0-0.1c0-0.1-0.1-0.2-0.1-0.2l0-0.1v-0.1
		c-0.1,0-0.1,0-0.1-0.1c0.1-0.3,0.1-0.7,0.1-1.4v-0.2c0,0,0-0.1,0-0.1c0,0,0,0,0,0c0-0.6,0-1,0-1.2c0-1.2,0-2.5,0.1-3.7
		c0,0,0-0.1,0-0.1l0-0.1l0-0.2c0,0,0-0.1,0-0.1l0-0.2v-0.2c0-0.1,0-0.1,0-0.2l0-0.2v-0.1c0-0.8,0-1.3-0.1-1.6c0,0,0-0.1,0-0.1
		c-0.1-0.4-0.2-0.6-0.3-0.6c-0.1-0.1-0.2-0.1-0.4-0.1c-0.3,0-0.6,0.2-0.9,0.5c-0.3,0.7-0.7,1.1-1.1,1.3c-0.1,0.2-0.4,0.4-0.9,0.7
		c0,0-0.1,0.1-0.4,0.2c-0.1,0.1-0.3,0.2-0.6,0.3c0,0-0.1,0-0.1,0c-0.1,0.1-0.5,0.2-1,0.2c-0.3,0-0.5-0.1-0.7-0.2
		c-0.8-0.4-1.3-0.7-1.4-0.8c-0.1-0.1-0.2-0.2-0.4-0.3l-0.2,0.4l0,0.1c0,0,0,0,0,0l0,0.1c-0.1,0.2-0.2,0.6-0.3,1.2
		c0,0-0.1,0.1-0.1,0.2v0.1c0,0.2-0.1,0.6-0.2,1.3c0,0.2,0,0.4,0,0.5l0,0.3c0,0,0,0,0,0l0,0.1c0,0.7,0,1.2,0,1.3l-0.1,0.1
		c0,0.3,0.1,0.6,0.3,0.9c0.1,0.3,0.2,0.9,0.3,1.9c0,0.1-0.1,0.2-0.1,0.2v0.3c0,0,0,0.1-0.1,0.1c0-0.2-0.1-0.3-0.3-0.5
		c0-0.1-0.2-0.2-0.5-0.2c0-0.1-0.1-0.2-0.2-0.3h-0.1c0,0.1,0,0.2-0.1,0.2h-0.1l-0.1-0.1c0,0-0.1,0-0.1,0c0,0-0.1,0-0.1,0l-0.2,0
		c0,0-0.1-0.1-0.4-0.1l-0.1,0.1l-0.1,0h-0.1l-0.1,0.1h-0.1c-0.1-0.1-0.2-0.2-0.3-0.2c-0.1,0.4-0.2,0.6-0.3,0.6h-0.1
		c-0.2-0.2-0.3-0.6-0.3-1c0,0-0.1-0.1-0.3-0.3h0l-0.1,0.1h0c-0.1,0-0.1-0.2-0.1-0.5h0c-0.2,0-0.3,0.1-0.3,0.3h-0.1
		c0,0-0.1-0.1-0.1-0.1H242l-0.2,0.1c-0.1-0.1-0.2-0.5-0.5-1.2c-0.2-0.1-0.4-0.6-0.6-1.4c-0.1,0-0.1-0.1-0.2-0.3l-0.1,0l0-0.2
		c0,0,0-0.1-0.1-0.3c0,0,0.1-0.2,0.2-0.5c0.2-0.1,0.3-0.3,0.3-0.7h0.1v0.2c0.1,0.2,0.2,0.3,0.2,0.3h0c0,0,0.1-0.1,0.1-0.3
		c0-0.3,0-1,0.1-2.1l0.1,0l0-0.1v-0.7l0.1-0.1l0-0.4c0,0,0.1,0,0.1-0.1c0-0.2,0-0.5,0.1-1l-0.1,0h0c-0.1,0-0.1,0.1-0.1,0.4
		c0,0,0,0.1,0,0.1c-0.1,0-0.1,0.1-0.1,0.1v0.1l0,0.4l-0.1,0.1l0-0.1c0.1-1.3,0.3-2.1,0.3-2.4h0l0-0.1v-0.1l0.1-0.1l0-0.3
		c0,0,0.1-0.4,0.2-1.3c0.3-1.9,0.4-2.9,0.5-2.9l0-0.1c0,0,0.1-0.1,0.1-0.1c0,0,0-0.1,0-0.1c0.1-0.1,0.2-0.5,0.3-1.2
		c0.3-0.8,0.4-1.3,0.5-1.5c0,0,0.1-0.2,0.2-0.6c0.6-1.3,1-2.1,1.3-2.4c0.1-0.1,0.2-0.3,0.3-0.5c0.6-0.9,1.1-1.6,1.7-2.2
		c0-0.1,0.2-0.2,0.5-0.4c0.6-0.8,1.3-1.2,2.1-1.2c0.5,0,0.9,0.3,1.1,0.8c0,0,0.1,0,0.1,0.1c0,0,0,0.1-0.1,0.1l0.1,0.1
		c0,0.1-0.2,0.4-0.5,0.7c-0.1-0.1-0.3-0.1-0.3-0.1h-0.1c0,0-0.1,0.1-0.3,0.4c0,1-0.1,1.7-0.3,1.9l0,0.1c-0.1,0.2-0.3,0.7-0.5,1.7
		c0,0-0.1,0.2-0.1,0.6c0,0-0.1,0-0.1,0.1l0,0.2c0,0.1,0,0.2-0.1,0.3c0,0,0,0.1,0,0.1c-0.1,0.1-0.2,0.5-0.3,1
		c-0.1,0.6-0.2,1.1-0.3,1.5h0l0,0.2c-0.2,0.7-0.3,1.3-0.3,1.8c0,0.2-0.1,0.4-0.1,0.4c0,0,0,0.1,0,0.1l-0.1,0.1c0,0.5,0,0.9-0.1,1.2
		c0,0.1,0.1,0.2,0.1,0.2h0.2c0.1,0,0.4-0.5,0.8-1.4c0.2-0.5,0.5-1,0.9-1.6c0.5-1,1-1.7,1.3-2.2v-0.1c0-0.1,0-0.2,0-0.3l0-0.2l0-0.2
		c0.1-0.6,0.3-0.8,0.4-0.8c0,0,0.2-0.1,0.4-0.2l0.4,0c0.1,0,0.2,0,0.4,0.1c0.2,0,0.3-0.1,0.4-0.1c0,0,0.1,0.1,0.4,0.1
		c0.4,0,1.2-0.3,2.5-0.8c0.6-0.2,1-0.3,1.2-0.5c0,0,0,0,0,0c0-0.1,0.2-0.2,0.5-0.5c0.3-1.6,0.5-3.3,0.7-5.1c0,0,0,0,0,0
		c0-0.1,0-0.1,0-0.1l0-0.2v-0.4c0,0,0-0.1,0-0.1c0,0,0-0.1,0-0.1c0,0-0.1,0-0.1-0.1v-0.1c0-0.3-0.2-0.7-0.5-1.1c0,0,0-0.1-0.1-0.2v0
		C256.8,28.5,256.9,28.4,256.9,28.4z M241,49.2L241,49.2l0.1,0.2h0c0,0-0.1,0-0.1-0.1V49.2z M241.5,47.4L241.5,47.4
		c0,0.1,0,0.1,0.1,0.1h0c0,0,0.1,0,0.1-0.1v0c0,0,0-0.1-0.1-0.1L241.5,47.4C241.5,47.4,241.5,47.4,241.5,47.4z M241.5,46.9v0.3
		c0,0,0,0.1,0.1,0.1h0c0,0,0.1,0,0.1-0.1v-0.3c0,0,0-0.1-0.1-0.1L241.5,46.9C241.5,46.9,241.5,46.9,241.5,46.9z M250,42.2L250,42.2
		c-0.1,0.4-0.2,0.7-0.4,0.9c0,0,0,0,0,0C249.6,42.8,249.8,42.5,250,42.2z M250.2,41.8L250.2,41.8L250.2,41.8c0,0.1,0,0.1,0,0.1h0
		L250.2,41.8C250.1,41.8,250.1,41.8,250.2,41.8z M254.7,65.9c0,0,0.1,0,0.1,0.1l-0.1,0.1c0,0,0,0.1,0.1,0.1h0.1l0.1-0.1h0.1
		c0,0,0.1,0,0.1,0.1c-0.2,0.1-0.3,0.3-0.3,0.4c-0.1,0.1-0.2,0.3-0.3,0.3l-0.1,0l0-0.2v-0.2c0-0.1,0-0.2,0-0.3
		C254.6,66,254.7,65.9,254.7,65.9z M255.5,61.5L255.5,61.5c0,0.1,0,0.2-0.1,0.2c0,0-0.1,0-0.1-0.1v0
		C255.2,61.6,255.3,61.5,255.5,61.5z M255.2,68L255.2,68c0,0.1,0,0.1,0.1,0.1h0c0,0,0.1,0,0.1-0.1v0c0,0,0-0.1-0.1-0.1L255.2,68
		C255.3,68,255.2,68,255.2,68z M255.5,59.5L255.5,59.5L255.5,59.5c0,0.1,0,0.1,0,0.1h0L255.5,59.5C255.4,59.6,255.4,59.5,255.5,59.5
		z M255.6,58.2L255.6,58.2c0,0.1,0,0.1,0.1,0.1h0.1l0.1,0c0-0.1-0.1-0.2-0.1-0.2C255.7,58.1,255.7,58.1,255.6,58.2z M257.1,68.5
		L257.1,68.5l0,0.1L257.1,68.5L257.1,68.5z M257.3,66.2L257.3,66.2l0,0.1l0.1,0.1c-0.1,0.1-0.1,0.2-0.1,0.3l0.1,0h0
		c0.2-0.2,0.3-0.3,0.3-0.4v-0.1C257.6,66.2,257.5,66.2,257.3,66.2z M257.4,67.9L257.4,67.9c0.1,0,0.1,0.1,0.2,0.3c0,0,0,0.1-0.1,0.1
		h-0.1c0,0-0.1,0-0.1-0.1L257.4,67.9z M257.6,66.6L257.6,66.6c0,0.1,0,0.1,0.1,0.1h0.1c0,0,0.1,0,0.1-0.1v-0.1c0,0,0-0.1-0.1-0.1
		C257.7,66.6,257.6,66.6,257.6,66.6z M258.2,63.5L258.2,63.5l0.1,0.2v0.1c-0.1,0.1-0.1,0.2-0.1,0.3c0,0,0,0.1,0,0.1
		c0,0-0.1,0.1-0.1,0.3c0,0,0.1,0,0.1,0.1c0,0.2-0.1,0.3-0.3,0.3v0.1l0.3,0.3c-0.1,0-0.2,0.1-0.3,0.1c0,0.1,0.1,0.2,0.1,0.2l0,0.2v0
		l0.1,0.1c0,0-0.1,0.1-0.3,0.2v0.1c0,0,0.1,0.1,0.3,0.2h0c0.2-0.1,0.4-0.1,0.4-0.2v0l-0.2-0.1l0.2-1.2c0,0-0.1,0-0.1,0v-0.1
		c0.1,0,0.2-0.2,0.3-0.7l0-0.1l0-0.2v0l-0.1-0.1c0,0,0.1-0.1,0.2-0.3v-0.2c0,0,0-0.1-0.1-0.1h-0.1C258.4,63.1,258.3,63.2,258.2,63.5
		C258.2,63.5,258.2,63.5,258.2,63.5z M257.9,68.5h0.1v0c0,0,0,0.1-0.1,0.1L257.9,68.5L257.9,68.5z M258,68.3L258,68.3l0,0.1
		L258,68.3L258,68.3z M258.1,62.4c0,0.2,0.1,0.3,0.1,0.3h0c0,0,0.1,0,0.1-0.1v-0.2c0,0,0-0.1-0.1-0.1L258.1,62.4
		C258.2,62.4,258.1,62.4,258.1,62.4z M258.4,62.9L258.4,62.9l0.1,0c0.1,0,0.2-0.3,0.2-1l-0.1,0C258.5,62.2,258.4,62.5,258.4,62.9z"
		/>
</g>
</svg>
