<?xml version="1.0" encoding="utf-8"?>
<!-- Generator: Adobe Illustrator 21.0.0, SVG Export Plug-In . SVG Version: 6.00 Build 0)  -->
<svg version="1.1" id="图层_1" xmlns="http://www.w3.org/2000/svg" xmlns:xlink="http://www.w3.org/1999/xlink" x="0px" y="0px"
	 viewBox="0 0 226.5 36.5" style="enable-background:new 0 0 226.5 36.5;" xml:space="preserve">
<style type="text/css">
	.st0{fill:#F4E21E;}
	.st1{opacity:0.76;}
</style>
<g>
	<g>
		<path class="st0" d="M35.8,24.3c27-1.3,53.9-3.3,80.7-5.9c6.9-0.7,5.3-8.9-1.7-8.4c-12.3,0.7-23.3,3.8-32.9,9.2
			c-4.3,2.4-0.7,7.3,4.4,7.3c34.8-0.1,69.6-0.4,104.4-1c8-0.1,8.1-8.7,0-8.6c-34.8,0.6-69.6,0.9-104.4,1c1.5,2.5,2.9,4.9,4.4,7.3
			c6.8-3.8,15.3-6.1,24-6.7c-0.6-2.8-1.1-5.6-1.7-8.4c-25.7,2.5-51.5,4.4-77.3,5.6C27.8,16.1,27.7,24.7,35.8,24.3L35.8,24.3z"/>
	</g>
</g>
<g class="st1">
	<path d="M25.5,22.1c0,0.7,0.1,1.3,0.1,1.8c-1.5,1-2.7,1.9-3.8,2.7l-0.9-1.4c0.5-0.4,0.7-1,0.7-1.8v-7.8h-2.5v-1.5h4.1v9.6
		C24,23.2,24.7,22.7,25.5,22.1z M21.5,7.7c1.1,1.1,2.1,2.1,3,3.1L23,12c-0.9-1.2-1.9-2.3-2.8-3.2L21.5,7.7z M24.5,14.2h6.6v-1.4
		h-5.3v-1.3h5.3v-1.4h-6V8.9h6V7h1.7v1.8H39v1.3h-6.3v1.4h5.7v1.3h-5.7v1.4h6.7v1.3h-15V14.2z M27.9,27.2h-1.6V16.8h11.4v8
		c0,1.5-0.8,2.2-2.3,2.2c-0.8,0-1.8,0-3.1,0c-0.1-0.4-0.2-1-0.3-1.6c1.2,0.1,2.2,0.1,2.9,0.1c0.8,0,1.2-0.4,1.2-1.1v-1h-8.2V27.2z
		 M36.1,18.1h-8.2v1.4h8.2V18.1z M27.9,22.2h8.2v-1.4h-8.2V22.2z"/>
	<path d="M48.6,25.2l4.3,0l7.5-0.1c-0.2,0.5-0.3,1-0.6,1.6l-7.1,0.1l-4.3-0.1c-2.5-0.1-4.2-0.9-5.1-2.5c-0.6,0.5-1.4,1.4-2.5,2.7
		L40,25.3c1.2-1.2,2.1-2,2.6-2.5v-6.9h-2.4v-1.5h4v8.8C45,24.5,46.5,25.2,48.6,25.2z M42.6,7.5c0.7,0.8,1.7,2.1,2.9,3.9l-1.5,1
		c-1.1-1.7-2-3.1-2.7-4L42.6,7.5z M45.5,15.5h6.8v-3.4h-3.5c-0.4,1-0.8,2-1.3,2.8c-0.4-0.2-0.8-0.5-1.4-0.7c1.1-1.9,1.9-4,2.4-6.2
		l1.6,0.3c-0.2,0.9-0.5,1.7-0.7,2.4h2.9V7.1h1.6v3.6h5.4v1.4h-5.4v3.4h6.3V17h-4.8v4.4c0,0.7,0.3,1.1,0.9,1.1h1c0.6,0,1-0.3,1.1-1
		c0.1-0.5,0.2-1.3,0.2-2.4c0.4,0.2,0.9,0.4,1.6,0.6c-0.1,0.9-0.2,1.7-0.3,2.4c-0.2,1.2-1,1.8-2.3,1.8H56c-1.4,0-2.1-0.8-2.1-2.3V17
		h-2.8c0,0.6,0,1.2-0.1,1.7c-0.1,2.6-1.5,4.5-4.3,5.7c-0.3-0.4-0.6-0.9-1-1.4c2.4-1,3.7-2.4,3.8-4.3c0-0.4,0.1-1,0.1-1.7h-4V15.5z"
		/>
	<path d="M61,18.2c1-0.2,2-0.5,2.9-0.7v-4.9h-2.7v-1.4h2.7v-4h1.5v4h2.6v1.4h-2.6v4.5c0.7-0.2,1.5-0.4,2.2-0.6
		c0,0.6,0.1,1.1,0.1,1.5c-0.8,0.2-1.6,0.4-2.3,0.6v6.1c0,1.5-0.7,2.3-2.1,2.3c-0.3,0-1,0-1.9,0c-0.1-0.6-0.1-1.1-0.3-1.7
		c0.8,0.1,1.4,0.2,1.8,0.2c0.6,0,0.9-0.4,0.9-1.1v-5.4c-1,0.3-1.9,0.5-2.7,0.8L61,18.2z M67.3,22.2h6.4v-2.4h-5.1v-1.5h5.1V16h1.6
		v2.3h5.3v1.5h-5.3v2.4h6.2v1.5h-6.2v3.5h-1.6v-3.5h-6.4V22.2z M68.4,9.5V8.1h11.7v1.4c-0.9,1.6-2.2,3-4,4.2
		c1.5,0.6,3.3,1.1,5.4,1.3c-0.3,0.6-0.6,1.2-0.9,1.6c-2.4-0.5-4.4-1.1-6.1-2c-1.7,0.9-3.8,1.7-6.2,2.3c-0.2-0.5-0.4-1-0.7-1.5
		c2-0.5,3.8-1,5.3-1.7c-1.6-1.1-2.7-2.5-3.4-4.1H68.4z M78.3,9.5h-7.1c0.7,1.4,1.9,2.5,3.4,3.4C76.2,12,77.5,10.8,78.3,9.5z"/>
	<path d="M82.1,15.7h20.4v1.8H82.1V15.7z"/>
	<path d="M114.6,7.6l-0.3,0.5c2.2,3.7,5.3,6.3,9.2,7.8c-0.4,0.7-0.8,1.3-1.1,1.8c-4-2.1-7.1-4.8-9.1-8.1c-2,3.2-5.1,6-9.2,8.4
		c-0.3-0.5-0.6-1-1-1.6c4.3-2.4,7.4-5.3,9.5-8.8H114.6z M112.3,14.6h1.9v12.7h-1.9V14.6z"/>
	<path d="M124,19.9c1.2-2,2.1-4.3,2.8-6.9h-2.6v-1.4h2.9V7.2h1.4v4.6h2.7v1.4h-2.7v2.7l0.8-0.7c0.8,0.8,1.5,1.7,2.2,2.5l-1.1,0.9
		c-0.6-0.9-1.2-1.7-1.8-2.4v11.1h-1.4V16.1c-0.7,2.5-1.5,4.4-2.4,5.7C124.5,21.2,124.2,20.6,124,19.9z M130.5,21.3h5.9
		c0.1-0.5,0.1-1.1,0.2-1.8h-3.2v0.6H132v-7.4h11v7.4h-1.5v-0.6H138c0,0.8-0.1,1.4-0.2,1.8h6.4v1.3h-5.7c1.5,1.7,3.4,2.7,5.9,3
		c-0.4,0.5-0.7,1-1,1.5c-2.6-0.8-4.7-2.2-6.2-4.2c-1,2-3.2,3.4-6.7,4.3c-0.2-0.5-0.5-1-0.8-1.4c3.2-0.7,5.3-1.8,6.2-3.3h-5.5V21.3z
		 M139.2,7.2h1.4v2h3.5v1.3h-3.5v1.7h-1.4v-1.7h-3.7v1.7h-1.4v-1.7h-3.2V9.1h3.2v-2h1.4v2h3.7V7.2z M141.4,13.9h-8v1.5h8V13.9z
		 M133.4,18.2h8v-1.5h-8V18.2z"/>
	<path d="M145,19.3c1.3-0.4,2.5-0.9,3.8-1.3v-4.8h-1.6c-0.3,1.3-0.6,2.5-1,3.6c-0.4-0.3-0.9-0.6-1.4-0.9c0.8-1.8,1.3-4.1,1.5-6.7
		l1.5,0.2c-0.1,0.9-0.2,1.7-0.3,2.5h1.4V7.2h1.5v4.6h2.6v1.4h-2.6v4.3c0.8-0.3,1.5-0.5,2.3-0.8c0.1,0.6,0.1,1.1,0.2,1.6
		c-0.8,0.3-1.6,0.6-2.5,0.9v8.2h-1.5v-7.6c-1.1,0.4-2.3,0.9-3.5,1.3L145,19.3z M152.2,14.4h5.6v-3H153V10h4.8V7.1h1.6V10h5v1.4h-5v3
		h5.9v1.4h-13.2V14.4z M152.6,18.6h8.2v-2.2h1.6v2.2h3v1.4h-3v4.5c0,1.7-0.9,2.6-2.6,2.6c-0.6,0-1.5,0-2.8,0
		c-0.1-0.5-0.2-1.1-0.3-1.8c1.1,0.1,2,0.2,2.8,0.2c0.9,0,1.3-0.5,1.3-1.4v-4h-8.2V18.6z M153.8,21.4l1.2-0.9c1,1.1,1.8,2.1,2.5,3
		l-1.3,1C155.4,23.3,154.6,22.3,153.8,21.4z"/>
	<path d="M166,19.9c1.2-2,2.1-4.3,2.8-6.9h-2.6v-1.4h2.9V7.2h1.4v4.6h2.7v1.4h-2.7v2.7l0.8-0.7c0.8,0.8,1.5,1.7,2.2,2.5l-1.1,0.9
		c-0.6-0.9-1.2-1.7-1.8-2.4v11.1h-1.4V16.1c-0.7,2.5-1.5,4.4-2.4,5.7C166.5,21.2,166.2,20.6,166,19.9z M172.5,21.3h5.9
		c0.1-0.5,0.1-1.1,0.2-1.8h-3.2v0.6H174v-7.4h11v7.4h-1.5v-0.6H180c0,0.8-0.1,1.4-0.2,1.8h6.4v1.3h-5.7c1.5,1.7,3.4,2.7,5.9,3
		c-0.4,0.5-0.7,1-1,1.5c-2.6-0.8-4.7-2.2-6.2-4.2c-1,2-3.2,3.4-6.7,4.3c-0.2-0.5-0.5-1-0.8-1.4c3.2-0.7,5.3-1.8,6.2-3.3h-5.5V21.3z
		 M181.2,7.2h1.4v2h3.5v1.3h-3.5v1.7h-1.4v-1.7h-3.7v1.7h-1.4v-1.7h-3.2V9.1h3.2v-2h1.4v2h3.7V7.2z M183.4,13.9h-8v1.5h8V13.9z
		 M175.4,18.2h8v-1.5h-8V18.2z"/>
	<path d="M187,20c1.5-2.3,2.6-4.7,3.1-7.3h-3v-1.4h3.1v-4h1.4v4h2.8v1.4h-2.8v3.1l0.7-0.7c1,0.9,1.8,1.7,2.5,2.4l-1.1,1.1
		c-0.7-0.8-1.4-1.5-2.1-2.3v10.9h-1.4v-11c-0.7,2.4-1.6,4.2-2.6,5.6C187.5,21.2,187.3,20.6,187,20z M195.2,8.8
		c3.1,0,6.9-0.3,11.4-0.9l0.6,1.6c-4,0.4-7.5,0.6-10.5,0.7v3.3h9.6v1.2c-0.6,3.1-1.7,5.6-3.3,7.6c1.3,1.3,2.8,2.3,4.6,3.2
		c-0.6,0.6-1,1.1-1.3,1.5c-1.4-0.9-2.9-2.1-4.3-3.6c-1.3,1.3-3.1,2.6-5.4,3.8c-0.3-0.4-0.6-0.9-1.1-1.4c2.3-1,4.1-2.2,5.4-3.5
		c-1.6-1.9-2.5-4.4-3-7.5h-1.3v3.4c0,3.8-1.1,6.8-3.3,9.1c-0.3-0.5-0.7-0.9-1.1-1.3c1.9-1.9,2.9-4.6,2.9-8V8.8z M204.6,14.9h-5.3
		c0.4,2.6,1.2,4.7,2.6,6.4C203.3,19.7,204.1,17.6,204.6,14.9z"/>
</g>
</svg>
