<?xml version="1.0" encoding="utf-8"?>
<!-- Generator: Adobe Illustrator 21.0.0, SVG Export Plug-In . SVG Version: 6.00 Build 0)  -->
<svg version="1.1" id="图层_1" xmlns="http://www.w3.org/2000/svg" xmlns:xlink="http://www.w3.org/1999/xlink" x="0px" y="0px"
	 viewBox="0 0 226.5 36.5" style="enable-background:new 0 0 226.5 36.5;" xml:space="preserve">
<style type="text/css">
	.st0{fill:#F4E21E;}
	.st1{fill:none;}
	.st2{enable-background:new    ;}
</style>
<g>
	<g>
		<path class="st0" d="M35.8,24.3c27-1.3,53.9-3.3,80.7-5.9c6.9-0.7,5.3-8.9-1.7-8.4c-12.3,0.7-23.3,3.8-32.9,9.2
			c-4.3,2.4-0.7,7.3,4.4,7.3c34.8-0.1,69.6-0.4,104.4-1c8-0.1,8.1-8.7,0-8.6c-34.8,0.6-69.6,0.9-104.4,1c1.5,2.5,2.9,4.9,4.4,7.3
			c6.8-3.8,15.3-6.1,24-6.7c-0.6-2.8-1.1-5.6-1.7-8.4c-25.7,2.5-51.5,4.4-77.3,5.6C27.8,16.1,27.7,24.7,35.8,24.3L35.8,24.3z"/>
	</g>
</g>
<rect x="36.5" y="11.5" class="st1" width="153.6" height="16.9"/>
<g class="st2">
	<path d="M36.8,17.5h2.4v-5.6h1.1v5.6H50v1.1h-6c1.1,2.5,3.2,4.2,6.3,5.2c-0.3,0.4-0.6,0.8-0.8,1.1c-3.3-1.2-5.5-3.3-6.6-6.3h-2.5
		v4.9c1-0.4,2.1-0.9,3.3-1.4c0,0.4,0,0.8,0.1,1.2c-1.1,0.4-2.1,0.9-3.1,1.4c-0.4,0.2-0.7,0.4-1,0.7l-0.8-1.1c0.3-0.2,0.5-0.6,0.5-1
		v-4.8h-2.4V17.5z M41.2,15.8c2.3-0.8,4.4-1.9,6.5-3.5l0.7,0.9c-2.1,1.6-4.4,2.8-6.7,3.6C41.6,16.5,41.4,16.2,41.2,15.8z"/>
	<path d="M53.6,19.2c0.6-0.2,1.2-0.4,1.9-0.6v-3.1h-1.7v-1h1.7V12h1v2.5H58v1h-1.5v2.7c0.4-0.1,0.8-0.3,1.2-0.5
		c0,0.4,0.1,0.7,0.1,1.1c-0.4,0.2-0.9,0.3-1.3,0.5v4.3c0,1-0.5,1.5-1.4,1.5c-0.3,0-0.7,0-1.2,0c0-0.4-0.1-0.8-0.2-1.1
		c0.4,0.1,0.8,0.1,1.2,0.1c0.4,0,0.6-0.2,0.6-0.7v-3.7c-0.6,0.2-1.1,0.4-1.7,0.7L53.6,19.2z M57.3,24.3c2.1-0.5,3.6-1.1,4.5-1.8
		c-0.9-0.5-1.9-1-3-1.5c0.4-0.7,0.8-1.4,1.1-2.2h-1.7v-1h2.1c0.3-0.8,0.6-1.5,0.9-2.4l1.1,0.4c-0.3,0.6-0.6,1.3-0.9,2h5.6v1h-1.8
		c-0.3,1.4-0.9,2.6-1.7,3.5c1.2,0.7,2.4,1.3,3.5,2l-0.7,1c-1-0.7-2.2-1.5-3.6-2.2c-1.1,0.9-2.7,1.6-5,2.3
		C57.7,25,57.6,24.7,57.3,24.3z M58.5,13.9h3.8c-0.3-0.5-0.5-1-0.9-1.6l1-0.5c0.4,0.7,0.8,1.3,1,1.7l-0.8,0.4h4.2v2.3h-1.1v-1.3
		h-6.2v1.3h-1.1V13.9z M60.2,20.6c0.8,0.4,1.6,0.8,2.4,1.2c0.8-0.9,1.4-1.9,1.6-3h-3.2C60.8,19.4,60.5,20,60.2,20.6z"/>
	<path d="M71.4,12.4h12.1v12.9h-1v-0.7h-10v0.7h-1V12.4z M82.4,13.4h-10v10.2h10V13.4z M72.9,16.7c1.2-0.9,2.3-2,3.1-3.2l0.9,0.4
		c-0.2,0.3-0.4,0.5-0.5,0.7h4.8v0.8c-0.7,0.8-1.5,1.5-2.6,2.2c1,0.3,2.1,0.6,3.5,0.8c-0.2,0.4-0.4,0.8-0.5,1c-1.6-0.4-3-0.8-4.1-1.3
		c-1.1,0.5-2.6,1-4.4,1.5c-0.1-0.3-0.3-0.6-0.5-0.9c1.6-0.3,2.9-0.7,4-1.1c-0.6-0.4-1.2-1-1.7-1.5c-0.4,0.4-0.9,0.8-1.4,1.2
		C73.4,17.2,73.1,17,72.9,16.7z M73.9,22l0.3-0.9c2.3,0.3,4.5,0.7,6.6,1.1l-0.4,1C78.3,22.7,76.2,22.4,73.9,22z M75.3,20.2l0.3-0.9
		c1.3,0.2,2.7,0.4,4.2,0.7l-0.3,1C78,20.6,76.6,20.4,75.3,20.2z M79.8,15.6h-4.2c0,0,0,0,0,0c0.5,0.7,1.2,1.2,2,1.7
		C78.5,16.8,79.2,16.2,79.8,15.6z"/>
	<path d="M90.2,12.2h1.2v3.7h4.9v-4h1.2v4h3.7v1h-9.8c0,0.6,0,1.4,0,2.4h6.7v6h-1.2v-4.9h-5.6c-0.2,2-0.9,3.6-2.3,5
		c-0.2-0.3-0.5-0.7-0.9-1c0.8-0.9,1.4-1.8,1.7-2.7c0.3-0.8,0.4-2.1,0.4-3.9V12.2z"/>
	<path d="M104.6,18.6c1.2-1.8,2.2-4,2.8-6.6l1,0.3c-0.4,1.2-0.8,2.3-1.2,3.4v9.7h-1v-7.6c-0.4,0.7-0.8,1.4-1.2,2
		C104.9,19.3,104.7,19,104.6,18.6z M109.4,12.6h7.6v5.2h-1v-0.5h-2.3V19h4.5V20h-3.7c0.8,1.4,2.1,2.5,3.8,3.3
		c-0.3,0.4-0.5,0.7-0.7,1c-1.7-1-3-2.4-3.9-4.2v5.3h-1V20c-1.1,2-2.5,3.5-4.1,4.5c-0.2-0.3-0.5-0.5-0.8-0.8c1.6-0.9,2.9-2.1,4-3.7
		h-3.6V19h4.5v-1.8h-2.3v0.6h-1V12.6z M116,13.5h-5.6v2.8h5.6V13.5z"/>
	<path d="M121.8,13.4h3.8c0.2-0.5,0.4-1,0.5-1.6l1.1,0.3c-0.1,0.4-0.3,0.9-0.4,1.3h8.3v1h-8.7c-0.5,1.2-1,2.2-1.6,3.2v7.7h-1.1v-6.1
		c-0.5,0.7-1,1.3-1.6,1.8c-0.2-0.3-0.4-0.6-0.7-1c1.5-1.6,2.7-3.5,3.7-5.7h-3.4V13.4z M125.5,19.6h4.7v-0.9c1-0.6,1.8-1.2,2.5-1.8
		h-6.3v-1h7.9v1.1c-0.9,0.7-1.9,1.5-3,2.2v0.4h4v1h-4v3.1c0,1-0.5,1.6-1.6,1.6c-0.5,0-1.2,0-2,0c0-0.3-0.1-0.7-0.2-1.1
		c0.9,0.1,1.5,0.1,1.9,0.1c0.5,0,0.7-0.2,0.7-0.7v-2.9h-4.7V19.6z"/>
	<path d="M139,19.7h3.2V18h1.1v1.7h3.1v1h-3.1v2.4c1.1-0.1,2.2-0.3,3.3-0.4c0,0.3,0,0.7,0.1,1.1c-2.6,0.3-5.2,0.7-7.8,1.1l-0.3-1.1
		c1.2-0.1,2.4-0.3,3.6-0.4v-2.5H139V19.7z M144.7,14.5c0.7,1.1,1.4,2.2,2.1,3.4c-0.3,0.2-0.7,0.3-1.1,0.5c-0.2-0.3-0.3-0.7-0.5-1
		c-2,0.2-3.8,0.4-5.6,0.6l-0.5-1.1c0.5-0.3,1-0.7,1.4-1.4c0.4-0.5,0.7-1.1,1-1.8H139v-1h7.8v1h-4c-0.7,1.2-1.4,2.2-2.1,3.1
		c1.3-0.1,2.6-0.2,4-0.4c-0.3-0.5-0.6-1-0.9-1.5L144.7,14.5z M147.5,13.3h1.1V22h-1.1V13.3z M150.5,11.9h1.1v11.6
		c0,1.1-0.6,1.7-1.7,1.7c-0.4,0-1,0-2,0c-0.1-0.4-0.1-0.8-0.2-1.2c0.8,0.1,1.4,0.1,1.9,0.1c0.6,0,0.9-0.3,0.9-0.9V11.9z"/>
	<path d="M169.2,21.7c-0.2,0.2-0.5,0.6-0.9,1c-2.2-1.7-4-3.9-5.3-6.5v5.4h3.1v1H163v2.8h-1.1v-2.8h-3.2v-1h3.2v-5.4
		c-1.2,2.3-2.9,4.5-5.3,6.7c-0.4-0.3-0.7-0.6-0.9-0.8c2.6-2.1,4.5-4.4,5.8-6.8h-5.5v-1h5.9v-2.5h1.1v2.5h5.9v1h-5.6
		C164.8,18,166.7,20.2,169.2,21.7z"/>
	<path d="M172.5,22.8c0.7-0.2,1.3-0.4,2-0.6v-5.5h-1.8v-1h1.8V12h1v3.8h1.6v1h-1.6v5.1c0.6-0.2,1.2-0.4,1.8-0.6c0,0.4,0,0.7,0.1,1
		c-1.5,0.5-3,1.1-4.4,1.6L172.5,22.8z M181.1,11.9h1.1v3.5l3.3-1c-0.1,1.8-0.1,3.3-0.2,4.4c-0.1,1.2-0.5,1.9-1.5,1.9
		c-0.4,0-0.8,0-1.2,0c-0.1-0.3-0.1-0.7-0.2-1.1c0.4,0.1,0.8,0.1,1.1,0.1c0.5,0,0.7-0.3,0.7-1c0.1-0.8,0.1-1.8,0.1-2.8l-2.2,0.7v5.9
		h-1.1v-5.6l-2.1,0.6v5.3c0,0.7,0.4,1.1,1.2,1.1h3.3c0.8,0,1.3-0.3,1.4-1c0.1-0.6,0.2-1.3,0.3-2c0.4,0.1,0.7,0.3,1.1,0.4
		c-0.1,0.9-0.3,1.6-0.4,2.1c-0.2,1-0.9,1.6-2.1,1.6H180c-1.3,0-2-0.6-2-1.9v-5.1l-1,0.3l-0.2-1l1.2-0.4v-3.2h1.1v2.9l2.1-0.6V11.9z"
		/>
</g>
</svg>
